<?xml version="1.0" encoding="UTF-8" standalone="no"?>
<svg
   version="1.1"
   width="1053.564006"
   height="359.999856"
   style="clip-rule:evenodd;fill-rule:evenodd;image-rendering:optimizeQuality;shape-rendering:geometricPrecision;text-rendering:geometricPrecision"
   id="svg82"
   sodipodi:docname="Cave Story.svg"
   inkscape:version="1.2.2 (732a01da63, 2022-12-09)"
   xmlns:inkscape="http://www.inkscape.org/namespaces/inkscape"
   xmlns:sodipodi="http://sodipodi.sourceforge.net/DTD/sodipodi-0.dtd"
   xmlns="http://www.w3.org/2000/svg"
   xmlns:svg="http://www.w3.org/2000/svg">
  <defs
     id="defs86" />
  <sodipodi:namedview
     id="namedview84"
     pagecolor="#ffffff"
     bordercolor="#000000"
     borderopacity="0.25"
     inkscape:showpageshadow="2"
     inkscape:pageopacity="0.0"
     inkscape:pagecheckerboard="0"
     inkscape:deskcolor="#d1d1d1"
     showgrid="false"
     inkscape:zoom="0.23150224"
     inkscape:cx="447.07991"
     inkscape:cy="272.1356"
     inkscape:window-width="1053.564006"
     inkscape:window-height="359.999856"
     inkscape:window-x="1912"
     inkscape:window-y="-8"
     inkscape:window-maximized="1"
     inkscape:current-layer="svg82" />
  <g
     id="g258"
     transform="matrix(0.37128713,0,0,0.37128713,-0.31435644,-0.31435644)">
    <g
       id="g4"
       style="fill:#1a1a1a">
      <path
         style="opacity:1;fill:#1a1a1a"
         fill="#f9faf9"
         d="m 1464.5,-0.5 c 11.33,0 22.67,0 34,0 15.53,1.70797 31.2,3.5413 47,5.5 3.09,1.67827 6.09,3.5116 9,5.5 2.4,-1.22213 4.9,-2.22213 7.5,-3 1.73,-0.04631 3.23,0.45369 4.5,1.5 -2.63,2.585 -2.63,5.085 0,7.5 4.09,-2.9607 8.59,-4.9607 13.5,-6 3.18,0.4459 6.34,0.9459 9.5,1.5 1.43,0.4652 2.6,1.2986 3.5,2.5 1.84,33.6473 2.84,67.314 3,101 -0.37,0.916 -0.87,1.75 -1.5,2.5 -5.25,1.088 -10.59,1.588 -16,1.5 -4.58,-0.014 -9.08,-0.347 -13.5,-1 -1.02,-10.001 -2.36,-20.0012 -4,-30 -4.08,-7.8288 -8.41,-15.4955 -13,-23 -0.5,-1.9727 -0.66,-3.9727 -0.5,-6 -1.05,-0.1495 -2.05,0.0172 -3,0.5 -1.23,1.6349 -2.56,3.1349 -4,4.5 -26.18,-13.8586 -53.85,-17.6919 -83,-11.5 -11.64,2.897 -21.47,8.7303 -29.5,17.5 -4.92,9.2369 -4.59,18.2369 1,27 4.6,4.604 9.77,8.438 15.5,11.5 21.81,9.325 43.81,18.158 66,26.5 -2.02,4.451 -0.69,6.618 4,6.5 1.23,-1.635 2.56,-3.135 4,-4.5 21.15,7.09 40.81,16.924 59,29.5 11.86,10.184 21.02,22.351 27.5,36.5 -0.41,2.661 -1.24,5.327 -2.5,8 1.29,3.471 3.13,3.804 5.5,1 10.41,32.378 5.41,62.044 -15,89 -3.87,4.202 -8.03,8.035 -12.5,11.5 -2.47,0.706 -4.8,0.373 -7,-1 -2.52,-2.683 -5.18,-5.183 -8,-7.5 -17.82,34.261 -46.16,52.428 -85,54.5 -12.33,0.667 -24.67,0.667 -37,0 -16.01,-3.169 -32.01,-6.336 -48,-9.5 0.17,-1.322 -0.16,-2.489 -1,-3.5 -2.63,0.253 -5.3,0.253 -8,0 -0.59,-1.509 -1.26,-3.009 -2,-4.5 -2.06,1.769 -3.89,3.769 -5.5,6 -10.6,1.037 -17.93,-3.297 -22,-13 -0.81,-26.182 -1.98,-52.349 -3.5,-78.5 0.2,-10.552 1.03,-21.052 2.5,-31.5 0.5,-0.5 1,-1 1.5,-1.5 9,-0.667 18,-0.667 27,0 1.21,38.43 19.21,65.764 54,82 22.91,9.368 45.24,8.368 67,-3 10.38,-7.581 16.54,-17.748 18.5,-30.5 3.05,-4.256 6.21,-8.423 9.5,-12.5 -1.44,-1.646 -3.11,-1.813 -5,-0.5 -1.7,1.045 -3.2,2.378 -4.5,4 -2.09,-8.69 -6.59,-15.857 -13.5,-21.5 -12.12,-6.587 -24.45,-12.587 -37,-18 -1,-1 -2,-2 -3,-3 -2.68,-0.249 -5.01,-1.249 -7,-3 -7.03,1.77 -12.69,-0.23 -17,-6 -2.73,-0.728 -5.4,-0.562 -8,0.5 -20.06,-6.518 -39.39,-14.685 -58,-24.5 -36.19,-27.233 -47.02,-62.4 -32.5,-105.5 3.16,-6.9878 6.83,-13.6545 11,-20 1.15,-1.2433 2.49,-2.2433 4,-3 4.65,2.5878 9.49,4.4211 14.5,5.5 9.83,-30.5001 30.17,-50.1667 61,-59 8.69,-2.38714 17.36,-4.220477 26,-5.5 z m 40,142 c 5.29,-0.537 7.79,1.797 7.5,7 -2.19,4.372 -5.19,5.039 -9,2 -0.93,-3.323 -0.43,-6.323 1.5,-9 z m -106,189 c 1.7,0.516 3.03,1.516 4,3 -4.64,8.336 -7.14,8.003 -7.5,-1 1.3,-0.585 2.47,-1.251 3.5,-2 z"
         id="path2" />
    </g>
    <g
       id="g8"
       style="fill:#1a1a1a">
      <path
         style="opacity:1;fill:#1a1a1a"
         fill="#f9faf9"
         d="m -0.5,190.5 c 0,-10.333 0,-20.667 0,-31 2.39939,-14.589 6.23273,-28.923 11.5,-43 1.3333,-1.333 2.6667,-2.667 4,-4 2.9702,-6.55 5.6369,-13.2165 8,-20 0.6667,-0.6667 1.3333,-1.3333 2,-2 1.3333,1.3333 2.6667,1.3333 4,0 0.6869,-2.0675 0.5202,-4.0675 -0.5,-6 10.3695,-14.2009 23.3695,-25.3676 39,-33.5 1.6667,-0.6667 3.3333,-0.6667 5,0 3.85,3.5492 7.35,7.3825 10.5,11.5 C 115.013,24.0771 156.18,3.57711 206.5,1 c 27.358,-1.780265 54.358,0.3864 81,6.5 2,2.6667 4.333,5 7,7 3.003,-1.3393 6.003,-2.6726 9,-4 5.71,1.3441 11.377,2.8441 17,4.5 0.906,1.6995 1.239,3.5328 1,5.5 2.751,-0.0281 5.085,-1.0281 7,-3 3.296,1.2653 6.629,2.4319 10,3.5 2.64,0.8965 4.807,2.3965 6.5,4.5 -1.905,36.62 -2.905,73.2866 -3,110 -0.465,1.431 -1.299,2.597 -2.5,3.5 -8.221,1.735 -16.554,2.402 -25,2 -1.581,-0.707 -3.081,-1.54 -4.5,-2.5 -2.007,-6.031 -3.507,-12.198 -4.5,-18.5 1.108,-2.112 2.608,-3.946 4.5,-5.5 0.667,-1 0.667,-2 0,-3 -2.172,-0.433 -4.339,-0.766 -6.5,-1 -2.529,-8.059 -6.362,-15.3919 -11.5,-22 -8.274,-9.28 -17.441,-17.4467 -27.5,-24.5 10.845,-13.4838 9.178,-14.8172 -5,-4 -35.761,-10.4915 -70.427,-7.4915 -104,9 -17.613,8.9465 -30.446,22.4465 -38.5,40.5 -19.356,43.938 -20.356,88.272 -3,133 11.009,22.675 28.176,38.842 51.5,48.5 5.343,2.006 10.677,4.006 16,6 0.634,3.052 0.634,5.886 0,8.5 3.089,-2.539 6.423,-4.539 10,-6 30.109,6.549 59.776,5.049 89,-4.5 6.11,-2.221 11.777,-5.221 17,-9 9.048,-10.713 17.714,-21.713 26,-33 3.834,-2.037 7.501,-1.704 11,1 8.143,7.089 11.976,15.922 11.5,26.5 -3.205,17.027 -6.539,34.027 -10,51 -0.465,1.431 -1.299,2.597 -2.5,3.5 -53.571,29.986 -110.238,37.653 -170,23 -19.187,-5.091 -36.187,-14.091 -51,-27 -6.848,-7.015 -13.8477,-13.848 -21,-20.5 -3.1434,4.311 -6.4767,8.478 -10,12.5 -2,0.667 -4,0.667 -6,0 C 46.0397,308.538 25.2064,286.038 13,255.5 c -2.9627,-7.518 -5.46266,-15.185 -7.5,-23 -0.20143,-7.81 1.79857,-14.977 6,-21.5 -0.8333,-0.833 -1.66667,-1.667 -2.5,-2.5 -2.29201,1.29 -4.29201,2.957 -6,5 -0.33333,-0.333 -0.66667,-0.667 -1,-1 -0.85842,-7.481 -1.691748,-14.814 -2.5,-22 z m 190,115 c 5.419,2.603 5.252,4.937 -0.5,7 -1.5,-0.167 -2.333,-1 -2.5,-2.5 0.815,-1.643 1.815,-3.143 3,-4.5 z"
         id="path6" />
    </g>
    <g
       id="g12"
       style="fill:#1a1a1a">
      <path
         style="opacity:1;fill:#1a1a1a"
         fill="#f9faf9"
         d="m 1707.5,49.5 c 5.66,1.721 11.33,3.5544 17,5.5 1.2,0.9025 2.03,2.0692 2.5,3.5 0.5,18.6637 0.67,37.3304 0.5,56 17,0.167 34,0 51,-0.5 4.04,-0.856 7.71,-2.522 11,-5 3.57,-3.815 6.9,-7.815 10,-12 6.31,-0.9231 12.31,0.0769 18,3 3.13,5.085 6.13,10.251 9,15.5 -9.16,12.811 -19.16,24.977 -30,36.5 -6.31,4.437 -13.31,7.104 -21,8 -15.91,0.175 -31.74,0.675 -47.5,1.5 -0.67,41.333 -0.67,82.667 0,124 -0.47,8.003 2.03,14.836 7.5,20.5 24.65,9.379 45.82,4.212 63.5,-15.5 3.5,-4.167 7,-8.333 10.5,-12.5 1,-0.167 2,-0.333 3,-0.5 7.97,3.069 15.47,7.069 22.5,12 0.67,2 0.67,4 0,6 -9.52,19.845 -23.02,36.345 -40.5,49.5 -24.82,12.849 -50.48,14.849 -77,6 -6.41,-2.62 -12.25,-6.12 -17.5,-10.5 -1.52,2.882 -2.85,5.882 -4,9 -28.69,2.024 -47.02,-10.976 -55,-39 -1.26,-5.622 -2.26,-11.289 -3,-17 -0.43,-44.342 -1.27,-88.675 -2.5,-133 -3.41,1.394 -6.74,1.228 -10,-0.5 -4.68,-4.011 -7.68,-9.011 -9,-15 0.41,-2.321 1.24,-4.487 2.5,-6.5 14.5,-13.833 29,-27.667 43.5,-41.5 1.11,-0.6377 2.28,-1.1377 3.5,-1.5 4.04,1.7751 8.21,3.1084 12.5,4 0.2,-4.0474 -0.14,-8.0474 -1,-12 0.53,-2.7716 1.36,-5.4382 2.5,-8 8.69,-10.5218 17.86,-20.5218 27.5,-30 z"
         id="path10" />
    </g>
    <g
       id="g16"
       style="fill:#1a1a1a">
      <path
         style="opacity:1;fill:#1a1a1a"
         fill="#f9faf9"
         d="m 1970.5,103.5 c 24.37,-1.294 47.04,4.206 68,16.5 1.06,2.791 2.4,5.457 4,8 1.96,0.953 3.62,2.287 5,4 4.49,-0.348 8.15,1.152 11,4.5 1.69,-1.859 3.19,-3.859 4.5,-6 2.68,-4.213 6.18,-5.046 10.5,-2.5 14.05,8.722 26.22,19.555 36.5,32.5 -0.87,3.36 -0.54,6.693 1,10 2,3.333 4,6.667 6,10 1.42,1.922 3.25,3.255 5.5,4 13.64,39.37 9.48,76.703 -12.5,112 -10.94,15.286 -24.61,27.286 -41,36 -0.83,-0.167 -1.67,-0.333 -2.5,-0.5 -2.88,-2.709 -5.54,-5.542 -8,-8.5 -16.12,19.232 -36.79,30.399 -62,33.5 -25.21,4.291 -48.55,-0.376 -70,-14 1.03,-1.507 0.87,-3.007 -0.5,-4.5 -3.36,-4.395 -7.86,-6.228 -13.5,-5.5 -2.55,-2.885 -5.38,-5.385 -8.5,-7.5 -3.73,4.069 -7.73,7.736 -12,11 -33.14,-17.912 -52.81,-45.579 -59,-83 -6.3,-36.177 1.03,-69.177 22,-99 10.41,-12.255 22.91,-21.588 37.5,-28 4.28,2.446 7.78,5.78 10.5,10 18.28,-19.726 40.78,-30.726 67.5,-33 z m 70,34 c 3.93,-0.244 6.26,1.59 7,5.5 -2.26,3.866 -5.09,4.366 -8.5,1.5 -0.83,-2.671 -0.33,-5.004 1.5,-7 z m -70,11 c 11.71,-1.018 23.04,0.482 34,4.5 3.02,1.513 5.69,3.513 8,6 2.18,0.345 4.18,-0.155 6,-1.5 5.81,1.185 7.47,4.518 5,10 2.39,9.671 4.89,19.338 7.5,29 3.24,22.339 3.24,44.672 0,67 -5.51,35.826 -26.34,51.66 -62.5,47.5 -4.55,-0.962 -9.05,-2.129 -13.5,-3.5 -5.96,0.748 -11.46,2.748 -16.5,6 -1,-0.333 -1.67,-1 -2,-2 1.23,-4.707 3.23,-9.04 6,-13 -5.73,-7.792 -9.56,-16.459 -11.5,-26 -5.36,-25.947 -5.69,-51.947 -1,-78 2.43,-11.179 6.76,-21.512 13,-31 7.46,-8.312 16.63,-13.312 27.5,-15 z"
         id="path14" />
    </g>
    <g
       id="g20"
       style="fill:#1a1a1a">
      <path
         style="opacity:1;fill:#1a1a1a"
         fill="#f9faf9"
         d="m 2675.5,125.5 c 0,2 0,4 0,6 -4.28,3.817 -9.28,6.65 -15,8.5 -14.5,9.167 -26.33,21 -35.5,35.5 -25.51,49.022 -50.51,98.355 -75,148 -1.21,1.549 -2.71,2.715 -4.5,3.5 -3.71,0.175 -7.38,0.675 -11,1.5 1.83,3 3.67,6 5.5,9 0.67,2.333 0.67,4.667 0,7 -11.57,22.649 -22.74,45.483 -33.5,68.5 0.17,0.5 0.33,1 0.5,1.5 1.98,-4.456 4.81,-8.29 8.5,-11.5 27,-0.667 54,-0.667 81,0 2.92,4.219 6.76,7.386 11.5,9.5 0.5,7.326 0.67,14.659 0.5,22 -36.33,0 -72.67,0 -109,0 -0.01,1.808 0.49,3.475 1.5,5 7.98,5.279 16.82,7.446 26.5,6.5 9.25,6.074 12.42,14.574 9.5,25.5 -0.5,1.167 -1.33,2 -2.5,2.5 -32.27,7.154 -64.6,13.987 -97,20.5 -3.29,0.221 -5.79,-1.113 -7.5,-4 -4.67,-5.332 -8.34,-11.332 -11,-18 -0.67,-1.667 -0.67,-3.333 0,-5 27.58,-52.825 55.41,-105.492 83.5,-158 -0.35,-1.196 -0.85,-1.196 -1.5,0 -3.55,6.599 -7.71,12.765 -12.5,18.5 -1.5,0.507 -2.66,0.007 -3.5,-1.5 -27.67,-44.667 -55.33,-89.333 -83,-134 -9.02,-15.193 -19.86,-29.027 -32.5,-41.5 -4.57,-3.575 -9.41,-6.742 -14.5,-9.5 -9.57,13.565 -22.4,22.398 -38.5,26.5 2.05,2.593 4.22,5.093 6.5,7.5 0.67,1.333 0.67,2.667 0,4 -4,5.333 -8,10.667 -12,16 -4.43,6.802 -10.6,9.635 -18.5,8.5 -15.44,-5.556 -30.78,-11.389 -46,-17.5 -1.24,0.746 -2.57,1.079 -4,1 -0.45,37.031 0.05,74.031 1.5,111 1.36,13.012 8.19,21.512 20.5,25.5 6.01,1.334 12.01,2.668 18,4 2.45,6.696 2.61,13.529 0.5,20.5 -0.37,0.916 -0.87,1.75 -1.5,2.5 -3.44,0.92 -6.44,2.587 -9,5 -22.35,-0.715 -44.69,-2.049 -67,-4 -1.79,-0.785 -3.29,-1.951 -4.5,-3.5 -0.33,-3 -0.67,-6 -1,-9 -1.45,4.222 -2.95,8.388 -4.5,12.5 -23.91,0.463 -47.74,1.963 -71.5,4.5 -4.2,0.402 -7.2,-1.265 -9,-5 -2.32,-6.832 -2.99,-13.832 -2,-21 6.73,-3.279 13.56,-6.445 20.5,-9.5 11.85,-6.208 17.35,-16.041 16.5,-29.5 0.48,-26.834 0.98,-53.667 1.5,-80.5 0.22,-15.559 -0.61,-31.059 -2.5,-46.5 -0.78,-11.43 -6.28,-19.597 -16.5,-24.5 -6.71,-1.793 -13.21,-3.96 -19.5,-6.5 -3.47,-11.549 0.03,-20.049 10.5,-25.5 22.36,0.149 44.69,1.149 67,3 2.1,4.586 3.43,9.419 4,14.5 0.64,-4.949 1.64,-9.782 3,-14.5 10.39,-0.691 20.72,-1.858 31,-3.5 2.13,0.015 4.13,0.515 6,1.5 5.11,3.759 8.61,8.592 10.5,14.5 4.89,-4.527 10.06,-8.693 15.5,-12.5 9.16,-5.548 18.49,-5.881 28,-1 9.25,4.791 18.58,9.291 28,13.5 1.44,-0.219 2.77,-0.719 4,-1.5 5.33,-5.333 10.67,-10.667 16,-16 21.22,2.233 42.56,4.233 64,6 1.92,0.36 3.59,1.194 5,2.5 2.36,3.199 4.53,6.532 6.5,10 2.09,-3.173 3.92,-6.506 5.5,-10 1.17,-1.084 2.5,-1.917 4,-2.5 22.33,-1.723 44.67,-3.056 67,-4 10.38,6.142 13.38,14.808 9,26 -5.33,2.333 -10.67,4.667 -16,7 -1.71,1.378 -3.05,3.045 -4,5 2.13,6.767 4.96,13.267 8.5,19.5 8.06,12.404 15.73,25.07 23,38 1.09,3.436 1.92,6.936 2.5,10.5 -2.41,6.751 -0.24,9.585 6.5,8.5 1.49,0.817 2.99,1.65 4.5,2.5 2.45,4.115 5.28,7.948 8.5,11.5 0.96,1.699 1.46,3.533 1.5,5.5 -0.83,3.484 -1,6.984 -0.5,10.5 16.29,-31.2 31.62,-62.866 46,-95 1.72,-5.657 0.22,-10.157 -4.5,-13.5 -5.78,-2.888 -11.78,-5.221 -18,-7 -2.56,-0.685 -4.39,-2.185 -5.5,-4.5 -0.72,-5.725 -0.38,-11.391 1,-17 0.79,-2.087 1.96,-3.921 3.5,-5.5 3.88,-1.097 7.88,-1.597 12,-1.5 16.66,1.121 33.33,2.121 50,3 2.06,-0.072 4.06,-0.405 6,-1 2.78,2.724 6.11,4.39 10,5 6.11,-1.106 11.78,-3.273 17,-6.5 7.59,-3.118 14.09,-1.618 19.5,4.5 2.9,3.7 5.07,7.7 6.5,12 z"
         id="path18" />
    </g>
    <g
       id="g24"
       style="fill:#1a1a1a">
      <path
         style="opacity:1;fill:#1a1a1a"
         fill="#f9faf9"
         d="m 485.5,106.5 c 17.066,-0.397 33.4,2.769 49,9.5 3.833,3.167 7.667,6.333 11.5,9.5 0.066,-3.733 0.899,-7.233 2.5,-10.5 37.587,2.255 58.087,22.088 61.5,59.5 0.468,43.67 1.134,87.336 2,131 1.204,9.534 6.371,15.7 15.5,18.5 6.943,1.226 13.776,2.726 20.5,4.5 4.355,16.638 -1.979,25.972 -19,28 -24.152,-1.322 -48.319,-2.322 -72.5,-3 -8.38,0.079 -16.713,0.746 -25,2 -4.674,-0.112 -8.674,-1.778 -12,-5 -29.46,11.395 -56.293,7.062 -80.5,-13 -2,3.333 -4,6.667 -6,10 -1.438,1.218 -3.105,1.885 -5,2 -38.123,-7.782 -58.956,-30.949 -62.5,-69.5 2.986,-28.279 17.653,-47.946 44,-59 4.641,-1.603 9.308,-3.103 14,-4.5 1.758,0.628 3.258,1.628 4.5,3 2.195,3.73 4.862,7.063 8,10 13.587,-13.044 29.754,-21.211 48.5,-24.5 9.875,-0.97 19.709,-1.803 29.5,-2.5 1.353,-13.287 0.02,-26.287 -4,-39 -2.743,-5.081 -6.91,-8.247 -12.5,-9.5 -34.325,-4.895 -62.991,5.438 -86,31 -4.21,1.02 -7.877,0.02 -11,-3 -7.08,-5.567 -12.414,-12.401 -16,-20.5 7.805,-16.305 19.805,-28.472 36,-36.5 20.421,-11.018 42.088,-17.184 65,-18.5 z m 18,140 c 3.606,-0.289 7.106,0.044 10.5,1 0.667,20 0.667,40 0,60 -7.164,4.585 -14.998,6.085 -23.5,4.5 -17.01,-6.167 -24.177,-18.333 -21.5,-36.5 5.355,-17.08 16.855,-26.746 34.5,-29 z"
         id="path22" />
    </g>
    <g
       id="g28"
       style="fill:#1a1a1a">
      <path
         style="opacity:1;fill:#1a1a1a"
         fill="#f9faf9"
         d="m 839.5,106.5 c 12.814,1.442 25.647,2.776 38.5,4 22.157,-1.396 44.324,-2.229 66.5,-2.5 9.515,6.546 12.182,15.212 8,26 -14.185,3.542 -25.685,11.042 -34.5,22.5 -31.795,51.143 -62.795,102.809 -93,155 -1.167,1.167 -2.333,2.333 -3.5,3.5 -3.711,0.175 -7.378,0.675 -11,1.5 0.914,2.164 2.081,4.164 3.5,6 0.667,2.333 0.667,4.667 0,7 -4.874,9.253 -10.374,18.087 -16.5,26.5 -5.782,2.343 -11.282,1.843 -16.5,-1.5 -34.333,-54.667 -68.667,-109.333 -103,-164 -10.348,-16.018 -21.848,-31.185 -34.5,-45.5 -3.507,-2.254 -7.173,-4.254 -11,-6 -5.786,-1.214 -11.286,-3.048 -16.5,-5.5 -3.93,-12.267 -0.096,-20.767 11.5,-25.5 16.678,0.045 33.344,0.711 50,2 2.534,0.516 4.7,1.683 6.5,3.5 1.346,3.37 3.179,6.37 5.5,9 1.853,-3.548 3.519,-7.215 5,-11 0.525,-0.692 1.192,-1.192 2,-1.5 23.016,-0.648 46.016,-1.315 69,-2 11.835,7.797 13.835,17.464 6,29 -5.637,1.488 -10.97,3.655 -16,6.5 -1.044,2.268 -1.211,4.601 -0.5,7 18.097,30.541 36.93,60.541 56.5,90 12.737,-21.134 25.237,-42.467 37.5,-64 5.215,-8.301 7.548,-17.301 7,-27 -1.458,-2.46 -3.291,-4.627 -5.5,-6.5 -7.432,-3.697 -14.932,-7.197 -22.5,-10.5 -2.926,-11.805 0.908,-20.472 11.5,-26 z"
         id="path26" />
    </g>
    <g
       id="g32"
       style="fill:#1a1a1a">
      <path
         style="opacity:1;fill:#1a1a1a"
         fill="#f9faf9"
         d="m 1072.5,106.5 c 30.48,-1.179 56.81,8.488 79,29 2.63,-4.431 5.63,-8.598 9,-12.5 4.36,-0.334 8.36,0.833 12,3.5 2.85,3.02 5.52,6.187 8,9.5 3.57,1.618 7.23,2.951 11,4 23.24,22.305 35.07,49.472 35.5,81.5 -2.32,4.317 -5.82,7.15 -10.5,8.5 -12,0.667 -24,0.667 -36,0 -1.55,-1.214 -2.72,-2.714 -3.5,-4.5 -0.8,-3.393 -1.8,-6.726 -3,-10 0.95,6.375 -1.21,11.208 -6.5,14.5 -45.57,0.169 -91.07,0.669 -136.5,1.5 -0.69,16.546 1.98,32.546 8,48 0.33,3 0.67,6 1,9 4.27,2.551 8.77,4.718 13.5,6.5 8.35,8.176 18.35,13.176 30,15 40.51,5.323 71.68,-9.177 93.5,-43.5 1.81,-4.418 3.81,-8.751 6,-13 1.91,-1.687 4.08,-2.187 6.5,-1.5 8.28,3.473 16.28,7.473 24,12 3.09,2.016 4.76,4.849 5,8.5 -4.3,14.937 -11.47,28.27 -21.5,40 -33.34,38.069 -75.18,53.236 -125.5,45.5 -26.92,-3.869 -48.75,-16.369 -65.5,-37.5 -3.02,3.524 -5.86,7.191 -8.5,11 -2.268,1.044 -4.601,1.211 -7,0.5 -5.831,-3.081 -11.498,-6.415 -17,-10 -1.393,-3.399 -2.56,-6.899 -3.5,-10.5 -1.255,-2.353 -2.922,-3.02 -5,-2 -5.718,-2.352 -10.718,-5.685 -15,-10 -15.722,-22.889 -22.056,-48.223 -19,-76 3.644,-36.455 18.811,-66.955 45.5,-91.5 2.53,-1.422 5.197,-1.755 8,-1 5.5,4.833 11,9.667 16.5,14.5 17.74,-24.119 41.57,-37.119 71.5,-39 z m 4,43 c 14.36,0.174 28.02,3.34 41,9.5 1.46,2.266 2.29,4.766 2.5,7.5 4.39,4.446 6.89,9.779 7.5,16 -28,0 -56,0 -84,0 4.7,-17.366 15.7,-28.366 33,-33 z"
         id="path30" />
    </g>
    <g
       id="g36"
       style="fill:#1a1a1a">
      <path
         style="opacity:1;fill:#1a1a1a"
         fill="#f9faf9"
         d="m 91.5,402.5 c 57,0 114,0 171,0 -0.163,2.357 0.003,4.69 0.5,7 0.414,0.457 0.914,0.791 1.5,1 2.817,-2.317 5.484,-4.817 8,-7.5 70.336,-0.833 140.669,-0.667 211,0.5 -2,4 -4,8 -6,12 0.333,1 1,1.667 2,2 3.749,-5.255 8.082,-10.088 13,-14.5 131.668,-0.833 263.335,-0.667 395,0.5 -1.63,2.776 -2.297,5.776 -2,9 5.085,-1.069 8.752,-4.069 11,-9 69.998,-1.167 140,-1.333 210,-0.5 -3.29,3.705 -4.29,7.872 -3,12.5 4.3,-3.105 6.97,-7.271 8,-12.5 58.67,-0.667 117.33,-0.667 176,0 18.23,3.562 36.57,4.229 55,2 2.87,-0.118 5.54,-0.784 8,-2 165.33,-0.667 330.67,-0.667 496,0 -9,10.333 -18,20.667 -27,31 -33.33,0.5 -66.67,0.667 -100,0.5 -0.64,-3.854 -2.97,-6.187 -7,-7 -3.35,1.677 -6.35,3.843 -9,6.5 -71.67,0.667 -143.33,0.667 -215,0 -7.77,-3.036 -15.94,-4.203 -24.5,-3.5 -10.06,-0.6 -19.9,0.567 -29.5,3.5 -184,0.667 -368,0.667 -552,0 1.218,-1.438 1.885,-3.105 2,-5 -0.359,-2.698 -0.526,-5.532 -0.5,-8.5 -4.524,3.862 -8.358,8.362 -11.5,13.5 -158.333,0.5 -316.666,0.667 -475,0.5 0.244,-3.927 -1.59,-6.26 -5.5,-7 -3.253,2.043 -6.42,4.21 -9.5,6.5 -100.999,0.5 -201.999,0.667 -303,0.5 -0.1663,-7.341 3e-4,-14.674 0.5,-22 5.016,-2.074 8.8493,-5.407 11.5,-10 z"
         id="path34" />
    </g>
    <g
       id="g40"
       style="fill:#1a1a1a">
      <path
         style="opacity:1;fill:#1a1a1a"
         fill="#f9faf9"
         d="m 1869.5,402.5 c 27,-0.167 54,0 81,0.5 2.14,1.308 4.14,2.808 6,4.5 1.67,-1 3,-2.333 4,-4 75,-1.167 150,-1.333 225,-0.5 -2.46,4.426 -5.3,8.593 -8.5,12.5 -0.67,1.333 -0.67,2.667 0,4 5.51,-5.172 10.67,-10.672 15.5,-16.5 61,-0.667 122,-0.667 183,0 -2.78,2.603 -4.44,5.77 -5,9.5 6.01,-1.845 11.34,-5.012 16,-9.5 18.01,-0.833 36.01,-0.666 54,0.5 -5.46,10.088 -10.79,20.254 -16,30.5 -25.01,0.833 -50.01,0.666 -75,-0.5 1.08,-2.229 1.74,-4.563 2,-7 -3.97,1.449 -7.31,3.949 -10,7.5 -57,0.667 -114,0.667 -171,0 0.53,-5.819 -0.81,-5.986 -4,-0.5 -53,1.333 -106,1.333 -159,0 -3.7,-5.197 -7.37,-5.031 -11,0.5 -47,0.667 -94,0.667 -141,0 0.76,-1.441 1.43,-2.941 2,-4.5 -0.39,-1.22 -1.22,-1.887 -2.5,-2 -3.43,1.761 -6.6,3.928 -9.5,6.5 -6.33,0.667 -12.67,0.667 -19,0 3.3,-4.3 6.96,-8.3 11,-12 11.2,-5.759 21.86,-12.259 32,-19.5 z"
         id="path38" />
    </g>
    <g
       id="g44"
       style="fill:#1a1a1a">
      <path
         style="opacity:1;fill:#1a1a1a"
         fill="#f9faf9"
         d="m 619.5,465.5 c 7.37,1.174 13.703,4.34 19,9.5 4.167,4.833 8.333,9.667 12.5,14.5 5.933,8.88 12.1,17.547 18.5,26 0.333,-1.167 0.667,-2.333 1,-3.5 -1.198,-5.566 -2.031,-11.066 -2.5,-16.5 2.114,-4.448 5.281,-7.948 9.5,-10.5 71.55,-0.029 143.05,-1.196 214.5,-3.5 1.944,0.939 3.611,2.273 5,4 2.15,21.48 3.817,43.146 5,65 0.44,54.677 1.44,109.344 3,164 0.355,19.72 1.521,39.387 3.5,59 -1.635,12.47 -8.635,19.97 -21,22.5 -19.133,0.926 -38.133,3.093 -57,6.5 -5.225,-1.436 -10.558,-2.602 -16,-3.5 -3.34,-2.672 -5.174,-6.172 -5.5,-10.5 -0.811,-7.556 -1.645,-15.056 -2.5,-22.5 2.687,-3.683 5.687,-7.017 9,-10 10.153,-1.253 19.986,-0.086 29.5,3.5 4.604,-0.805 8.271,-3.139 11,-7 -0.326,-72.042 -0.993,-144.042 -2,-216 -3.167,-2.034 -6.501,-2.367 -10,-1 -8.444,-1.282 -16.944,-2.115 -25.5,-2.5 -34.659,-1.066 -69.326,-1.566 -104,-1.5 -1.495,3.704 -2.829,7.538 -4,11.5 2.004,72.483 3.671,144.983 5,217.5 0.117,6.095 -0.549,12.095 -2,18 0.441,1.645 0.774,3.311 1,5 -1.34,3.872 -2.174,7.872 -2.5,12 -2.708,4.934 -6.708,6.268 -12,4 -2.815,2.996 -6.315,4.329 -10.5,4 -5.861,-0.309 -11.527,-1.476 -17,-3.5 -0.833,-0.833 -1.667,-1.667 -2.5,-2.5 0.299,-85.342 0.965,-170.675 2,-256 -4.417,7.426 -10.917,10.926 -19.5,10.5 -11.955,-8.953 -23.622,-18.287 -35,-28 -4.577,-3.54 -9.41,-6.706 -14.5,-9.5 -1.222,-3.393 -3.389,-6.06 -6.5,-8 -1.245,-4.326 -2.912,-8.492 -5,-12.5 0.362,-1.225 0.862,-2.391 1.5,-3.5 5.333,-4.667 10.667,-9.333 16,-14 1.908,-2.706 2.741,-5.706 2.5,-9 2.873,-0.302 5.539,-0.969 8,-2 z m 144,178 c 12.939,-1.502 25.939,-1.002 39,1.5 0.819,8.755 1.319,17.589 1.5,26.5 0.374,0.916 0.874,1.75 1.5,2.5 -11.747,3.468 -23.747,5.135 -36,5 -1.905,-11.945 -3.905,-23.778 -6,-35.5 z"
         id="path42" />
    </g>
    <g
       id="g48"
       style="fill:#1a1a1a">
      <path
         style="opacity:1;fill:#1a1a1a"
         fill="#f9faf9"
         d="m 1713.5,465.5 c 7.81,-1.119 14.81,0.715 21,5.5 2.63,3.632 5.63,6.965 9,10 -1.95,1.734 -2.95,3.901 -3,6.5 3.22,-0.081 6.22,-0.581 9,-1.5 8.29,7.337 9.79,15.837 4.5,25.5 -6.35,6.181 -12.51,12.514 -18.5,19 15,0.865 30,1.032 45,0.5 2.97,1.484 5.97,2.984 9,4.5 0.65,4.734 1.98,9.234 4,13.5 0.33,0.167 0.67,0.333 1,0.5 0.93,-1.189 1.26,-2.522 1,-4 6.34,-0.502 12.17,-2.502 17.5,-6 2.79,2.146 5.96,3.313 9.5,3.5 5.67,0.667 11.33,0.667 17,0 1.41,-4.536 1.24,-9.036 -0.5,-13.5 -1.07,-0.691 -2.23,-1.191 -3.5,-1.5 -12.55,-0.744 -25.05,-0.244 -37.5,1.5 -2.98,0.419 -5.31,-0.581 -7,-3 -1.56,-2.457 -2.56,-5.124 -3,-8 -0.95,-7.541 -2.12,-15.041 -3.5,-22.5 6.74,-8.838 15.74,-12.505 27,-11 22.33,-0.667 44.67,-0.667 67,0 3.5,0.5 7,1 10.5,1.5 11.51,-0.813 23.01,-1.813 34.5,-3 1.33,0.333 2.67,0.667 4,1 1,2.01 2,4.01 3,6 3.66,-2.5 7.16,-5.167 10.5,-8 7.08,1.471 14.25,2.304 21.5,2.5 3.6,1.309 7.1,2.809 10.5,4.5 3.5,11.785 3.17,23.451 -1,35 -4.85,4.178 -10.01,4.678 -15.5,1.5 -15.33,-0.333 -30.67,-0.667 -46,-1 -5.74,-0.434 -11.41,-1.267 -17,-2.5 -1.22,7.309 -2.22,14.643 -3,22 2.53,0.511 5.03,1.178 7.5,2 16.13,-2.492 32.29,-2.658 48.5,-0.5 1.43,0.465 2.6,1.299 3.5,2.5 3.38,22.216 3.88,44.55 1.5,67 8.71,-0.208 17.37,-0.875 26,-2 3.08,0.3 5.58,1.633 7.5,4 4.55,9.979 5.55,20.312 3,31 -1.49,1.504 -3.32,2.337 -5.5,2.5 -1.23,2.14 -2.89,3.807 -5,5 -43.99,-2.045 -87.99,-1.878 -132,0.5 -7.98,-2.187 -16.15,-3.52 -24.5,-4 -11.22,1.454 -22.38,2.954 -33.5,4.5 0.11,4.049 -1.89,7.049 -6,9 -18.03,0.368 -35.86,-1.132 -53.5,-4.5 -17.36,3.441 -34.86,5.941 -52.5,7.5 -1.79,-0.785 -3.29,-1.951 -4.5,-3.5 -3.19,-8.744 -4.19,-17.744 -3,-27 6.07,-10.365 15.07,-14.365 27,-12 19.12,0.45 38.12,1.784 57,4 5.92,-0.918 11.75,-2.251 17.5,-4 0.59,0.209 1.09,0.543 1.5,1 2.77,-2.01 3.61,-4.51 2.5,-7.5 -3.84,-0.761 -7.5,-0.261 -11,1.5 -23.61,-3.551 -47.28,-3.884 -71,-1 -7.67,-1.582 -15,-4.082 -22,-7.5 -0.52,-0.561 -0.86,-1.228 -1,-2 2.18,-7.749 2.52,-15.582 1,-23.5 0.35,-2.197 1.35,-4.03 3,-5.5 3.61,-1.047 7.28,-1.88 11,-2.5 14.5,1.346 29,2.679 43.5,4 16.11,-2.222 32.27,-3.388 48.5,-3.5 2.46,1.458 4.63,3.291 6.5,5.5 0.69,2.068 0.52,4.068 -0.5,6 1.77,6.137 3.43,12.304 5,18.5 -1.53,2.117 -3.53,3.784 -6,5 4.59,0.535 9.09,0.035 13.5,-1.5 8.75,1.949 17.58,2.782 26.5,2.5 0.69,-1.067 1.19,-2.234 1.5,-3.5 1.29,-9.621 1.79,-19.288 1.5,-29 -5.73,-0.288 -11.4,0.046 -17,1 -3.93,-0.587 -7.6,-1.92 -11,-4 -1.98,-4.048 -3.15,-8.382 -3.5,-13 -1.86,2.173 -4.03,2.507 -6.5,1 -3,2 -6,4 -9,6 -15.46,-1.34 -30.96,-2.006 -46.5,-2 -11.44,-0.184 -22.78,0.482 -34,2 -1.05,-1.59 -2.21,-3.09 -3.5,-4.5 -7.09,0.691 -14.26,1.525 -21.5,2.5 -3.01,-2.441 -6.51,-3.607 -10.5,-3.5 -3.52,-3.21 -5.52,-7.21 -6,-12 0.1,-8.278 1.93,-16.111 5.5,-23.5 1.8,-1.817 3.97,-2.984 6.5,-3.5 14,0.06 28,0.06 42,0 -1.33,-1.333 -2.67,-2.667 -4,-4 1.74,-1.62 3.57,-3.12 5.5,-4.5 0.49,-1.293 0.66,-2.627 0.5,-4 -3.21,0.94 -6.21,2.44 -9,4.5 -1,0.667 -2,0.667 -3,0 -4.78,-3.478 -9.28,-7.311 -13.5,-11.5 -3.33,-6.667 -3.33,-13.333 0,-20 4.87,-5.2 10.03,-10.033 15.5,-14.5 2.45,-0.29 4.79,-0.956 7,-2 1.74,-3.16 3.74,-5.993 6,-8.5 z m 164,116 c 8.67,-0.166 17.34,0 26,0.5 1.37,0.402 2.71,0.902 4,1.5 5.82,10.29 6.48,20.956 2,32 -12.63,0.31 -25.3,0.31 -38,0 1.35,-11.488 3.35,-22.821 6,-34 z"
         id="path46" />
    </g>
    <g
       id="g52"
       style="fill:#1a1a1a">
      <path
         style="opacity:1;fill:#1a1a1a"
         fill="#f9faf9"
         d="m 1034.5,807.5 c -1.67,0 -3.33,0 -5,0 -0.41,-1.143 -1.07,-2.143 -2,-3 -1.44,0.804 -2.94,1.471 -4.5,2 -4.91,-0.535 -9.74,-1.369 -14.5,-2.5 -1.95,-3.319 -3.61,-6.819 -5,-10.5 1.74,-4.855 2.9,-9.855 3.5,-15 0.33,-14 0.67,-28 1,-42 0.37,-0.916 0.87,-1.75 1.5,-2.5 2.86,-0.93 5.19,-2.597 7,-5 8.37,-0.623 16.7,-0.29 25,1 4.04,3.332 5.37,7.498 4,12.5 3.29,3.687 4.62,7.854 4,12.5 1.17,1.084 2.5,1.917 4,2.5 4.74,-2.219 9.74,-3.386 15,-3.5 10.91,-0.179 21.74,-0.679 32.5,-1.5 0.41,0.457 0.91,0.791 1.5,1 1.54,-3.63 2.21,-7.463 2,-11.5 0.54,-5.616 -0.62,-10.783 -3.5,-15.5 -11.41,0.059 -22.91,0.226 -34.5,0.5 -2.59,0.226 -5.09,0.726 -7.5,1.5 -8.1,-1.305 -16.1,-2.972 -24,-5 -4.25,2.754 -8.42,2.587 -12.5,-0.5 -1.43,-2.185 -3.1,-4.185 -5,-6 1.55,-1.214 2.72,-2.714 3.5,-4.5 0.77,-4.326 0.27,-8.493 -1.5,-12.5 2.04,-7.785 3.87,-15.618 5.5,-23.5 2.19,-2.681 5.03,-4.181 8.5,-4.5 7,-0.667 14,-0.667 21,0 1.58,0.707 3.08,1.54 4.5,2.5 0.77,4.058 0.6,8.058 -0.5,12 4.49,2.332 9.32,3.332 14.5,3 10.61,-0.214 20.95,-1.881 31,-5 0.81,-4.26 2.31,-8.26 4.5,-12 -0.67,-1.333 -1.33,-2.667 -2,-4 0.75,-1.236 1.08,-2.57 1,-4 -30.7,1.183 -61.37,2.85 -92,5 -0.16,3.028 0.51,5.861 2,8.5 -6.64,27.405 -14.14,54.571 -22.5,81.5 -6.577,14.552 -14.744,28.052 -24.5,40.5 2.297,1.16 1.964,2.16 -1,3 -2.811,0.629 -5.644,1.129 -8.5,1.5 -2.881,-0.528 -5.715,-1.194 -8.5,-2 -0.896,-6.731 -4.729,-10.731 -11.5,-12 -2.912,-6.724 -4.245,-13.724 -4,-21 11.837,-6.513 20.17,-16.18 25,-29 7.101,-18.9 11.268,-38.4 12.5,-58.5 -0.309,-22.822 -0.476,-45.655 -0.5,-68.5 -0.313,-6.945 -1.146,-13.779 -2.5,-20.5 3.556,-2.055 6.223,-4.888 8,-8.5 -0.431,-2.266 -1.764,-3.766 -4,-4.5 -4.717,-0.977 -9.384,-2.143 -14,-3.5 -5.63,2.274 -10.13,0.94 -13.5,-4 -0.219,-18.347 -0.719,-36.681 -1.5,-55 1.078,-6.734 3.244,-13.067 6.5,-19 1.085,-0.793 2.252,-1.46 3.5,-2 3.564,1.179 7.23,1.846 11,2 28.835,-0.881 57.67,-1.881 86.5,-3 3.7,-0.191 7.2,0.476 10.5,2 1.63,-5.332 2.63,-10.832 3,-16.5 -0.73,-2.248 -1.73,-4.415 -3,-6.5 0.75,-2.253 2.09,-4.087 4,-5.5 4.75,1.37 9.75,2.203 15,2.5 17.66,-1.117 35.33,-2.117 53,-3 4.05,0.032 8.05,0.365 12,1 0.79,1.965 1.46,3.965 2,6 -1.26,3.645 -1.26,7.311 0,11 -0.54,2.708 -1.21,5.374 -2,8 0.48,0.978 1.14,1.811 2,2.5 4.01,1.339 7.68,3.172 11,5.5 21.7,-2.516 43.37,-2.516 65,0 9.42,-4.576 19.09,-5.41 29,-2.5 1.61,2.609 3.94,3.942 7,4 1.69,2.575 2.69,5.408 3,8.5 -2.18,18.47 -2.84,36.97 -2,55.5 -2.86,7.194 -8.03,12.028 -15.5,14.5 -6.11,-1.955 -12.27,-3.788 -18.5,-5.5 -4.35,-2.346 -7.19,-5.846 -8.5,-10.5 -3.5,7.5 -9,13 -16.5,16.5 6.63,-0.495 13.29,-0.495 20,0 3.86,1.181 7.36,3.014 10.5,5.5 0.63,3.084 -0.2,5.75 -2.5,8 0.69,1.944 1.19,3.944 1.5,6 0.99,16.557 0.49,33.057 -1.5,49.5 0.6,3.798 1.6,7.465 3,11 -2.71,2.777 -5.88,4.944 -9.5,6.5 -25.78,-2.05 -51.61,-2.883 -77.5,-2.5 -1.18,6.922 -2.85,13.755 -5,20.5 15.07,1.498 30.07,0.998 45,-1.5 4.8,0.175 6.47,-1.825 5,-6 0.58,-4.559 3.25,-6.892 8,-7 10.46,-1.076 20.63,0.091 30.5,3.5 1.36,-0.88 2.86,-1.214 4.5,-1 -0.45,7.136 0.22,14.136 2,21 -2.94,5.771 -2.6,11.271 1,16.5 -2.14,4.639 -5.47,8.139 -10,10.5 -0.95,-0.487 -1.95,-0.82 -3,-1 -13.78,4.092 -27.78,5.092 -42,3 -12.03,0.349 -24.03,1.182 -36,2.5 -1.17,0.5 -2,1.333 -2.5,2.5 -1.86,7.906 -1.7,15.739 0.5,23.5 17.68,0.268 35.34,0.768 53,1.5 2.59,-0.027 5.09,-0.361 7.5,-1 1.54,-6.032 3.21,-12.032 5,-18 2.25,-1.877 4.75,-3.377 7.5,-4.5 7.65,0.331 15.32,0.998 23,2 4.88,1.35 6.21,4.35 4,9 0.67,1.667 1.33,3.333 2,5 -0.94,3.782 -1.6,7.615 -2,11.5 0.92,10.174 1.92,20.341 3,30.5 -0.95,3.797 -0.62,7.63 1,11.5 -1.31,3.661 -3.97,5.328 -8,5 -6.51,-0.591 -13.01,-1.257 -19.5,-2 -3.21,0.507 -6.38,1.174 -9.5,2 -1.25,-0.54 -2.41,-1.207 -3.5,-2 -0.89,-3.187 -1.72,-6.353 -2.5,-9.5 -8.99,-0.799 -17.99,-1.466 -27,-2 -45,-1.296 -90,-1.796 -135,-1.5 0.41,3.053 1.08,6.053 2,9 -4.04,3.181 -8.37,5.515 -13,7 z m -35,-274 c 12.98,2.569 25.98,4.736 39,6.5 -10.26,9.298 -22.26,15.131 -36,17.5 -1.49,-0.209 -2.661,-0.876 -3.5,-2 -0.197,-4.586 -0.697,-9.086 -1.5,-13.5 1.491,-2.621 2.158,-5.455 2,-8.5 z m 91,3 c 5.34,-0.489 10.01,1.011 14,4.5 -0.99,6.748 -1.66,13.581 -2,20.5 -0.12,12.048 5.88,18.548 18,19.5 -26.94,3.186 -53.94,5.186 -81,6 22.16,-11.662 39.16,-28.495 51,-50.5 z m 57,0 c 12.44,-0.51 24.77,0.324 37,2.5 1.72,0.775 2.72,2.108 3,4 -0.53,2.862 -1.19,5.696 -2,8.5 -0.67,0.333 -1.33,0.667 -2,1 -11,-0.599 -22,-1.433 -33,-2.5 -5.15,-3.573 -6.15,-8.073 -3,-13.5 z m 22,84 c 6.67,0 13.33,0 20,0 3.14,7.341 0.8,11.508 -7,12.5 -21.49,-0.017 -42.99,-0.183 -64.5,-0.5 -26.7,-0.067 -53.36,0.599 -80,2 -3.5,-0.943 -6.83,-2.276 -10,-4 -0.5,-2.31 -0.66,-4.643 -0.5,-7 47.47,-1.502 94.8,-2.502 142,-3 z"
         id="path50" />
    </g>
    <g
       id="g56"
       style="fill:#1a1a1a">
      <path
         style="opacity:1;fill:#1a1a1a"
         fill="#f9faf9"
         d="m 1378.5,471.5 c 6.41,0.686 12.75,1.853 19,3.5 1.99,1.319 3.15,3.152 3.5,5.5 0.14,20.374 -0.69,40.707 -2.5,61 0.28,2.109 1.44,3.442 3.5,4 7.8,-1.696 15.63,-2.862 23.5,-3.5 3.75,1.987 5.58,5.154 5.5,9.5 14.12,-19.01 22.79,-40.343 26,-64 1.84,-8.677 7.01,-13.677 15.5,-15 5.45,1.947 11.11,3.447 17,4.5 4.89,1.516 8.72,4.35 11.5,8.5 -2.55,12.975 -6.71,25.475 -12.5,37.5 0.56,2.727 1.23,5.393 2,8 40.31,-1.355 80.64,-2.021 121,-2 5.88,1.343 9.72,4.843 11.5,10.5 -1.52,33.342 -3.52,66.675 -6,100 -0.33,34.333 -0.67,68.667 -1,103 -1.03,12.492 -3.03,24.825 -6,37 -12.53,9.349 -26.37,16.183 -41.5,20.5 -11.39,0.845 -22.73,0.345 -34,-1.5 -12.86,2.212 -24.03,-1.122 -33.5,-10 -0.87,-1.373 -1.37,-2.873 -1.5,-4.5 0.96,-3.471 1.12,-6.971 0.5,-10.5 -1.33,-1.333 -2.67,-2.667 -4,-4 -0.89,-4.97 -1.55,-9.97 -2,-15 -0.31,-0.808 -0.81,-1.475 -1.5,-2 -17.32,15.482 -34.48,31.149 -51.5,47 -6.74,0.056 -12.91,-1.777 -18.5,-5.5 -3.83,-5.167 -8.33,-9.667 -13.5,-13.5 -4.96,-8.476 -3.29,-15.476 5,-21 0.2,-1.756 0.7,-3.422 1.5,-5 54.26,-34.451 92.1,-82.118 113.5,-143 3.08,-10.06 6.24,-20.06 9.5,-30 -3.91,0.958 -7.75,1.291 -11.5,1 -11.14,24.292 -23.81,47.625 -38,70 -4,4 -8,8 -12,12 -11.62,15.552 -23.95,30.552 -37,45 -1.13,-1.711 -2.63,-2.211 -4.5,-1.5 -1.85,2.04 -3.19,4.373 -4,7 -6.62,1.089 -12.95,0.255 -19,-2.5 -3.83,-5.667 -7.67,-11.333 -11.5,-17 -0.14,-4.395 0.36,-8.729 1.5,-13 -1,0 -2,0 -3,0 -3.97,28.49 -3.97,56.99 0,85.5 -1.69,11.208 -2.52,22.374 -2.5,33.5 -0.83,2.167 -2.33,3.667 -4.5,4.5 -13.17,1.087 -26.17,0.087 -39,-3 -3.27,-2.536 -4.6,-5.869 -4,-10 1.88,-14.449 3.22,-28.949 4,-43.5 -0.45,-6.696 -1.11,-13.363 -2,-20 1.7,-9.467 2.03,-18.967 1,-28.5 -0.2,-2.352 0.47,-4.352 2,-6 -1.67,-0.667 -3.33,-0.667 -5,0 -7.36,4.678 -15.36,7.678 -24,9 -2.7,0.765 -5.2,1.932 -7.5,3.5 -4.58,-1.481 -9.08,-3.148 -13.5,-5 -3.88,-7.962 -6.54,-16.295 -8,-25 -0.37,-5.416 1.63,-9.582 6,-12.5 16.1,-6.36 32.77,-10.86 50,-13.5 2.4,-22.991 3.4,-45.991 3,-69 -4.53,0.64 -9.03,1.306 -13.5,2 -0.96,8.678 -1.96,17.344 -3,26 -3.16,7.829 -6.49,15.496 -10,23 -5.4,2.825 -10.4,2.158 -15,-2 -12.56,0.299 -22.4,-4.868 -29.5,-15.5 6.08,-12.252 10.58,-25.085 13.5,-38.5 0.67,-22.971 -0.83,-45.805 -4.5,-68.5 0.81,-4.15 3.15,-7.15 7,-9 5.16,-1.916 10.5,-3.083 16,-3.5 10.34,1.335 20.68,2.668 31,4 1.46,13.005 0.46,25.839 -3,38.5 3.22,2.531 6.72,4.698 10.5,6.5 0,-18.208 0.5,-36.542 1.5,-55 -1.95,-2.48 -3.29,-5.313 -4,-8.5 1.43,-6.871 5.43,-9.371 12,-7.5 4.79,-1.009 9.46,-2.009 14,-3 z m 31,109 c 0.79,0.283 1.46,0.783 2,1.5 -1.83,4.5 -5,7.667 -9.5,9.5 -0.49,7.396 0.01,14.729 1.5,22 3.45,0.314 6.78,1.148 10,2.5 6.75,5.272 14.42,7.605 23,7 12.24,-12.67 23.41,-26.17 33.5,-40.5 4.34,1.878 8.68,2.878 13,3 0.67,2 0.67,4 0,6 -13.77,22.538 -28.77,44.205 -45,65 -3.85,-5.982 -4.02,-11.982 -0.5,-18 -1.29,-3.08 -2.96,-5.914 -5,-8.5 -5.98,-2.601 -11.98,-5.101 -18,-7.5 -4.03,3.355 -8.37,6.355 -13,9 -1.46,-16.65 -2.79,-33.316 -4,-50 2.57,-0.156 5.07,0.178 7.5,1 1.73,-0.399 3.23,-1.066 4.5,-2 z m 163,18 c 1.75,10.796 3.09,21.796 4,33 -1.39,25.034 -3.22,50.034 -5.5,75 -0.79,12.989 -4.29,25.156 -10.5,36.5 -3.78,1.827 -7.78,2.827 -12,3 -15.39,0.93 -30.73,0.43 -46,-1.5 -0.94,0.108 -1.78,0.441 -2.5,1 -0.67,-0.667 -0.67,-1.333 0,-2 35.8,-42.27 59.97,-90.603 72.5,-145 z"
         id="path54" />
    </g>
    <g
       id="g60"
       style="fill:#1a1a1a">
      <path
         style="opacity:1;fill:#1a1a1a"
         fill="#f9faf9"
         d="m 734.5,537.5 c 32.654,2.146 65.321,3.979 98,5.5 4.416,3.324 6.916,7.824 7.5,13.5 2.719,10.1 1.719,19.766 -3,29 -1.579,1.541 -3.413,2.708 -5.5,3.5 -34,0.667 -68,0.667 -102,0 -4.021,-2.677 -6.187,-6.511 -6.5,-11.5 -1.454,-8.286 -1.787,-16.619 -1,-25 1.482,-7.309 5.649,-12.309 12.5,-15 z"
         id="path58" />
    </g>
    <g
       id="g64"
       style="fill:#1a1a1a">
      <path
         style="opacity:1;fill:#1a1a1a"
         fill="#f9faf9"
         d="m 599.5,549.5 c 4.411,-0.297 8.411,0.869 12,3.5 19.885,11.875 38.051,26.042 54.5,42.5 1.087,3.436 1.921,6.936 2.5,10.5 -2.944,15.406 -10.778,27.573 -23.5,36.5 -1.419,-0.96 -2.919,-1.793 -4.5,-2.5 -8.457,-10.794 -18.457,-19.794 -30,-27 -8.843,-4.922 -17.843,-9.588 -27,-14 -4.442,-3.733 -7.775,-8.233 -10,-13.5 1.348,-3.726 2.848,-7.392 4.5,-11 7.061,-8.551 14.227,-16.884 21.5,-25 z"
         id="path62" />
    </g>
    <g
       id="g68"
       style="fill:#1a1a1a">
      <path
         style="opacity:1;fill:#1a1a1a"
         fill="#f9faf9"
         d="m 738.5,599.5 c 26.025,2.812 52.025,3.145 78,1 7.667,0.167 15.333,0.333 23,0.5 1.266,0.309 2.433,0.809 3.5,1.5 2.77,30.825 1.604,61.492 -3.5,92 2.479,4.931 4.479,10.098 6,15.5 -4.075,7.658 -10.075,10.158 -18,7.5 -13.598,1.546 -27.265,2.546 -41,3 -6.982,-1.009 -13.982,-1.175 -21,-0.5 1.074,0.739 1.741,1.739 2,3 -0.667,6.836 -2.5,13.336 -5.5,19.5 -3.515,3.839 -7.849,6.173 -13,7 -3.446,-1.221 -6.946,-1.221 -10.5,0 -4.55,-1.572 -9.05,-3.238 -13.5,-5 -0.396,-3.999 0.937,-7.332 4,-10 -0.297,-23.105 -2.131,-46.105 -5.5,-69 0.192,-18.339 0.692,-36.672 1.5,-55 1.48,-3.163 3.98,-4.996 7.5,-5.5 1.271,-2.777 3.271,-4.611 6,-5.5 z m 25,44 c 2.095,11.722 4.095,23.555 6,35.5 12.253,0.135 24.253,-1.532 36,-5 -0.626,-0.75 -1.126,-1.584 -1.5,-2.5 -0.181,-8.911 -0.681,-17.745 -1.5,-26.5 -13.061,-2.502 -26.061,-3.002 -39,-1.5 z"
         id="path66" />
    </g>
    <g
       id="g72"
       style="fill:#1a1a1a">
      <path
         style="opacity:1;fill:#1a1a1a"
         fill="#f9faf9"
         d="m 637.5,654.5 c 2.333,0 4.667,0 7,0 -0.214,1.644 0.12,3.144 1,4.5 3.667,1.667 7.333,3.333 11,5 1.44,3.352 3.94,5.519 7.5,6.5 2.408,3.642 3.075,7.642 2,12 -12.863,35.396 -28.196,69.73 -46,103 -8.878,8.104 -17.045,7.27 -24.5,-2.5 -6.828,-4.915 -13.828,-9.581 -21,-14 -3.65,-5.284 -5.484,-11.117 -5.5,-17.5 16.866,-18.861 32.199,-38.861 46,-60 5.085,-10.786 10.252,-21.452 15.5,-32 2.118,-2.142 4.452,-3.808 7,-5 z"
         id="path70" />
    </g>
    <g
       id="g76"
       style="fill:#1a1a1a">
      <path
         style="opacity:1;fill:#1a1a1a"
         fill="#f9faf9"
         d="m 1927.5,807.5 c -1,0 -2,0 -3,0 -3.96,-5.035 -5.96,-10.535 -6,-16.5 -6.87,-1.5 -13.7,-3 -20.5,-4.5 -18.88,0.875 -37.71,2.375 -56.5,4.5 -0.16,2.699 -0.33,5.532 -0.5,8.5 -2.03,3.761 -5.03,4.761 -9,3 -9.47,4.351 -19.3,5.185 -29.5,2.5 -0.91,-1.699 -1.24,-3.533 -1,-5.5 -2.45,0.49 -4.12,-0.343 -5,-2.5 0.54,-1.792 0.87,-3.625 1,-5.5 -0.8,-8.655 -1.47,-17.322 -2,-26 0.75,-19.991 1.25,-39.991 1.5,-60 1.41,-6.675 1.08,-13.342 -1,-20 -0.32,-1.561 -1.15,-2.728 -2.5,-3.5 2.24,-3.707 3.58,-7.707 4,-12 2.89,-2.557 6.06,-4.724 9.5,-6.5 3.85,1.707 7.52,3.707 11,6 5.92,-2.529 11.92,-4.862 18,-7 26.16,2.645 52.33,2.645 78.5,0 12.68,0.716 25.18,2.383 37.5,5 2.5,-1.917 5.17,-3.584 8,-5 6.6,5.786 9.26,13.119 8,22 -2.04,1.079 -3.38,2.746 -4,5 -0.82,3.285 -1.32,6.618 -1.5,10 0.97,11.474 2.14,22.807 3.5,34 0.65,10.677 0.48,21.344 -0.5,32 1.04,10.684 1.87,21.351 2.5,32 -1.17,3.833 -3.67,6.333 -7.5,7.5 -11.14,0.954 -22.14,1.787 -33,2.5 z m -81,-99 c 23.29,1.619 46.62,2.452 70,2.5 -3.19,2.948 -3.69,6.448 -1.5,10.5 0.95,8.466 0.28,16.799 -2,25 -0.67,1.078 -1.67,1.745 -3,2 -22.68,-3.714 -45.52,-5.714 -68.5,-6 -0.17,-6.342 0,-12.675 0.5,-19 2.6,-4.639 4.1,-9.639 4.5,-15 z"
         id="path74" />
    </g>
    <g
       id="g80"
       style="fill:#1a1a1a">
      <path
         style="opacity:1;fill:#1a1a1a"
         fill="#f9faf9"
         d="m 1689.5,674.5 c 4.92,1.364 9.76,3.03 14.5,5 3.45,-1.038 6.95,-1.871 10.5,-2.5 12.51,-0.949 25.01,-1.782 37.5,-2.5 4.67,1.953 6.67,5.286 6,10 1.81,-2.78 3.98,-5.28 6.5,-7.5 2.99,0.804 5.99,0.638 9,-0.5 5.33,2.088 10.17,5.088 14.5,9 0.12,1.607 -0.38,3.107 -1.5,4.5 0.67,1.333 1.33,2.667 2,4 -4.23,13.403 -5.23,27.07 -3,41 -0.25,9.711 -0.92,19.378 -2,29 2.04,5.21 3.71,10.543 5,16 -2.21,2.083 -2.55,4.417 -1,7 -0.84,8.835 -5.67,13.669 -14.5,14.5 -6.65,-2.253 -13.49,-2.586 -20.5,-1 -1.53,-0.029 -2.7,-0.696 -3.5,-2 -0.79,-3.459 -1.79,-6.793 -3,-10 -0.69,0.857 -1.52,1.523 -2.5,2 -4.6,-3.261 -9.77,-4.927 -15.5,-5 -6.5,0.8 -13,1.634 -19.5,2.5 0.85,1.558 0.18,2.558 -2,3 1.83,6.457 -0.5,10.79 -7,13 -3.28,0.056 -6.28,0.889 -9,2.5 -1.69,-1.469 -3.69,-2.135 -6,-2 -6.29,1.945 -11.45,0.278 -15.5,-5 0.42,-5.58 1.59,-11.08 3.5,-16.5 -1.56,-7.144 -1.89,-14.311 -1,-21.5 -2.16,-21.284 -3,-42.617 -2.5,-64 0.27,-2.852 1.1,-5.518 2.5,-8 -3.94,-3.943 -3.6,-7.443 1,-10.5 4.25,-1.126 8.58,-1.792 13,-2 1.82,-0.2 3.15,-1.034 4,-2.5 z m 36,42 c 3.28,-0.284 6.44,0.049 9.5,1 0.65,6.524 1.48,13.024 2.5,19.5 -0.09,4.481 -1.42,8.481 -4,12 -5.4,0.772 -10.74,0.439 -16,-1 -3.82,-9.389 -3.99,-18.889 -0.5,-28.5 3.02,-0.694 5.86,-1.694 8.5,-3 z"
         id="path78" />
    </g>
  </g>
</svg>

