<?xml version="1.0" encoding="UTF-8" standalone="no"?>
<!-- Created with Inkscape (http://www.inkscape.org/) -->

<svg
   width="1042.880944"
   height="162.877464"
   viewBox="-13.573122 -13.573122 1042.880944 162.877464"
   version="1.1"
   id="svg5"
   xml:space="preserve"
   inkscape:version="1.2.2 (732a01da63, 2022-12-09)"
   sodipodi:docname="fbneo.svg"
   xmlns:inkscape="http://www.inkscape.org/namespaces/inkscape"
   xmlns:sodipodi="http://sodipodi.sourceforge.net/DTD/sodipodi-0.dtd"
   xmlns="http://www.w3.org/2000/svg"
   xmlns:svg="http://www.w3.org/2000/svg"><sodipodi:namedview
     id="namedview7"
     pagecolor="#ffffff"
     bordercolor="#000000"
     borderopacity="0.25"
     inkscape:showpageshadow="2"
     inkscape:pageopacity="0.0"
     inkscape:pagecheckerboard="0"
     inkscape:deskcolor="#d1d1d1"
     inkscape:document-units="mm"
     showgrid="false"
     inkscape:zoom="0.18462928"
     inkscape:cx="3079.1433"
     inkscape:cy="-552.45842"
     inkscape:window-width="1042.880944"
     inkscape:window-height="162.877464"
     inkscape:window-x="1912"
     inkscape:window-y="-8"
     inkscape:window-maximized="1"
     inkscape:current-layer="layer1" /><defs
     id="defs2" /><g
     inkscape:label="Warstwa 1"
     inkscape:groupmode="layer"
     id="layer1"
     transform="translate(1071.0648,-243.10666)"><path
       style="fill:#1a1a1a;stroke-width:0.264583"
       d="m -1036.3967,367.49683 v -11.34104 l 8.2517,-2.958 c 4.5385,-1.62689 9.0033,-3.22029 9.9219,-3.54089 l 1.6702,-0.58289 v -32.37487 -32.37488 l 0.5953,0.15019 c 0.3274,0.0826 10.537,3.65049 22.68802,7.92866 l 22.09271,7.77848 0.0678,20.27814 0.0678,20.27815 h 7.14211 7.14211 v 19.05 19.05 h -39.81979 -39.81976 z m 941.652097,-22.79946 c -11.374697,-1.39343 -20.699587,-7.27263 -26.091327,-16.45014 -2.23631,-3.80655 -3.74951,-8.26837 -4.36409,-12.86802 -0.41118,-3.07749 -0.14456,-9.30443 0.5229,-12.21216 2.45861,-10.71069 9.65687,-19.41848 19.55398,-23.65461 4.9463,-2.11712 8.969897,-2.90127 14.876457,-2.89926 4.8586,0.002 7.7465,0.42585 11.77396,1.72944 11.86701,3.84108 20.6298,13.86749 22.73641,26.01505 0.53486,3.08428 0.54298,9.38113 0.0159,12.4031 -2.13016,12.21535 -10.76516,22.19395 -22.72591,26.26205 -4.34404,1.47751 -11.72036,2.23538 -16.29836,1.67455 z m 10.18646,-14.27616 c 3.32253,-1.04669 5.35012,-2.29319 7.95174,-4.88847 2.02581,-2.02086 2.58516,-2.77756 3.62442,-4.90319 1.83044,-3.74384 2.16781,-5.26327 2.17352,-9.78959 0.004,-3.22202 -0.0923,-4.17306 -0.60179,-5.93815 -1.54422,-5.34991 -4.88024,-9.66524 -9.57601,-12.38712 -3.71573,-2.1538 -9.62594,-2.9201 -14.03109,-1.81922 -3.65401,0.91315 -6.350057,2.40415 -8.863567,4.90185 -2.467,2.4515 -4.0054,4.88545 -5.02896,7.95654 -2.64428,7.9338 -0.55875,16.76607 5.26523,22.29827 2.76495,2.62643 5.501877,4.09278 9.296927,4.98095 2.35262,0.55059 7.40984,0.33782 9.78958,-0.41187 z m -381.926027,13.8913 c -12.20962,-2.09116 -19.09408,-8.90697 -21.60839,-21.39292 -0.37579,-1.86621 -0.44889,-5.06236 -0.54107,-23.65515 l -0.10658,-21.49739 h 7.42384 7.42386 l 0.009,19.7776 c 0.007,15.49975 0.0871,20.20682 0.36928,21.76198 1.06916,5.89279 4.07202,9.63828 8.95856,11.17406 2.46388,0.77437 6.89964,0.82249 9.31605,0.10107 4.756,-1.41991 7.76719,-4.82517 8.96372,-10.13674 0.37541,-1.66645 0.42899,-4.45074 0.42899,-22.29114 l -2e-5,-20.38683 h 7.40833 7.40833 v 20.35377 c 0,22.85088 -0.0632,23.89014 -1.77869,29.2556 -3.06921,9.59937 -10.47112,15.50653 -21.37235,17.05641 -2.55511,0.36327 -9.89893,0.29145 -12.30312,-0.12032 z M -867.5925,310.70767 v -32.94062 h 25.13542 25.13541 v 6.61458 6.61458 h -17.72708 -17.72708 v 6.87917 6.87917 h 15.61041 15.61042 v 6.74687 6.74688 h -15.61042 -15.61041 v 12.7 12.7 h -7.40834 -7.40833 z m 60.06042,0 v -32.94062 h 7.40833 7.40833 v 32.94062 32.94063 h -7.40833 -7.40833 z m 28.575,0 v -32.94062 h 6.83379 6.83381 l 15.19275,19.96656 15.19277,19.96657 0.0678,-19.96657 0.0678,-19.96656 h 7.27437 7.27437 v 32.94062 32.94063 h -6.32539 -6.32542 l -15.70114,-20.60976 -15.70117,-20.60975 -0.0678,20.60975 -0.0678,20.60976 h -7.27443 -7.27442 z m 66.52479,32.47761 c 0.094,-0.25467 6.43617,-15.19895 14.09366,-33.20952 l 13.92272,-32.7465 6.86438,0.0705 6.8644,0.0704 14.0689,33.07292 14.06893,33.07292 -7.66233,0.0702 c -5.95445,0.0546 -7.7089,-0.004 -7.87128,-0.26458 -0.11491,-0.18414 -1.47881,-3.46124 -3.03085,-7.28243 l -2.82194,-6.94764 -13.87547,0.0685 -13.87546,0.0685 -2.93336,7.20989 -2.93335,7.2099 h -7.52497 c -7.0554,0 -7.51432,-0.0289 -7.35398,-0.46302 z m 42.90406,-27.78125 c -0.53641,-1.50285 -8.21629,-20.13984 -8.27497,-20.08114 -0.0392,0.0392 -1.96316,4.67763 -4.27549,10.30769 l -4.20425,10.23647 h 8.45997 c 7.94372,0 8.44992,-0.0283 8.29474,-0.46302 z m 34.50447,-4.69636 v -32.94062 h 7.40834 7.40833 v 26.32604 26.32604 h 16.40417 16.40416 v 6.61458 6.61459 h -23.8125 -23.8125 z m 81.75625,-0.0118 v -32.95244 l 18.3224,0.0867 c 18.13266,0.0858 18.34568,0.0929 20.57135,0.69293 8.51694,2.29596 13.30336,7.68377 13.68936,15.40936 0.16642,3.33111 -0.32134,5.96155 -1.56805,8.45648 -0.93221,1.8655 -3.38627,4.60867 -5.19443,5.80634 -0.6811,0.45113 -1.23833,0.86473 -1.23833,0.91911 0,0.0544 1.07156,0.63679 2.38125,1.29423 6.50615,3.266 9.39564,7.96011 9.38612,15.24811 -0.0122,9.32051 -6.16593,15.60023 -17.12283,17.47341 -2.80787,0.48003 -4.36661,0.51827 -21.12918,0.51827 h -18.09766 v -32.95245 z m 35.85105,19.66115 c 3.99341,-1.16617 5.68854,-3.14664 5.68854,-6.64603 0,-3.47141 -2.06814,-5.72154 -6.10211,-6.63905 -1.45664,-0.3313 -3.68509,-0.41111 -11.47877,-0.41111 h -9.67121 v 7.17364 7.17365 l 10.12032,-0.13239 c 7.776,-0.10172 10.42675,-0.22187 11.44323,-0.51871 z m -3.88948,-26.53239 c 4.0545,-0.95588 5.95166,-3.02096 5.95166,-6.47839 0,-3.06379 -1.60676,-5.10261 -4.80202,-6.09326 -1.52459,-0.47266 -2.46915,-0.52132 -10.12032,-0.52132 h -8.4388 v 6.74688 6.74687 l 7.87135,-0.004 c 6.0261,-0.003 8.26209,-0.096 9.53813,-0.39686 z m 102.44677,6.87117 v -32.95252 l 18.1901,0.0848 18.1901,0.0848 2.64584,0.71492 c 1.45521,0.39321 3.89249,1.33067 5.41618,2.08325 2.34373,1.15761 3.0975,1.69916 4.89479,3.51659 1.16845,1.18154 2.52513,2.82932 3.01485,3.66173 3.82264,6.49767 3.82849,16.81989 0.0132,23.27491 -2.04602,3.46157 -4.9472,6.08072 -8.89296,8.02842 l -2.18397,1.07805 7.93096,11.59561 c 4.36195,6.37758 7.93089,11.63754 7.93089,11.6888 0,0.0513 -3.86234,0.0932 -8.58301,0.0932 h -8.58298 l -6.98037,-10.3849 -6.98037,-10.38489 -5.60329,-0.0714 -5.60332,-0.0714 v 10.4563 10.45631 h -7.40833 -7.40833 z m 33.2052,-1.50771 c 2.97363,-0.86328 4.8803,-2.26708 6.0868,-4.48144 0.63468,-1.1649 0.7856,-1.79911 0.87614,-3.68224 0.24979,-5.19433 -1.96911,-8.22179 -6.96185,-9.49872 -1.85076,-0.47334 -2.93473,-0.52945 -10.22988,-0.52945 h -8.15975 v 9.42409 9.42408 l 8.53281,-0.13612 c 6.33463,-0.10106 8.87363,-0.23507 9.85573,-0.5202 z m 32.41146,1.51961 v -32.94062 l 6.94531,0.0125 6.94532,0.0125 15.21354,20.0206 15.21354,20.02059 0.0678,-20.03309 0.0678,-20.03309 h 7.27438 7.27437 v 32.94063 32.94062 l -6.41614,-0.0115 -6.41615,-0.0115 -15.74271,-20.70452 -15.7427,-20.70453 -0.0678,20.71601 -0.0677,20.716 h -7.27445 -7.27443 v -32.94063 z m 97.89583,0 v -32.94062 l 6.94532,0.0164 6.94531,0.0164 15.21354,20.04909 15.21354,20.04908 0.0678,-20.0655 0.0678,-20.06551 h 7.27437 7.27441 v 32.94063 32.94062 l -6.41615,-0.007 -6.41615,-0.007 -15.7427,-20.68461 -15.74271,-20.68462 -0.0678,20.69208 -0.0678,20.69208 h -7.27443 -7.27443 v -32.94063 z m 72.23125,0 v -32.94062 h 24.87084 24.87083 v 6.48229 6.48229 h -17.59479 -17.59479 v 6.61458 6.61459 h 15.47812 15.47812 v 6.48229 6.48229 h -15.47812 -15.47812 v 6.87917 6.87916 h 17.85937 17.85937 v 6.4823 6.48229 h -25.13541 -25.13542 z m -783.43124,8.33438 v -17.19792 h 29.89792 29.89792 v 17.19792 17.19791 h -29.89792 -29.89792 z m -52.25523,-40.07265 -52.1229,-18.35072 -0.07,-8.75602 -0.07,-8.75603 h 66.1028 c 59.51438,0 66.35133,0.0424 68.59678,0.42535 12.88495,2.19753 23.6182,11.40442 27.72702,23.78403 1.65965,5.00038 1.68932,5.29786 1.81443,18.1901 l 0.11491,11.8401 -29.98534,-0.013 -29.98534,-0.0131 z"
       id="path876" /></g></svg>

