<?xml version="1.0" encoding="UTF-8" standalone="no"?>
<!-- Created with Inkscape (http://www.inkscape.org/) -->

<svg
   width="85.0241094"
   height="27.4618584"
   viewBox="-2.2884882 -2.2884882 85.0241094 27.4618584"
   version="1.1"
   id="svg5"
   xml:space="preserve"
   sodipodi:docname="Nintendo Game Boy Advance.svg"
   inkscape:version="1.2.2 (732a01da63, 2022-12-09)"
   xmlns:inkscape="http://www.inkscape.org/namespaces/inkscape"
   xmlns:sodipodi="http://sodipodi.sourceforge.net/DTD/sodipodi-0.dtd"
   xmlns="http://www.w3.org/2000/svg"
   xmlns:svg="http://www.w3.org/2000/svg"><sodipodi:namedview
     id="namedview7"
     pagecolor="#ffffff"
     bordercolor="#000000"
     borderopacity="0.25"
     inkscape:showpageshadow="2"
     inkscape:pageopacity="0.0"
     inkscape:pagecheckerboard="0"
     inkscape:deskcolor="#d1d1d1"
     inkscape:document-units="mm"
     showgrid="false"
     inkscape:zoom="2.0888418"
     inkscape:cx="62.474811"
     inkscape:cy="53.139495"
     inkscape:window-width="85.0241094"
     inkscape:window-height="27.4618584"
     inkscape:window-x="1912"
     inkscape:window-y="-8"
     inkscape:window-maximized="1"
     inkscape:current-layer="layer1" /><defs
     id="defs2" /><g
     inkscape:label="Warstwa 1"
     inkscape:groupmode="layer"
     id="layer1"
     transform="translate(304.81189,42.248391)"><path
       style="fill:#000000;stroke-width:0.020955"
       d="m -256.68975,-28.226266 c 0,-0.02781 0.48166,-3.062049 1.07035,-6.74275 0.5887,-3.680701 1.06998,-6.731186 1.06952,-6.778855 l -8.4e-4,-0.08667 0.63308,-0.01508 c 0.34819,-0.0083 1.60433,-0.01064 2.79143,-0.0052 2.10843,0.0096 2.16305,0.0109 2.36076,0.05464 1.25664,0.278043 2.39248,1.258661 2.80207,2.419146 0.12689,0.359491 0.158,0.563788 0.15859,1.04122 4.8e-4,0.363903 -0.007,0.465448 -0.0467,0.664211 -0.15266,0.757933 -0.57061,1.530867 -1.23068,2.275992 l -0.18211,0.205577 0.22895,0.234477 c 0.55601,0.56944 0.89178,1.172667 1.04613,1.879443 0.0317,0.144928 0.0387,0.265973 0.0381,0.649605 -9.2e-4,0.530656 -0.0275,0.70619 -0.16844,1.11371 -0.21775,0.629501 -0.55679,1.152967 -1.09805,1.695364 -0.70494,0.706426 -1.53768,1.182511 -2.4235,1.385527 l -0.20681,0.0474 -3.4209,0.0064 -3.4209,0.0064 v -0.05056 z m 6.02455,-2.695974 c 0.67104,-0.06227 1.17868,-0.326803 1.4588,-0.760208 0.1683,-0.260387 0.23067,-0.537562 0.17777,-0.789992 -0.0891,-0.425147 -0.39361,-0.765132 -0.83371,-0.930785 -0.32099,-0.120818 -0.3413,-0.122373 -1.72488,-0.132127 l -1.27825,-0.009 -0.20508,1.295581 c -0.1128,0.712568 -0.20474,1.307367 -0.20431,1.321773 9.8e-4,0.0333 2.2577,0.03743 2.60966,0.0048 z m 0.46713,-5.543887 c 0.81605,-0.167714 1.38581,-0.954447 1.17815,-1.626791 -0.1095,-0.354524 -0.38052,-0.598268 -0.79337,-0.713543 -0.15164,-0.04234 -0.21556,-0.04519 -1.17075,-0.05229 l -1.01036,-0.0075 -0.0113,0.04842 c -0.006,0.02663 -0.0962,0.548198 -0.19991,1.159035 -0.10374,0.610839 -0.19403,1.136546 -0.20064,1.16824 l -0.012,0.05763 h 1.02934 c 0.85732,0 1.05634,-0.0055 1.19086,-0.03319 z"
       id="path353" /><path
       style="fill:#000000;stroke-width:0.020955"
       d="m -233.15751,-28.181906 c -2.4e-4,-0.02593 0.22679,-1.488147 0.50422,-3.249367 l 0.50442,-3.202218 -1.64627,-3.587923 c -0.90545,-1.973357 -1.64626,-3.613528 -1.64626,-3.644822 v -0.0569 l 1.66068,5.55e-4 1.66068,5.54e-4 0.84696,2.168293 c 0.46583,1.192561 0.85245,2.168239 0.85916,2.168175 0.007,-6.2e-5 0.61942,-0.976042 1.36159,-2.16884 l 1.3494,-2.168724 h 1.64342 c 1.71862,0 1.73447,8.08e-4 1.68075,0.08566 -0.0103,0.01628 -0.0189,0.05515 -0.019,0.08639 -2.4e-4,0.03912 -0.77362,1.274067 -2.48505,3.968104 -1.36661,2.151218 -2.48834,3.922027 -2.49275,3.935128 -0.004,0.0131 -0.19718,1.282692 -0.42839,2.821311 -0.23121,1.538619 -0.4251,2.818707 -0.43087,2.844639 l -0.0105,0.04715 h -1.45597 -1.45597 l -2.4e-4,-0.04715 z"
       id="path351" /><path
       style="fill:#000000;stroke-width:0.020955"
       d="m -268.7607,-28.171426 c -4.7e-4,-0.02017 0.49186,-3.122554 1.09409,-6.894188 l 1.09497,-6.857518 h 3.9351 3.93511 v 0.07915 c 0,0.06481 -0.41206,2.708022 -0.45235,2.901695 l -0.012,0.05763 h -2.45007 c -1.34754,0 -2.45007,0.0049 -2.45007,0.01085 0,0.0202 -0.33555,2.19944 -0.3476,2.257521 l -0.012,0.05763 h 2.14955 c 2.03285,0 2.1496,0.002 2.15052,0.03667 5.5e-4,0.02017 -0.10519,0.703825 -0.23493,1.519236 l -0.2359,1.482564 h -2.13298 c -1.17314,0 -2.13299,0.0037 -2.13299,0.0083 0,0.01909 -0.35712,2.248367 -0.36709,2.291498 l -0.0109,0.04715 h 2.45213 c 1.34867,0 2.45213,0.0079 2.45213,0.0175 0,0.0168 -0.44665,2.813008 -0.47168,2.952869 l -0.0122,0.0681 h -3.97002 c -3.76667,0 -3.97007,-0.0019 -3.9709,-0.03667 z"
       id="path349" /><path
       style="fill:#000000;stroke-width:0.020955"
       d="m -299.19693,-28.023316 c -0.0461,-0.004 -0.22055,-0.02636 -0.38767,-0.04971 -1.25464,-0.175356 -2.40566,-0.676431 -3.33221,-1.450607 -0.89925,-0.751362 -1.51435,-1.713961 -1.78386,-2.791636 -0.0775,-0.310131 -0.11046,-0.834091 -0.11121,-1.770696 -7.1e-4,-0.894596 0.0322,-1.424876 0.11192,-1.80249 0.18544,-0.878565 0.4875,-1.632077 0.94594,-2.359757 0.52963,-0.840677 1.32907,-1.640062 2.2649,-2.26476 1.25911,-0.840502 2.67658,-1.422619 4.0105,-1.647016 0.48756,-0.08202 1.51942,-0.110627 2.53555,-0.0703 0.71717,0.02846 1.34339,0.149097 2.26088,0.435526 l 0.27016,0.08434 -0.0131,0.160821 c -0.0159,0.194744 -0.11485,0.852173 -0.28997,1.926278 l -0.13069,0.801529 h -0.0539 c -0.0296,0 -0.13378,-0.03369 -0.23139,-0.07486 -0.70839,-0.298776 -1.78002,-0.460262 -2.7022,-0.407199 -1.18895,0.06841 -2.20962,0.33344 -3.17504,0.824432 -1.11336,0.566235 -2.04515,1.487377 -2.54707,2.517977 -0.16816,0.345275 -0.27065,0.642539 -0.34857,1.010954 -0.0505,0.238758 -0.0567,0.31317 -0.0578,0.696878 -10e-4,0.436503 0.0131,0.573143 0.0958,0.911541 0.13387,0.547616 0.3545,1.015327 0.65383,1.38607 0.6631,0.821285 1.872,1.260459 3.04612,1.106599 0.30195,-0.03957 0.76069,-0.153644 0.83955,-0.208774 0.003,-0.0021 0.0524,-0.262264 0.1098,-0.578093 0.0574,-0.315828 0.10984,-0.600165 0.11664,-0.631859 l 0.0124,-0.05763 h -1.08084 -1.08085 v -0.0588 c 0,-0.0527 0.35978,-2.404247 0.38935,-2.544855 l 0.0121,-0.05763 h 2.65962 c 2.36083,0 2.65962,0.0036 2.65962,0.03172 0,0.01744 -0.1559,1.022975 -0.34644,2.234512 -0.19055,1.211536 -0.34304,2.206198 -0.33888,2.210361 0.004,0.0042 1.13876,-2.559633 2.52133,-5.697323 l 2.51375,-5.704891 1.78416,-0.0054 c 1.68606,-0.0051 1.78474,-0.0033 1.79462,0.03143 0.006,0.02023 0.41344,2.45788 0.90599,5.416992 0.49255,2.959113 0.8973,5.377842 0.89946,5.374953 0.002,-0.0029 0.79454,-2.440482 1.76084,-5.416875 l 1.75691,-5.411624 h 1.44031 1.44031 l 0.0222,0.110014 c 0.0122,0.06051 0.31018,1.68478 0.66218,3.609495 0.35201,1.924715 0.64702,3.516676 0.65558,3.537691 0.0111,0.02714 0.46481,-1.018941 1.56572,-3.609615 l 1.55015,-3.647824 1.73899,0.0054 1.73898,0.0054 0.28594,6.611296 c 0.15726,3.636213 0.29202,6.73624 0.29946,6.888949 l 0.0135,0.277654 h -1.45596 -1.45595 l -0.0104,-0.0681 c -0.006,-0.03746 -0.0866,-1.850324 -0.17985,-4.028594 -0.0932,-2.178271 -0.1762,-3.99597 -0.18441,-4.039332 -0.0139,-0.07327 -0.14008,0.211062 -1.78571,4.023356 l -1.77078,4.102197 -0.9883,0.0054 -0.9883,0.0054 -0.0186,-0.08926 c -0.0102,-0.04909 -0.35285,-1.728218 -0.76135,-3.731386 l -0.74274,-3.642123 -0.048,0.153119 c -0.0264,0.08422 -0.55992,1.76089 -1.1856,3.725943 l -1.13759,3.572824 -2.43986,0.0053 -2.43985,0.0053 -0.34239,-1.954139 c -0.18832,-1.074775 -0.35165,-1.998929 -0.36297,-2.053673 l -0.0206,-0.09954 h -1.56615 -1.56615 l -0.92286,2.048349 -0.92287,2.048349 -1.52213,0.0054 -1.52213,0.0054 v -0.05158 c 0,-0.02837 0.0388,-0.139233 0.0863,-0.246358 0.0475,-0.107126 0.11776,-0.267706 0.15623,-0.356846 l 0.0699,-0.162073 -0.29403,0.147292 c -0.85789,0.429766 -1.75425,0.68961 -2.66923,0.773785 -0.21062,0.01938 -1.14158,0.0242 -1.34112,0.0069 z m 11.57087,-7.010865 c -0.006,-0.02593 -0.1065,-0.542211 -0.22285,-1.147286 -0.11635,-0.605075 -0.21845,-1.117033 -0.22689,-1.137685 -0.0109,-0.02674 -0.16552,0.298868 -0.53723,1.131569 -0.28703,0.643014 -0.52561,1.17619 -0.53017,1.184834 -0.005,0.0086 0.33747,0.01572 0.76007,0.01572 h 0.76837 z"
       id="path347" /><path
       style="fill:#000000;stroke-width:0.020955"
       d="m -240.53347,-27.895522 c -0.0403,-0.0047 -0.16292,-0.01863 -0.27241,-0.03097 -0.73314,-0.08262 -1.56547,-0.400552 -2.17932,-0.832446 -1.41005,-0.992098 -2.31592,-2.644679 -2.54885,-4.649866 -0.0439,-0.377814 -0.0499,-1.336715 -0.0108,-1.714435 0.0936,-0.903985 0.31713,-1.781197 0.65594,-2.574083 0.21621,-0.505994 0.3835,-0.814723 0.70013,-1.292111 1.03609,-1.562106 2.50946,-2.582536 4.14779,-2.872677 0.31771,-0.05627 1.04631,-0.07811 1.39699,-0.04189 0.77576,0.08013 1.5595,0.36196 2.20726,0.793713 1.34962,0.899568 2.27879,2.454037 2.57856,4.313837 0.0895,0.555054 0.11969,1.401604 0.0711,1.99163 -0.089,1.080785 -0.36084,2.080685 -0.82497,3.034374 -0.41003,0.842544 -0.83679,1.446821 -1.46649,2.076519 -0.3821,0.382101 -0.65153,0.603867 -1.06013,0.87259 -0.73203,0.481424 -1.50428,0.776212 -2.34703,0.895915 -0.16348,0.02322 -0.91971,0.0448 -1.04775,0.0299 z m 0.60438,-2.818734 c 0.313,-0.04902 0.71218,-0.214932 1.03011,-0.42816 1.07156,-0.718651 1.86747,-2.118009 2.12115,-3.729364 0.0667,-0.423422 0.0669,-1.261235 4.8e-4,-1.644967 -0.14647,-0.845866 -0.42867,-1.473481 -0.87477,-1.945487 -0.21784,-0.230483 -0.39146,-0.360607 -0.64961,-0.48685 -0.60442,-0.295582 -1.1844,-0.268324 -1.87547,0.08814 -0.32005,0.165089 -0.56513,0.349963 -0.86967,0.656021 -0.5678,0.570631 -0.99292,1.288489 -1.27894,2.159658 -0.36081,1.098959 -0.41744,2.176714 -0.16633,3.165476 0.2802,1.10327 0.89546,1.855581 1.72837,2.113347 0.29193,0.09035 0.50567,0.103708 0.83471,0.05218 z"
       id="path345" /><g
       id="g359"
       transform="matrix(1.0670294,0,0,1.0670294,30.074401,1.2247624)"><path
         style="fill:#000000;stroke-width:0.014909"
         d="m -255.22788,-19.317362 c -0.0148,-0.006 -0.0187,-0.705543 -0.0187,-3.427887 v -3.420368 h 3.68253 3.68251 v 0.805085 0.805084 h -2.66125 -2.66125 v 0.454724 0.454725 h 1.55054 1.55052 v 0.790175 0.790176 h -1.55052 -1.55054 v 0.559086 0.559087 h 2.69852 2.69853 v 0.810944 c 0,0.725721 -0.002,0.811895 -0.0236,0.819994 -0.0283,0.01083 -7.37051,0.01001 -7.39736,-7.83e-4 z"
         id="path343" /><path
         style="fill:#000000;stroke-width:0.014909"
         d="m -262.26865,-19.322484 c -0.2133,-0.0089 -0.28596,-0.01793 -0.39817,-0.04964 -0.28759,-0.08126 -0.45427,-0.175631 -0.61593,-0.34874 -0.1697,-0.181711 -0.26218,-0.399519 -0.3231,-0.760934 -0.0251,-0.149069 -0.027,-0.301849 -0.027,-2.232369 0,-1.616646 0.004,-2.101163 0.0193,-2.203385 0.12015,-0.817092 0.50371,-1.150317 1.41944,-1.233188 0.13245,-0.01199 0.88298,-0.01533 2.59417,-0.01157 2.20366,0.0048 2.42107,0.0075 2.56434,0.03127 0.74563,0.1237 1.05909,0.41906 1.18835,1.119752 0.0166,0.09032 0.024,0.287098 0.0296,0.787582 l 0.007,0.667177 h -1.02268 -1.02267 v -0.477087 -0.477087 h -1.87108 -1.87108 v 1.766713 1.766714 h 1.87108 1.87108 v -0.529269 -0.529268 l 0.98772,2.26e-4 c 0.54324,1.68e-4 1.0034,0.0044 1.02257,0.0095 l 0.0349,0.0093 -0.007,0.724731 c -0.008,0.760422 -0.0122,0.821189 -0.0834,1.08073 -0.0854,0.311246 -0.2633,0.548505 -0.52529,0.700542 -0.0899,0.05217 -0.28576,0.123468 -0.44524,0.162083 -0.12506,0.03028 -0.1597,0.03073 -2.63144,0.03385 -1.37759,0.0017 -2.62211,-0.0017 -2.76561,-0.0077 z"
         id="path341" /><path
         style="fill:#000000;stroke-width:0.014909"
         d="m -281.72114,-19.317362 c -0.0102,-0.0041 -0.0186,-0.01535 -0.0186,-0.02492 0,-0.0096 0.90789,-1.547055 2.01748,-3.416641 l 2.01743,-3.399246 h 0.90771 0.90772 l 1.66305,2.758534 1.66305,2.758534 0.004,-2.76226 0.004,-2.762263 h 0.71229 0.7123 l 2.549,1.995654 2.54901,1.995655 0.004,-1.995655 0.004,-1.995654 h 0.9392 0.93922 v 3.420016 c 0,3.104852 -0.002,3.420849 -0.0236,3.429064 -0.0307,0.0118 -1.30901,0.01181 -1.39442,9e-6 -0.0597,-0.0082 -0.28641,-0.185026 -2.57761,-2.009908 l -2.51217,-2.000864 -0.004,1.997878 c -0.003,1.575611 -0.008,2.000372 -0.0223,2.009678 -0.0216,0.0137 -3.32448,0.01676 -3.39256,0.0031 -0.043,-0.0086 -0.12204,-0.145675 -1.42195,-2.466145 -0.75702,-1.351369 -1.38216,-2.451515 -1.38921,-2.444768 -0.007,0.0068 -0.43102,0.765965 -0.94215,1.687151 l -0.92934,1.674883 0.96079,0.0038 0.96078,0.0038 v 0.766108 c 0,0.684838 -0.003,0.767069 -0.0236,0.775158 -0.0282,0.01083 -4.83598,0.01001 -4.86283,-7.82e-4 z"
         id="path339" /><path
         style="fill:#000000;stroke-width:0.014909"
         d="m -303.72556,-19.307219 c -0.41956,-0.0043 -0.76707,-0.01195 -0.77222,-0.0171 -0.005,-0.0052 0.90196,-1.544884 2.01581,-3.42161 l 2.02519,-3.412227 0.90354,-0.0038 0.90354,-0.0038 1.6602,2.753838 1.66019,2.753837 0.004,-2.754237 0.004,-2.754236 2.6053,0.0052 c 2.82087,0.0056 2.67165,0.0016 3.14948,0.0859 0.57764,0.101943 1.14828,0.31556 1.5403,0.576604 0.0835,0.05562 0.16048,0.106623 0.17101,0.113335 0.0105,0.0067 -0.0784,-0.148675 -0.19754,-0.345305 -0.13113,-0.216341 -0.21669,-0.372752 -0.21669,-0.396111 v -0.0386 h 1.15979 1.1598 l 0.99781,1.710806 c 0.5488,0.940942 1.12454,1.92735 1.27942,2.192018 l 0.28161,0.481213 1.2049,-2.18829 1.2049,-2.188292 1.08949,-0.0038 c 1.07934,-0.0038 1.08948,-0.0036 1.08948,0.02588 0,0.04686 -3.91453,6.788126 -3.9543,6.80977 -0.0406,0.02205 -1.32918,0.02729 -1.38614,0.0056 -0.0253,-0.0096 -0.37837,-0.580319 -1.30047,-2.102225 -0.69613,-1.148952 -1.26871,-2.085987 -1.2724,-2.082301 -0.004,0.0037 5.1e-4,0.049 0.009,0.100696 0.0581,0.341082 0.0591,0.947257 0.002,1.329485 -0.13695,0.91736 -0.54147,1.585159 -1.24471,2.054806 -0.50086,0.334491 -1.13633,0.551572 -1.96126,0.669982 l -0.23036,0.03306 -3.33216,0.006 c -2.10617,0.0038 -3.34593,7.11e-4 -3.36958,-0.0083 -0.0299,-0.01143 -0.31289,-0.505817 -1.40661,-2.457376 -0.75305,-1.343689 -1.37357,-2.447482 -1.37893,-2.452871 -0.006,-0.0054 -0.43047,0.749377 -0.94469,1.67726 l -0.93495,1.687058 0.95358,0.0038 0.95359,0.0038 v 0.761314 c 0,0.639926 -0.004,0.764708 -0.0213,0.782611 -0.0182,0.01824 -0.2592,0.0208 -1.68098,0.01784 -0.91283,-0.0019 -2.00298,-0.0069 -2.42254,-0.01119 z m 13.06276,-1.667979 c 0.60227,-0.07428 0.93301,-0.165451 1.21953,-0.336178 0.3783,-0.225421 0.58471,-0.56178 0.6687,-1.089724 0.0292,-0.183534 0.0249,-0.670725 -0.007,-0.834902 -0.0552,-0.280938 -0.1157,-0.437948 -0.24209,-0.62835 -0.22304,-0.336018 -0.59832,-0.548243 -1.12743,-0.637567 -0.25641,-0.04329 -0.60977,-0.05343 -1.86434,-0.05347 l -1.24862,-5.3e-5 v 1.805051 1.805051 l 1.23372,-0.0067 c 0.77123,-0.0041 1.28401,-0.01286 1.3679,-0.0232 z"
         id="path302" /></g></g></svg>

