<?xml version="1.0" encoding="UTF-8" standalone="no"?>
<!-- Generator: Adobe Illustrator 25.0.0, SVG Export Plug-In . SVG Version: 6.00 Build 0)  -->

<svg
   version="1.1"
   id="Layer_1"
   x="0px"
   y="0px"
   viewBox="0 0 910 252.00001"
   xml:space="preserve"
   sodipodi:docname="Sinclair ZX 81.svg"
   width="910"
   height="252"
   inkscape:version="1.4.3 (0d15f75042, 2025-12-25)"
   xmlns:inkscape="http://www.inkscape.org/namespaces/inkscape"
   xmlns:sodipodi="http://sodipodi.sourceforge.net/DTD/sodipodi-0.dtd"
   xmlns="http://www.w3.org/2000/svg"
   xmlns:svg="http://www.w3.org/2000/svg"><defs
   id="defs12">
	
	
</defs><sodipodi:namedview
   id="namedview12"
   pagecolor="#505050"
   bordercolor="#eeeeee"
   borderopacity="1"
   inkscape:showpageshadow="0"
   inkscape:pageopacity="0"
   inkscape:pagecheckerboard="0"
   inkscape:deskcolor="#505050"
   inkscape:zoom="0.52864583"
   inkscape:cx="375.48768"
   inkscape:cy="280.9064"
   inkscape:window-width="1920"
   inkscape:window-height="1008"
   inkscape:window-x="0"
   inkscape:window-y="0"
   inkscape:window-maximized="1"
   inkscape:current-layer="Layer_1" />
<style
   type="text/css"
   id="style1">
	.st0{fill:#F60F0E;}
	.st1{fill:#FFFFFF;}
</style>
<g
   id="g12"
   transform="translate(67.216757,19.961738)"><g
     id="g8"
     transform="scale(0.20197044)">
		<rect
   x="683.59998"
   width="118"
   height="93.400002"
   id="rect1"
   y="0" />
		<g
   id="g7">
			<rect
   x="683.59998"
   y="128.10001"
   width="118"
   height="391.29999"
   id="rect2" />
			<rect
   x="3039.3999"
   y="128.10001"
   width="118"
   height="391.29999"
   id="rect3" />
			<rect
   x="2198"
   y="0"
   width="118"
   height="519.29999"
   id="rect4" />
			<polygon
   points="950.8,221.4 1366.2,221.4 1366.2,519.3 1484.2,519.3 1484.2,221.4 1484.2,128.1 1366.2,128.1 950.8,128.1 832.8,128.1 832.8,221.4 832.8,519.3 950.8,519.3 "
   id="polygon4" />
			<polygon
   points="3306.6,128.1 3188.6,128.1 3188.6,221.4 3188.6,519.3 3306.6,519.3 3306.6,221.4 3840,221.4 3840,128.1 "
   id="polygon5" />
			<polygon
   points="651.4,277 651.4,275.7 533.4,275.7 533.4,277 118,277 118,221.4 652.4,221.4 652.4,128.1 1,128.1 1,153.8 0,153.8 0,277 0,370.4 0,371.7 118,371.7 118,370.4 533.4,370.4 533.4,426 1,426 1,519.3 533.4,519.3 651.4,519.3 652.4,519.3 652.4,426 651.4,426 651.4,370.4 "
   id="polygon6" />
			<polygon
   points="2166.7,519.3 2166.7,426 1633.4,426 1633.4,221.4 2166.7,221.4 2166.7,128.1 1633.4,128.1 1515.4,128.1 1515.4,221.4 1515.4,426 1515.4,519.3 1633.4,519.3 "
   id="polygon7" />
			<path
   d="m 2998.5,128.1 h -108.3 -4.4 -538.6 v 93.4 h 538.6 V 277 h -538.6 v 5 88.4 55.6 93.4 h 118 420.6 4.4 108.3 5.3 4.4 V 128.1 h -4.4 z M 2465.2,426 v -55.6 h 420.6 V 426 Z"
   id="path7" />
		</g>
		<rect
   x="3039.3999"
   width="118"
   height="93.400002"
   id="rect7"
   y="0" />
	</g><g
     id="g11"
     transform="matrix(0.13722676,0,0,0.13722676,-149.00082,42.025123)"
     style="fill:#000000">
		<path
   class="st0"
   d="m 1085.8,1127.3 310.4,-371.2 h -286.1 v -107 h 455.5 v 100.5 l -310.4,371.2 h 318.5 v 107 h -487.9 z"
   id="path8"
   style="fill:#000000" />
		<path
   class="st0"
   d="M 1778.7,924.7 1605.3,649.1 h 137.2 L 1848,833.9 1957.3,649.1 H 2087 l -172.6,276.4 187.7,302.3 h -141 l -117.6,-200.2 -119.9,200.2 h -133.4 z"
   id="path9"
   style="fill:#000000" />
		<path
   class="st0"
   d="m 2332.1,649.1 c 143.9,0 193.5,97.3 193.5,152.4 0,55.9 -29.8,101.3 -84.3,119.2 v 1.6 c 68.6,15.4 108.3,67.3 108.3,138.6 0,119.2 -109.1,178.3 -216.6,178.3 -111.6,0 -219.9,-55.1 -219.9,-177.5 0,-72.1 41.3,-123.2 109.1,-139.4 v -1.6 C 2166,905.3 2137,859.9 2137,804 c 0,-102.2 100.9,-154.9 195.1,-154.9 z m 0.9,503.4 c 56.2,0 99.2,-38.9 99.2,-95.6 0,-54.3 -44.6,-90.8 -99.2,-90.8 -57,0 -102.5,31.6 -102.5,90 -0.1,58.3 46.2,96.4 102.5,96.4 z M 2332.1,889 c 48,0 86.8,-25.9 86.8,-74.6 0,-29.2 -14.1,-78.6 -86.8,-78.6 -47.1,0 -88.5,28.4 -88.5,78.6 0.1,49.5 41.4,74.6 88.5,74.6 z"
   id="path10"
   style="fill:#000000" />
		<path
   class="st0"
   d="m 2627,649.1 h 127.3 v 578.7 H 2627 Z"
   id="path11"
   style="fill:#000000" />
	</g></g>
</svg>
