<?xml version="1.0" encoding="UTF-8" standalone="no"?>
<!-- Created with Inkscape (http://www.inkscape.org/) -->

<svg
   width="75"
   height="100"
   viewBox="0 0 19.84375 26.458335"
   version="1.1"
   id="svg1"
   sodipodi:docname="logo_2048.svg"
   inkscape:version="1.4.3 (0d15f75042, 2025-12-25)"
   xmlns:inkscape="http://www.inkscape.org/namespaces/inkscape"
   xmlns:sodipodi="http://sodipodi.sourceforge.net/DTD/sodipodi-0.dtd"
   xmlns="http://www.w3.org/2000/svg"
   xmlns:svg="http://www.w3.org/2000/svg">
  <sodipodi:namedview
     id="namedview1"
     pagecolor="#505050"
     bordercolor="#eeeeee"
     borderopacity="1"
     inkscape:showpageshadow="0"
     inkscape:pageopacity="0"
     inkscape:pagecheckerboard="0"
     inkscape:deskcolor="#505050"
     inkscape:document-units="mm"
     inkscape:zoom="2.0132505"
     inkscape:cx="9.685829"
     inkscape:cy="96.609935"
     inkscape:window-width="1920"
     inkscape:window-height="1008"
     inkscape:window-x="0"
     inkscape:window-y="0"
     inkscape:window-maximized="1"
     inkscape:current-layer="layer1"
     showgrid="false" />
  <defs
     id="defs1">
    <rect
       x="89.913963"
       y="184.04265"
       width="587.25061"
       height="448.16492"
       id="rect1" />
  </defs>
  <g
     inkscape:label="Warstwa 1"
     inkscape:groupmode="layer"
     id="layer1"
     transform="translate(-24.005662,-49.455117)">
    <path
       style="font-weight:bold;font-size:48px;line-height:1;font-family:'Noto Sans';-inkscape-font-specification:'Noto Sans Bold';white-space:pre;stroke-width:0.264583"
       d="m 33.629082,60.874534 h -6.337299 v -1.3335 l 2.2733,-2.2987 q 0.6858,-0.7112 1.1049,-1.1811 0.4191,-0.4826 0.6096,-0.8636 0.190499,-0.3937 0.190499,-0.8382 0,-0.5461 -0.3048,-0.8128 -0.2921,-0.2667 -0.8001,-0.2667 -0.5207,0 -1.015999,0.2413 -0.4953,0.2413 -1.0414,0.6858 l -1.0414,-1.2319 q 0.3937,-0.3429 0.825501,-0.635 0.4445,-0.2921 1.016,-0.4699 0.584199,-0.1905 1.396999,-0.1905 0.889,0 1.524,0.3302 0.6477,0.3175 0.9906,0.8763 0.3556,0.5461 0.3556,1.2446 0,0.7493 -0.3048,1.3716 -0.2921,0.6223 -0.8636,1.2319 -0.5588,0.6096 -1.3589,1.3462 l -1.1684,1.0922 v 0.0889 h 3.9497 z m 7.213609,-4.5339 q 0,1.4605 -0.317501,2.5019 -0.3048,1.0414 -1.0033,1.6002 -0.6858,0.5588 -1.8542,0.5588 -1.6383,0 -2.4003,-1.2319 -0.762,-1.2446 -0.762,-3.429 0,-1.4732 0.3048,-2.5146 0.3048,-1.0414 1.0033,-1.6002 0.6985,-0.5588 1.8542,-0.5588 1.6256,0 2.4003,1.2319 0.774701,1.2319 0.774701,3.4417 z m -4.4323,0 q 0,1.5494 0.2667,2.3368 0.2667,0.7747 0.9906,0.7747 0.711199,0 0.9906,-0.7747 0.2794,-0.7747 0.2794,-2.3368 0,-1.5494 -0.2794,-2.3368 -0.279401,-0.7874 -0.9906,-0.7874 -0.7239,0 -0.9906,0.7874 -0.2667,0.7874 -0.2667,2.3368 z m -2.578108,15.3543 h -1.092201 v 1.8796 h -1.866899 v -1.8796 h -3.8735 v -1.3335 l 3.975099,-5.8547 h 1.7653 v 5.7023 h 1.092201 z m -2.9591,-3.0226 q 0,-0.2921 0.0127,-0.7112 0.0127,-0.4191 0.0254,-0.7747 0.0254,-0.3683 0.0381,-0.4826 h -0.0508 q -0.1143,0.254 -0.2413,0.4953 -0.127,0.2413 -0.3048,0.4953 l -1.663699,2.5146 h 2.184399 z m 6.807208,-4.2799 q 0.7874,0 1.4351,0.2413 0.6604,0.2413 1.054099,0.7239 0.406401,0.4826 0.406401,1.2192 0,0.8128 -0.469901,1.3462 -0.4572,0.5207 -1.1557,0.8636 0.4826,0.254 0.9144,0.5969 0.4445,0.3302 0.7112,0.7874 0.2794,0.4445 0.2794,1.0541 0,0.7493 -0.4064,1.3081 -0.3937,0.5588 -1.1176,0.8636 -0.7112,0.3048 -1.651,0.3048 -1.524,0 -2.3622,-0.6477 -0.8255,-0.6477 -0.8255,-1.778 0,-0.9398 0.508,-1.5113 0.508,-0.5715 1.2319,-0.9271 -0.6096,-0.381 -1.0414,-0.9144 -0.4191,-0.5461 -0.4191,-1.3589 0,-0.7239 0.4064,-1.2065 0.4064,-0.4826 1.0668,-0.7239 0.6731,-0.2413 1.435101,-0.2413 z m -0.0127,1.397 q -0.469901,0 -0.787401,0.2413 -0.3048,0.2413 -0.3048,0.6858 0,0.4699 0.330201,0.762 0.330199,0.2921 0.7747,0.508 0.4318,-0.2032 0.762,-0.4826 0.3302,-0.2921 0.3302,-0.7874 0,-0.4445 -0.317501,-0.6858 -0.3048,-0.2413 -0.787399,-0.2413 z m -1.397001,5.3721 q 0,0.4953 0.3429,0.8128 0.355601,0.3175 1.041401,0.3175 0.7112,0 1.0668,-0.3048 0.3556,-0.3048 0.3556,-0.8128 0,-0.3429 -0.2032,-0.5969 -0.2032,-0.2667 -0.508,-0.4699 -0.2921,-0.2159 -0.6096,-0.3937 l -0.1651,-0.0889 q -0.584201,0.2794 -0.9525,0.6477 -0.368301,0.3683 -0.368301,0.889 z"
       id="text1"
       aria-label="20&#10;48" />
  </g>
</svg>
