<?xml version="1.0" encoding="UTF-8" standalone="no"?>
<svg
   version="1.1"
   viewBox="0 0 996 215"
   id="svg66"
   sodipodi:docname="Arduboy.svg"
   inkscape:version="1.2.2 (732a01da63, 2022-12-09)"
   xmlns:inkscape="http://www.inkscape.org/namespaces/inkscape"
   xmlns:sodipodi="http://sodipodi.sourceforge.net/DTD/sodipodi-0.dtd"
   xmlns="http://www.w3.org/2000/svg"
   xmlns:svg="http://www.w3.org/2000/svg">
  <defs
     id="defs70" />
  <sodipodi:namedview
     id="namedview68"
     pagecolor="#ffffff"
     bordercolor="#000000"
     borderopacity="0.25"
     inkscape:showpageshadow="2"
     inkscape:pageopacity="0.0"
     inkscape:pagecheckerboard="0"
     inkscape:deskcolor="#d1d1d1"
     showgrid="false"
     inkscape:zoom="0.62198795"
     inkscape:cx="316.72639"
     inkscape:cy="22.508475"
     inkscape:window-width="1920"
     inkscape:window-height="1009"
     inkscape:window-x="1912"
     inkscape:window-y="-8"
     inkscape:window-maximized="1"
     inkscape:current-layer="svg66" />
  <path
     d="M 860.61,94.92 889.4,65.98 a 2.07,2.06 67.7 0 0 0.59,-1.42 c 0.01,-4.86 -1,-14.63 1.03,-18.68 2.72,-5.46 10.5,-6.55 13.83,-1.15 2.39,3.86 1.14,18 1.16,23.03 q 0.02,5.15 -3.06,8.19 -16.92,16.7 -33.77,33.48 c -0.75,0.75 -1.21,1.7 -1.21,2.87 q 0.03,25.31 0.32,50.61 c 0.16,14.09 -16.19,12.99 -16.24,1.27 q -0.1,-26.46 -0.03,-52.94 0,-0.94 -1.29,-2.22 -27.22,-26.67 -35.47,-35.28 c -2.28,-2.37 -1.35,-20.98 -1.22,-25.01 0.35,-10.51 16.87,-9.53 16.19,2.75 q -0.42,7.55 -0.12,13.63 a 1.33,1.33 0 0 0 0.4,0.9 l 29,28.91 a 0.78,0.78 0 0 0 1.1,0 z"
     id="path50"
     style="fill:#1a1a1a" />
  <path
     d="m 694.02,68.81 c 0.01,-5.63 16.76,-20.26 21.26,-24.53 1.47,-1.39 2.76,-2.26 4.94,-2.27 Q 731.5,42 742.78,41.99 c 4.18,0 12.04,-0.47 18.13,0.01 4.53,0.37 18.37,16.34 22.12,20.24 q 3.82,3.97 3.84,9.08 0.17,37.33 0.12,74.68 c -0.01,5.82 -14.13,17.73 -21.02,24.47 -2.81,2.75 -4.16,3.51 -8.35,3.52 q -18.19,0.02 -36.37,0 c -1.85,0 -3.53,-0.87 -4.96,-2.25 q -9.57,-9.2 -18.82,-18.73 -3.3,-3.39 -3.32,-7.57 -0.19,-38.32 -0.13,-76.63 z m 30.21,-10.43 c -4.88,4.39 -9.6,9.21 -13.92,14.09 A 1.24,1.23 65.9 0 0 710,73.29 v 68.79 a 1.4,1.37 23 0 0 0.41,0.98 l 14.33,14.14 a 1.33,1.34 67.2 0 0 0.97,0.39 l 30.27,-0.6 a 1.43,1.41 21.5 0 0 0.94,-0.4 l 13.71,-13.72 a 1.05,1.06 66.7 0 0 0.31,-0.77 L 769.93,72.17 A 0.99,0.97 22.2 0 0 769.64,71.5 L 756.46,58.35 A 1.19,1.21 67.8 0 0 755.61,58 l -30.41,0.01 a 1.45,1.49 24.9 0 0 -0.97,0.37 z"
     id="path52"
     style="fill:#1a1a1a" />
  <path
     d="m 574.06,50.75 c 0.02,-5.76 4.71,-8.72 9.96,-8.73 q 27.74,-0.04 55.48,-0.01 c 1.33,0 3.23,0.48 4.36,1.54 q 14.25,13.29 21.45,21.4 c 3,3.38 1.83,19.94 1.57,24.73 -0.18,3.4 -11.87,14.54 -14.75,17.68 a 1.01,1.01 0 0 0 0,1.38 q 5.44,5.82 11.43,11.7 c 5.5,5.39 3.72,19.81 3.3,26.95 -0.24,4.22 -21.42,26.61 -25.36,26.61 q -29.53,0 -59.05,0.01 c -6.38,0 -8.38,-6.04 -8.39,-11.7 q -0.12,-55.78 0,-111.56 z m 15.88,9.15 0.2,39.54 a 0.56,0.56 0 0 0 0.56,0.56 h 45.02 a 1.24,1.21 22.8 0 0 0.84,-0.33 q 6.56,-6.08 12.47,-12.88 c 2.73,-3.13 2.35,-7.92 1.71,-11.7 C 649.99,70.7 639.15,61.54 635.59,58.3 a 1.25,1.24 65.6 0 0 -0.87,-0.33 q -19.94,0.21 -39.77,0.37 -2.63,0.02 -4.42,0.71 a 0.91,0.91 0 0 0 -0.59,0.85 z m 46.62,97.8 c 5.02,-4.2 9.72,-9.29 14.12,-14.13 a 1.21,1.22 65.9 0 0 0.32,-0.82 v -11.52 a 1.36,1.38 22.3 0 0 -0.4,-0.97 L 636.77,116.38 A 1.3,1.3 0 0 0 635.85,116 h -44.56 a 0.59,0.59 0 0 0 -0.59,0.59 l 0.36,40.82 a 0.6,0.6 0 0 0 0.6,0.59 h 44.07 a 1.3,1.29 25 0 0 0.83,-0.3 z"
     id="path54"
     style="fill:#1a1a1a" />
  <path
     d="m 531.02,48.82 c 0,-2.39 3.22,-5.52 5.57,-6.24 6.83,-2.08 10.4,4.25 10.4,10.05 q 0.02,46.68 0.01,93.38 c -0.01,4.95 -1.5,5.97 -5.2,9.76 q -12.94,13.21 -16.76,16.78 c -4.6,4.28 -32.25,2.48 -39.57,2.45 -5.57,-0.03 -8.59,-1.45 -12.26,-5.22 q -12.09,-12.47 -15.69,-16.3 c -2.82,-3 -2.38,-4.21 -2.47,-7.87 Q 453.81,93.97 454,52.01 c 0.04,-8.72 10.66,-13.39 15.31,-5.16 1.42,2.51 1.32,6.57 1.35,9.21 q 0.53,43.86 0.3,87.74 a 1.22,1.22 0 0 0 0.37,0.9 l 12.92,12.92 a 1.25,1.28 68.4 0 0 0.91,0.38 h 30.87 A 1.38,1.36 22.3 0 0 517,157.6 L 530.6,144 a 1.42,1.44 67.3 0 0 0.42,-1.01 q -0.05,-47.12 0,-94.17 z"
     id="path56"
     style="fill:#1a1a1a" />
  <path
     d="m 281.75,136.84 a 0.49,0.49 0 0 0 -0.13,0.78 q 11.15,11.3 22.37,22.74 c 9.22,9.4 -2.54,20.25 -10.91,11.82 Q 275.87,154.86 258.83,137.36 A 1.19,1.18 67.8 0 0 257.98,137 h -26.37 a 0.5,0.5 0 0 0 -0.5,0.49 q -0.19,11.6 -0.11,23.04 c 0.04,6.56 1.06,10.54 -3.72,13.68 -5.82,3.82 -12.26,-0.94 -12.27,-7.52 Q 214.99,109.26 215,51.83 c 0.01,-6.56 5.01,-8.8 10.73,-8.81 q 26.76,-0.04 53.53,-0.01 4.34,0 8.23,3.74 c 3.66,3.53 19.44,18.1 19.46,22.35 q 0.1,20.1 0.34,40.21 c 0.01,0.79 -0.39,2.07 -0.49,2.96 a 1.63,1.6 68.4 0 1 -0.37,0.88 q -7.61,9.25 -16.46,17.31 c -2.74,2.49 -4.79,4.7 -8.22,6.38 z m -4.1,-17.24 c 4.63,-3.66 9.15,-8.83 13.02,-13.05 a 1.21,1.21 0 0 0 0.33,-0.83 v -31.4 a 1.91,1.94 22.2 0 0 -0.56,-1.36 L 277.83,60.38 A 1.29,1.33 68.2 0 0 276.9,60 H 231.5 A 0.5,0.5 0 0 0 231,60.5 V 120 a 0.73,0.73 0 0 0 0.75,0.73 l 45.08,-0.84 a 1.39,1.37 25.1 0 0 0.82,-0.29 z"
     id="path58"
     style="fill:#1a1a1a" />
  <path
     d="m 426.99,149.94 c 0,3.01 -17.19,19 -21.15,22.66 q -2.55,2.36 -5.34,2.36 -28.5,0.04 -57,0.09 c -7.53,0.01 -8.55,-4.82 -8.52,-11.42 q 0.24,-54.41 -0.51,-108.81 c -0.1,-7.14 1.65,-11.79 9.4,-11.8 q 28.82,-0.04 57.63,-0.01 c 3.85,0 21.69,19.64 23.79,21.95 1.03,1.13 1.7,2.93 1.7,4.61 q 0.03,40.18 0,80.37 z m -30.4,8.74 c 4.71,-4.12 10.33,-9.22 14.12,-14.15 A 1.42,1.41 63.8 0 0 411,143.67 V 74.01 a 1.33,1.33 0 0 0 -0.39,-0.94 L 396.92,59.39 A 1.38,1.35 66.7 0 0 395.97,59 H 351.5 a 0.5,0.5 0 0 0 -0.5,0.5 v 99 a 0.5,0.5 0 0 0 0.5,0.5 h 44.25 a 1.26,1.27 24.3 0 0 0.84,-0.32 z"
     id="path60"
     style="fill:#1a1a1a" />
  <path
     d="m 145.81,45.44 q 9.56,8.9 38.09,37.91 c 3.57,3.63 4.07,5.85 4.07,11.26 q 0.06,34.76 0.02,69.53 0,4.97 -1.06,7.03 c -2.86,5.56 -10.51,6.25 -13.76,0.73 q -1.1,-1.86 -1.14,-5.66 -0.25,-23.98 -0.62,-48 A 0.25,0.25 0 0 0 171.16,118 h -59.65 a 0.48,0.48 0 0 0 -0.48,0.48 q -0.18,24.51 0.26,49.01 c 0.16,9.4 -12.05,11.7 -15.51,3.1 q -0.75,-1.86 -0.76,-5.91 -0.04,-36.96 0.03,-73.93 0,-2.69 1.79,-4.67 17.9,-19.8 37.03,-38.41 c 3.51,-3.4 7.95,-5.95 11.94,-2.23 z m -34.84,55.8 a 0.81,0.81 0 0 0 0.82,0.82 l 58.46,-0.95 a 0.81,0.81 0 0 0 0.8,-0.8 l 0.07,-6.23 A 0.81,0.81 0 0 0 170.88,93.5 L 141.49,64.12 a 0.81,0.81 0 0 0 -1.15,0 l -29.05,29.63 a 0.81,0.81 0 0 0 -0.23,0.56 z"
     id="path62"
     style="fill:#1a1a1a" />
</svg>
