<?xml version="1.0" encoding="UTF-8" standalone="no"?>
<!-- Created with Inkscape (http://www.inkscape.org/) -->

<svg
   width="38.9785mm"
   height="39.2393mm"
   viewBox="0 0 38.9785 39.2393"
   version="1.1"
   id="svg5"
   xml:space="preserve"
   inkscape:version="1.2.2 (732a01da63, 2022-12-09)"
   sodipodi:docname="ChaiLove.svg"
   xmlns:inkscape="http://www.inkscape.org/namespaces/inkscape"
   xmlns:sodipodi="http://sodipodi.sourceforge.net/DTD/sodipodi-0.dtd"
   xmlns="http://www.w3.org/2000/svg"
   xmlns:svg="http://www.w3.org/2000/svg"><sodipodi:namedview
     id="namedview7"
     pagecolor="#ffffff"
     bordercolor="#000000"
     borderopacity="0.25"
     inkscape:showpageshadow="2"
     inkscape:pageopacity="0.0"
     inkscape:pagecheckerboard="0"
     inkscape:deskcolor="#d1d1d1"
     inkscape:document-units="mm"
     showgrid="false"
     inkscape:zoom="0.52221046"
     inkscape:cx="-31.596456"
     inkscape:cy="88.08709"
     inkscape:window-width="1920"
     inkscape:window-height="1009"
     inkscape:window-x="1912"
     inkscape:window-y="-8"
     inkscape:window-maximized="1"
     inkscape:current-layer="layer1" /><defs
     id="defs2" /><g
     inkscape:label="Warstwa 1"
     inkscape:groupmode="layer"
     id="layer1"
     transform="translate(17.828611,-50.932227)"><g
       id="g385"><path
         style="fill:#d0d0d0;fill-opacity:1;stroke-width:0.0390769"
         d="m 1.274034,90.155245 c 0.0591,-0.009 0.155819,-0.009 0.214923,0 0.0591,0.009 0.01075,0.01628 -0.107461,0.01628 -0.118208,0 -0.166566,-0.0073 -0.107462,-0.01628 z m 0.997161,-3.91e-4 c 0.07023,-0.0087 0.175743,-0.0085 0.234462,3.91e-4 0.05872,0.0089 0.0013,0.01603 -0.1277,0.01581 -0.128954,-3.91e-4 -0.176997,-0.0075 -0.106762,-0.01621 z m -1.738879,-0.03784 c 0.03802,-0.0099 0.09078,-0.0093 0.117231,0.0014 0.02646,0.0107 -0.0047,0.01881 -0.06913,0.01801 -0.06448,-7.82e-4 -0.08612,-0.0096 -0.0481,-0.01946 z m 2.636949,0.0012 c 0.02687,-0.01084 0.07083,-0.01084 0.09769,0 0.02687,0.01084 0.0049,0.01971 -0.04885,0.01971 -0.05373,0 -0.07571,-0.0089 -0.04885,-0.01971 z M 0.08463,90.078324 c 0.02821,-0.01129 0.06191,-0.0099 0.0749,0.0031 0.01298,0.01299 -0.0101,0.02222 -0.05129,0.02053 -0.04552,-0.0019 -0.05478,-0.01114 -0.02361,-0.02361 z m 3.553558,8.21e-4 c 0.02687,-0.01084 0.07083,-0.01084 0.09769,0 0.02687,0.01084 0.0049,0.01971 -0.04885,0.01971 -0.05373,0 -0.07571,-0.0089 -0.04885,-0.01971 z m 0.393211,-0.03989 c 0.02821,-0.01129 0.06191,-0.0099 0.0749,0.0031 0.01299,0.01299 -0.01009,0.02222 -0.05129,0.02053 -0.04552,-0.0019 -0.05478,-0.01114 -0.02361,-0.02361 z m 0.312616,-0.03908 c 0.02821,-0.01129 0.06191,-0.0099 0.0749,0.0031 0.01299,0.01299 -0.0101,0.02222 -0.05129,0.02053 -0.04552,-0.0019 -0.05478,-0.01114 -0.02361,-0.02361 z M -10.4638,85.542835 c -0.0486,-0.06198 -0.0472,-0.06336 0.0148,-0.01475 0.0376,0.0295 0.0684,0.06027 0.0684,0.06838 0,0.03216 -0.0321,0.01146 -0.0831,-0.05363 z m 25.014219,-0.102677 c 0,-0.0081 0.03077,-0.03889 0.06838,-0.06838 0.06198,-0.04861 0.06336,-0.04723 0.01475,0.01475 -0.05105,0.06509 -0.08314,0.08579 -0.08314,0.05363 z m -25.266949,-0.112247 -0.0744,-0.08792 0.0879,0.07444 c 0.0483,0.04094 0.0879,0.08051 0.0879,0.08792 0,0.03127 -0.0314,0.0082 -0.10141,-0.07444 z m 25.657718,-0.24423 c 0.05048,-0.05373 0.10057,-0.09769 0.111316,-0.09769 0.01075,0 -0.02176,0.04396 -0.07224,0.09769 -0.05048,0.05373 -0.100569,0.09769 -0.111315,0.09769 -0.01075,0 0.02176,-0.04396 0.07224,-0.09769 z m -26.105488,-0.166077 -0.13467,-0.146539 0.14654,0.134666 c 0.0806,0.07407 0.14654,0.140008 0.14654,0.146538 0,0.02984 -0.0331,0.0017 -0.15841,-0.134665 z m -0.89877,-0.89877 -0.13467,-0.146538 0.14654,0.134666 c 0.0806,0.07407 0.14654,0.140008 0.14654,0.146538 0,0.02984 -0.0331,0.0017 -0.15841,-0.134666 z m 28.25472,-0.185615 c 0.05048,-0.05373 0.10057,-0.09769 0.111316,-0.09769 0.01075,0 -0.02176,0.04396 -0.07224,0.09769 -0.05048,0.05373 -0.10057,0.09769 -0.111316,0.09769 -0.01075,0 0.02176,-0.04396 0.07224,-0.09769 z M -12.4958,83.549911 c -0.0486,-0.06198 -0.0472,-0.06336 0.0148,-0.01475 0.0376,0.0295 0.0684,0.06027 0.0684,0.06838 0,0.03216 -0.0321,0.01146 -0.0831,-0.05363 z m 28.960988,-0.02452 c 0,-0.0081 0.03077,-0.03889 0.06839,-0.06838 0.06198,-0.04861 0.06336,-0.04723 0.01475,0.01475 -0.05105,0.06509 -0.08314,0.08579 -0.08314,0.05363 z M -12.73026,83.276376 c -0.0486,-0.06198 -0.0472,-0.06336 0.0148,-0.01475 0.0376,0.0295 0.0684,0.06027 0.0684,0.06839 0,0.03216 -0.0321,0.01146 -0.0831,-0.05363 z m 29.42991,-0.02452 c 0,-0.0081 0.03077,-0.03889 0.06838,-0.06838 0.06198,-0.04861 0.06336,-0.04722 0.01475,0.01475 -0.05105,0.06509 -0.08314,0.08579 -0.08314,0.05363 z m -29.62529,-0.209939 c -0.0486,-0.06198 -0.0472,-0.06336 0.0148,-0.01475 0.0376,0.0295 0.0684,0.06027 0.0684,0.06839 0,0.03216 -0.0321,0.01146 -0.0831,-0.05363 z m 21.026734,-7.366 c 0.161933,-0.172532 0.197017,-0.203555 0.197017,-0.174213 0,0.0063 -0.08353,0.0898 -0.185615,0.185615 L 7.92688,75.861532 Z m 0.236094,-0.239446 c 0,-0.0081 0.03077,-0.03889 0.06839,-0.06839 0.06198,-0.04861 0.06336,-0.04722 0.01475,0.01475 -0.05105,0.06509 -0.08314,0.08579 -0.08314,0.05363 z m 12.664007,-2.31358 c 0.0019,-0.04552 0.01114,-0.05478 0.02361,-0.02361 0.01129,0.02821 0.0099,0.06191 -0.0031,0.0749 -0.01298,0.01299 -0.02222,-0.01009 -0.02053,-0.05129 z m 0.04216,-0.407051 c 0,-0.05373 0.0089,-0.07571 0.01971,-0.04885 0.01084,0.02687 0.01084,0.07083 0,0.09769 -0.01084,0.02687 -0.01971,0.0049 -0.01971,-0.04885 z m 0.04197,-0.547077 c 0,-0.07522 0.008,-0.105996 0.01787,-0.06839 0.0098,0.03761 0.0098,0.09916 0,0.13677 -0.0098,0.03761 -0.01787,0.0068 -0.01787,-0.06838 z m 0.04066,-1.133231 c 0,-0.09671 0.0076,-0.136281 0.01693,-0.08792 0.0093,0.04836 0.0093,0.127489 0,0.175846 -0.0093,0.04836 -0.01693,0.0088 -0.01693,-0.08792 z m -0.0421,-1.152769 c 7.81e-4,-0.06448 0.0096,-0.08612 0.01946,-0.0481 0.0099,0.03802 0.0093,0.09078 -0.0014,0.117231 -0.0107,0.02646 -0.01881,-0.0047 -0.01801,-0.06913 z m -0.04361,-0.550333 c 0.0019,-0.04552 0.01114,-0.05478 0.02361,-0.02361 0.01129,0.02821 0.0099,0.06191 -0.0031,0.0749 -0.01299,0.01299 -0.02222,-0.01009 -0.02053,-0.05129 z m -0.03908,-0.39077 c 0.0019,-0.04552 0.01114,-0.05478 0.02361,-0.02361 0.01129,0.02821 0.0099,0.06191 -0.0031,0.0749 -0.01298,0.01299 -0.02222,-0.01009 -0.02053,-0.05129 z m -0.03908,-0.351692 c 0.0019,-0.04552 0.01114,-0.05478 0.02361,-0.02361 0.01129,0.02821 0.0099,0.06191 -0.0031,0.0749 -0.01299,0.01298 -0.02222,-0.0101 -0.02053,-0.05129 z"
         id="path206" /><path
         style="fill:#a3a3a3;fill-opacity:1;stroke-width:0.0390769"
         d="m -8.97758,86.516896 c 0.0238,-0.04438 0.0624,-0.09259 0.0859,-0.107123 0.0306,-0.01894 0.0305,-0.0036 -4.2e-4,0.05426 -0.0238,0.04438 -0.0624,0.09259 -0.0859,0.107124 -0.0306,0.01894 -0.0305,0.0036 4.2e-4,-0.05426 z"
         id="path202" /><path
         style="fill:#8c8c8c;fill-opacity:1;stroke-width:0.0390769"
         d="m 1.156803,89.334154 c 0.0806,-0.0084 0.212481,-0.0084 0.293077,0 0.0806,0.0084 0.01465,0.01533 -0.146538,0.01533 -0.161193,0 -0.227135,-0.0069 -0.146539,-0.01533 z M -8.87079,86.412312 c 0.0124,-0.03224 0.0404,-0.05861 0.0622,-0.05861 0.0229,0 0.0191,0.02483 -0.009,0.05861 -0.0268,0.03224 -0.0547,0.05861 -0.0622,0.05861 -0.007,0 -0.003,-0.02638 0.009,-0.05861 z m 1.90936,-22.176155 c 0.0389,-0.04299 0.0795,-0.07815 0.0903,-0.07815 0.0108,0 -0.0123,0.03517 -0.0512,0.07815 -0.0389,0.04298 -0.0795,0.07815 -0.0903,0.07815 -0.0107,0 0.0123,-0.03517 0.0512,-0.07815 z"
         id="path200" /><path
         style="fill:#606060;fill-opacity:1;stroke-width:0.0390769"
         d="m 0.05288,89.297974 c -0.07522,-0.0072 -0.3302,-0.03143 -0.566615,-0.05387 C -3.44819,88.965523 -6.40728,87.904802 -9.04168,86.187153 l -0.59534,-0.38816 0.28272,-0.342515 c 0.15549,-0.188383 0.63508,-0.762564 1.06574,-1.275956 0.43067,-0.513393 1.09957,-1.311511 1.48646,-1.773596 0.38688,-0.462084 1.07149,-1.279769 1.52134,-1.817077 0.44986,-0.537307 1.16584,-1.394128 1.59107,-1.904046 l 0.77315,-0.927122 0.47848,0.354968 c 0.94954,0.704438 3.68208,2.456662 3.831088,2.456662 0.07842,0 1.553367,-0.905277 2.487385,-1.526683 3.175432,-2.112628 5.341138,-4.187898 6.612857,-6.336716 0.358149,-0.605164 0.590743,-1.110003 0.796869,-1.729583 0.294422,-0.884987 0.345503,-1.203935 0.347399,-2.169173 0.0015,-0.739823 -0.0092,-0.888423 -0.08886,-1.244354 -0.31185,-1.392597 -0.965663,-2.511757 -2.100436,-3.595404 L 8.990815,63.53158 9.184651,63.307484 c 0.106609,-0.123253 0.509752,-0.602166 0.895873,-1.064251 0.674609,-0.807329 1.51764,-1.814335 3.058747,-3.653692 0.396161,-0.472831 0.967497,-1.157047 1.269636,-1.52048 l 0.549343,-0.660787 0.268495,0.289556 c 1.148516,1.238609 1.912274,2.260451 2.655237,3.55248 1.430587,2.487821 2.233603,4.895426 2.574109,7.717693 0.102956,0.853367 0.141807,2.673858 0.07642,3.581473 -0.431516,5.990386 -3.554204,11.303413 -8.572956,14.586268 -0.771091,0.504385 -1.288625,0.796077 -2.196058,1.237741 -2.213354,1.077281 -4.475843,1.698338 -6.955693,1.90935 -0.424224,0.0361 -2.420589,0.04707 -2.754923,0.01514 z"
         id="path198" /><path
         style="fill:#494949;fill-opacity:1;stroke-width:0.0390769"
         d="m -10.12167,85.436721 c -0.85118,-0.656982 -1.27109,-1.027573 -2.05731,-1.81569 -1.14257,-1.145324 -2.09835,-2.331989 -2.81398,-3.493725 -2.191,-3.556839 -3.13883,-7.602009 -2.75085,-11.740128 0.54975,-5.863481 3.73883,-11.237537 8.52444,-14.364882 2.12848,-1.390945 4.73475,-2.401062 7.3152,-2.83517 1.273026,-0.21416 1.767994,-0.252775 3.266127,-0.254807 1.389185,-0.0019 1.821887,0.02464 2.852616,0.174856 3.399194,0.495391 6.609132,1.880176 9.261231,3.995345 0.578178,0.461123 1.474086,1.273593 1.457149,1.321441 -0.01456,0.04112 -5.895398,7.066987 -5.93655,7.09242 -0.01705,0.01054 -0.159158,-0.0753 -0.315799,-0.190751 C 6.402703,61.646725 4.050632,61.676862 2.197748,63.4087 2.034156,63.561604 1.797712,63.814731 1.672317,63.971204 1.546922,64.127677 1.432856,64.269739 1.418838,64.286897 1.404818,64.304057 1.293565,64.194587 1.171606,64.043645 0.432415,63.128763 -0.516749,62.4776 -1.49066,62.217229 c -0.34505,-0.09225 -0.4662,-0.104839 -1.03554,-0.107615 -0.50097,-0.0024 -0.71449,0.01315 -0.95738,0.06994 -1.7357,0.405769 -3.53199,1.768729 -4.50098,3.415185 -1.48514,2.523458 -1.12026,5.37979 1.05694,8.273886 0.85138,1.131732 2.29944,2.561408 3.63942,3.593218 0.19343,0.148946 0.3578,0.275022 0.36527,0.280169 0.0129,0.0089 -0.8122,0.999273 -4.91169,5.895844 -0.97166,1.160585 -1.78815,2.113899 -1.81442,2.118476 -0.0263,0.0046 -0.23896,-0.139245 -0.47263,-0.319605 z"
         id="path196" /></g></g></svg>
