<?xml version="1.0" encoding="UTF-8" standalone="no"?>
<svg
   height="75"
   width="75"
   version="1.1"
   viewBox="0 0 19.84375 19.84375"
   id="svg12"
   sodipodi:docname="raofflineproxy.svg"
   inkscape:version="1.2.2 (732a01da63, 2022-12-09)"
   xmlns:inkscape="http://www.inkscape.org/namespaces/inkscape"
   xmlns:sodipodi="http://sodipodi.sourceforge.net/DTD/sodipodi-0.dtd"
   xmlns="http://www.w3.org/2000/svg"
   xmlns:svg="http://www.w3.org/2000/svg">
  <defs
     id="defs16" />
  <sodipodi:namedview
     id="namedview14"
     pagecolor="#ffffff"
     bordercolor="#000000"
     borderopacity="0.25"
     inkscape:showpageshadow="2"
     inkscape:pageopacity="0.0"
     inkscape:pagecheckerboard="0"
     inkscape:deskcolor="#d1d1d1"
     inkscape:document-units="mm"
     showgrid="false"
     inkscape:zoom="5.4834895"
     inkscape:cx="-2.2795703"
     inkscape:cy="59.815926"
     inkscape:window-width="1920"
     inkscape:window-height="1009"
     inkscape:window-x="1912"
     inkscape:window-y="-8"
     inkscape:window-maximized="1"
     inkscape:current-layer="svg12" />
  <g
     id="g268"
     transform="translate(-1.8150326,1.5701784)">
    <g
       transform="matrix(0.81518116,0,0,0.81518116,-56.336441,-98.723549)"
       id="g10">
      <g
         transform="matrix(0.35278,0,0,-0.35278,-4.3083,326.78)"
         id="g8">
        <g
           aria-label="RA"
           style="font-variant-ligatures:normal;font-variant-caps:normal;font-variant-numeric:normal;font-feature-settings:normal"
           transform="matrix(1.1293,0,0,-1.1092,-28.246,-45.784)"
           id="g6">
          <path
             style="font-variant-ligatures:normal;font-variant-caps:normal;font-variant-numeric:normal;font-feature-settings:normal"
             d="m 220.57,-553.59 h 11.73 q 1.89,0 3.12,1.14 1.26,1.14 1.26,3.45 0,0.99 -0.33,1.86 -0.33,0.84 -0.93,1.47 -0.57,0.63 -1.38,0.99 -0.81,0.36 -1.74,0.36 h -0.99 l 8.55,15.03 h -4.29 l -5.94,-10.29 v 10.29 h -3.99 v -19.17 h 6.51 q 0.24,0 0.36,-0.18 0.15,-0.18 0.15,-0.39 0,-0.21 -0.15,-0.36 -0.12,-0.18 -0.36,-0.18 h -7.59 v 20.28 h -3.99 z m 12.66,10.26 q 0.87,-0.06 1.68,-0.51 0.84,-0.45 1.47,-1.2 0.63,-0.75 1.02,-1.74 0.39,-1.02 0.39,-2.22 0,-1.23 -0.39,-2.28 -0.39,-1.05 -1.11,-1.8 -0.72,-0.75 -1.74,-1.17 -0.99,-0.42 -2.25,-0.42 h -11.73 v -4.05 h 11.73 q 1.98,0 3.72,0.75 1.74,0.75 3.03,2.07 1.29,1.32 2.01,3.09 0.75,1.77 0.75,3.81 0,2.58 -0.87,4.47 -0.87,1.86 -2.37,3 l 6.84,12.24 h -4.08 z"
             id="path2" />
          <path
             style="font-variant-ligatures:normal;font-variant-caps:normal;font-variant-numeric:normal;font-feature-settings:normal"
             d="m 252.84,-532.8 h 12.45 l -7.62,-21.15 q -0.09,-0.3 -0.54,-0.54 -0.45,-0.24 -0.87,-0.24 -0.48,0 -0.9,0.24 -0.39,0.24 -0.48,0.54 l -8.67,24.66 h -3.99 l 9.27,-26.16 q 0.21,-0.63 0.6,-1.2 0.39,-0.6 0.96,-1.05 0.6,-0.48 1.38,-0.75 0.81,-0.27 1.83,-0.27 1.02,0 1.8,0.27 0.78,0.27 1.35,0.75 0.6,0.45 0.99,1.05 0.39,0.57 0.63,1.2 l 9.27,26.16 h -17.46 z m 0,-1.08 v -1.14 l -1.92,5.73 h -3.63 l 8.25,-23.91 q 0.06,-0.18 0.27,-0.3 0.24,-0.15 0.45,-0.15 0.21,0 0.45,0.15 0.24,0.12 0.3,0.3 l 6.84,19.32 z m 3.42,-11.13 -2.4,7.56 h 4.89 z"
             id="path4" />
        </g>
      </g>
    </g>
    <g
       aria-label="OFFLINE PROXY"
       id="text353"
       style="font-weight:bold;font-size:2.77378px;font-family:monospace;-inkscape-font-specification:'monospace Bold';text-align:center;text-anchor:middle;stroke:#1a1a1a;stroke-width:0.208033;stroke-linecap:square;stroke-miterlimit:0.3"
       transform="matrix(0.81518116,0,0,0.81518116,3.6616597,2.6055481)">
      <path
         d="m 1.1113249,14.097849 q -0.28847311,0 -0.50760174,-0.127594 -0.21635485,-0.127594 -0.34117495,-0.35227 -0.12482011,-0.22745 -0.12482011,-0.524244 0,-0.296795 0.12482011,-0.521471 0.1248201,-0.22745 0.34117495,-0.355044 0.21912863,-0.127594 0.50760174,-0.127594 0.2912469,0 0.5103756,0.127594 0.2219024,0.127594 0.3439487,0.355044 0.1220463,0.224676 0.1220463,0.521471 0,0.296794 -0.1220463,0.524244 -0.1220463,0.224676 -0.3439487,0.35227 -0.2191287,0.127594 -0.5103756,0.127594 z m 0,-0.335627 q 0.1830695,0 0.316211,-0.08044 0.1331414,-0.08321 0.2052597,-0.232997 0.072118,-0.149785 0.072118,-0.355044 0,-0.208034 -0.072118,-0.355044 -0.072118,-0.149784 -0.2052597,-0.230224 -0.1331415,-0.08044 -0.316211,-0.08044 -0.17752191,0 -0.31066335,0.08044 -0.13314145,0.08044 -0.20803351,0.230224 -0.0721183,0.14701 -0.0721183,0.355044 0,0.205259 0.0721183,0.355044 0.0748921,0.149784 0.20803351,0.232997 0.13314144,0.08044 0.31066335,0.08044 z"
         style="font-family:'DM Sans';-inkscape-font-specification:'DM Sans Bold';stroke:none"
         id="path293" />
      <path
         d="M 2.3095999,14.064564 V 12.122918 H 3.5744437 V 12.42526 H 2.6840603 v 0.518697 h 0.7156352 v 0.29402 H 2.6840603 v 0.826587 z"
         style="font-family:'DM Sans';-inkscape-font-specification:'DM Sans Bold';stroke:none"
         id="path295" />
      <path
         d="M 3.7408725,14.064564 V 12.122918 H 5.0057162 V 12.42526 H 4.1153328 v 0.518697 H 4.830968 v 0.29402 H 4.1153328 v 0.826587 z"
         style="font-family:'DM Sans';-inkscape-font-specification:'DM Sans Bold';stroke:none"
         id="path297" />
      <path
         d="m 5.1721454,14.064564 v -1.941646 h 0.3744604 v 1.650399 h 0.8515504 v 0.291247 z"
         style="font-family:'DM Sans';-inkscape-font-specification:'DM Sans Bold';stroke:none"
         id="path299" />
      <path
         d="m 6.5645853,14.064564 v -1.941646 h 0.3744603 v 1.941646 z"
         style="font-family:'DM Sans';-inkscape-font-specification:'DM Sans Bold';stroke:none"
         id="path301" />
      <path
         d="m 7.1886864,14.064564 v -1.941646 h 0.4632213 l 0.7933011,1.439592 h 0.011095 v -1.439592 h 0.3744603 v 1.941646 H 8.367543 L 7.5742419,12.627746 h -0.011095 v 1.436818 z"
         style="font-family:'DM Sans';-inkscape-font-specification:'DM Sans Bold';stroke:none"
         id="path303" />
      <path
         d="M 9.0804029,14.064564 V 12.122918 H 10.359116 V 12.42526 H 9.4548632 v 0.507601 h 0.8210388 v 0.291247 H 9.4548632 v 0.538114 h 0.9042528 v 0.302342 z"
         style="font-family:'DM Sans';-inkscape-font-specification:'DM Sans Bold';stroke:none"
         id="path305" />
      <path
         d="m 11.121905,14.064564 v -1.941646 h 0.729504 q 0.235771,0 0.388329,0.08044 0.155332,0.07767 0.230224,0.213581 0.07767,0.135916 0.07767,0.30789 0,0.158105 -0.07489,0.294021 -0.07212,0.135915 -0.22745,0.221902 -0.152558,0.08321 -0.393877,0.08321 h -0.355044 v 0.7406 z m 0.37446,-1.042942 h 0.332854 q 0.177522,0 0.255188,-0.08044 0.08044,-0.08044 0.08044,-0.216355 0,-0.141463 -0.08044,-0.219129 -0.07767,-0.07767 -0.255188,-0.07767 h -0.332854 z"
         style="font-family:'DM Sans';-inkscape-font-specification:'DM Sans Bold';stroke:none"
         id="path307" />
      <path
         d="m 12.727925,14.064564 v -1.941646 h 0.72673 q 0.232998,0 0.385556,0.08044 0.155331,0.08044 0.230223,0.216355 0.07489,0.133142 0.07489,0.296795 0,0.155331 -0.07489,0.291247 -0.07212,0.133141 -0.22745,0.216354 -0.152557,0.08044 -0.393876,0.08044 h -0.346723 v 0.760016 z m 1.006882,0 -0.399424,-0.854325 h 0.404972 l 0.421614,0.854325 z m -0.632422,-1.031846 h 0.327306 q 0.171975,0 0.252414,-0.08321 0.08044,-0.08321 0.08044,-0.219128 0,-0.135916 -0.08044,-0.213582 -0.08044,-0.08044 -0.252414,-0.08044 h -0.327306 z"
         style="font-family:'DM Sans';-inkscape-font-specification:'DM Sans Bold';stroke:none"
         id="path309" />
      <path
         d="m 15.274254,14.097849 q -0.288473,0 -0.507601,-0.127594 -0.216355,-0.127594 -0.341175,-0.35227 -0.12482,-0.22745 -0.12482,-0.524244 0,-0.296795 0.12482,-0.521471 0.12482,-0.22745 0.341175,-0.355044 0.219128,-0.127594 0.507601,-0.127594 0.291247,0 0.510376,0.127594 0.221902,0.127594 0.343949,0.355044 0.122046,0.224676 0.122046,0.521471 0,0.296794 -0.122046,0.524244 -0.122047,0.224676 -0.343949,0.35227 -0.219129,0.127594 -0.510376,0.127594 z m 0,-0.335627 q 0.18307,0 0.316211,-0.08044 0.133142,-0.08321 0.20526,-0.232997 0.07212,-0.149785 0.07212,-0.355044 0,-0.208034 -0.07212,-0.355044 -0.07212,-0.149784 -0.20526,-0.230224 -0.133141,-0.08044 -0.316211,-0.08044 -0.177521,0 -0.310663,0.08044 -0.133141,0.08044 -0.208033,0.230224 -0.07212,0.14701 -0.07212,0.355044 0,0.205259 0.07212,0.355044 0.07489,0.149784 0.208033,0.232997 0.133142,0.08044 0.310663,0.08044 z"
         style="font-family:'DM Sans';-inkscape-font-specification:'DM Sans Bold';stroke:none"
         id="path311" />
      <path
         d="m 16.282097,14.064564 0.610232,-0.984692 -0.618553,-0.956954 h 0.43271 l 0.41884,0.662933 h 0.01109 l 0.385556,-0.662933 h 0.424388 l -0.607458,0.973596 0.624101,0.96805 h -0.43271 l -0.421614,-0.674029 h -0.0111 l -0.391103,0.674029 z"
         style="font-family:'DM Sans';-inkscape-font-specification:'DM Sans Bold';stroke:none"
         id="path313" />
      <path
         d="m 18.645357,14.064564 v -0.665707 l -0.654613,-1.275939 h 0.424389 l 0.416067,0.907026 h 0.0111 l 0.416067,-0.907026 h 0.416067 l -0.654612,1.275939 v 0.665707 z"
         style="font-family:'DM Sans';-inkscape-font-specification:'DM Sans Bold';stroke:none"
         id="path315" />
    </g>
  </g>
</svg>
