<?xml version="1.0" encoding="UTF-8" standalone="no"?>
<svg
   width="24"
   height="24"
   viewBox="0 0 24 24"
   fill="none"
   version="1.1"
   id="svg1"
   sodipodi:docname="quicksave.svg"
   inkscape:version="1.4.3 (0d15f75042, 2025-12-25)"
   xmlns:inkscape="http://www.inkscape.org/namespaces/inkscape"
   xmlns:sodipodi="http://sodipodi.sourceforge.net/DTD/sodipodi-0.dtd"
   xmlns="http://www.w3.org/2000/svg"
   xmlns:svg="http://www.w3.org/2000/svg">
  <defs
     id="defs1" />
  <sodipodi:namedview
     id="namedview1"
     pagecolor="#505050"
     bordercolor="#eeeeee"
     borderopacity="1"
     inkscape:showpageshadow="0"
     inkscape:pageopacity="0"
     inkscape:pagecheckerboard="0"
     inkscape:deskcolor="#505050"
     inkscape:zoom="16.5625"
     inkscape:cx="7.2150943"
     inkscape:cy="16.090566"
     inkscape:window-width="1920"
     inkscape:window-height="1004"
     inkscape:window-x="0"
     inkscape:window-y="0"
     inkscape:window-maximized="1"
     inkscape:current-layer="svg1" />
  <path
     d="m 23,17.501 c 0,3.0376 -2.4624,5.5 -5.5,5.5 -3.0376,0 -5.5,-2.4624 -5.5,-5.5 0,-3.0375 2.4624,-5.5 5.5,-5.5 3.0376,0 5.5,2.4625 5.5,5.5 z m -5.4576,3.4982 0.0857,-0.0148 0.0629,-0.0212 0.0675,-0.0341 0.0475,-0.0321 2.5476,-2.5424 0.0578,-0.0693 c 0.135,-0.1948 0.1157,-0.4643 -0.0578,-0.6378 -0.1736,-0.1736 -0.443,-0.1929 -0.6379,-0.0579 L 19.6464,17.6475 17.999,19.295 18,14.001 17.9919,13.9111 c -0.037,-0.204 -0.1979,-0.365 -0.402,-0.402 L 17.5,13.501 17.4101,13.5091 c -0.2041,0.037 -0.365,0.198 -0.402,0.402 L 17,14.001 16.999,19.293 15.3536,17.6475 15.2843,17.5896 c -0.1705,-0.1181 -0.3981,-0.1181 -0.5686,0 l -0.0693,0.0579 -0.0578,0.0692 c -0.1181,0.1705 -0.1181,0.3981 0,0.5686 l 0.0578,0.0693 2.5125,2.512 0.0564,0.0456 0.0733,0.0421 0.0833,0.0301 0.0601,0.0116 0.056,0.005 z"
     id="path5"
     style="fill:#000000" />
  <path
     d="m 10.5911,2.51301 c 0.9036,-0.3663 1.9142,-0.3663 2.8178,0 l 7.4986,3.03997 C 21.5679,5.82071 22,6.46216 22,7.17477 V 12.8105 C 21.5557,12.3842 21.051,12.0204 20.5,11.7332 V 7.77316 l -7.7497,2.99224 v 2.2981 c -0.6922,0.7406 -1.2132,1.6432 -1.5,2.6448 V 10.7641 L 3.5,7.75003 v 9.07747 c 0,0.1018 0.06173,0.1934 0.15607,0.2317 l 7.49863,3.0399 c 0.0316,0.0129 0.0636,0.025 0.0956,0.0363 v -0.0012 l 0.1887,0.0767 c 0.0586,0.0239 0.1185,0.0439 0.179,0.06 0.2483,0.5264 0.5652,1.014 0.9392,1.4515 -0.6592,0.099 -1.3385,0.0213 -1.9661,-0.2332 L 3.09252,18.4493 C 2.43211,18.1815 2,17.5401 2,16.8275 V 7.17477 C 2,6.46216 2.43211,5.82071 3.09252,5.55298 Z m 2.2542,1.39011 c -0.5421,-0.21978 -1.1485,-0.21978 -1.6906,0 l -1.91343,0.7757 7.52713,2.92722 2.6689,-1.0305 z M 4.58998,6.56448 12.0013,9.44667 14.6917,8.40787 7.21503,5.50027 Z"
     id="path1"
     style="fill:#000000" />
</svg>
