<?xml version="1.0" encoding="UTF-8" standalone="no"?>
<svg
   version="1.1"
   style="display: block;"
   viewBox="0 0 1024 1024"
   width="256"
   height="256"
   preserveAspectRatio="none"
   id="svg37"
   sodipodi:docname="scrappy.svg"
   inkscape:version="1.2.2 (732a01da63, 2022-12-09)"
   xmlns:inkscape="http://www.inkscape.org/namespaces/inkscape"
   xmlns:sodipodi="http://sodipodi.sourceforge.net/DTD/sodipodi-0.dtd"
   xmlns="http://www.w3.org/2000/svg"
   xmlns:svg="http://www.w3.org/2000/svg">
  <sodipodi:namedview
     id="namedview39"
     pagecolor="#ffffff"
     bordercolor="#000000"
     borderopacity="0.25"
     inkscape:showpageshadow="2"
     inkscape:pageopacity="0.0"
     inkscape:pagecheckerboard="0"
     inkscape:deskcolor="#d1d1d1"
     showgrid="false"
     inkscape:zoom="1.6191406"
     inkscape:cx="119.50784"
     inkscape:cy="148.22678"
     inkscape:window-width="1920"
     inkscape:window-height="1009"
     inkscape:window-x="1912"
     inkscape:window-y="-8"
     inkscape:window-maximized="1"
     inkscape:current-layer="svg37" />
  <defs
     id="defs7">
    <linearGradient
       id="Gradient1"
       gradientUnits="userSpaceOnUse"
       x1="275.257"
       y1="669.04"
       x2="256.382"
       y2="672.017">
      <stop
         class="stop0"
         offset="0"
         stop-opacity="0"
         stop-color="rgb(255,255,255)"
         id="stop2" />
      <stop
         class="stop1"
         offset="1"
         stop-opacity="0.0980392"
         stop-color="rgb(255,255,255)"
         id="stop4" />
    </linearGradient>
  </defs>
  <path
     fill="rgb(254,254,254)"
     d="M 507.334 0 L 517.48 0 C 522.287 4.42501 537.153 12.1343 543.57 15.7585 L 598.291 46.5377 L 829.248 180.461 C 868.332 203.096 908.626 225.068 946.61 249.513 C 951.138 252.427 954.799 258.52 957.866 263.03 C 959.22 290.889 958.581 320.821 958.573 348.875 L 958.546 487.274 L 958.562 655.355 C 958.596 689.118 959.15 723.01 958.022 756.745 C 957.708 766.156 951.89 770.88 944.381 775.526 C 915.751 793.237 885.617 809.094 856.707 826.236 L 588.731 981.743 C 577.498 988.301 522.066 1017.47 516.491 1024 L 507.015 1024 C 497.325 1014.4 469.957 1000.61 457.557 993.511 C 431.182 978.414 404.823 962.234 378.434 947.255 L 226.761 859.634 L 119.492 797.797 C 103.858 788.581 82.8426 778.755 69.6188 765.939 C 65.1176 751.636 66.7749 685.034 66.7862 665.275 L 66.8244 522.924 L 66.7564 368.12 C 66.7292 335.17 63.8298 287.492 71.2591 256.715 C 80.9413 245.028 128.546 220.583 144.553 211.249 L 412.574 55.7213 L 471.136 22.1302 C 479.233 17.5693 502.216 6.67354 507.334 0 z M 896.677 738.989 C 904.41 714.979 902.018 659.313 902.038 631.874 L 902.08 495.369 L 902.061 380.255 C 902.032 348.168 902.677 318.265 899.067 286.32 C 886.988 276.585 861.33 264.013 847.549 256.172 L 747.03 198.159 L 596.856 111.485 L 543.017 80.3628 C 531.299 73.624 529.133 70.3763 515.324 64.7769 C 496.962 68.2415 464.481 90.5304 447.695 100.436 L 349.174 157.551 L 192.319 248.147 C 171.826 260.012 147.353 272.348 127.378 284.877 C 124.138 288.739 122.372 293.37 122.236 298.379 C 121.502 325.285 121.417 352.747 121.381 379.63 L 121.41 529.122 L 121.432 656.913 C 121.45 672.802 119.611 724.862 125.357 736.248 C 130.274 740.882 130.966 741.175 137.031 744.245 C 180.335 766.168 221.641 792.286 263.767 816.357 L 444.924 920.454 C 463.878 931.597 482.861 943.128 501.31 955.079 C 503.359 956.407 507.956 958.709 510.399 958.691 C 513.697 958.668 518.452 958.085 521.359 956.429 C 536.119 948.023 550.442 938.823 565.185 930.392 L 763.277 815.901 L 862.543 758.451 C 870.458 753.87 891.39 743.671 896.677 738.989 z"
     id="path9"
     transform="translate(0,0)"
     style="fill:#333333" />
  <path
     fill="rgb(254,254,254)"
     d="M 313.629 395.018 C 315.409 384.953 319.005 381.374 319.783 368.82 C 320.706 353.929 318.422 286.996 324.135 278.199 C 330.075 284.522 327.423 374.649 328.556 390.925 L 328.778 391.298 C 336.461 403.927 374.111 431.286 375.722 442.763 C 378.856 465.09 377.169 510.043 377.146 534.052 L 377.205 697.987 C 377.223 713.321 377.381 728.654 377.679 743.984 C 377.958 756.982 379.393 770.235 376.121 782.775 C 374.891 787.493 374.111 797.187 370.317 799.691 C 367.28 799.939 365.031 799.796 362.188 798.438 C 332.186 784.106 304.822 765.275 275.273 750.105 C 273.971 749.437 270.588 743.367 269.725 741.847 C 270.756 738.375 270.004 735.34 270.056 731.814 C 270.584 696.018 271.507 660.414 269.979 624.612 C 268.922 586.309 268.428 547.979 268.753 509.641 C 268.918 490.161 267.293 465.612 270.705 446.928 C 273.615 430.997 301.536 407.055 313.629 395.018 z"
     id="path11"
     transform="translate(0,0)"
     style="fill:#333333" />
  <path
     fill="rgb(254,254,254)"
     d="M 503.642 344.161 C 506.747 343.803 509.577 342.982 511.578 345.585 C 512.75 356.125 511.997 380.346 511.999 392.16 L 512.022 483.338 L 512.106 784.175 C 512.119 794.887 513.257 876.616 510.421 880.609 C 501.954 881.176 462.834 859.202 456.667 852.1 C 454.443 839.059 455.106 812.194 455.45 797.856 C 456.038 773.32 455.468 755.726 453.51 731.243 C 448.489 734.909 438.071 739.441 432.078 742.267 C 428.299 726.017 428.874 693.538 428.818 675.924 L 428.587 590.408 L 427.921 465.995 C 427.744 445.039 426.708 423.912 427.29 402.97 C 427.554 393.515 427.701 382.188 430.455 373.095 C 433.214 363.984 491.399 350.697 503.218 344.391 L 503.642 344.161 z"
     id="path13"
     transform="translate(0,0)"
     style="fill:#333333" />
  <path
     fill="rgb(254,254,254)"
     d="M 541.032 224.658 L 542.711 225.246 C 544.87 228.838 544.32 334.103 544.411 345.775 C 558.724 344.654 582.23 339.417 582.138 361.177 C 582.095 371.205 580.766 381.002 580.381 391.01 C 579.276 414.632 578.723 438.277 578.725 461.925 L 578.513 748.593 C 578.709 777.5 581.287 813.828 579.966 842.736 C 579.721 848.088 562.187 857.429 556.458 861.015 C 555.921 861.479 555.366 861.922 554.794 862.343 C 551.996 864.42 548.308 865.959 545.379 867.776 C 519.7 883.698 521.219 864.737 521.078 845.002 C 520.773 802.231 520.97 759.495 520.948 716.745 L 520.638 461.042 L 520.39 329.584 C 520.339 310.425 518.597 242.039 522.998 228.236 C 529.278 226.195 534.525 225.604 541.032 224.658 z"
     id="path15"
     transform="translate(0,0)"
     style="fill:#333333" />
  <path
     fill="rgb(254,254,254)"
     d="M 593.498 376.071 C 606.081 382.103 623.792 384.565 637.105 389.587 C 648.647 393.942 661.572 392.264 664.956 406.663 C 666.423 420.705 665.496 432.886 665.948 446.582 C 664.494 475.618 665.715 514.757 665.757 544.367 L 666.184 720.021 C 666.261 730.27 666.313 740.77 667.023 750.99 C 667.777 761.843 669.306 771.382 668.846 782.353 C 666.995 790.381 667.362 791.165 664.444 799.329 C 656.612 803.758 599.592 837.289 594.763 836.226 C 589.859 829.301 591.813 736.682 591.816 721.992 L 591.831 531.002 L 591.827 435.567 C 591.829 419.416 591.079 391.086 593.498 376.071 z"
     id="path17"
     transform="translate(0,0)"
     style="fill:#333333" />
  <path
     fill="rgb(254,254,254)"
     d="M 744.858 452.186 C 749.117 437.497 754.208 407.13 756.761 391.917 C 757.862 398.654 757.701 404.804 759.028 412.078 C 760.485 424.598 756.514 473.285 766.347 479.978 C 783.626 491.741 775.271 510.262 779.831 529.014 C 783.739 531.96 787.665 534.975 791.6 537.875 C 796.612 557.125 794.109 573.005 794.465 592.851 C 794.683 605.009 795.226 612.813 796.908 624.743 C 780.246 657.885 795.992 693.535 786.977 726.312 C 785.75 730.775 722.067 764.423 713.123 769.846 C 707.896 737.386 710.237 687.07 710.415 652.931 C 710.554 626.358 707.415 557.542 714.647 536.752 C 735.438 521.877 723.148 504.361 733.175 482.975 L 740.717 479.133 C 743.874 467.748 744.565 463.949 744.858 452.186 z"
     id="path19"
     transform="translate(0,0)"
     style="fill:#333333" />
  <path
     fill="rgb(254,254,254)"
     d="M 190.385 697.314 C 185.383 680.812 183.255 571.348 194.278 562.138 C 202.383 563.349 245.084 603.103 253.929 609.001 C 256.972 612.742 261.186 617.579 261.902 622.429 C 264.876 642.615 262.68 663.236 262.836 683.585 C 262.957 699.338 264.526 715.094 263.351 730.799 C 263.124 733.837 263.069 735.79 259.747 736.726 C 244.519 733.68 201.131 708.298 190.385 697.314 z"
     id="path21"
     transform="translate(0,0)"
     style="fill:#333333" />
  <path
     fill="rgb(254,254,254)"
     d="M 443.041 752.291 C 443.806 752.72 444.53 753.713 445.154 754.426 C 445.316 783.166 446.668 813.702 443.994 842.095 C 426.036 838.591 423.306 834.433 407.648 825.528 C 400.119 821.433 393.402 818.615 385.801 814.038 C 383.087 802.927 383.683 797.579 384.806 786.088 C 398.694 776.781 428.013 755.028 443.041 752.291 z"
     id="path23"
     transform="translate(0,0)"
     style="fill:#333333" />
  <path
     fill="rgb(254,254,254)"
     d="M 830.69 618.332 C 833.102 618.294 833.358 618.432 835.313 619.859 C 839.676 632.293 840.583 680.518 835.61 694.893 C 831.572 706.568 818.932 710.266 807.596 715.895 C 805.415 717.118 804.332 716.701 802.505 715.747 C 797.08 706.609 799.917 655.333 800.394 641.517 C 807.747 632.921 820.835 623.933 830.69 618.332 z"
     id="path25"
     transform="translate(0,0)"
     style="fill:#333333" />
  <path
     fill="rgb(254,254,254)"
     fill-opacity="0.109804"
     d="M 670.033 415.403 C 671.189 418.768 670.956 557.866 670.406 564.303 C 667.85 594.203 676.155 768.31 668.846 782.353 C 669.306 771.382 667.777 761.843 667.023 750.99 C 666.313 740.77 666.261 730.27 666.184 720.021 L 665.757 544.367 C 665.715 514.757 664.494 475.618 665.948 446.582 C 667.384 442.395 665.206 443.495 667.773 439.481 C 668.437 440.939 668.357 445.282 668.424 447.171 C 670.503 440.222 669.506 423.793 670.033 415.403 z"
     id="path27"
     transform="translate(0,0)"
     style="fill:#333333" />
  <path
     fill="url(#Gradient1)"
     d="M 253.929 609.001 C 260.251 607.282 259.731 610.776 264.423 609.411 C 264.918 607.388 265.108 606.276 265.342 604.206 C 265.329 609.135 266.544 621.229 269.979 624.612 C 271.507 660.414 270.584 696.018 270.056 731.814 C 270.004 735.34 270.756 738.375 269.725 741.847 C 267.669 741.517 261.542 738.019 259.747 736.726 C 263.069 735.79 263.124 733.837 263.351 730.799 C 264.526 715.094 262.957 699.338 262.836 683.585 C 262.68 663.236 264.876 642.615 261.902 622.429 C 261.186 617.579 256.972 612.742 253.929 609.001 z"
     id="path29"
     transform="translate(0,0)"
     style="fill:#333333" />
  <path
     fill="rgb(254,254,254)"
     fill-opacity="0.364706"
     d="M 744.858 452.186 C 743.002 432.574 751.557 415.064 754.009 395.967 C 754.464 392.42 755.257 388.236 756.831 385.025 L 757.88 385.753 C 759.814 394.271 759.32 403.367 759.028 412.078 C 757.701 404.804 757.862 398.654 756.761 391.917 C 754.208 407.13 749.117 437.497 744.858 452.186 z"
     id="path31"
     transform="translate(0,0)"
     style="fill:#333333" />
  <path
     fill="rgb(254,254,254)"
     fill-opacity="0.141176"
     d="M 664.956 406.663 C 666.556 409.449 667.126 411.008 667.946 414.097 L 670.033 415.403 C 669.506 423.793 670.503 440.222 668.424 447.171 C 668.357 445.282 668.437 440.939 667.773 439.481 C 665.206 443.495 667.384 442.395 665.948 446.582 C 665.496 432.886 666.423 420.705 664.956 406.663 z"
     id="path33"
     transform="translate(0,0)"
     style="fill:#333333" />
  <path
     fill="rgb(254,254,254)"
     fill-opacity="0.0235294"
     d="M 125.357 736.248 C 119.611 724.862 121.45 672.802 121.432 656.913 L 121.41 529.122 L 121.381 379.63 C 121.417 352.747 121.502 325.285 122.236 298.379 C 122.372 293.37 124.138 288.739 127.378 284.877 C 126.261 294.201 126.751 302.79 126.61 312.208 C 126.153 342.646 126.504 373.275 126.482 403.747 L 126.563 652.348 C 126.652 672.925 128.091 693.049 125.582 713.53 C 124.603 721.516 128.753 726.754 125.357 736.248 z"
     id="path35"
     transform="translate(0,0)"
     style="fill:#333333" />
</svg>
