<?xml version="1.0" encoding="UTF-8" standalone="no"?>
<svg
   id="Layer_1"
   data-name="Layer 1"
   viewBox="0 0 356.44141 356.44141"
   version="1.1"
   sodipodi:docname="a.svg"
   width="356.44141"
   height="356.44141"
   inkscape:version="1.2.2 (732a01da63, 2022-12-09)"
   xmlns:inkscape="http://www.inkscape.org/namespaces/inkscape"
   xmlns:sodipodi="http://sodipodi.sourceforge.net/DTD/sodipodi-0.dtd"
   xmlns="http://www.w3.org/2000/svg"
   xmlns:svg="http://www.w3.org/2000/svg">
  <sodipodi:namedview
     id="namedview11"
     pagecolor="#ffffff"
     bordercolor="#000000"
     borderopacity="0.25"
     inkscape:showpageshadow="2"
     inkscape:pageopacity="0.0"
     inkscape:pagecheckerboard="0"
     inkscape:deskcolor="#d1d1d1"
     showgrid="false"
     inkscape:zoom="0.80957031"
     inkscape:cx="-108.08203"
     inkscape:cy="153.16767"
     inkscape:window-width="1920"
     inkscape:window-height="1009"
     inkscape:window-x="1912"
     inkscape:window-y="-8"
     inkscape:window-maximized="1"
     inkscape:current-layer="Layer_1" />
  <defs
     id="defs4">
    <style
       id="style2">.cls-1{fill:none;stroke:#000;stroke-miterlimit:10;stroke-width:24px;}</style>
  </defs>
  <path
     style="color:#000000;fill:#000000;stroke-width:0.902968;stroke-miterlimit:10;-inkscape-stroke:none"
     d="M 178.2207,17.293124 C 89.471633,17.293123 17.293123,89.471633 17.293124,178.2207 c 0,88.74906 72.178518,160.92758 160.927576,160.92758 88.74906,0 160.92758,-72.17852 160.92758,-160.92758 0,-88.749058 -72.17852,-160.927576 -160.92758,-160.927576 z m 0,21.671233 c 77.03707,0 139.25635,62.219273 139.25635,139.256343 0,77.03707 -62.21928,139.25635 -139.25635,139.25635 -77.03707,0 -139.256343,-62.21928 -139.256343,-139.25635 0,-77.03708 62.219263,-139.256343 139.256343,-139.256343 z"
     id="circle6" />
  <path
     d="m 188.92087,109.37843 h -18.89009 l -57.40167,130.32536 22.84509,-0.38828 14.80867,-33.1028 h 58.05181 l 13.29169,29.95144 22.87218,0.45149 z m -28.89497,75.0276 19.37769,-43.27925 19.20613,43.27925 z"
     id="path8"
     style="fill:#000000;fill-opacity:1;stroke:none;stroke-width:0.902968;stroke-opacity:1" />
</svg>
