<?xml version="1.0" encoding="UTF-8" standalone="no"?>
<svg
   id="Layer_1"
   data-name="Layer 1"
   viewBox="0 0 356.44141 356.44141"
   version="1.1"
   sodipodi:docname="a.svg"
   width="356.44141"
   height="356.44141"
   inkscape:version="1.2.2 (732a01da63, 2022-12-09)"
   xmlns:inkscape="http://www.inkscape.org/namespaces/inkscape"
   xmlns:sodipodi="http://sodipodi.sourceforge.net/DTD/sodipodi-0.dtd"
   xmlns="http://www.w3.org/2000/svg"
   xmlns:svg="http://www.w3.org/2000/svg">
  <sodipodi:namedview
     id="namedview11"
     pagecolor="#ffffff"
     bordercolor="#000000"
     borderopacity="0.25"
     inkscape:showpageshadow="2"
     inkscape:pageopacity="0.0"
     inkscape:pagecheckerboard="0"
     inkscape:deskcolor="#d1d1d1"
     showgrid="false"
     inkscape:zoom="0.80957031"
     inkscape:cx="16.675513"
     inkscape:cy="153.16767"
     inkscape:window-width="1920"
     inkscape:window-height="1009"
     inkscape:window-x="1912"
     inkscape:window-y="-8"
     inkscape:window-maximized="1"
     inkscape:current-layer="Layer_1" />
  <defs
     id="defs4">
    <style
       id="style2">.cls-1{fill:none;stroke:#000;stroke-miterlimit:10;stroke-width:24px;}</style>
  </defs>
  <path
     style="color:#000000;fill:#000000;stroke-miterlimit:10;-inkscape-stroke:none"
     d="M 178.2207,0 C 79.934743,-9.9999998e-7 -10e-7,79.934743 0,178.2207 c 0,98.28595 79.934753,178.2207 178.2207,178.2207 98.28595,0 178.2207,-79.93475 178.2207,-178.2207 C 356.4414,79.934753 276.50665,0 178.2207,0 Z m 0,24.000003 c 85.3154,0 154.2207,68.9053 154.2207,154.220697 0,85.3154 -68.9053,154.2207 -154.2207,154.2207 -85.315397,0 -154.220697,-68.9053 -154.220697,-154.2207 0,-85.315407 68.90529,-154.220697 154.220697,-154.220697 z"
     id="circle6" />
  <path
     d="m 190.0707,101.9807 h -20.92 l -63.57,144.33 25.3,-0.43 16.4,-36.66 h 64.29 l 14.72,33.17 25.33,0.5 z m -32,83.09 21.46,-47.93 21.27,47.93 z"
     id="path8"
     style="stroke:none;stroke-opacity:1;fill:#000000;fill-opacity:1" />
</svg>
