<?xml version="1.0" encoding="UTF-8" standalone="no"?>
<svg
   id="Layer_1"
   data-name="Layer 1"
   viewBox="0 0 356.44141 356.44141"
   version="1.1"
   sodipodi:docname="b.svg"
   width="356.44141"
   height="356.44141"
   inkscape:version="1.2.2 (732a01da63, 2022-12-09)"
   xmlns:inkscape="http://www.inkscape.org/namespaces/inkscape"
   xmlns:sodipodi="http://sodipodi.sourceforge.net/DTD/sodipodi-0.dtd"
   xmlns="http://www.w3.org/2000/svg"
   xmlns:svg="http://www.w3.org/2000/svg">
  <sodipodi:namedview
     id="namedview11"
     pagecolor="#ffffff"
     bordercolor="#000000"
     borderopacity="0.25"
     inkscape:showpageshadow="2"
     inkscape:pageopacity="0.0"
     inkscape:pagecheckerboard="0"
     inkscape:deskcolor="#d1d1d1"
     showgrid="false"
     inkscape:zoom="1.6191406"
     inkscape:cx="53.423403"
     inkscape:cy="179.10736"
     inkscape:window-width="1920"
     inkscape:window-height="1009"
     inkscape:window-x="1912"
     inkscape:window-y="-8"
     inkscape:window-maximized="1"
     inkscape:current-layer="Layer_1" />
  <defs
     id="defs4">
    <style
       id="style2">.cls-1{fill:none;stroke:#000;stroke-miterlimit:10;stroke-width:24px;}</style>
  </defs>
  <path
     style="color:#000000;fill:#000000;stroke-width:0.902968;stroke-miterlimit:10;-inkscape-stroke:none"
     d="m 178.2207,17.293125 c -88.749058,0 -160.927575,72.178517 -160.927575,160.927575 0,88.74906 72.178517,160.92758 160.927575,160.92758 88.74906,0 160.92758,-72.17852 160.92758,-160.92758 0,-88.749058 -72.17852,-160.927575 -160.92758,-160.927575 z m 0,21.671232 c 77.03708,0 139.25635,62.219263 139.25635,139.256343 0,77.03708 -62.21927,139.25635 -139.25635,139.25635 -77.03708,0 -139.256343,-62.21927 -139.256343,-139.25635 0,-77.03708 62.219263,-139.256343 139.256343,-139.256343 z"
     id="circle6" />
  <path
     d="m 211.34156,175.0874 c 5.36363,-4.99341 10.2216,-19.14292 10.2216,-25.861 0,-10.16742 -4.28007,-18.64629 -8.93035,-24.84968 a 29.174894,29.174894 0 0 0 -23.42299,-11.5309 H 136.47649 V 247.0088 h 57.47391 l 0.72238,-0.0993 c 11.00717,-1.4899 31.99215,-8.81297 32.64229,-37.67182 0.34312,-15.26919 -6.83547,-28.18163 -15.97351,-34.15025 z M 192.307,134.68862 c 0,0 7.95515,3.18747 7.97321,16.09088 0.0181,12.90342 -11.92821,16.09089 -11.92821,16.09089 h -30.21331 v -32.18177 z m 0,90.48641 h -34.13219 v -36.46184 h 31.86574 c 0,0 15.65746,4.07238 15.65746,18.23092 -0.0361,15.52202 -10.43831,17.56273 -13.42713,18.23092 z"
     id="path8"
     style="stroke-width:0.902968" />
</svg>
