<?xml version="1.0" encoding="UTF-8" standalone="no"?>
<svg
   id="Layer_1"
   data-name="Layer 1"
   viewBox="0 0 369.28137 369.28137"
   version="1.1"
   sodipodi:docname="ud.svg"
   inkscape:version="1.2.2 (732a01da63, 2022-12-09)"
   width="369.28137"
   height="369.28137"
   xmlns:inkscape="http://www.inkscape.org/namespaces/inkscape"
   xmlns:sodipodi="http://sodipodi.sourceforge.net/DTD/sodipodi-0.dtd"
   xmlns="http://www.w3.org/2000/svg"
   xmlns:svg="http://www.w3.org/2000/svg">
  <sodipodi:namedview
     id="namedview17"
     pagecolor="#ffffff"
     bordercolor="#000000"
     borderopacity="0.25"
     inkscape:showpageshadow="2"
     inkscape:pageopacity="0.0"
     inkscape:pagecheckerboard="0"
     inkscape:deskcolor="#d1d1d1"
     showgrid="false"
     inkscape:zoom="0.57245266"
     inkscape:cx="-428.85642"
     inkscape:cy="115.29338"
     inkscape:window-width="1920"
     inkscape:window-height="1009"
     inkscape:window-x="1912"
     inkscape:window-y="-8"
     inkscape:window-maximized="1"
     inkscape:current-layer="Layer_1" />
  <defs
     id="defs4">
    <style
       id="style2">.cls-1{fill:none;stroke-width:20px;}.cls-1,.cls-2{stroke:#000;stroke-miterlimit:10;}</style>
  </defs>
  <path
     style="color:#000000;fill:#000000;stroke-miterlimit:10;-inkscape-stroke:none"
     d="m 147.62695,0 c -18.26187,0.0235 -33.26564,15.048661 -33.26563,33.310545 v 80.490235 c 0,0.42772 -0.13282,0.56054 -0.56054,0.56054 H 33.310545 C 15.048661,114.36131 0.023503,129.36508 0,147.62695 v 0.008 74.00566 c 0,18.27814 15.032406,33.31055 33.310545,33.31055 h 80.490235 c 0.42772,0 0.56054,0.13087 0.56054,0.55859 v 80.49805 0.006 c 0.0235,18.24562 15.02001,33.24411 33.26563,33.26757 h 0.008 74.00567 c 18.27814,0 33.31055,-15.0324 33.31055,-33.31054 V 255.4806 c 0,-0.42772 0.13087,-0.56054 0.55859,-0.56054 h 80.49805 0.006 c 18.24562,-0.0235 33.24411,-15.02001 33.26757,-33.26563 v -0.008 -74.00581 c 0,-18.27814 -15.0324,-33.31055 -33.31054,-33.31055 H 255.4806 c -0.42772,0 -0.56054,-0.13086 -0.56054,-0.55859 V 33.310545 C 254.92007,15.048661 239.9163,0.023503 221.65443,0 h -0.008 -74.01172 z m 0.0273,20 h 73.97266 c 7.46218,0.0096 13.29297,5.848357 13.29297,13.310545 v 80.460935 c 0,11.23652 9.32403,20.55859 20.56054,20.55859 h 80.49025 c 7.46935,0 13.31054,5.8412 13.31053,13.31055 v 73.98633 c -0.01,7.45504 -5.83794,13.28339 -13.29296,13.29298 h -80.47852 c -11.23652,0 -20.55859,9.32403 -20.55859,20.56054 v 80.49024 c 0,7.46935 -5.8412,13.31054 -13.31054,13.31054 h -73.98634 c -7.45502,-0.01 -13.28338,-5.83794 -13.29297,-13.29296 v -80.47852 c 0,-11.23652 -9.32402,-20.55859 -20.56053,-20.55859 H 33.310505 c -7.469347,0 -13.310545,-5.8412 -13.310545,-13.31055 V 147.6543 c 0.0096,-7.46218 5.848357,-13.29297 13.310545,-13.29297 h 80.490245 c 11.23651,0 20.56053,-9.32403 20.56053,-20.56054 V 33.310545 c 0,-7.462188 5.8308,-13.300941 13.29297,-13.310545 z"
     id="path6" />
  <path
     d="M 244.30062,113.80062 V 33.310625 a 23.31,23.31 0 0 0 -23.31,-23.31 h -73.94 a 23.31,23.31 0 0 0 -23.31,23.31 v 80.489995 c 0,5.83001 -4.72999,20.57 -10.56,20.57 h 141.68 c -5.83999,0 -10.56,-14.72999 -10.56,-20.57 z m -60.28,-37.599995 h -14.48 a 1.78,1.78 0 0 1 -1.52,-2.71 l 14.49,-23.61 a 1.77,1.77 0 0 1 3,0 l 14.48,23.61 a 1.78,1.78 0 0 1 -1.51,2.71 z"
     id="path10" />
  <path
     d="m 244.03809,255.5278 v 80.49 a 23.31,23.31 0 0 1 -23.31,23.31 h -73.94 a 23.31,23.31 0 0 1 -23.31,-23.31 v -80.49 c 0,-5.82999 -4.73,-20.57 -10.56,-20.57 h 141.68 c -5.84,0 -10.56,14.73001 -10.56,20.57 z m -60.28,37.60001 h -14.48 a 1.78,1.78 0 0 0 -1.52,2.70999 l 14.49,23.61001 a 1.77,1.77 0 0 0 3,0 L 199.7281,295.8378 a 1.78,1.78 0 0 0 -1.51,-2.70999 z"
     id="path10-9" />
  <path
     class="cls-2"
     d="m 320.86063,183.13062 -23.62,-14.49 a 1.77,1.77 0 0 0 -2.70001,1.51 v 29 a 1.77,1.77 0 0 0 2.70001,1.51 l 23.62,-14.48 a 1.77,1.77 0 0 0 0,-3.05 z"
     id="path12" />
  <path
     class="cls-2"
     d="m 48.420625,186.15062 23.62,14.49 a 1.77,1.77 0 0 0 2.7,-1.51 v -29 a 1.77,1.77 0 0 0 -2.7,-1.50999 l -23.62,14.47999 a 1.77,1.77 0 0 0 0,3.05 z"
     id="path14" />
</svg>
