<?xml version="1.0" encoding="UTF-8" standalone="no"?>
<svg
   id="Layer_1"
   data-name="Layer 1"
   viewBox="0 0 356.44141 356.44141"
   version="1.1"
   sodipodi:docname="y.svg"
   width="356.44141"
   height="356.44141"
   inkscape:version="1.2.2 (732a01da63, 2022-12-09)"
   xmlns:inkscape="http://www.inkscape.org/namespaces/inkscape"
   xmlns:sodipodi="http://sodipodi.sourceforge.net/DTD/sodipodi-0.dtd"
   xmlns="http://www.w3.org/2000/svg"
   xmlns:svg="http://www.w3.org/2000/svg">
  <sodipodi:namedview
     id="namedview11"
     pagecolor="#ffffff"
     bordercolor="#000000"
     borderopacity="0.25"
     inkscape:showpageshadow="2"
     inkscape:pageopacity="0.0"
     inkscape:pagecheckerboard="0"
     inkscape:deskcolor="#d1d1d1"
     showgrid="false"
     inkscape:zoom="1.6191406"
     inkscape:cx="115.80217"
     inkscape:cy="178.48975"
     inkscape:window-width="1920"
     inkscape:window-height="1009"
     inkscape:window-x="1912"
     inkscape:window-y="-8"
     inkscape:window-maximized="1"
     inkscape:current-layer="Layer_1" />
  <defs
     id="defs4">
    <style
       id="style2">.cls-1{fill:none;stroke:#000;stroke-miterlimit:10;stroke-width:24px;}</style>
  </defs>
  <path
     style="color:#000000;fill:#000000;stroke-miterlimit:10;-inkscape-stroke:none"
     d="M 178.2207,0 C 79.934753,0 0,79.934753 0,178.2207 c 0,98.28595 79.934753,178.2207 178.2207,178.2207 98.28595,0 178.2207,-79.93475 178.2207,-178.2207 C 356.4414,79.934753 276.50665,0 178.2207,0 Z m 0,24.000003 c 85.31541,0 154.2207,68.90529 154.2207,154.220697 0,85.31541 -68.90529,154.2207 -154.2207,154.2207 -85.315407,0 -154.220697,-68.90529 -154.220697,-154.2207 0,-85.315407 68.90529,-154.220697 154.220697,-154.220697 z"
     id="circle6" />
  <polygon
     points="217.74,188.49 187.72,188.42 241.27,263.32 241.27,327.51 265.26,327.51 265.26,263.32 318.81,188.42 288.79,188.49 253.27,238.29 "
     id="polygon8"
     transform="translate(-77.779297,-77.779297)" />
</svg>
