<?xml version="1.0" encoding="UTF-8" standalone="no"?>
<svg
   id="Layer_1"
   data-name="Layer 1"
   viewBox="0 0 369.28137 369.28162"
   version="1.1"
   sodipodi:docname="lr.svg"
   inkscape:version="1.2.2 (732a01da63, 2022-12-09)"
   width="369.28137"
   height="369.28162"
   xmlns:inkscape="http://www.inkscape.org/namespaces/inkscape"
   xmlns:sodipodi="http://sodipodi.sourceforge.net/DTD/sodipodi-0.dtd"
   xmlns="http://www.w3.org/2000/svg"
   xmlns:svg="http://www.w3.org/2000/svg">
  <sodipodi:namedview
     id="namedview17"
     pagecolor="#ffffff"
     bordercolor="#000000"
     borderopacity="0.25"
     inkscape:showpageshadow="2"
     inkscape:pageopacity="0.0"
     inkscape:pagecheckerboard="0"
     inkscape:deskcolor="#d1d1d1"
     showgrid="false"
     inkscape:zoom="1.6191406"
     inkscape:cx="23.160435"
     inkscape:cy="241.48613"
     inkscape:window-width="1920"
     inkscape:window-height="1009"
     inkscape:window-x="1912"
     inkscape:window-y="-8"
     inkscape:window-maximized="1"
     inkscape:current-layer="Layer_1" />
  <defs
     id="defs4">
    <style
       id="style2">.cls-1{fill:none;stroke-width:20px;}.cls-1,.cls-2{stroke:#000;stroke-miterlimit:10;}</style>
  </defs>
  <path
     style="color:#000000;fill:#000000;stroke-width:0.902997;stroke-miterlimit:10;-inkscape-stroke:none"
     d="m 151.22974,17.910749 c -16.5051,0 -30.07932,13.574214 -30.07932,30.079315 v 72.682426 c 0,0.38623 -0.11816,0.50617 -0.5044,0.50617 H 47.990052 c -16.490423,-10e-6 -30.058093,13.54834 -30.079316,30.03875 v 0.007 66.83234 0.007 c 0.02122,16.49041 13.588893,30.03877 30.079316,30.03876 h 72.682428 c 0.38623,0 0.50616,0.11993 0.50616,0.50616 v 72.68244 c -1e-5,16.49042 13.54835,30.05808 30.03876,30.07931 h 0.007 66.82688 c 16.5051,0 30.07932,-13.57421 30.07932,-30.07931 v -72.68243 c 0,-0.38623 0.11817,-0.50617 0.5044,-0.50617 h 72.68949 0.005 c 16.47574,-0.0212 30.01933,-13.56302 30.04051,-30.03875 v -0.007 -66.82723 c 0,-16.5051 -13.57421,-30.07932 -30.07931,-30.07932 H 248.6089 c -0.38623,0 -0.50616,-0.11817 -0.50616,-0.50441 V 47.990064 c 10e-6,-16.490422 -13.54835,-30.058092 -30.03876,-30.079315 h -0.007 z m 0,18.059936 h 66.80942 c 6.73833,0.0087 12.00352,5.281048 12.00352,12.019379 v 72.655966 c 0,10.14654 8.41957,18.56434 18.5661,18.56434 h 72.68243 c 6.7448,0 12.01939,5.27459 12.01938,12.01939 v 66.80942 c -0.009,6.73187 -5.27164,11.99486 -12.0035,12.00352 h -72.67185 c -10.14654,0 -18.56434,8.41956 -18.56434,18.5661 v 72.68243 c 0,6.7448 -5.27458,12.01937 -12.01938,12.01937 H 151.2421 c -6.73833,-0.009 -12.00351,-5.28104 -12.00351,-12.01937 V 248.6088 c 0,-10.14654 -8.41957,-18.5661 -18.5661,-18.5661 H 47.990052 c -6.738332,0 -12.010707,-5.26519 -12.01938,-12.00351 v -66.79708 c 0.0087,-6.73832 5.281048,-12.00351 12.01938,-12.00351 h 72.655978 c 10.14654,0 18.56434,-8.41957 18.56434,-18.5661 V 47.990064 c 0,-6.744796 5.27458,-12.019379 12.01937,-12.019379 z"
     id="path6" />
  <path
     d="M 120.67233,130.76786 H 47.990124 a 21.048856,21.048856 0 0 0 -21.048855,21.04885 v 66.76759 a 21.048856,21.048856 0 0 0 21.048855,21.04885 h 72.682206 c 5.26448,0 18.57465,4.27118 18.57465,9.53565 V 121.23221 c 0,5.2735 -13.30114,9.53565 -18.57465,9.53565 z M 86.719657,185.2005 v 13.0754 a 1.6073343,1.6073343 0 0 1 -2.438091,1.37255 L 62.952781,186.56402 a 1.5983043,1.5983043 0 0 1 0,-2.70899 l 21.328785,-13.07539 a 1.5983043,1.5983043 0 0 1 2.438091,1.36352 z"
     id="path10"
     style="stroke-width:0.902997" />
  <path
     d="m 248.55323,130.64157 h 72.68222 a 21.048856,21.048856 0 0 1 21.04885,21.04885 V 218.458 a 21.048856,21.048856 0 0 1 -21.04885,21.04886 h -72.68222 c -5.26447,0 -18.57464,4.27118 -18.57464,9.53565 V 121.10593 c 0,5.2735 13.30114,9.53564 18.57464,9.53564 z m 33.95268,54.43264 v 13.0754 a 1.6073343,1.6073343 0 0 0 2.43809,1.37255 l 21.32879,-13.08442 a 1.5983043,1.5983043 0 0 0 0,-2.70899 L 284.944,170.65335 a 1.5983043,1.5983043 0 0 0 -2.43809,1.36353 z"
     id="path10-7"
     style="stroke-width:0.902997" />
  <path
     class="cls-2"
     d="m 183.2771,61.634418 -13.08442,21.328785 a 1.5983043,1.5983043 0 0 0 1.36352,2.438091 h 26.18691 a 1.5983043,1.5983043 0 0 0 1.36353,-2.438091 l -13.0754,-21.328785 a 1.5983043,1.5983043 0 0 0 -2.75414,0 z"
     id="path12"
     style="stroke-width:0.902997" />
  <path
     class="cls-2"
     d="m 186.00415,307.64687 13.08443,-21.32878 A 1.5983043,1.5983043 0 0 0 197.72505,283.88 h -26.18691 a 1.5983043,1.5983043 0 0 0 -1.36351,2.43809 l 13.07538,21.32878 a 1.5983043,1.5983043 0 0 0 2.75414,0 z"
     id="path14"
     style="stroke-width:0.902997" />
</svg>
