<?xml version="1.0" encoding="UTF-8" standalone="no"?>
<svg
   id="Layer_1"
   data-name="Layer 1"
   viewBox="0 0 369.28137 369.28137"
   version="1.1"
   sodipodi:docname="ud.svg"
   inkscape:version="1.2.2 (732a01da63, 2022-12-09)"
   width="369.28137"
   height="369.28137"
   xmlns:inkscape="http://www.inkscape.org/namespaces/inkscape"
   xmlns:sodipodi="http://sodipodi.sourceforge.net/DTD/sodipodi-0.dtd"
   xmlns="http://www.w3.org/2000/svg"
   xmlns:svg="http://www.w3.org/2000/svg">
  <sodipodi:namedview
     id="namedview17"
     pagecolor="#ffffff"
     bordercolor="#000000"
     borderopacity="0.25"
     inkscape:showpageshadow="2"
     inkscape:pageopacity="0.0"
     inkscape:pagecheckerboard="0"
     inkscape:deskcolor="#d1d1d1"
     showgrid="false"
     inkscape:zoom="0.57245266"
     inkscape:cx="-48.038907"
     inkscape:cy="117.04025"
     inkscape:window-width="1920"
     inkscape:window-height="1009"
     inkscape:window-x="1912"
     inkscape:window-y="-8"
     inkscape:window-maximized="1"
     inkscape:current-layer="Layer_1" />
  <defs
     id="defs4">
    <style
       id="style2">.cls-1{fill:none;stroke-width:20px;}.cls-1,.cls-2{stroke:#000;stroke-miterlimit:10;}</style>
  </defs>
  <path
     style="color:#000000;fill:#000000;stroke-width:0.89593;stroke-miterlimit:10;-inkscape-stroke:none"
     d="m 151.47897,19.215562 c -16.36136,0.02106 -29.80368,13.482547 -29.80367,29.843916 v 72.113612 c 0,0.38321 -0.119,0.50221 -0.50221,0.50221 H 49.059478 c -16.361369,-10e-6 -29.822858,13.44231 -29.843915,29.80367 v 0.007 66.30389 c 0,16.37593 13.467983,29.84392 29.843915,29.84392 h 72.113612 c 0.38321,0 0.50221,0.11725 0.50221,0.50045 v 72.12062 0.005 c 0.0211,16.3468 13.45687,29.7844 29.80367,29.80542 h 0.007 66.3039 c 16.37593,0 29.84392,-13.46798 29.84392,-29.84391 v -72.11361 c 0,-0.38321 0.11725,-0.50221 0.50045,-0.50221 h 72.12062 0.005 c 16.3468,-0.0211 29.7844,-13.45687 29.80542,-29.80367 v -0.007 -66.30402 c 0,-16.37594 -13.46798,-29.84392 -29.84391,-29.84392 h -72.11362 c -0.38321,0 -0.50221,-0.11724 -0.50221,-0.50046 V 49.059478 c 1e-5,-16.361369 -13.44231,-29.822859 -29.80367,-29.843916 h -0.007 -66.30932 z m 0.0245,17.9186 h 66.27432 c 6.68559,0.0086 11.90957,5.239718 11.90957,11.925316 v 72.087362 c 0,10.06714 8.35368,18.41906 18.42081,18.41906 h 72.11362 c 6.69202,0 11.92532,5.2333 11.92531,11.92532 v 66.28657 c -0.009,6.67919 -5.23039,11.90099 -11.90956,11.90958 h -72.10312 c -10.06714,0 -18.41906,8.35368 -18.41906,18.4208 v 72.11362 c 0,6.69201 -5.23331,11.92531 -11.92531,11.92531 h -66.28658 c -6.67918,-0.009 -11.90098,-5.23038 -11.90957,-11.90956 v -72.10312 c 0,-10.06713 -8.35367,-18.41905 -18.4208,-18.41905 H 49.059442 c -6.692011,0 -11.925316,-5.23331 -11.925316,-11.92533 v -66.28657 c 0.0086,-6.68559 5.239719,-11.90957 11.925316,-11.90957 h 72.113618 c 10.06713,0 18.4208,-8.35367 18.4208,-18.4208 V 49.059478 c 0,-6.685598 5.22399,-11.916712 11.90957,-11.925316 z"
     id="path6" />
  <path
     d="M 238.09181,121.17295 V 49.059549 A 20.884128,20.884128 0 0 0 217.20768,28.175422 h -66.24506 a 20.884128,20.884128 0 0 0 -20.88413,20.884127 v 72.113401 c 0,5.22328 -4.23774,18.42928 -9.46102,18.42928 h 126.93536 c -5.23222,0 -9.46102,-13.19704 -9.46102,-18.42928 z M 184.08515,87.485986 h -12.97307 a 1.5947553,1.5947553 0 0 1 -1.36181,-2.427971 L 182.7323,63.905109 a 1.585796,1.585796 0 0 1 2.68779,0 l 12.97306,21.152906 a 1.5947553,1.5947553 0 0 1 -1.35285,2.427971 z"
     id="path10"
     style="stroke-width:0.89593" />
  <path
     d="m 237.8566,248.15058 v 72.1134 a 20.884128,20.884128 0 0 1 -20.88413,20.88413 h -66.24506 a 20.884128,20.884128 0 0 1 -20.88413,-20.88413 v -72.1134 c 0,-5.22327 -4.23774,-18.42928 -9.46102,-18.42928 h 126.93536 c -5.23223,0 -9.46102,13.19705 -9.46102,18.42928 z m -54.00666,33.68697 h -12.97306 a 1.5947553,1.5947553 0 0 0 -1.36182,2.42796 l 12.98203,21.15292 a 1.585796,1.585796 0 0 0 2.68779,0 l 12.97307,-21.15292 a 1.5947553,1.5947553 0 0 0 -1.35285,-2.42796 z"
     id="path10-9"
     style="stroke-width:0.89593" />
  <path
     class="cls-2"
     d="m 306.68422,183.28777 -21.16187,-12.98202 a 1.585796,1.585796 0 0 0 -2.41902,1.35285 v 25.98197 a 1.585796,1.585796 0 0 0 2.41902,1.35285 l 21.16187,-12.97306 a 1.585796,1.585796 0 0 0 0,-2.73259 z"
     id="path12"
     style="stroke-width:0.89593" />
  <path
     class="cls-2"
     d="m 62.597052,185.99348 21.161865,12.98203 a 1.585796,1.585796 0 0 0 2.419011,-1.35286 v -25.98197 a 1.585796,1.585796 0 0 0 -2.419011,-1.35284 l -21.161865,12.97305 a 1.585796,1.585796 0 0 0 0,2.73259 z"
     id="path14"
     style="stroke-width:0.89593" />
</svg>
