<?xml version="1.0" encoding="UTF-8" standalone="no"?>
<svg
   clip-rule="evenodd"
   fill-rule="evenodd"
   stroke-linejoin="round"
   stroke-miterlimit="2"
   viewBox="-42.66763 -26.265408 512.01156 315.184896"
   version="1.1"
   id="svg32"
   sodipodi:docname="NEC PC Engine CD.svg"
   width="512.01156"
   height="315.184896"
   inkscape:version="1.2.2 (732a01da63, 2022-12-09)"
   xmlns:inkscape="http://www.inkscape.org/namespaces/inkscape"
   xmlns:sodipodi="http://sodipodi.sourceforge.net/DTD/sodipodi-0.dtd"
   xmlns="http://www.w3.org/2000/svg"
   xmlns:svg="http://www.w3.org/2000/svg">
  <defs
     id="defs36" />
  <sodipodi:namedview
     id="namedview34"
     pagecolor="#ffffff"
     bordercolor="#000000"
     borderopacity="0.25"
     inkscape:showpageshadow="2"
     inkscape:pageopacity="0.0"
     inkscape:pagecheckerboard="0"
     inkscape:deskcolor="#d1d1d1"
     showgrid="false"
     inkscape:zoom="1.0325"
     inkscape:cx="167.07022"
     inkscape:cy="168.523"
     inkscape:window-width="512.01156"
     inkscape:window-height="315.184896"
     inkscape:window-x="1912"
     inkscape:window-y="-8"
     inkscape:window-maximized="1"
     inkscape:current-layer="svg32" />
  <path
     d="m 43.576267,151.77166 c -0.294,0 -0.593,-0.066 -0.874,-0.203 -28.583,-13.874 -43.34200024,-30.045 -42.68100024,-46.772 0.538,-13.770004 11.77500024,-26.770004 32.49500024,-37.599004 19.66,-10.273 47.39,-18.425 80.195003,-23.579 1.094,-0.171 2.118,0.577 2.29,1.669 0.172,1.093 -0.575,2.117 -1.669,2.29 -66.449003,10.436 -108.3320032,32.422 -109.3050032,57.378004 -0.585,14.796 13.7710002,30.071 40.4250002,43.008 0.996,0.485 1.411,1.679 0.928,2.68 -0.347,0.712 -1.061,1.128 -1.804,1.128 z"
     id="path2"
     style="fill:#000000;fill-rule:nonzero" />
  <path
     d="m 292.74427,49.044656 c -0.109,0 -0.217,-0.009 -0.328,-0.027 -21.115,-3.466 -43.402,-5.78 -66.245,-6.873 -1.108,-0.052 -1.96,-0.991 -1.906,-2.098 0.053,-1.105 1.009,-1.948 2.097,-1.905 22.998,1.101 45.441,3.43 66.707,6.921 1.09,0.179 1.832,1.21 1.651,2.303 -0.163,0.982 -1.011,1.679 -1.976,1.679 z"
     id="path4"
     style="fill:#000000;fill-rule:nonzero" />
  <path
     d="m 229.66227,185.91566 c -0.561,0 -1.118,0 -1.679,-0.002 -1.107,-0.002 -1.998,-0.902 -1.995,-2.01 0.003,-1.104 0.895,-1.996 2,-1.996 h 0.01 c 0.549,0.001 1.113,0.001 1.667,0.001 107.248,0.002 191.876,-27.876 192.993,-63.704 0.392,-12.537 -9.68,-25.258004 -29.133,-36.781004 -19.367,-11.478 -47.127,-21.261 -80.272,-28.29 -1.082,-0.23 -1.772,-1.294 -1.545,-2.376 0.228,-1.083 1.296,-1.771 2.377,-1.544 33.566,7.119 61.742,17.064 81.484,28.762 20.783,12.315 31.535,26.271004 31.094,40.354004 -0.592,19.053 -21.64,36.423 -59.266,48.9 -36.379,12.061 -85.236,18.686 -137.735,18.686 z"
     id="path6"
     style="fill:#000000;fill-rule:nonzero" />
  <path
     d="m 265.95427,81.584656 52.907,-40.329 -62.14,24.804 -17.463,-18.177 5.568,25.187 -52.907,40.328004 62.143,-24.811004 17.46,18.177004 z"
     id="path8"
     style="fill:#000000;fill-rule:nonzero" />
  <path
     d="m 199.69627,131.92666 c 0.759,-3.733 2.142,-3.19 5.929,-3.792 l 3.524,-0.555 -1.097,5.877 -3.525,0.563 c -3.786,0.6 -5.453,1.613 -4.831,-2.093 z m -7.641,-5.379 -2.743,14.754 c -0.751,4.03 0.467,5.327 4.344,4.715 l 22.451,-3.562 4.813,-25.879 -22.453,3.557 c -3.879,0.614 -5.667,2.387 -6.412,6.415 z m 142.518,-23.293 -0.262,1.427 23.158,-3.677 c 1.828,-0.293 3.61,-2.141004 3.982,-4.139004 0.365,-1.997 -0.809,-3.381 -2.639,-3.089 l -5.947,0.94 -9.49,1.51 -2.404,0.376 c -2.782,0.445 -5.834,3.617004 -6.398,6.652004 z m -162.476,66.732 0.188,-1.029 c 0.797,0.06 1.864,0.368 2.795,0.23 l 24.068,-3.776 c -0.894,4.801 -7.236,6.005 -16.914,7.539 l -11.016,1.749 -5.906,31.761 14.471,-2.293 c 35.632,-3.517 49.188,-21.933 53.539,-43.886 l 43.416,-6.891 6.996,-37.645 3.531,-0.565 c 3.87,-0.613 3.299,-1.314 2.556,2.707 l -6.404,34.447 31.17,-4.946 0.427,-2.283 c 2.352,1.038 5.101,1.404 8.012,0.947 l 53.905,-8.55 5.027,-27.058 -3.494,-2.488 c 3.027,-3.585 5.387,-7.972004 6.07,-11.654004 l 0.85,-4.267 c 2.688,-15.96 -12.026,-20.198 -18.74,-19.131 l -30.935,4.908 c -5.478,0.87 -11.511,4.687 -15.9,9.745 -4.06,-4.02 -10.326,-5.583 -13.97,-5.004 l -34.439,5.463 3.856,8.521 31.059,-4.922 c 4.479,-0.714 7.472,1.075 8.293,4.621 -0.33,0.939 -8.293,43.334004 -8.293,43.334004 l -11.136,1.767 5.971,-32.095 c 0.739,-4.019 -0.476,-5.318 -4.343,-4.703 l -21.341,3.389 -7.002,37.646 -12.242,1.948 8.012,-43.102 -10.078,-11.888004 -36.278,13.114004 17.194,-2.728 0.278,-0.038 -10.933,58.819 c -2.778,14.942 -18.722,29.231 -32.864,31.476 l -14.472,2.294 2.194,-11.772 11.009,-1.741 c 9.677,-1.541 20.573,-11.226 22.452,-21.355 l 1.187,-6.373 -28.666,4.546 c -6.146,0.977 -9.483,-2.756 -8.273,-9.25 l 5.14,-27.651 c 0.909,-4.914 3.975,-8.994 8.078,-11.115 l 0.067,-0.737 14.382,-11.068004 -8.402,1.412004 c -4.469,0.706 -12.758,4.058 -18.025,10.775 -3.983,-4.751 -10.948,-6.612 -14.871,-5.99 l -30.897,4.908 5.035,-27.065004 22.542,-3.576 c 11.999,-1.901 25.277,-15.397 27.636,-28.073 l 3.389,-18.237 c 2.359,-12.684 -6.56,-22.656 -18.56,-20.753 l -49.262,7.815 -10.498,56.475 -45.362003,7.199 c -3.84,0.609 -7.575,4.396 -8.326,8.452 l -16.953,91.180004 c -0.752,4.059 1.75,6.857 5.591,6.254 l 86.554003,-13.737 7.003,-37.645 3.524,-0.563 c 3.877,-0.61 3.306,-1.306 2.555,2.712 l -6.402,34.436 z m -64.229,-20.641 -28.944003,4.592 1.09,-5.877 23.376003,-3.716 5.688,-30.59 -23.376003,3.715 1.089,-5.881 28.944003,-4.594 z m -1.751,9.415 -2.405,12.938 -51.208003,8.124 15.961,-85.887004 42.304003,-6.71 -2.187,11.767 -30.057003,4.773004 -4.591,24.706 24.489,-3.885 -2.186,11.761 -24.489,3.885 -4.598,24.712 z m 58.82,3.233 -12.248,1.935 5.966,-32.085 c 0.752,-4.022 -0.466,-5.327 -4.343,-4.713 l -21.34,3.39 -6.995,37.645 -12.248,1.946 9.182,-49.409 0.285,-0.047 40.629,-6.445 c 6.146,-0.977 9.482,2.749 8.273,9.249 z m 79.595,-60.588 11.97,-1.894004 -9.19,49.410004 -12.242,1.94 9.181,-49.405 z m 74.271,23.287 4.25,-22.858 c 1.348,-7.228004 9.116,-14.329004 15.735,-15.381004 l 28.636,-4.538 c 4.825,-0.768 8.177,4.621 7.192,9.895 l -1.403,7.356 c -0.987,5.275004 -6.374,10.881004 -11.195,11.647004 l -29.726,4.719 -0.428,2.668 c -0.564,3.033 1.45,5.404 4.231,4.96 l 33.225,-5.29 -2.24,12.057 -37.48,5.942 c -6.62,1.048 -12.135,-3.943 -10.797,-11.177 z m -177.16,-64.058004 4.156,-22.354 15.584,-2.472 c 2.044,-0.324 3.089,0.842 2.682,2.997 l -2.84,15.3 c -0.406,2.163 -1.954,3.733 -3.998,4.057 z"
     id="path10"
     style="fill:#000000;fill-rule:nonzero" />
  <path
     d="m 241.25627,71.094656 -3.308,-13.104 -1.866,0.225 -0.6,3.231 c -0.415,2.24 -2.215,4.064 -4.329,4.404 l -12.806,2.028 c -2.113,0.338 -3.322,-1.014 -2.906,-3.253 l 6.453,-34.708 c 0.414,-2.231 2.215,-4.058 4.326,-4.396 l 12.809,-2.028 c 2.113,-0.337 3.321,1.015 2.903,3.246 l -0.826,4.418 25.886,-4.111 0.984,-5.29 c 2.481,-13.3519999 -6.598,-23.5029999 -19.237,-21.50499991 l -24.765,3.93100001 c -12.63,2.006 -26.155,15.7419999 -28.634,29.0939999 l -6.89,37.06 c -2.479,13.352 6.598,23.503 19.237,21.497 l 8.278,-1.307 z"
     id="path12"
     style="fill:#000000;fill-rule:nonzero" />
  <path
     d="m 259.60527,63.189656 c 0.675,-1.819 1.143,-2.51 1.49,-4.374 l 0.879,-4.712 -10.302,1.638 z"
     id="path14"
     style="fill:#000000;fill-rule:nonzero" />
  <g
     id="g340"
     transform="translate(-14.209317)">
    <path
       d="m 267.71996,262.65307 c -6.935,0 -13.064,-2.254 -17.481,-6.053 -4.42,-3.792 -7.112,-9.163 -7.107,-15.207 -0.005,-6.045 2.687,-11.416 7.107,-15.208 4.417,-3.798 10.547,-6.053 17.481,-6.053 h 19.967 v 2.588 h -19.967 c -6.378,0 -11.894,2.072 -15.795,5.427 -3.901,3.364 -6.2,7.975 -6.205,13.246 0.006,5.27 2.304,9.882 6.205,13.245 3.901,3.356 9.418,5.428 15.795,5.428 h 19.967 c 6.375,0 11.894,-2.072 15.795,-5.428 3.9,-3.363 6.201,-7.975 6.205,-13.245 -0.005,-5.271 -2.305,-9.882 -6.205,-13.246 -3.902,-3.355 -9.42,-5.427 -15.795,-5.427 v -2.588 c 6.935,0 13.064,2.255 17.482,6.053 4.418,3.792 7.11,9.163 7.106,15.208 0.004,6.044 -2.688,11.415 -7.106,15.207 -4.418,3.799 -10.548,6.053 -17.482,6.053 z m 0,-6.656 c -10.553,0 -17.896,-7.112 -17.934,-14.604 0.038,-7.494 7.381,-14.604 17.934,-14.606 h 19.967 c 10.553,0.002 17.894,7.113 17.932,14.606 -0.038,7.493 -7.379,14.604 -17.932,14.604 v -2.588 c 4.7,-0.001 8.551,-1.575 11.219,-3.867 2.671,-2.296 4.129,-5.292 4.126,-8.149 0.004,-2.858 -1.455,-5.854 -4.126,-8.15 -2.668,-2.291 -6.518,-3.867 -11.219,-3.868 h -19.967 c -4.701,0.001 -8.552,1.577 -11.22,3.868 -2.671,2.296 -4.129,5.292 -4.126,8.15 -0.004,2.857 1.455,5.853 4.126,8.149 2.668,2.292 6.518,3.866 11.22,3.867 h 19.967 v 2.588 z"
       id="path16"
       style="fill:#000000;fill-rule:nonzero" />
    <path
       d="M 113.34896,262.65307 H 82.103957 c -6.935,0 -13.064,-2.255 -17.482,-6.053 -4.418,-3.792 -7.111,-9.163 -7.106,-15.207 -0.005,-6.045 2.688,-11.416 7.106,-15.208 4.419,-3.798 10.548,-6.054 17.482,-6.054 h 31.245003 v 9.244 H 82.103957 c -4.7,0.001 -8.551,1.577 -11.219,3.868 -2.671,2.296 -4.129,5.292 -4.125,8.15 -0.004,2.857 1.454,5.852 4.125,8.149 2.669,2.292 6.519,3.866 11.219,3.867 h 29.950003 v 1.295 -1.295 h 1.295 z m -47.040003,-34.506 c -3.9,3.364 -6.2,7.976 -6.205,13.246 0.005,5.27 2.305,9.882 6.205,13.245 3.901,3.356 9.419,5.427 15.795,5.427 h 28.656003 v -4.067 H 82.103957 c -10.554,-0.001 -17.895,-7.111 -17.933,-14.604 0.038,-7.494 7.379,-14.604 17.933,-14.605 h 28.656003 v -4.068 c -4.415,0 -19.131003,0 -28.656003,0 -6.376,-0.001 -11.894,2.072 -15.795,5.426 z"
       id="path18"
       style="fill:#000000;fill-rule:nonzero" />
    <path
       d="m 129.44196,262.65307 h -12.026 v -42.522 h 31.243 v 2.589 c -7.543,-0.001 -15.03,-0.001 -20.631,0 -3.639,-0.001 -6.48,-0.001 -8.025,-0.001 v 37.345 c 1.792,10e-4 5.281,10e-4 9.439,10e-4 6.073,-10e-4 13.561,-10e-4 19.218,0 6.376,-10e-4 11.894,-2.072 15.795,-5.428 3.901,-3.363 6.201,-7.975 6.204,-13.245 -0.003,-5.27 -2.302,-9.882 -6.204,-13.245 -3.9,-3.356 -9.419,-5.428 -15.795,-5.429 v -2.587 c 6.935,-0.001 13.065,2.255 17.481,6.053 4.421,3.792 7.113,9.163 7.107,15.208 0.006,6.044 -2.686,11.415 -7.107,15.207 -4.417,3.798 -10.547,6.053 -17.481,6.053 -5.657,0.001 -13.145,0.001 -19.218,0.001 z m -4.076,-6.656 h -1.294 v -29.21 h 24.588 c 10.555,0.001 17.895,7.112 17.933,14.605 -0.038,7.494 -7.378,14.604 -17.933,14.605 v -2.589 c 4.7,0 8.553,-1.575 11.219,-3.867 2.671,-2.296 4.129,-5.292 4.126,-8.149 0.003,-2.858 -1.455,-5.854 -4.126,-8.15 -2.667,-2.291 -6.519,-3.867 -11.219,-3.868 h -22 v 24.034 h 22 v 2.589 c -6.124,0 -13.448,0 -23.294,0 z"
       id="path20"
       style="fill:#000000;fill-rule:nonzero" />
    <path
       d="m 230.56096,262.65307 v -1.294 c -0.002,0 -0.002,-6.656 0,-9.983 0.008,-1.224 -0.648,-2.614 -1.702,-3.661 -1.047,-1.053 -2.436,-1.71 -3.661,-1.702 h -28.655 v 16.639 h -9.245 v -42.522 h 41.228 c 3.663,-0.017 6.623,1.483 8.508,3.918 1.894,2.429 2.767,5.671 2.77,9.209 -0.018,2.088 -0.963,4.285 -2.35,6.106 -0.748,0.957 -1.638,1.832 -2.658,2.444 0.414,0.334 0.857,0.72 1.302,1.165 1.807,1.802 3.707,4.621 3.707,8.403 v 11.277 h -9.244 z m 6.655,-2.587 c 0,-1.534 0,-4.43 0,-8.69 0,-2.697 -1.254,-4.767 -2.666,-6.281 -1.405,-1.502 -2.942,-2.372 -3.229,-2.521 -0.039,-0.02 -0.045,-0.023 -0.045,-0.023 l 0.579,-1.158 -0.579,1.158 0.579,-2.452 c 1.013,0.035 2.452,-0.864 3.551,-2.315 1.108,-1.415 1.828,-3.285 1.81,-4.525 0.002,-3.117 -0.787,-5.79 -2.222,-7.614 -1.442,-1.816 -3.474,-2.907 -6.468,-2.924 h -38.638 v 37.345 h 4.067 v -16.638 h 31.244 c 2.102,0.009 4.041,1.017 5.491,2.458 1.443,1.45 2.449,3.389 2.458,5.492 v 8.689 h 4.068 z m -12.017,-20.707 h -31.244 v -12.572 h 31.244 c 1.902,0.004 3.8,0.513 5.321,1.577 1.517,1.044 2.643,2.779 2.628,4.894 0.024,2.118 -1.148,3.813 -2.683,4.747 -1.537,0.96 -3.413,1.349 -5.266,1.354 v -2.588 c 1.474,0.005 2.927,-0.345 3.886,-0.957 0.961,-0.637 1.454,-1.347 1.476,-2.556 -0.014,-1.213 -0.553,-2.065 -1.531,-2.777 -0.976,-0.694 -2.405,-1.109 -3.831,-1.106 h -28.656 v 7.396 h 28.656 z"
       id="path22"
       style="fill:#000000;fill-rule:nonzero" />
    <path
       d="m 179.16396,246.01407 v -2.587 l 2.497,-10e-4 c 1.122,-0.001 2.031,-0.91 2.033,-2.032 -0.002,-1.124 -0.911,-2.033 -2.033,-2.035 l -2.497,0.001 c -1.122,0.001 -2.03,0.91 -2.033,2.034 0.003,1.122 0.911,2.031 2.033,2.032 v 2.588 c -2.552,0 -4.62,-2.068 -4.62,-4.62 0,-2.553 2.068,-4.622 4.62,-4.622 h 2.497 c 2.552,0 4.62,2.069 4.621,4.622 -0.001,2.552 -2.069,4.62 -4.621,4.62 z"
       id="path24"
       style="fill:#000000;fill-rule:nonzero" />
    <path
       d="m 362.93096,262.65407 v -27.917 c -0.003,-1.453 -0.348,-2.395 -0.846,-3.09 -0.501,-0.691 -1.205,-1.178 -2.084,-1.531 -1.752,-0.711 -4.108,-0.748 -5.758,-0.739 l -5.362,-0.001 v 33.278 h -9.244 v -33.277 h -5.361 c -1.243,-0.003 -2.869,0.006 -4.352,0.322 -1.497,0.317 -2.752,0.918 -3.491,1.949 -0.498,0.695 -0.842,1.637 -0.847,3.09 v 27.916 h -9.244 v -31.244 c -0.017,-3.78 1.962,-6.741 4.736,-8.565 2.776,-1.843 6.329,-2.708 9.87,-2.713 h 26.622 c 3.54,0.005 7.092,0.87 9.869,2.713 2.774,1.824 4.753,4.785 4.736,8.565 v 31.244 z m 6.656,-2.588 v -28.656 c -0.018,-2.875 -1.367,-4.905 -3.584,-6.412 -2.216,-1.485 -5.32,-2.282 -8.433,-2.278 h -26.622 c -3.115,-0.004 -6.219,0.793 -8.434,2.278 -2.218,1.506 -3.567,3.536 -3.584,6.412 v 28.656 h 4.068 c -0.002,-4.531 -0.002,-19.696 0,-25.329 -0.005,-1.875 0.482,-3.428 1.336,-4.604 0.852,-1.18 2.019,-1.942 3.221,-2.421 2.408,-0.952 5.044,-0.916 6.72,-0.924 h 6.655 v 1.294 -1.294 h 1.295 v 33.278 h 4.066 v -33.278 h 7.952 c 1.251,0.001 3.056,-0.008 4.889,0.378 1.817,0.385 3.761,1.19 5.05,2.967 0.855,1.176 1.342,2.729 1.337,4.604 v 25.329 z"
       id="path26"
       style="fill:#000000;fill-rule:nonzero" />
    <path
       d="m 377.77296,225.52007 c -1.033,1.634 -1.274,3.871 -1.269,5.894 v 2.536 h 20.707 v -3.986 h -14.764 v -0.74 c -0.036,-1.2 0.632,-2.142 1.5,-2.509 0.849,-0.387 1.798,-0.421 2.721,-0.427 0.535,0 1.058,0.018 1.532,0.018 h 2.477 c 2.098,0 3.815,-0.535 4.994,-1.582 1.174,-1.048 1.902,-2.638 1.908,-5.037 0.004,-1.484 -0.478,-3.104 -1.435,-4.306 -0.964,-1.201 -2.351,-2.02 -4.374,-2.029 h -13.089 v 3.615 h 9.292 c 0.756,0.005 1.599,0.049 2.373,0.408 0.783,0.338 1.432,1.207 1.401,2.312 0.014,1.014 -0.437,1.873 -1.131,2.353 -0.687,0.486 -1.523,0.648 -2.359,0.651 h -4.148 c -3.556,0.023 -5.302,1.209 -6.336,2.829 z"
       id="path28"
       style="fill:#000000;fill-rule:nonzero" />
  </g>
</svg>

