<?xml version="1.0" encoding="UTF-8" standalone="no"?>
<svg
   clip-rule="evenodd"
   fill-rule="evenodd"
   stroke-linejoin="round"
   stroke-miterlimit="2"
   viewBox="0 0 426.6763 350.36258"
   version="1.1"
   id="svg50"
   sodipodi:docname="NEC PC Engine SuperGrafx.svg"
   width="426.6763"
   height="350.36258"
   inkscape:version="1.2.2 (732a01da63, 2022-12-09)"
   xmlns:inkscape="http://www.inkscape.org/namespaces/inkscape"
   xmlns:sodipodi="http://sodipodi.sourceforge.net/DTD/sodipodi-0.dtd"
   xmlns="http://www.w3.org/2000/svg"
   xmlns:svg="http://www.w3.org/2000/svg">
  <defs
     id="defs54" />
  <sodipodi:namedview
     id="namedview52"
     pagecolor="#ffffff"
     bordercolor="#000000"
     borderopacity="0.25"
     inkscape:showpageshadow="2"
     inkscape:pageopacity="0.0"
     inkscape:pagecheckerboard="0"
     inkscape:deskcolor="#d1d1d1"
     showgrid="false"
     inkscape:zoom="1.4601755"
     inkscape:cx="300.30637"
     inkscape:cy="351.32763"
     inkscape:window-width="1920"
     inkscape:window-height="1009"
     inkscape:window-x="1912"
     inkscape:window-y="-8"
     inkscape:window-maximized="1"
     inkscape:current-layer="svg50" />
  <g
     fill-rule="nonzero"
     id="g16"
     transform="translate(2.6676187e-4,-0.72434391)"
     style="fill:#ffffff">
    <path
       d="m 43.576,152.496 c -0.294,0 -0.593,-0.066 -0.874,-0.204 C 14.119,138.419 -0.64,122.248 0.021,105.521 0.559,91.751 11.796,78.751 32.516,67.922 c 19.66,-10.273 47.39,-18.425 80.195,-23.579 1.094,-0.171 2.118,0.576 2.29,1.669 0.172,1.093 -0.575,2.117 -1.669,2.29 C 46.883,58.738 5,80.723 4.027,105.68 c -0.585,14.796 13.771,30.071 40.425,43.007 0.996,0.486 1.411,1.679 0.928,2.68 -0.347,0.712 -1.061,1.129 -1.804,1.129 z"
       id="path2" />
    <path
       d="m 292.744,49.768 c -0.109,0 -0.217,-0.008 -0.328,-0.026 -21.115,-3.466 -43.402,-5.781 -66.245,-6.873 -1.108,-0.052 -1.96,-0.992 -1.906,-2.098 0.053,-1.105 1.009,-1.948 2.097,-1.905 22.998,1.101 45.441,3.43 66.707,6.921 1.09,0.179 1.832,1.21 1.651,2.303 -0.163,0.982 -1.011,1.678 -1.976,1.678 z"
       id="path4" />
    <path
       d="m 229.662,186.64 c -0.561,0 -1.118,0 -1.679,-0.002 -1.107,-0.002 -1.998,-0.902 -1.995,-2.01 0.003,-1.104 0.895,-1.996 2,-1.996 h 0.01 c 0.549,0.001 1.113,0.001 1.667,0.001 107.248,0.002 191.876,-27.876 192.993,-63.704 0.392,-12.537 -9.68,-25.258 -29.133,-36.782 -19.367,-11.478 -47.127,-21.261 -80.272,-28.289 -1.082,-0.23 -1.772,-1.294 -1.545,-2.376 0.228,-1.083 1.296,-1.772 2.377,-1.544 33.566,7.119 61.742,17.064 81.484,28.762 20.783,12.315 31.535,26.271 31.094,40.354 -0.592,19.053 -21.64,36.423 -59.266,48.9 -36.379,12.061 -85.236,18.686 -137.735,18.686 z"
       id="path6" />
    <path
       d="m 265.954,82.308 52.907,-40.328 -62.14,24.804 -17.463,-18.177 5.568,25.187 -52.907,40.327 62.143,-24.81 17.46,18.177 z"
       id="path8" />
    <path
       d="m 199.696,132.651 c 0.759,-3.734 2.142,-3.19 5.929,-3.792 l 3.524,-0.555 -1.097,5.877 -3.525,0.563 c -3.786,0.6 -5.453,1.613 -4.831,-2.093 z m -7.641,-5.379 -2.743,14.754 c -0.751,4.03 0.467,5.327 4.344,4.714 l 22.451,-3.561 4.813,-25.879 -22.453,3.556 c -3.879,0.615 -5.667,2.388 -6.412,6.416 z m 142.518,-23.293 -0.262,1.427 23.158,-3.677 c 1.828,-0.293 3.61,-2.141 3.982,-4.139 0.365,-1.997 -0.809,-3.381 -2.639,-3.089 l -5.947,0.939 -9.49,1.511 -2.404,0.376 c -2.782,0.445 -5.834,3.616 -6.398,6.652 z m -162.476,66.732 0.188,-1.029 c 0.797,0.06 1.864,0.368 2.795,0.229 l 24.068,-3.775 c -0.894,4.801 -7.236,6.005 -16.914,7.538 l -11.016,1.75 -5.906,31.761 14.471,-2.293 c 35.632,-3.518 49.188,-21.933 53.539,-43.886 l 43.416,-6.891 6.996,-37.646 3.531,-0.564 c 3.87,-0.613 3.299,-1.314 2.556,2.707 l -6.404,34.446 31.17,-4.946 0.427,-2.282 c 2.352,1.038 5.101,1.403 8.012,0.947 l 53.905,-8.55 5.027,-27.058 -3.494,-2.488 c 3.027,-3.585 5.387,-7.972 6.07,-11.654 l 0.85,-4.267 c 2.688,-15.961 -12.026,-20.198 -18.74,-19.131 l -30.935,4.907 c -5.478,0.87 -11.511,4.688 -15.9,9.746 -4.06,-4.021 -10.326,-5.583 -13.97,-5.004 l -34.439,5.463 3.856,8.521 31.059,-4.922 c 4.479,-0.714 7.472,1.074 8.293,4.621 -0.33,0.939 -8.293,43.333 -8.293,43.333 l -11.136,1.768 5.971,-32.095 c 0.739,-4.019 -0.476,-5.319 -4.343,-4.704 l -21.341,3.39 -7.002,37.646 -12.242,1.948 8.012,-43.102 -10.078,-11.888 -36.278,13.114 17.194,-2.728 0.278,-0.038 -10.933,58.819 c -2.778,14.942 -18.722,29.231 -32.864,31.476 l -14.472,2.294 2.194,-11.773 11.009,-1.74 c 9.677,-1.541 20.573,-11.226 22.452,-21.355 l 1.187,-6.373 -28.666,4.546 c -6.146,0.977 -9.483,-2.757 -8.273,-9.25 l 5.14,-27.651 c 0.909,-4.914 3.975,-8.994 8.078,-11.115 l 0.067,-0.737 14.382,-11.068 -8.402,1.412 c -4.469,0.706 -12.758,4.058 -18.025,10.775 -3.983,-4.751 -10.948,-6.612 -14.871,-5.99 l -30.897,4.908 5.035,-27.065 22.542,-3.576 c 11.999,-1.901 25.277,-15.397 27.636,-28.073 l 3.389,-18.237 c 2.359,-12.684 -6.56,-22.656 -18.56,-20.753 l -49.262,7.815 -10.498,56.475 -45.362,7.199 c -3.84,0.609 -7.575,4.396 -8.326,8.452 l -16.953,91.179 c -0.752,4.06 1.75,6.858 5.591,6.254 l 86.554,-13.736 7.003,-37.646 3.524,-0.562 c 3.877,-0.61 3.306,-1.306 2.555,2.712 l -6.402,34.436 z m -64.229,-20.641 -28.944,4.592 1.09,-5.877 23.376,-3.716 5.688,-30.59 -23.376,3.715 1.089,-5.881 28.944,-4.594 z m -1.751,9.415 -2.405,12.938 -51.208,8.124 15.961,-85.887 42.304,-6.71 -2.187,11.767 -30.057,4.773 -4.591,24.706 24.489,-3.885 -2.186,11.761 -24.489,3.885 -4.598,24.712 z m 58.82,3.233 -12.248,1.935 5.966,-32.085 c 0.752,-4.022 -0.466,-5.327 -4.343,-4.713 l -21.34,3.389 -6.995,37.646 -12.248,1.946 9.182,-49.409 0.285,-0.048 40.629,-6.444 c 6.146,-0.978 9.482,2.748 8.273,9.249 z m 79.595,-60.588 11.97,-1.894 -9.19,49.409 -12.242,1.941 9.181,-49.405 z m 74.271,23.287 4.25,-22.858 c 1.348,-7.228 9.116,-14.329 15.735,-15.381 l 28.636,-4.538 c 4.825,-0.768 8.177,4.621 7.192,9.895 l -1.403,7.356 c -0.987,5.274 -6.374,10.881 -11.195,11.647 l -29.726,4.719 -0.428,2.668 c -0.564,3.033 1.45,5.404 4.231,4.96 l 33.225,-5.29 -2.24,12.056 -37.48,5.943 c -6.62,1.048 -12.135,-3.943 -10.797,-11.177 z m -177.16,-64.058 4.156,-22.354 15.584,-2.473 c 2.044,-0.323 3.089,0.843 2.682,2.998 l -2.84,15.3 c -0.406,2.163 -1.954,3.733 -3.998,4.057 z"
       id="path10" />
    <path
       d="m 241.256,71.819 -3.308,-13.105 -1.866,0.226 -0.6,3.23 c -0.415,2.241 -2.215,4.064 -4.329,4.405 l -12.806,2.028 c -2.113,0.338 -3.322,-1.015 -2.906,-3.254 l 6.453,-34.707 c 0.414,-2.232 2.215,-4.058 4.326,-4.396 l 12.809,-2.028 c 2.113,-0.337 3.321,1.015 2.903,3.246 l -0.826,4.417 25.886,-4.11 0.984,-5.29 C 270.457,9.129 261.378,-1.022 248.739,0.976 l -24.765,3.931 c -12.63,2.006 -26.155,15.742 -28.634,29.094 l -6.89,37.06 c -2.479,13.352 6.598,23.503 19.237,21.497 l 8.278,-1.307 z"
       id="path12" />
    <path
       d="m 259.605,63.913 c 0.675,-1.818 1.143,-2.509 1.49,-4.374 l 0.879,-4.711 -10.302,1.638 z"
       id="path14" />
  </g>
  <g
     id="g375"
     transform="translate(-256.20905,431.41549)">
    <path
       d="m 375.1557,-210.02792 h -26.039 l -11.392,13.02 v 27.667 l 13.019,13.019 h 11.392 v -17.902 h -4.882 v -19.529 h 13.019 v 13.02 h 17.902 v -16.275 z"
       id="path18"
       style="fill:#ffffff" />
    <path
       d="m 350.7437,-118.89092 h 27.666 l 11.392,-13.019 v -29.294 l -13.019,-13.02 h -11.392 v 17.902 h 4.882 v 19.529 h -13.019 v -13.02 h -19.529 v 17.903 z"
       id="path20"
       style="fill:#ffffff" />
    <path
       d="m 393.0567,-131.90992 13.834,13.019 h 10.578 v -16.274 h -4.883 v -74.863 h -19.529 z"
       id="path22"
       style="fill:#ffffff" />
    <path
       d="m 445.1347,-131.90992 -13.832,13.019 h -10.579 v -16.274 h 4.882 v -74.863 h 19.529 z"
       id="path24"
       style="fill:#ffffff" />
    <path
       d="m 472.8017,-210.02792 v 16.275 h 6.51 v 27.666 h -6.51 v 17.902 h 13.019 l 13.02,-13.019 v -34.99 l -13.833,-13.834 z"
       id="path26"
       style="fill:#ffffff" />
    <path
       d="m 450.0177,-210.02792 h 19.529 v 91.136 h -19.529 z"
       id="path28"
       style="fill:#ffffff" />
    <path
       d="m 523.2517,-192.12492 h 21.157 v -17.903 h -39.058 v 91.137 h 39.058 v -16.274 h -21.157 z"
       id="path30"
       style="fill:#ffffff" />
    <path
       d="m 526.5067,-174.22392 h 13.02 v 16.275 h -13.02 z"
       id="path32"
       style="fill:#ffffff" />
    <path
       d="m 573.7027,-210.02792 h 14.648 l 13.019,13.02 v 24.411 l -8.951,8.951 8.951,8.951 v 35.804 h -17.903 v -35.804 h -9.764 v -17.902 h 8.137 v -21.156 h -8.137 z"
       id="path34"
       style="fill:#ffffff" />
    <path
       d="m 550.9187,-210.02792 h 19.528 v 91.136 h -19.528 z"
       id="path36"
       style="fill:#ffffff" />
    <path
       d="m 376.7827,-109.12692 -4.069,4.069 v 18.717 l 5.289,5.288 h 29.701 v -16.681 h -16.273 v 4.882 h 11.391 v 6.511 h -22.784 v -17.903 h 27.666 v -4.883 z"
       id="path38"
       style="fill:#ffffff" />
    <path
       d="m 446.7627,-96.92092 v -7.323 l -4.882,-4.883 h -27.667 v 27.667 h 6.51 v -11.392 h 11.392 l 8.137,11.392 h 6.51 l -8.137,-11.392 h 3.255 z m -6.51,-0.813 h -19.529 v -6.509 h 19.529 z"
       id="path40"
       style="fill:#ffffff" />
    <path
       d="m 450.0177,-81.45992 13.02,-27.667 h 13.019 l 14.647,27.667 h -8.138 l -11.391,-21.156 h -3.255 l -9.765,21.156 z"
       id="path42"
       style="fill:#ffffff" />
    <path
       d="m 492.3307,-109.12692 v 27.667 h 6.51 v -11.392 h 21.156 v -4.882 h -21.156 v -6.51 h 24.411 v -4.883 z"
       id="path44"
       style="fill:#ffffff" />
    <path
       d="m 526.5067,-109.12692 13.021,13.02 -14.648,14.647 h 9.764 l 9.765,-9.765 9.765,9.765 h 9.764 l -14.647,-14.647 14.647,-13.02 h -9.764 l -9.765,9.765 -9.765,-9.765 z"
       id="path46"
       style="fill:#ffffff" />
  </g>
</svg>
