<?xml version="1.0" encoding="UTF-8" standalone="no"?>
<svg
   clip-rule="evenodd"
   fill-rule="evenodd"
   stroke-linejoin="round"
   stroke-miterlimit="2"
   viewBox="0 0 599.99969 151.7471"
   version="1.1"
   id="svg4"
   sodipodi:docname="Nintendo SNES - SFC.svg"
   width="599.99969"
   height="151.7471"
   inkscape:version="1.2.2 (732a01da63, 2022-12-09)"
   xmlns:inkscape="http://www.inkscape.org/namespaces/inkscape"
   xmlns:sodipodi="http://sodipodi.sourceforge.net/DTD/sodipodi-0.dtd"
   xmlns="http://www.w3.org/2000/svg"
   xmlns:svg="http://www.w3.org/2000/svg">
  <defs
     id="defs8" />
  <sodipodi:namedview
     id="namedview6"
     pagecolor="#ffffff"
     bordercolor="#000000"
     borderopacity="0.25"
     inkscape:showpageshadow="2"
     inkscape:pageopacity="0.0"
     inkscape:pagecheckerboard="0"
     inkscape:deskcolor="#d1d1d1"
     showgrid="false"
     inkscape:zoom="0.51625"
     inkscape:cx="390.31477"
     inkscape:cy="464.89104"
     inkscape:window-width="1920"
     inkscape:window-height="1009"
     inkscape:window-x="1912"
     inkscape:window-y="-8"
     inkscape:window-maximized="1"
     inkscape:current-layer="svg4" />
  <path
     d="m 194.655,129.55422 -2.237,6.56779 h 1.627 z"
     id="path321"
     style="stroke-width:1.05517" />
  <path
     d="m 133.838,121.85412 c -0.203,0 -0.203,0 -0.407,0.22713 l -1.424,7.69898 v 0.22713 c 0,0.22602 0.204,0.45203 0.407,0.45203 h 1.221 c 0.406,0 1.017,-0.67916 1.22,-1.1323 l 1.22,-6.34067 c 0,-0.45314 -0.61,-1.1323 -0.813,-1.1323 z"
     id="path319"
     style="stroke-width:1.05517" />
  <path
     d="m 0,113.702 v 38.0451 H 587.219 V 113.702 Z m 431.617,4.07606 h 5.289 c 1.22,0 2.034,1.1323 1.831,2.49062 l -1.221,6.34177 h -2.847 l 0.61,-4.30318 c 0.203,-0.90629 -0.407,-1.81146 -1.221,-1.81146 -0.813,0 -1.627,0.67915 -1.83,1.81146 l -0.611,3.17088 c 0,0.22602 0.204,1.1323 0.407,1.1323 0.407,0.22602 4.068,7.01983 4.068,7.47297 0,0.22602 0.204,0.45315 0.204,0.45315 -0.204,0.90517 -1.221,6.56668 -1.221,6.56668 -0.203,1.35942 -1.424,2.49173 -2.644,2.49173 h -4.271 c -1.221,0 -2.034,-1.13231 -1.831,-2.49173 l 1.017,-6.56668 h 3.051 l -0.814,4.75522 c -0.203,0.90628 0.407,1.81146 1.221,1.81146 0.813,0 1.627,-0.90518 1.83,-1.81146 l 0.611,-3.85005 c -0.611,-1.58544 -4.272,-7.24695 -4.475,-8.60527 -0.204,-0.22602 -0.204,-0.90629 -0.204,-1.58544 0,-0.67916 0.814,-4.98235 0.814,-4.98235 h 0.203 v -0.67916 l 0.204,-0.22601 v -0.22713 l 0.203,-0.22602 v -0.22601 l 0.204,-0.22713 v -0.22602 l 0.406,-0.45314 v -0.22601 h 0.204 l 0.61,-0.68028 v -0.22601 h 0.203 l 0.407,-0.45314 h 0.204 l 0.203,-0.22602 h 0.203 l 0.204,-0.22713 h 0.203 z m 23.798,0 h 3.662 l 0.61,9.73757 4.678,-9.73757 h 3.661 l -7.526,14.94593 -1.83,10.87099 h -3.255 l 1.628,-11.77616 z m 33.562,0 h 5.288 c 1.22,0 2.034,1.1323 1.831,2.49062 l -1.221,6.34177 h -2.847 l 0.61,-4.30318 c 0.203,-0.90629 -0.407,-1.81146 -1.221,-1.81146 -0.813,0 -1.627,0.67915 -1.83,1.81146 l -0.61,3.17088 c -0.204,0.22602 0.203,1.1323 0.406,1.1323 0.407,0.22602 4.068,7.01983 4.068,7.47297 0.204,0.22602 0.204,0.45315 0.204,0.45315 -0.204,0.90517 -1.017,6.56668 -1.017,6.56668 -0.204,1.35942 -1.424,2.49173 -2.644,2.49173 h -4.475 c -1.221,0 -2.034,-1.13231 -1.831,-2.49173 l 1.017,-6.56668 h 3.051 l -0.813,4.75522 c -0.204,0.90628 0.406,1.81146 1.22,1.81146 0.814,0 1.627,-0.90518 1.831,-1.81146 l 0.61,-3.85005 c -0.61,-1.58544 -4.272,-7.24695 -4.475,-8.60527 -0.203,-0.22602 -0.203,-0.90629 -0.203,-1.58544 0,-0.67916 0.813,-4.98235 0.813,-4.98235 l 0.204,-0.22602 v -0.45314 l 0.203,-0.22601 v -0.22713 l 0.203,-0.22602 v -0.22601 l 0.204,-0.22713 v -0.22602 l 0.407,-0.45314 v -0.22601 h 0.203 l 1.22,-1.35943 h 0.204 l 0.203,-0.22602 h 0.204 l 0.203,-0.22713 h 0.203 z m 24.001,0 h 6.916 l -0.611,3.17089 h -1.83 l -3.661,22.64602 h -3.255 l 3.661,-22.64602 h -1.627 z m 27.052,0 h 6.102 l -0.61,3.17089 h -3.254 l -1.424,8.15213 h 3.254 l -0.61,2.71774 h -3.254 l -1.424,8.60527 h 3.254 l -0.406,3.17088 h -6.509 z m 25.426,0 h 3.864 l 0.61,14.94593 5.899,-14.71991 3.661,-0.22602 -4.068,25.81691 h -2.847 l 1.83,-13.58761 -5.085,13.58761 h -2.034 l -0.61,-14.04075 -2.237,14.04075 h -3.458 z m -552.642,0.90629 h 6.102 l -0.406,3.16977 h -3.458 l -1.221,8.15324 h 3.255 l -0.407,2.71663 h -3.458 l -1.22,8.60638 h 3.254 l -0.61,3.16978 H 8.136 Z m 28.273,0 h 2.848 l 1.627,13.58762 2.237,-13.58762 h 3.458 l -4.475,26.04293 h -2.847 l -1.221,-15.17306 -2.644,14.94593 h -3.458 z m 30.917,0 h 6.712 l -0.407,3.16977 h -1.83 l -3.661,22.64603 h -3.255 l 3.661,-22.64603 h -1.83 z m 29.9,0 h 6.102 l -0.61,3.16977 h -3.255 l -1.22,8.15324 h 3.254 l -0.406,2.71663 h -3.255 l -1.22,8.60638 h 3.254 l -0.407,3.16978 h -6.508 z m 29.086,0 h 6.509 c 1.221,0 2.034,1.1323 1.831,2.71663 l -1.627,9.05841 c -0.204,0.90629 -1.831,1.81258 -2.645,2.2646 h 0.611 v 0.22713 h 0.813 l 0.204,0.22602 h -0.407 0.203 v 0.22713 h 0.407 v 0.22601 h 0.203 c 0.204,0.22602 0.204,1.1323 0.204,1.35943 0,0.22602 -1.627,10.19071 -1.627,10.19071 h -3.458 c 0,0 1.627,-9.05841 1.627,-9.28554 0,-0.45314 0,-0.90517 -0.203,-1.35831 0,-0.22713 0,-0.68027 -0.407,-1.1323 h -2.034 l -2.034,11.77615 h -3.051 z m 29.494,0 h 6.915 l -0.61,3.16977 h -1.831 l -3.661,22.64603 h -3.254 l 3.661,-22.64603 h -1.831 z m 34.171,0 h 3.865 l -1.221,26.04293 h -3.864 l 0.61,-5.88864 h -2.441 l -2.034,5.88864 h -3.458 z m 27.459,0 h 3.051 l -4.475,25.8158 h -3.051 z m 26.442,0 h 2.848 l 1.627,13.58762 2.238,-13.58762 h 3.254 l -4.271,26.04293 h -3.051 l -1.017,-14.94705 -2.645,14.94705 h -3.457 z m 34.172,0 h 3.864 l 0.611,14.94593 5.898,-14.94593 h 3.661 l -3.864,25.8158 h -2.848 l 1.831,-13.58761 -5.085,13.58761 h -2.034 l -0.61,-14.04076 -2.238,14.04076 h -3.254 z m 37.222,0 h 6.102 l -0.407,3.16977 h -3.254 l -1.424,7.92611 h 3.255 l -0.407,2.71775 h -3.255 l -1.423,8.60527 h 3.254 l -0.61,3.17088 h -6.509 z m 29.9,0 h 2.848 l 1.627,13.58762 2.237,-13.58762 h 3.255 l -4.272,25.8158 h -2.847 l -1.221,-14.94593 -2.644,14.94593 h -3.458 z m 30.51,0 h 6.916 l -0.61,3.16977 h -1.831 l -3.661,22.64603 h -3.254 l 3.661,-22.64603 h -1.831 z"
     id="path317"
     style="stroke-width:1.05517" />
  <path
     d="m 569.117,0.204 c -5.695,0 -10.984,4.678 -12.001,10.373 l -14.645,84.412 c -1.017,5.492 2.644,9.763 7.933,9.763 h 21.764 c 5.492,0 10.78,-4.271 11.797,-9.763 L 599.83,10.577 C 600.847,4.882 597.186,0.204 591.694,0.204 Z m 7.322,12.001 h 0.814 c 3.864,0 6.509,3.051 5.695,6.915 l -12.204,68.546 c -0.61,3.865 -4.271,7.119 -8.136,7.119 -3.865,0 -5.492,-3.254 -4.882,-7.119 l 12.204,-68.342 2.441,-4.882 0.204,-0.203 0.406,-0.814 0.407,-0.203 0.407,-0.407 0.814,-0.407 0.203,-0.203 1.22,-0.611 0.204,-0.203 0.407,-0.203 -1.017,1.22 h 0.406 z"
     id="path315" />
  <path
     d="m 512.775,0.204 -19.934,104.548 h 30.104 c 5.491,0 10.78,-4.271 11.797,-9.763 L 550.607,10.577 C 551.624,4.882 547.963,0.204 542.471,0.204 Z m 11.187,12.001 h 6.102 c 3.864,0 6.509,3.051 5.898,6.915 l -13.017,68.546 c -0.611,3.865 -4.475,7.119 -8.34,7.119 h -6.102 z"
     id="path313" />
  <path
     d="m 460.297,0.204 -19.933,104.548 h 15.255 l 12.204,-60.613 4.882,60.613 h 13.221 L 505.859,0.204 h -15.255 l -10.17,54.715 -6.916,-54.715 z"
     id="path311" />
  <path
     d="m 426.939,0.204 -20.543,104.548 h 29.696 l 2.034,-13.018 h -14.645 l 6.102,-35.391 h 14.645 l 2.034,-10.984 h -14.645 l 6.306,-32.341 h 14.645 L 454.602,0 h -27.663 z"
     id="path309" />
  <path
     d="m 390.734,0.204 -2.441,13.018 h 8.136 l -16.272,91.53 h 15.052 l 16.475,-91.53 h 7.933 l 2.034,-13.018 z"
     id="path307" />
  <path
     d="m 339.68,0.204 -19.933,104.548 h 15.255 l 12.204,-60.613 4.882,60.613 h 13.221 L 385.039,0.204 H 369.784 L 359.613,54.919 352.901,0.204 Z"
     id="path305" />
  <path
     d="M 319.543,0.204 299.61,104.752 h 13.221 L 332.764,0.204 Z"
     id="path303" />
  <path
     d="m 267.269,0.204 -19.933,104.548 h 15.052 l 12.204,-60.613 4.881,60.613 h 13.221 L 312.628,0.204 H 297.576 L 287.203,54.919 280.49,0.204 Z"
     id="path301" />
  <path
     d="m 196.892,0.204 -19.729,104.548 h 13.221 l 8.949,-47.392 h 9.357 c 1.22,1.22 1.424,3.254 1.627,4.271 0.203,1.627 0.407,3.458 0.407,5.085 -0.204,1.627 -7.119,38.036 -7.119,38.036 h 13.221 c 0,0 7.322,-39.663 7.322,-40.273 0,-0.611 0,-2.645 -0.813,-3.865 -0.407,-0.814 -1.221,-2.441 -2.238,-3.051 -1.83,-1.22 -3.864,-2.034 -3.864,-2.034 h -1.017 c 3.864,-1.424 10.78,-3.865 11.593,-7.933 l 7.119,-37.222 C 235.945,4.679 232.284,0 226.792,0 h -29.9 z m 12.205,12.407 h 6.508 c 1.424,0 4.475,3.255 4.068,4.679 l -5.491,25.628 c -0.204,1.424 -3.662,4.475 -4.882,4.475 h -5.695 c -1.221,0 -2.034,-0.814 -2.034,-1.831 v -0.61 l 6.102,-31.527 0.61,-0.61 h 0.203 l 0.407,-0.407 h 0.204 l 0.203,-0.203 h 0.203 l 0.204,-0.204 h 0.203 z"
     id="path299" />
  <path
     d="m 161.501,0.204 -20.747,104.548 h 29.696 l 2.034,-13.018 h -14.645 l 5.899,-35.391 h 14.645 l 2.034,-10.984 h -14.645 l 6.509,-32.341 h 14.848 l 2.034,-12.814 z"
     id="path297" />
  <path
     d="M 114.312,0.204 94.378,104.752 h 13.425 l 9.153,-47.392 h 16.679 c 5.491,0 10.576,-4.272 11.594,-9.764 l 7.119,-37.222 C 153.365,4.679 149.703,0 144.211,0 h -29.899 z m 12.814,12.407 h 6.305 c 1.424,0 4.272,3.255 4.068,4.679 l -5.492,25.832 c -0.203,1.423 -2.034,4.474 -3.457,4.474 h -8.136 l -0.204,-0.203 h -0.813 V 47.19 h -0.204 0.814 -0.204 L 119.6,46.986 h -0.203 l -0.407,-0.407 v -0.203 l -0.407,-0.407 v -0.407 l -0.203,-0.203 v -0.407 l -0.204,-0.203 v -0.814 l 6.102,-31.527 c 1.424,0.61 2.034,0.203 2.848,0.203 z"
     id="path295" />
  <path
     d="M 67.122,0.204 50.647,94.989 c -1.017,5.492 2.644,9.763 8.136,9.763 h 19.73 c 5.492,0 10.78,-4.271 11.797,-9.763 L 107.803,0.204 H 95.395 L 78.716,92.345 c -0.203,1.423 -1.627,2.44 -2.847,2.44 h -9.764 c -1.423,0 -2.237,-1.22 -2.034,-2.44 L 80.343,0.204 Z"
     id="path293" />
  <path
     d="m 29.29,0.204 c -5.695,0 -11.187,4.678 -12.204,10.373 v 0.611 l -0.204,-0.204 v 0.814 l -0.203,0.203 v 0.814 l -0.203,0.203 v 0.407 l -0.407,1.22 v 0.814 l -0.204,0.61 -0.407,1.627 -0.203,1.017 -0.203,0.814 -0.407,1.831 -0.204,1.017 -0.203,0.813 v 0.61 l -0.814,3.255 -0.203,0.61 -0.203,0.814 v 0.203 l -0.204,0.203 v 0.611 L 12.611,29.9 v 0.407 l -0.204,0.204 v 0.406 c -0.203,2.441 0.204,5.899 1.017,6.509 1.017,5.492 19.527,31.121 18.917,34.985 0.203,3.662 -2.034,15.255 -2.034,15.255 -0.61,3.865 -3.255,6.916 -7.119,6.916 -3.865,0 -6.509,-3.051 -5.899,-6.916 L 20.747,68.547 H 6.916 L 2.441,94.989 c -1.017,5.492 2.644,9.763 8.136,9.763 h 19.73 c 5.492,0 10.577,-4.271 11.594,-9.763 0,0 5.085,-24.815 5.085,-26.646 0,-1.83 -0.611,-2.034 -0.611,-2.034 0,-2.034 -16.475,-29.086 -18.102,-30.103 -0.814,-0.407 -1.221,-3.051 -1.424,-4.678 0,-1.628 2.237,-12.408 2.237,-12.408 0.611,-3.864 4.272,-6.915 8.136,-6.915 3.865,0 5.492,3.051 4.882,6.915 L 39.053,36.206 H 52.884 L 57.766,10.374 C 58.986,4.882 55.325,0.204 49.63,0.204 Z"
     id="path2" />
</svg>
