<?xml version="1.0" encoding="UTF-8" standalone="no"?>
<svg
   clip-rule="evenodd"
   fill-rule="evenodd"
   stroke-linejoin="round"
   stroke-miterlimit="2"
   viewBox="-36.239276 -11.132052 434.871312 133.584624"
   version="1.1"
   id="svg26"
   sodipodi:docname="Nintendo Game Boy Color.svg"
   width="434.871312"
   height="133.584624"
   inkscape:version="1.2.2 (732a01da63, 2022-12-09)"
   xmlns:inkscape="http://www.inkscape.org/namespaces/inkscape"
   xmlns:sodipodi="http://sodipodi.sourceforge.net/DTD/sodipodi-0.dtd"
   xmlns="http://www.w3.org/2000/svg"
   xmlns:svg="http://www.w3.org/2000/svg">
  <defs
     id="defs30" />
  <sodipodi:namedview
     id="namedview28"
     pagecolor="#ffffff"
     bordercolor="#000000"
     borderopacity="0.25"
     inkscape:showpageshadow="2"
     inkscape:pageopacity="0.0"
     inkscape:pagecheckerboard="0"
     inkscape:deskcolor="#d1d1d1"
     showgrid="false"
     inkscape:zoom="1.4601755"
     inkscape:cx="139.36681"
     inkscape:cy="107.52132"
     inkscape:window-width="434.871312"
     inkscape:window-height="133.584624"
     inkscape:window-x="-8"
     inkscape:window-y="-8"
     inkscape:window-maximized="1"
     inkscape:current-layer="svg26" />
  <path
     d="m 161.70076,63.293693 h -12.654 l -1.691,-38.112 -16.452,38.112 h -8.44 l -7.029,-34.456 -10.972,34.456 H 82.945762 l -3.235,-18.418 h -14.629 l -8.297,18.418 h -13.224 l 27.149,-61.595 h 15.609 l 8.296,49.784 16.176998,-49.785 h 12.512 l 6.19,33.754 14.35,-33.754 h 15.189 z m -83.896998,-30.381 -2.317,-11.949 -5.344,11.949 z"
     id="path8"
     style="fill:#1a1a1a;fill-rule:nonzero" />
  <path
     d="m 197.98476,63.293693 2.114,-13.216 h -22.083 l 1.75,-10.97 h 19.207 l 2.11,-13.224 h -19.411 l 1.687,-10.97 h 22.078 l 2.112,-13.215 h -35.017 l -9.848,61.595 z"
     id="path10"
     style="fill:#1a1a1a;fill-rule:nonzero" />
  <path
     d="m 362.39276,1.697693 h -14.768 l -12.517,20.109 -7.872,-20.109 h -14.486 l 14.906,32.483 -4.593,29.112 h 12.661 l 3.885,-25.733 22.784,-35.862"
     id="path12"
     style="fill:#1a1a1a;fill-rule:nonzero" />
  <path
     d="m 268.08176,27.198693 c 3.931,-17.032 18.488,-28.209 32.509,-24.967 14.029,3.241 22.213,19.67 18.286,36.702 -3.931,17.027 -18.486,28.206 -32.513,24.965 -14.026,-3.242 -22.209,-19.675 -18.282,-36.7 z m 19.155,24.366 c 6.696,2.995 14.899,-2.88 18.311,-13.121 3.411,-10.25 0.756,-20.985 -5.941,-23.981 -6.698,-2.997 -14.89,2.881 -18.307,13.127 -3.416,10.248 -0.755,20.978 5.937,23.975"
     id="path14"
     style="fill:#1a1a1a;fill-rule:nonzero" />
  <path
     d="m 237.69576,15.022693 h 8.24 c 8.932,0 7.12,11.442 -1.392,11.442 h -8.798 z m -3.904,24.002 h 10.606 c 10.053,0 9.771,12.282 -1.394,12.282 h -11.166 z m -6.98,-36.988 -9.767,61.137 h 28.472 c 11.722,0 28.867,-17.279 13.262,-31.403 16.047,-16.608 0.134,-29.586 -8.377,-29.734 -6.838,-0.11 -23.724,0 -23.724,0 z"
     id="path16"
     style="fill:#1a1a1a;fill-rule:nonzero" />
  <path
     d="m 16.560762,7.181693 c -12.0610003,7.464 -17.8600003,18.841 -16.31600033,34.313 1.79600003,17.946 25.03600033,29.252 44.72400033,17.863 1.724,-0.995 1.05,-0.838 1.688,-1.408 l 3.94,-25.036 h -23.489 l -1.801,11.532 h 9.817 l -1.127,6.192 c -5.624,2.249 -15.189,1.404 -19.266,-5.908 -2.582,-4.631 -4.9770003,-14.967 5.909,-24.473 8.857,-7.735 24.189,-9.136 33.052,-5.059 0,0 1.124,-6.467 1.965,-12.519 -17.016,-5.905 -30.238,-0.981 -39.096,4.503"
     id="path18"
     style="fill:#1a1a1a;fill-rule:nonzero" />
  <g
     id="g329"
     transform="matrix(0.64336395,0,0,0.64336395,-128.49608,66.206286)">
    <path
       d="m 462.541,28.77 c -1.262,-3.823 -4.594,-7.46 -4.594,-7.46 0,0 -5.007,-6.505 -14.842,-8.723 -8.42,-1.761 -15.037,1.952 -15.037,1.952 0,0 -6.008,2.408 -10.523,7.385 -7.192,6.924 -9.259,17.027 -9.259,17.027 0,0 -2.756,8.799 1.609,15.765 l 4.744,5.738 c 6.695,5.587 13.85,6.159 13.85,6.159 0,0 5.779,1.3 12.514,-0.46 5.887,-1.187 10.175,-4.094 10.175,-4.094 0,0 9.76,-5.395 12.434,-16.414 z m -15.195,18.327 c 0,0 -3.901,6.812 -12.469,6.006 -10.065,-1.032 -11.248,-9.869 -11.248,-9.869 0,0 -1.381,-6.504 4.819,-12.169 6.277,-5.278 12.819,-4.475 12.819,-4.475 0,0 4.397,0.42 6.659,7.692 2.905,9.257 -0.58,12.815 -0.58,12.815"
       id="path2"
       style="fill:#1a1a1a;fill-rule:nonzero" />
    <path
       d="m 495.059,47.214 c -3.221,-0.711 -8.379,0.609 -8.379,0.609 0,0 -7.192,2.638 -8.302,2.601 -0.419,-0.61 -1.337,-12.358 -1.071,-17.063 0.154,-8.304 -0.539,-15.074 -0.539,-15.074 0,0 -0.342,-7.999 -4.628,-12.741 -5.049,-5.092 -8.574,-2.907 -10.6,-1.686 -4.859,4.362 -2.601,9.679 -2.601,9.679 l 2.529,7.157 c 0,0 1.222,3.063 1.071,8.073 l 1.071,16.874 c 0,2.257 1.838,17.445 1.838,17.445 0,0 0.186,4.937 4.933,5.817 4.861,0.803 9.64,-1.609 11.668,-2.564 2.029,-0.954 4.707,-1.796 4.707,-1.796 0,0 2.22,-0.499 4.438,-0.688 5.203,-0.5 7.078,-1.416 7.078,-1.416 0,0 2.012,-0.303 3.37,-2.222 1.353,-1.915 2.991,-10.903 -6.583,-13.005"
       id="path4"
       style="fill:#1a1a1a;fill-rule:nonzero" />
    <path
       d="m 409.892,54.713 c -3.417,-1.026 -7.343,-0.346 -7.343,-0.346 0,0 -11.096,1.07 -16.875,-0.155 -8.95,-1.566 -8.65,-11.21 -8.65,-11.21 0,0 -0.3,-6.391 5.093,-15.037 6.656,-10.676 14.002,-12.588 14.002,-12.588 0,0 1.834,-0.687 3.556,0.229 1.072,6.196 7.078,6.158 7.078,6.158 0,0 8.648,0.576 8.224,-9.905 -0.992,-8.613 -9.294,-9.797 -12.778,-10.603 -10.439,-1.874 -17.218,3.713 -17.218,3.713 0,0 -7,3.787 -15.378,16.987 -5.706,8.186 -6.393,14.617 -6.393,14.617 0,0 -0.687,1.53 -0.419,8.343 -0.153,5.316 1.838,9.182 1.838,9.182 0,0 3.021,9.149 12.585,12.898 5.818,2.408 14.314,2.371 14.314,2.371 0,0 8.224,-0.114 14.534,-0.46 3.445,0.267 5.093,-1.531 5.093,-1.531 0,0 3.861,-2.525 3.481,-6.925 0,0 -0.75,-4.546 -4.744,-5.738"
       id="path6"
       style="fill:#1a1a1a;fill-rule:nonzero" />
    <path
       d="M 548.896,26.742 C 542.202,15.8 530.417,14.154 530.417,14.154 c 0,0 -3.75,-1.263 -11.782,-0.193 -15.077,2.871 -20.32,14.464 -20.32,14.464 0,0 -5.397,8.492 -3.254,18.785 l 6.587,13.009 c 4.858,4.553 6.847,4.553 7.152,4.824 6.43,2.907 13.89,1.223 13.89,1.223 0,0 9.414,-0.917 18.023,-7.613 6.885,-5.049 9.87,-12.474 9.87,-12.474 l 0.913,-9.959 z m -18.327,22.345 c -10.827,6.504 -17.64,-0.613 -17.64,-0.613 0,0 -3.021,-1.99 -3.672,-8.036 -0.464,-7.001 6.504,-10.636 6.504,-10.636 0,0 3.674,-2.259 8.266,-1.914 4.592,0.343 6.041,0.037 9.757,2.794 3.518,3.177 3.288,5.51 3.288,5.51 0,0 1.265,7.883 -6.503,12.895"
       id="path20"
       style="fill:#1a1a1a;fill-rule:nonzero" />
    <path
       d="m 550.58,46.179 c 0,0 0.231,6.121 -0.728,7.614 -1.3,2.793 -1.108,5.51 -1.108,5.51 0,0 -0.884,8.264 8.688,9.638 6.577,-0.037 7.378,-5.51 7.494,-7.843 0.381,-1.833 0.23,-10.37 0.23,-10.37 l 8.533,6.965 c 0,0 6.198,5.204 9.837,8.225 3.79,2.983 4.741,3.519 4.741,3.519 0,0 0.807,0.954 3.71,0.611 2.34,0.04 4.481,-2.066 4.481,-2.066 0,0 2.713,-1.984 3.401,-5.468 0.842,-4.133 -2.37,-6.161 -2.37,-6.161 0,0 -11.859,-9.566 -19.895,-16.148 5.395,-2.945 7.997,-4.973 7.997,-4.973 0,0 7.502,-4.972 9.106,-12.59 2.221,-8.38 -4.093,-11.667 -4.093,-11.667 0,0 -3.943,-2.832 -7.27,-4.325 -8.382,-4.094 -16.185,-3.253 -16.185,-3.253 0,0 -11.095,-0.764 -18.326,8.153 -3.328,4.321 -1.26,9.986 -1.26,9.986 0,0 0.411,0.907 1.337,5.203 1.855,8.643 1.68,19.44 1.68,19.44 z m 14.54,-16.989 -0.728,-9.985 c 0,0 6.999,-0.155 9.909,0.342 5.742,0.88 5.433,2.49 5.433,2.49 0,0 -0.191,2.026 -4.554,4.017 -4.741,2.297 -10.06,3.136 -10.06,3.136"
       id="path22"
       style="fill:#1a1a1a;fill-rule:nonzero" />
  </g>
</svg>

