<?xml version="1.0" encoding="UTF-8" standalone="no"?>
<svg
   clip-rule="evenodd"
   fill-rule="evenodd"
   stroke-linejoin="round"
   stroke-miterlimit="2"
   viewBox="0 0 521.03802 217.20914"
   version="1.1"
   id="svg44"
   sodipodi:docname="Nintendo NES - Famicom.svg"
   width="521.03802"
   height="217.20914"
   inkscape:version="1.2.2 (732a01da63, 2022-12-09)"
   xmlns:inkscape="http://www.inkscape.org/namespaces/inkscape"
   xmlns:sodipodi="http://sodipodi.sourceforge.net/DTD/sodipodi-0.dtd"
   xmlns="http://www.w3.org/2000/svg"
   xmlns:svg="http://www.w3.org/2000/svg">
  <defs
     id="defs48" />
  <sodipodi:namedview
     id="namedview46"
     pagecolor="#ffffff"
     bordercolor="#000000"
     borderopacity="0.25"
     inkscape:showpageshadow="2"
     inkscape:pageopacity="0.0"
     inkscape:pagecheckerboard="0"
     inkscape:deskcolor="#d1d1d1"
     showgrid="false"
     inkscape:zoom="0.73008775"
     inkscape:cx="141.76378"
     inkscape:cy="442.41257"
     inkscape:window-width="1920"
     inkscape:window-height="1009"
     inkscape:window-x="1912"
     inkscape:window-y="-8"
     inkscape:window-maximized="1"
     inkscape:current-layer="svg44" />
  <path
     d="M 74.061024,147.82241 H 44.307705 v 29.13319 h 9.238544 v -19.49037 c 0,-1.23426 1.021841,-2.25867 2.255246,-2.25867 h 16 c 1.227409,0 2.259529,1.02441 2.259529,2.25867 v 19.49037 h 9.227409 v -19.49037 c 0,0 1.234261,-9.64282 -9.227409,-9.64282"
     id="path2"
     style="fill:#ffffff;fill-rule:nonzero;stroke-width:0.856531" />
  <path
     d="m 331.10599,147.82241 h -29.75503 v 29.13319 h 9.43555 v -19.49037 c 0,-1.23426 1.03212,-2.25867 2.05739,-2.25867 h 16.00599 c 1.22484,0 2.2561,1.02441 2.2561,2.25867 v 19.49037 h 9.22399 v -19.49037 c 0,0 1.23083,-9.64282 -9.22399,-9.64282"
     id="path4"
     style="fill:#ffffff;fill-rule:nonzero;stroke-width:0.856531" />
  <path
     d="m 471.2182,147.82241 h -29.74904 v 29.13319 h 9.23855 v -19.49037 c 0,-1.23426 1.0167,-2.25867 2.2561,-2.25867 h 15.99829 c 1.22484,0 2.2561,1.02441 2.2561,2.25867 v 19.49037 h 9.23083 v -19.49037 c 0,0 1.22484,-9.64282 -9.23083,-9.64282"
     id="path6"
     style="fill:#ffffff;fill-rule:nonzero;stroke-width:0.856531" />
  <path
     d="m 87.394643,155.20656 h 10.255246 c 1.026124,0 2.260386,1.02441 2.260386,2.25867 v 19.49037 h 9.839825 v -19.49037 c 0,-1.23426 1.03127,-2.25867 2.25868,-2.25867 h 10.25524 v -7.38415 H 87.394643 Z"
     id="path8"
     style="fill:#ffffff;fill-rule:nonzero;stroke-width:0.856531" />
  <path
     d="m 484.34283,147.82241 v 7.38415 h 10.26209 c 1.22399,0 2.25611,1.02441 2.25611,2.25867 v 19.49037 h 10.26209 v -19.49037 c 0,-1.23426 0.812,-2.25867 2.04283,-2.25867 h 10.2621 v -7.38415 z"
     id="path10"
     style="fill:#ffffff;fill-rule:nonzero;stroke-width:0.856531" />
  <path
     d="m 204.53297,155.20656 h 10.25611 c 1.22826,0 2.25953,1.02441 2.25953,2.25867 V 176.9556 H 227.297 v -19.49037 c 0,-1.23426 1.03212,-2.25867 2.26724,-2.25867 h 10.24839 v -7.38415 h -35.27966 z"
     id="path12"
     style="fill:#ffffff;fill-rule:nonzero;stroke-width:0.856531" />
  <path
     d="m 285.35696,147.82241 h 9.84497 v 29.13233 h -9.84497 z"
     id="path14"
     style="fill:#ffffff;fill-rule:nonzero;stroke-width:0.856531" />
  <path
     d="m 269.55824,162.18814 h -16.60899 v -5.13147 c 0,-0.8257 1.22912,-1.85011 1.84068,-1.85011 h 12.51221 c 1.43126,0 2.2561,1.02441 2.2561,1.85011 z m -0.20642,-14.36573 h -16.20471 c -10.46253,0 -9.63683,9.64282 -9.63683,9.64282 v 19.49037 h 9.43897 v -7.38073 h 16.60899 v 7.38073 h 9.43041 v -19.49037 c 0,0 1.23083,-9.64282 -9.63683,-9.64282"
     id="path16"
     style="fill:#ffffff;fill-rule:nonzero;stroke-width:0.856531" />
  <path
     d="m 191.4015,159.93119 c 0,1.43126 -0.61071,2.25695 -1.84583,2.25695 h -13.5409 c -0.61156,0 -1.4304,-0.82569 -1.4304,-2.25695 v -2.87452 c 0,-1.23426 0.81884,-2.25953 2.04625,-2.25953 h 12.92505 c 1.23512,0 1.84583,0.60899 1.84583,2.25953 z m -0.20214,-12.10878 h -26.25868 v 29.13319 h 9.64369 v -5.54347 c 0,-1.23084 0.81884,-1.83726 2.04625,-1.83726 h 12.92505 c 0.61242,0 1.84583,1.02527 1.84583,1.83726 v 5.54347 h 9.22826 v -4.50621 c 0,0 0.8257,-4.1182 -3.48437,-6.98758 2.87195,-2.04968 3.90065,-5.11863 4.10707,-6.97474 0.203,-0.81884 0.203,-1.4304 0.203,-1.4304 0,0 0,-9.23426 -10.2561,-9.23426"
     id="path18"
     style="fill:#ffffff;fill-rule:nonzero;stroke-width:0.856531" />
  <path
     d="m 5.53597,167.31191 c 0,0 -1.022698,9.64369 9.646253,9.64369 h 22.977302 v -7.38073 H 16.81991 c -1.434689,0 -2.66895,-1.24368 -2.66895,-2.46253 0,-1.43726 1.031263,-2.2621 2.66895,-2.2621 h 20.11135 v -5.12548 H 16.409632 c -1.227409,0 -2.258672,-1.02441 -2.258672,-2.25953 0,-1.23426 1.031263,-2.25867 2.258672,-2.25867 h 21.749893 v -7.38415 H 5.53597 v 19.4895"
     id="path20"
     style="fill:#ffffff;fill-rule:nonzero;stroke-width:0.856531" />
  <path
     d="m 126.57751,167.31191 c 0,0 -1.44154,9.64369 9.23341,9.64369 h 22.9773 v -7.38073 h -21.33961 c -1.44069,0 -2.66896,-1.24368 -2.66896,-2.46253 0,-1.43726 1.22827,-2.2621 2.66896,-2.2621 h 20.10535 v -5.12548 h -20.10535 c -1.44069,0 -2.66896,-1.02441 -2.66896,-2.25953 0,-1.23426 1.22827,-2.25867 2.66896,-2.25867 h 21.33961 v -7.38415 h -32.21071 z"
     id="path22"
     style="fill:#ffffff;fill-rule:nonzero;stroke-width:0.856531" />
  <path
     d="m 403.10856,167.31191 c 0,0 -1.03126,9.64369 9.43726,9.64369 h 23.1803 v -7.38073 h -21.54347 c -1.23083,0 -2.46081,-1.24368 -2.46081,-2.46253 0,-1.43726 0.82398,-2.2621 2.26039,-2.2621 h 20.09935 v -5.12548 h -20.09935 c -1.43641,0 -2.26039,-1.02441 -2.26039,-2.25953 0,-1.23426 0.82398,-2.25867 2.26039,-2.25867 h 21.74389 v -7.38415 h -32.61756 z"
     id="path24"
     style="fill:#ffffff;fill-rule:nonzero;stroke-width:0.856531" />
  <path
     d="m 387.79293,147.86095 h -41.24282 v 29.12719 h 8.61927 v -19.48351 c 0,-1.22826 1.02441,-2.25696 2.2561,-2.25696 h 6.96874 c 1.23683,0 2.26809,1.0287 2.26809,2.25696 v 19.48351 H 376.3 v -19.48351 c 0,-1.22826 0.82398,-2.25696 2.2561,-2.25696 h 7.38758 c 0.81713,0 1.84925,1.0287 1.84925,2.25696 l 0.4,19.48351 h 9.23084 v -19.48351 c 0,0 1.22998,-9.64368 -9.63084,-9.64368"
     id="path26"
     style="fill:#ffffff;fill-rule:nonzero;stroke-width:0.856531" />
  <path
     d="m 256.39679,195.46695 h 10.45824 c 0.81199,0 1.84325,1.03126 1.84325,2.2561 v 19.48608 h 10.26382 l 0.40599,-19.48608 c 0,-1.22484 0.61071,-2.2561 1.84925,-2.2561 h 10.2621 v -7.38073 h -35.08265 z"
     id="path28"
     style="fill:#ffffff;fill-rule:nonzero;stroke-width:0.856531" />
  <path
     d="m 374.96981,188.08622 h -41.22998 v 29.12291 h 8.61242 v -19.48608 c 0,-1.22484 1.02441,-2.2561 2.2561,-2.2561 h 6.97473 c 1.22484,0 2.24925,1.03126 2.24925,2.2561 v 19.48608 h 9.64283 v -19.48608 c 0,-1.22484 0.8197,-2.2561 2.26295,-2.2561 h 7.38159 c 0.82398,0 1.85011,1.03126 1.85011,2.2561 l 0.41199,19.48608 h 9.23169 v -19.48608 c 0,0 1.22312,-9.63683 -9.64368,-9.63683"
     id="path30"
     style="fill:#ffffff;fill-rule:nonzero;stroke-width:0.856531" />
  <path
     d="m 214.13897,188.08622 h -8.82484 v 10.87366 c 0,1.2197 -1.22827,2.25011 -2.24925,2.25011 h -13.13747 c -1.22741,0 -2.25611,-1.03041 -2.25611,-2.25011 v -10.87366 h -9.22826 v 10.66809 c 0,0 -1.02441,9.83726 9.64368,9.83726 h 3.07409 v 8.61756 h 10.26039 v -8.61756 h 3.48351 c 10.66809,0 9.23426,-9.63169 9.23426,-9.63169 z"
     id="path32"
     style="fill:#ffffff;fill-rule:nonzero;stroke-width:0.856531" />
  <path
     d="m 295.37152,207.5723 c 0,0 -1.4364,9.63683 9.23169,9.63683 h 22.97473 v -7.38672 h -21.33105 c -1.43726,0 -2.67494,-1.02527 -2.67494,-2.46253 0,-1.43126 1.23768,-2.04283 2.67494,-2.04283 h 20.09936 v -5.13747 h -20.09936 c -1.43726,0 -2.67494,-1.2197 -2.67494,-2.45653 0,-1.22484 1.23768,-2.2561 2.67494,-2.2561 h 21.33105 v -7.38073 h -32.20642 z"
     id="path34"
     style="fill:#ffffff;fill-rule:nonzero;stroke-width:0.856531" />
  <path
     d="m 243.67816,199.9723 h -13.7499 c -1.63683,0 -2.65867,-0.60642 -2.65867,-2.03683 0,-1.24283 1.02184,-2.46852 2.25011,-2.46852 h 23.38672 v -7.38073 h -25.63683 c -4.72205,0 -8.81884,3.89379 -8.81884,8.41199 0,6.35717 4.09679,8.81884 9.63768,8.81884 h 13.74219 c 1.43897,0 2.87537,0.61157 2.87537,2.04283 0,1.23169 -1.02783,2.46253 -2.2621,2.46253 h -23.99314 v 7.38672 h 26.25524 c 4.30664,0 8.82142,-3.48694 8.82142,-8.41199 0,-5.94176 -4.72206,-8.82484 -9.84925,-8.82484"
     id="path36"
     style="fill:#ffffff;fill-rule:nonzero;stroke-width:0.856531" />
  <path
     d="m 165.51884,199.9723 h -13.33362 c -1.64368,0 -2.87195,-0.60642 -2.87195,-2.03683 0,-1.24283 1.22827,-2.46852 2.46253,-2.46852 h 23.38672 v -7.38073 h -25.64625 c -5.12805,0 -9.2334,3.89379 -9.2334,8.41199 0,6.35717 4.51563,8.81884 10.05224,8.81884 h 13.33362 c 1.64454,0 2.87195,0.61157 2.87195,2.04283 0,1.23169 -1.22741,2.46253 -2.46167,2.46253 h -23.79614 v 7.38672 h 26.25781 c 4.71949,0 9.03127,-3.48694 9.03127,-8.41199 0,-5.94176 -4.51564,-8.82484 -10.05311,-8.82484"
     id="path38"
     style="fill:#ffffff;fill-rule:nonzero;stroke-width:0.856531" />
  <path
     d="M 452.174,113.59623 H 68.864 c -32.749,0.111 -52.653,-21.868997 -52.653,-48.832997 0,-26.971 20.03,-48.774 52.653,-48.833 h 383.31 c 32.623,0.059 52.645,21.862 52.645,48.833 0,26.964 -19.896,48.943997 -52.645,48.832997 M 452.36,2.3335454e-4 H 68.678 C 27.595,-0.09576665 0,29.441233 0,64.852233 0,100.25523 27.528,129.45123 68.738,129.46623 H 452.3 c 41.203,-0.015 68.738,-29.211 68.738,-64.613997 0,-35.411 -27.602,-64.94799965 -68.678,-64.85199964546 M 265.205,60.751233 c 1.432,-2.499 4.064,-3.693 6.445,-3.701 2.388,0.008 5.02,1.202 6.444,3.701 1.172,2.025 1.224,4.398 1.202,7.942 h -15.299 c -0.03,-3.544 0.044,-5.917 1.208,-7.942 m 33.327,14.253 c 0,-12.562 -12.14,-22.974 -27.045,-22.974 -14.899,0 -26.987,10.182 -26.987,22.752 0,12.562 12.088,22.752 26.987,22.752 12.377,0 22.811,-7.053 26,-16.627 l -18.266,0.015 c 0,0 0.015,0.178 0.015,2.455 0,7.416 -4.872,9.062 -7.586,9.062 -2.7,0 -7.661,-1.646 -7.661,-9.062 0,-2.218 0.015,-8.365 0.015,-8.365 0,0 34.528,0.014 34.528,-0.008 m 38.362,-22.299 c -6.066,0.17 -11.109,2.766 -14.624,6.11 -0.015,-1.001 0,-4.256 0,-4.256 l -18.183,0.007 -0.008,40.528 h 18.191 c 0,0 -0.015,-24.895 -0.015,-26.623 0,-3.53 3.708,-7.46 8.699,-7.46 4.999,0 8.373,3.93 8.373,7.46 v 26.623 h 18.213 c 0,0 -0.007,-19.2 0,-22.055 0.104,-16.048 -13.801,-20.534 -20.646,-20.334 m -148.947,0 c -6.058,0.17 -11.109,2.766 -14.616,6.11 -0.015,-1.001 0,-4.256 0,-4.256 l -18.214,0.007 0.015,40.528 h 18.199 c 0,0 -0.015,-24.895 -0.015,-26.623 0,-3.53 3.708,-7.46 8.699,-7.46 4.99,0 8.372,3.93 8.372,7.46 v 26.623 H 208.6 c 0,0 -0.022,-19.2 0,-22.055 0.097,-16.048 -13.808,-20.534 -20.653,-20.334 m 209.231,21.921 c 0,0 0.007,4.59 0.007,7.193 0,6.259 -4.338,7.898 -7.193,7.898 -2.907,0 -7.179,-1.639 -7.179,-7.898 0,-2.15 0.008,-7.208 0.008,-7.208 0,0 -0.008,-5.146 -0.008,-7.223 0,-6.274 4.272,-7.868 7.186,-7.868 2.848,0 7.179,1.594 7.179,7.868 z m -0.134,-18.05 c -2.922,-1.646 -6.021,-3.233 -10.367,-3.612 -13.208,-1.164 -23.308,10.516 -23.308,21.217 0,14.105 10.894,19.326 12.54,20.097 6.17,2.87 14.083,2.877 21.098,-1.528 0,0.379 0.008,2.344 0.008,2.344 h 18.116 v -60.936 h -18.087 z m 58.192,26.519 c 0,6.459 -3.819,9.121 -7.49,9.121 -3.678,0 -7.512,-2.662 -7.512,-9.121 0,-2.455 0.007,-8.743 0.007,-8.743 0,0 0.008,-5.992 0.008,-8.454 0,-6.423 3.841,-9.07 7.49,-9.07 3.663,0 7.49,2.647 7.49,9.07 0,2.462 0,7 0.022,8.632 0,0.096 -0.015,6.125 -0.015,8.565 m -7.349,-31.295 c -14.794,0 -26.786,10.197 -26.786,22.759 0,12.57 11.992,22.759 26.786,22.759 14.795,0 26.786,-10.189 26.786,-22.759 0,-12.562 -11.991,-22.759 -26.786,-22.759 m -321.224,-5.206 h 18.369 v -12.458 h -18.369 z m 0.044,48.507 h 18.325 v -40.527 h -18.325 z m 120.218,-40.453 v -6.029 h -9.929 v -8.195 h -18.34 l 0.015,8.202 -9.974,0.008 v 6.014 h 9.967 l -0.015,40.453 h 18.361 l -0.014,-40.453 z m -149.533,22.01 -26.274,-42.5 H 52.134 l -0.008,60.943 H 71 v -42.5 l 26.407,42.5 h 18.807 v -60.943 H 97.378 Z"
     id="path40"
     style="fill:#ffffff;fill-rule:nonzero" />
</svg>
