<?xml version="1.0" encoding="UTF-8" standalone="no"?>
<svg
   width="128.4777998"
   height="36.6119988"
   viewBox="-3.0509999 -3.0509999 128.4777998 36.6119988"
   version="1.1"
   id="svg10"
   sodipodi:docname="Quake.svg"
   inkscape:version="1.2.2 (732a01da63, 2022-12-09)"
   xmlns:inkscape="http://www.inkscape.org/namespaces/inkscape"
   xmlns:sodipodi="http://sodipodi.sourceforge.net/DTD/sodipodi-0.dtd"
   xmlns="http://www.w3.org/2000/svg"
   xmlns:svg="http://www.w3.org/2000/svg">
  <defs
     id="defs14" />
  <sodipodi:namedview
     id="namedview12"
     pagecolor="#ffffff"
     bordercolor="#000000"
     borderopacity="0.25"
     inkscape:showpageshadow="2"
     inkscape:pageopacity="0.0"
     inkscape:pagecheckerboard="0"
     inkscape:deskcolor="#d1d1d1"
     showgrid="false"
     inkscape:zoom="0.23447661"
     inkscape:cx="1580.115"
     inkscape:cy="405.15769"
     inkscape:window-width="128.4777998"
     inkscape:window-height="36.6119988"
     inkscape:window-x="1912"
     inkscape:window-y="-8"
     inkscape:window-maximized="1"
     inkscape:current-layer="svg10" />
  <path
     d="m 11.3428,21.473 v 2.416 c 0,0.09 -0.089,0.357 -0.089,0.627 -0.089,0.268 -0.179,0.447 -0.179,0.625 -0.179,0.717 -0.357,1.969 -0.895,5.369 -1.252,-5.816 -1.432,-6.264 -1.521,-6.531 v -2.506 c -3.668,-0.537 -6.71,-3.221 -8.052,-6.711 -1.342,-3.578 -0.358,-8.23 1.968,-10.824 0.895,-1.074 2.327,-1.791 3.4,-2.238 -2.237,1.432 -5.458,4.922 -4.474,9.842 0.537,2.953 3.132,5.637 5.726,6.264 0.089,0.09 0.806,0.357 1.432,0.447 v -2.506 -0.805 c -0.089,-0.537 -0.179,-0.805 -0.805,-0.895 0.269,-0.18 1.61,-0.27 2.058,-0.27 0.447,0 1.878,0.09 2.326,0.27 -0.626,0.178 -0.715,0.537 -0.805,0.895 0,0.09 -0.09,0.447 -0.09,0.895 v 2.416 c 0.805,-0.09 1.521,-0.447 1.521,-0.447 2.595,-0.627 5.189,-3.311 5.726,-6.264 0.984,-4.92 -2.416,-8.41 -4.652,-9.932 1.163,0.447 2.595,1.254 3.579,2.328 2.327,2.594 3.311,7.246 1.968,10.824 -1.253,3.491 -4.384,6.174 -8.142,6.711 z M 45.3418,2.595 c -0.09,0.27 0,0.627 0,0.896 v 0.088 l -0.09,11.184 c 0,1.611 -0.447,2.773 -0.984,3.58 -0.268,0.447 -0.715,0.895 -1.074,1.252 -0.537,0.447 -1.163,0.895 -1.789,1.252 -0.806,0.447 -1.969,0.537 -3.489,0.627 2.773,-0.268 3.847,-2.863 3.847,-2.863 0.358,-0.627 0.358,-1.969 0.358,-1.969 V 3.58 c 0,-1.342 -0.537,-1.969 -1.074,-2.146 h 5.189 c -0.805,0.536 -0.626,0.536 -0.894,1.161 z m -14.673,17 c -0.09,-0.09 -2.147,-2.059 -2.147,-4.832 V 3.491 c 0,-0.27 0,-0.717 -0.09,-0.984 -0.089,-0.449 0,-0.537 -0.715,-1.074 h 4.921 c -0.626,0.537 -1.164,0.895 -0.984,2.146 v 12.795 c 0,0.09 0.089,1.432 0.358,2.236 0,0 1.163,2.596 3.847,2.773 h 0.089 c -3.221,-0.089 -4.564,-0.984 -5.279,-1.788 z m 35.161,1.611 h -0.089 c 1.073,-0.09 1.073,-1.254 1.073,-1.432 -0.268,-0.627 -0.626,-1.701 -1.163,-2.686 -0.448,-0.984 -1.163,-1.969 -1.968,-2.146 -0.09,0 -0.448,0 -0.716,-0.09 h -0.895 c -0.269,-0.09 -0.269,-0.09 -0.358,-0.09 0,0 0.358,-0.178 0.448,-0.268 0.805,-0.18 1.968,-0.537 1.342,-1.879 -0.447,-0.895 -0.984,-2.236 -1.521,-3.49 -0.447,-1.252 -0.984,-2.146 -1.342,-2.326 -0.09,-0.088 -0.358,0.09 -0.537,0.447 -0.089,0.18 -0.269,0.627 -0.447,0.984 -0.447,0.895 -0.984,1.879 -1.163,2.416 l -0.448,0.895 c -0.179,0.447 -0.357,0.895 -0.447,1.252 -0.179,0.896 0,1.791 1.253,1.791 0.268,0 0.268,0.088 0.537,0.178 -0.269,0.09 -0.269,0.09 -0.537,0.09 -0.985,0 -1.7,0.18 -2.058,0.447 -0.269,0.09 -0.447,0.27 -0.626,0.537 0,0 -0.806,1.252 -1.432,3.311 l -0.09,0.805 c 0.09,0.717 0.716,1.164 0.984,1.254 h -4.562 c 1.252,-0.807 2.505,-2.506 3.489,-4.117 0.984,-1.789 1.7,-3.398 1.7,-3.398 1.432,-3.043 2.147,-4.742 2.147,-4.742 0.895,-1.969 1.611,-3.848 1.611,-3.848 l 1.61,-4.025 3.758,8.768 c 0.269,0.715 0.537,1.162 0.537,1.252 0.09,0.09 0.716,1.521 1.432,3.043 0.716,1.52 1.521,3.311 1.968,4.205 0.716,1.609 2.147,2.504 2.953,2.863 h -6.443 z M 97.3248,1.7 c -2.1928,2.82116 -4.36984,5.65453 -6.531,8.5 1.789,0.805 6.621,3.668 5.994,11.453 h -0.268 c -0.627,-6.801 -8.857,-10.021 -10.201,-10.469 l 0.27,-0.18 L 98.4868,0 c -0.535,0.985 -0.805,1.253 -1.162,1.7 z m -14.137,10.916 c -0.179,0.357 -0.358,0.715 -0.358,1.074 l -0.089,0.088 v 5.279 c 0,1.432 1.074,2.059 1.342,2.148 v -0.09 h -5.815 c 0.984,-0.357 1.074,-0.717 1.252,-1.164 0.179,-0.178 0.179,-0.447 0.179,-0.625 0.09,-0.18 0.09,-0.18 0.09,-0.27 V 3.49 c 0,-1.434 -0.895,-2.059 -1.163,-2.148 h 5.458 c -0.805,0.357 -0.984,0.895 -1.163,1.699 -0.09,0.18 -0.09,0.27 -0.09,0.359 v 5.457 c 0,1.432 1.432,1.969 2.506,2.326 -1.164,0.359 -1.791,0.896 -2.149,1.433 z m 31.494,-11.363 h 6.709 v 6.264 c -0.982,-4.026 -5.099,-5.817 -6.709,-6.264 z m 4.473,19.594 c -0.09,0.09 -1.072,0.27 -3.488,0.27 3.131,-0.357 5.904,-5.189 6.709,-6.979 v 7.336 c -1.252,-1.342 -3.131,-0.627 -3.221,-0.627 z m -10.736,-1.79 -0.357,-0.357 c -0.895,-0.984 -1.699,-2.326 -1.699,-3.58 V 3.491 c -0.09,-0.18 -0.359,-1.434 -2.059,-2.238 h 6.711 c -0.627,0.27 -1.611,1.074 -1.611,2.326 v 5.547 c 0,1.074 0.537,1.521 0.627,1.611 0.268,0.18 1.699,0.357 2.684,0.447 -1.699,0.18 -2.684,0.715 -2.684,0.805 -0.359,0.27 -0.537,0.805 -0.627,1.254 0,0.178 0.09,0.178 0.09,0.178 h -0.09 v 1.699 c 0,0 0,1.432 0.447,2.953 0.09,0.27 1.342,2.773 3.758,3.043 -2.954,-0.09 -4.474,-1.342 -5.19,-2.059 z"
     fill="#2b2b2d"
     id="path6"
     style="clip-rule:evenodd;fill-rule:evenodd"
     sodipodi:nodetypes="csccccccccccccccsccsccccccccsccccccccsccccssccccscccccccccccccccccccccscscccccccccccccccccccccccccccccscccccsscccsscccccccccccccscccsscccccccccc" />
</svg>

