<?xml version="1.0" encoding="UTF-8" standalone="no"?>
<svg
   xml:space="preserve"
   enable-background="new 0 0 792 612"
   viewBox="0 0 1752.341 348.89634"
   height="372.1561"
   width="1869.1638"
   y="0px"
   x="0px"
   id="Logo"
   version="1.1"
   sodipodi:docname="RPG Maker 2000 - 2003.svg"
   inkscape:version="1.2.2 (732a01da63, 2022-12-09)"
   xmlns:inkscape="http://www.inkscape.org/namespaces/inkscape"
   xmlns:sodipodi="http://sodipodi.sourceforge.net/DTD/sodipodi-0.dtd"
   xmlns="http://www.w3.org/2000/svg"
   xmlns:svg="http://www.w3.org/2000/svg"
   xmlns:rdf="http://www.w3.org/1999/02/22-rdf-syntax-ns#"
   xmlns:cc="http://creativecommons.org/ns#"
   xmlns:dc="http://purl.org/dc/elements/1.1/"><sodipodi:namedview
     id="namedview38"
     pagecolor="#ffffff"
     bordercolor="#000000"
     borderopacity="0.25"
     inkscape:showpageshadow="2"
     inkscape:pageopacity="0.0"
     inkscape:pagecheckerboard="0"
     inkscape:deskcolor="#d1d1d1"
     showgrid="false"
     inkscape:zoom="0.23435755"
     inkscape:cx="-168.54588"
     inkscape:cy="-140.81048"
     inkscape:window-width="1920"
     inkscape:window-height="1009"
     inkscape:window-x="1912"
     inkscape:window-y="-8"
     inkscape:window-maximized="1"
     inkscape:current-layer="Logo" /><metadata
     id="metadata46"><rdf:RDF><cc:Work
         rdf:about=""><dc:format>image/svg+xml</dc:format><dc:type
           rdf:resource="http://purl.org/dc/dcmitype/StillImage" /><dc:title /></cc:Work></rdf:RDF></metadata><defs
     id="defs44"><radialGradient
       gradientUnits="userSpaceOnUse"
       r="226.5"
       cy="337.29099"
       cx="405.43951"
       id="SVGID_1_"
       gradientTransform="matrix(0.56647428,0,0,0.56647428,-65.66226,-13.500207)"><stop
         id="stop9"
         style="stop-color:#D8EDCA"
         offset="0" /><stop
         id="stop11"
         style="stop-color:#9EBF88"
         offset="1" /></radialGradient><radialGradient
       gradientUnits="userSpaceOnUse"
       r="270.06439"
       cy="300.78909"
       cx="410.16501"
       id="SVGID_2_"
       gradientTransform="matrix(0.56647428,0,0,0.56647428,-65.66226,-13.500207)"><stop
         id="stop16"
         style="stop-color:#688C51"
         offset="0" /><stop
         id="stop18"
         style="stop-color:#587B42"
         offset="0.4749" /><stop
         id="stop20"
         style="stop-color:#42632D"
         offset="1" /></radialGradient></defs><path
     style="opacity:0.940083;fill:none;stroke:#1a1a1a;stroke-width:16.9942;stroke-opacity:1"
     id="path5"
     d="m 320.81822,196.85662 c -3.37053,-12.55194 -9.04433,-23.50132 -17.00953,-32.85664 -2.39278,-47.20997 -27.6802,-88.374523 -64.97573,-112.629252 0.005,-0.205064 0.017,-0.406728 0.017,-0.613492 0,-5.677771 -2.26589,-10.904629 -6.79769,-15.675476 C 214.82805,17.361878 193.8685,8.4971222 169.17362,8.4971222 c -24.47339,0 -45.03527,8.3379348 -61.68848,25.0132388 -2.69359,2.696417 -5.16568,5.497066 -7.42365,8.398547 C 51.523141,64.78314 17.924985,114.14344 17.924985,171.35848 c 0,3.07085 0.108197,6.11622 0.298532,9.13893 -2.799516,2.71624 -4.855251,6.27823 -6.160408,10.69333 -6.7336793,23.77663 -3.9307645,46.36026 8.416109,67.74693 12.236977,21.19407 29.7382,34.83137 52.505934,40.91643 10.393104,2.77856 20.624196,3.64017 30.694408,2.59729 17.53974,7.67459 36.91033,11.94184 57.28018,11.94184 26.16998,0 50.69548,-7.03391 71.79778,-19.30601 1.85917,2.80915 4.33466,5.11697 7.44234,6.91099 4.91813,2.83917 10.57721,3.48948 16.9744,1.95037 23.9579,-6.05618 42.1151,-19.77562 54.46254,-41.16229 12.23585,-21.19407 15.29537,-43.1693 9.18142,-65.92967 z" /><path
     style="opacity:0.940083;fill:#1a1a1a;stroke:none;stroke-width:2.83237"
     id="path23"
     d="m 321.31841,197.11663 c -6.11282,-22.76434 -19.78468,-40.26896 -41.00537,-52.52123 -21.22183,-12.25227 -43.26334,-15.36561 -66.13361,-9.33493 -2.56726,0.67694 -5.06428,1.45414 -7.49785,2.32255 -2.08916,-0.53136 -4.33976,-0.80213 -6.75917,-0.80213 h -30.2486 c -11.32948,0 -20.95954,-4.0316 -28.89018,-12.09933 -7.93064,-8.06319 -11.89596,-17.77766 -11.89596,-29.142266 0,-11.35611 3.96078,-21.012797 11.88689,-28.965529 7.92158,-7.952733 17.54768,-11.931648 28.87263,-11.931648 2.93887,0 5.8817,0.309862 8.82907,0.925053 l -24.39408,24.216775 c -5.01443,4.947586 -7.51882,10.227693 -7.51882,15.843719 0,6.292966 2.31915,11.798526 6.96594,16.516126 4.64679,4.7176 10.13932,7.0764 16.48553,7.0764 5.66475,0 10.98847,-2.28346 15.97628,-6.85548 l 43.50352,-42.600562 c 6.5677,-4.996303 9.85552,-11.245647 9.85552,-18.7469 0,-5.677772 -2.2659,-10.90463 -6.79769,-15.675476 C 215.32824,17.62189 194.36869,8.7571339 169.67381,8.7571339 c -24.47395,0 -45.0347,8.3379351 -61.68848,25.0132381 -16.65774,16.67587 -24.982646,37.267777 -24.982646,61.772321 0,24.504547 8.324339,45.149697 24.982646,61.940567 2.00475,2.02118 4.06785,3.9183 6.1859,5.6959 0.58404,1.92771 1.43148,3.86392 2.5548,5.80976 l 15.1243,26.1966 c 5.66474,9.81133 6.98802,20.16762 3.96645,31.06885 -3.01761,10.9001 -9.44766,19.19158 -19.29015,24.87388 -9.83456,5.67777 -20.178379,7.07527 -31.028627,4.18795 -10.847983,-2.88449 -19.106611,-9.2307 -24.769088,-19.03864 -1.469434,-2.5446 -2.672626,-5.24781 -3.61354,-8.10851 l 33.169335,9.01827 c 6.792027,1.86767 12.61652,1.39749 17.48026,-1.41052 5.45005,-3.14676 9.05849,-7.90741 10.8208,-14.29045 1.7623,-6.38416 1.05874,-12.31968 -2.11409,-17.81505 -2.83237,-4.90566 -7.47179,-8.37532 -13.92507,-10.40896 L 43.901796,176.88783 c -7.611148,-3.18925 -14.666585,-2.91224 -21.162912,0.83839 -4.917563,2.83916 -8.310744,7.41458 -10.176144,13.7251 -6.73368,23.77663 -3.9307652,46.36026 8.416108,67.74693 12.236978,21.19406 29.7382,34.83137 52.506501,40.91643 22.770567,6.08847 44.766201,3.00175 65.987461,-9.25052 21.22069,-12.25227 34.93843,-29.78409 41.15039,-52.60564 0.72338,-2.65733 1.31648,-5.30276 1.79005,-7.93743 1.36691,-1.46377 2.61088,-3.1564 3.72627,-5.08921 l 15.1243,-26.19604 c 5.66474,-9.81133 13.97152,-16.13545 24.92373,-18.96952 10.94882,-2.83634 21.34362,-1.41335 31.18611,4.26895 9.83456,5.67777 16.2176,13.9364 19.14174,24.77759 2.9264,10.83608 1.55893,21.16178 -4.10354,30.96914 -1.46944,2.54574 -3.20965,4.93909 -5.21553,7.18403 l -8.77582,-33.23391 c -1.77703,-6.81639 -5.09714,-11.62462 -9.96089,-14.4332 -5.45004,-3.14676 -11.37707,-3.89111 -17.78616,-2.22624 -6.40909,1.666 -11.19806,5.24215 -14.37088,10.73865 -2.83237,4.90567 -3.51724,10.65765 -2.0512,17.2633 l 15.14129,58.97621 c 1.04344,8.18498 4.8105,14.15732 11.30739,17.90795 4.91813,2.83917 10.57721,3.48948 16.9744,1.95037 23.9579,-6.05618 42.1151,-19.77562 54.46254,-41.16229 12.23584,-21.19463 15.29537,-43.16987 9.18141,-65.93024 z" /><path
     style="opacity:0.940083;fill:#1a1a1a;fill-opacity:1;stroke-width:2.23224"
     id="path7"
     d="m 578.92454,133.77772 v 18.75974 H 402.57768 c 1.66748,26.40515 9.62094,46.51985 23.8671,60.34632 14.24168,13.82874 34.08182,20.73975 59.51148,20.73975 14.7283,0 29.00794,-1.80589 42.83665,-5.41988 13.8265,-3.61177 27.54807,-9.03165 41.16917,-16.25962 v 36.27163 c -13.75728,5.83508 -27.86279,10.28394 -42.31653,13.33985 -14.45376,3.05595 -29.11287,4.58727 -43.98181,4.58727 -37.24489,0 -66.73946,-10.83753 -88.48816,-32.51704 -21.75096,-21.6795 -32.62195,-50.99995 -32.62195,-87.96582 0,-38.21368 10.3174,-68.543106 30.95445,-90.988284 20.63705,-22.440678 48.46415,-33.664374 83.48351,-33.664374 31.40314,0 56.2457,10.109791 74.52106,30.329421 18.27309,20.219606 27.41189,47.702929 27.41189,82.441037 z M 540.5702,122.52055 C 540.29117,101.53972 534.42263,84.793476 522.95561,72.284011 511.49084,59.776783 496.30714,53.524277 477.40902,53.524277 c -21.40047,0 -38.53068,6.044902 -51.38169,18.136945 -12.85545,12.089805 -20.25532,29.112848 -22.19959,51.069148 z" /><path
     style="opacity:0.940083;fill:#1a1a1a;fill-opacity:1;stroke-width:2.23224"
     id="path9"
     d="m 754.0392,126.89795 v 133.19993 h -38.35434 v -35.43681 c -8.75482,14.17697 -19.66601,24.63278 -32.72683,31.3719 -13.0653,6.74136 -29.04591,10.10981 -47.94403,10.10981 -23.90282,0 -42.90811,-6.70343 -57.01138,-20.11472 -14.10551,-13.41129 -21.15717,-31.37411 -21.15717,-53.88624 0,-26.26451 8.78833,-46.06669 26.36944,-59.40655 17.57888,-13.34209 43.80769,-20.01202 78.68864,-20.01202 h 53.77912 v -3.7524 c 0,-17.645855 -5.80382,-31.298227 -17.40477,-40.96157 -11.6054,-9.656677 -27.90077,-14.487241 -48.87934,-14.487241 -13.34209,0 -26.33596,1.600521 -38.97936,4.794848 -12.64785,3.198804 -24.80464,7.991415 -36.47923,14.382308 V 37.266889 c 14.03407,-5.419876 27.65297,-9.484789 40.85665,-12.194738 13.20148,-2.709926 26.05693,-4.064889 38.56192,-4.064889 33.76933,0 58.99139,8.757066 75.6662,26.266747 16.67484,17.507442 25.01448,44.053224 25.01448,79.623941 z m -76.50104,15.84444 c -30.99019,0 -52.45985,3.54256 -64.41127,10.62991 -11.95363,7.08959 -17.9271,19.1794 -17.9271,36.27165 0,13.62113 4.48233,24.42293 13.44476,32.41434 8.96468,7.99142 21.15939,11.9849 36.58417,11.9849 21.26208,0 38.31862,-7.53604 51.17408,-22.61704 12.85322,-15.07655 19.28206,-35.12205 19.28206,-60.13651 v -8.54501 h -38.1467 z" /><path
     style="opacity:0.940083;fill:#1a1a1a;fill-opacity:1;stroke-width:2.23224"
     id="path11"
     d="m 917.83864,33.514489 v 36.269415 c -10.83975,-5.556048 -22.09469,-9.723632 -33.76931,-12.507228 -11.67238,-2.779143 -23.7644,-4.169822 -36.26941,-4.169822 -19.04099,0 -33.32062,2.919768 -42.83665,8.754829 -9.52051,5.837298 -14.2774,14.59215 -14.2774,26.266746 0,8.893239 3.40193,15.875681 10.21472,20.949571 6.80608,5.07388 20.49641,9.90221 41.06427,14.485 l 13.13225,2.91977 c 27.23555,5.83729 46.58905,14.07203 58.05383,24.69972 11.46477,10.63215 17.19716,25.4676 17.19716,44.50636 0,21.67727 -8.58296,38.84096 -25.74441,51.48436 -17.16367,12.64787 -40.75175,18.96957 -70.76866,18.96957 -12.50723,0 -25.53457,-1.21881 -39.08427,-3.64749 -13.54968,-2.43091 -27.82708,-6.07838 -42.83665,-10.94466 v -39.60439 c 14.1747,7.36863 28.13959,12.8912 41.89911,16.57214 13.7573,3.68321 27.37617,5.52481 40.85668,5.52481 18.06328,0 31.96118,-3.09166 41.68929,-9.27497 9.72585,-6.18329 14.59213,-14.90464 14.59213,-26.16184 0,-10.4223 -3.5113,-18.4115 -10.52724,-23.96976 -7.01816,-5.55605 -22.40944,-10.90895 -46.17163,-16.04981 l -13.34207,-3.12513 c -23.76442,-5.00243 -40.92811,-12.68133 -51.48659,-23.03447 -10.56295,-10.3509 -15.8422,-24.56131 -15.8422,-42.626828 0,-21.9563 7.78159,-38.910147 23.34476,-50.861565 15.56317,-11.951394 37.65785,-17.927102 66.28632,-17.927102 14.17471,0 27.51456,1.042449 40.02182,3.127372 12.50722,2.080446 24.04119,5.20558 34.60415,9.375402 z" /><path
     style="opacity:0.940083;fill:#1a1a1a;fill-opacity:1;stroke-width:2.23224"
     id="path13"
     d="m 1025.3768,281.77738 c -10.8376,27.79136 -21.4028,45.92607 -31.68445,54.40412 -10.28392,8.47582 -24.04344,12.71484 -41.27187,12.71484 H 921.77855 V 316.7945 h 22.51213 c 10.55848,0 18.75973,-2.5001 24.59703,-7.50256 5.8373,-5.00242 12.29965,-16.81543 19.387,-35.43678 l 6.87975,-17.50968 -94.42815,-229.710762 h 40.64681 l 72.95848,182.601602 72.9585,-182.601602 h 40.6446 z" /><path
     style="opacity:0.940083;fill:#1a1a1a;fill-opacity:1;stroke-width:2.23224"
     id="path15"
     d="m 1187.2654,172.03382 v 88.06406 h -60.0048 V 27.391465 h 91.649 c 30.6487,0 53.1206,5.145292 67.4114,15.431448 14.2819,10.286156 21.4295,26.552497 21.4295,48.783356 0,15.382351 -3.7145,28.005651 -11.1434,37.876621 -7.4288,9.87319 -18.6258,17.14584 -33.5884,21.82013 8.2057,1.87063 15.5609,6.10517 22.0567,12.70145 6.4914,6.60071 13.0631,16.60114 19.7151,30.0035 l 32.5773,66.08543 h -63.9067 l -28.3673,-57.81943 c -5.7168,-11.63667 -11.5094,-19.58567 -17.378,-23.84924 -5.873,-4.25911 -13.6948,-6.39091 -23.4608,-6.39091 z m 25.2511,-41.45714 c 12.5697,0 21.5857,-2.33939 27.0435,-7.01592 5.4534,-4.67653 8.179,-12.36436 8.179,-23.06794 0,-10.598672 -2.7256,-18.183831 -8.179,-22.755456 -5.4578,-4.571625 -14.4738,-6.857437 -27.0435,-6.857437 h -25.2533 v 59.696753 z" /><path
     style="opacity:0.940083;fill:#1a1a1a;fill-opacity:1;stroke-width:2.23224"
     id="path17"
     d="m 1341.1381,27.391465 h 99.5958 c 29.6128,0 52.3437,6.573925 68.1926,19.717346 15.8445,13.147898 23.7644,31.874154 23.7644,56.189909 0,24.41848 -7.9222,43.20276 -23.7644,56.34395 -15.8489,13.14789 -38.5798,19.71737 -68.1926,19.71737 h -39.591 v 80.73784 h -60.0048 z m 60.0025,43.488462 v 64.993863 h 33.2001 c 11.6367,0 20.6259,-2.83048 26.9655,-8.49368 6.3351,-5.66317 9.5093,-13.6903 9.5093,-24.08139 0,-10.388824 -3.1742,-18.391405 -9.5093,-24.003241 -6.3396,-5.61186 -15.3288,-8.41779 -26.9655,-8.41779 h -33.2001 z" /><path
     style="opacity:0.940083;fill:#1a1a1a;fill-opacity:1;stroke-width:2.23224"
     id="path19"
     d="m 1752.3388,242.79802 c -14.9627,7.27486 -30.5013,12.72824 -46.6069,16.36453 -16.1057,3.63633 -32.7291,5.4556 -49.8772,5.4556 -38.7584,0 -69.4605,-10.83528 -92.1156,-32.49916 -22.6527,-21.6661 -33.9769,-51.04459 -33.9769,-88.14216 0,-37.50833 11.5318,-67.018523 34.5997,-88.53059 23.068,-21.507637 54.6542,-32.262551 94.7653,-32.262551 15.4828,0 30.3182,1.455419 44.5019,4.36402 14.1836,2.91084 27.5592,7.223525 40.1334,12.935818 v 48.162782 c -12.9872,-7.377531 -25.8984,-12.882244 -38.7293,-16.520781 -12.8354,-3.636323 -25.6976,-5.455591 -38.5798,-5.455591 -23.9006,0 -42.3166,6.678858 -55.2524,20.029859 -12.9358,13.353264 -19.4048,32.447824 -19.4048,57.279244 0,24.6283 6.2346,43.64251 18.7039,57.04933 12.4693,13.40236 30.1821,20.10577 53.1518,20.10577 6.2347,0 12.0251,-0.39064 17.378,-1.16746 5.3485,-0.78127 10.1545,-2.00008 14.418,-3.66532 v -45.19837 h -36.6265 v -40.21601 h 93.5196 v 111.91104 z" /><g
     transform="translate(362.55363,-555.66871)"
     style="opacity:0.31000001"
     id="layer4" /></svg>
