<?xml version="1.0" encoding="UTF-8" standalone="no"?>
<!-- Created with Inkscape (http://www.inkscape.org/) -->

<svg
   width="133.7911924"
   height="37.3503144"
   viewBox="-3.1125262 -3.1125262 133.7911924 37.3503144"
   version="1.1"
   id="svg5"
   xml:space="preserve"
   inkscape:version="1.2.2 (732a01da63, 2022-12-09)"
   sodipodi:docname="Sega Mega CD - Sega CD.svg"
   xmlns:inkscape="http://www.inkscape.org/namespaces/inkscape"
   xmlns:sodipodi="http://sodipodi.sourceforge.net/DTD/sodipodi-0.dtd"
   xmlns="http://www.w3.org/2000/svg"
   xmlns:svg="http://www.w3.org/2000/svg"><sodipodi:namedview
     id="namedview7"
     pagecolor="#ffffff"
     bordercolor="#000000"
     borderopacity="0.25"
     inkscape:showpageshadow="2"
     inkscape:pageopacity="0.0"
     inkscape:pagecheckerboard="0"
     inkscape:deskcolor="#d1d1d1"
     inkscape:document-units="mm"
     showgrid="false"
     inkscape:zoom="0.73851712"
     inkscape:cx="-52.131493"
     inkscape:cy="274.87514"
     inkscape:window-width="133.7911924"
     inkscape:window-height="37.3503144"
     inkscape:window-x="1912"
     inkscape:window-y="-8"
     inkscape:window-maximized="1"
     inkscape:current-layer="layer1" /><defs
     id="defs2" /><g
     inkscape:label="Warstwa 1"
     inkscape:groupmode="layer"
     id="layer1"
     transform="translate(-76.925874,-120.65855)"><path
       style="fill:#000000;stroke-width:0.219554"
       d="m 187.69314,142.02319 v -1.30067 l 7.67587,0.0669 7.67587,0.0669 0.51781,0.55755 c 0.2848,0.30665 0.6104,0.86183 0.72357,1.23374 l 0.20576,0.6762 h -8.39944 -8.39944 z"
       id="path326" /><path
       style="fill:#000000;stroke-width:0.219554"
       d="m 168.20631,143.07719 c 0,-0.579 0.66869,-1.65284 1.24001,-1.99131 0.52853,-0.31313 1.55192,-0.35609 7.09039,-0.29773 l 6.47271,0.0682 0.5983,0.76745 c 0.32907,0.4221 0.59831,0.97728 0.59831,1.23375 0,0.45708 -0.15795,0.46629 -7.99986,0.46629 -5.44881,0 -7.99986,-0.0787 -7.99986,-0.24667 z"
       id="path324" /><path
       style="fill:#000000;stroke-width:0.219554"
       d="m 136.20688,143.07719 c 0,-0.579 0.66869,-1.65284 1.24001,-1.99131 0.52838,-0.31303 1.54873,-0.35608 7.05708,-0.29773 l 6.4394,0.0682 0.51775,0.55754 c 0.28476,0.30666 0.61033,0.86184 0.7235,1.23375 l 0.20576,0.6762 h -8.09175 c -5.51297,0 -8.09175,-0.0786 -8.09175,-0.24667 z"
       id="path322" /><path
       style="fill:#000000;stroke-width:0.219554"
       d="m 117.54054,142.85757 c 0,-0.25647 0.26926,-0.81165 0.59835,-1.23376 l 0.59835,-0.76745 7.40151,-0.0672 7.40151,-0.0672 v 1.30095 1.30097 h -7.99986 c -7.84191,0 -7.99986,-0.009 -7.99986,-0.46629 z"
       id="path320" /><path
       style="fill:#000000;stroke-width:0.219554"
       d="m 101.13057,142.03136 v -1.2925 h 7.17936 7.17937 v 1.2925 1.2925 h -7.17937 -7.17936 z"
       id="path318" /><path
       style="fill:#000000;stroke-width:0.219554"
       d="m 76.925874,142.03136 v -1.2925 h 9.958728 c 10.92499,0 10.835402,-0.0109 11.473317,1.40231 0.171138,0.37913 0.311159,0.80034 0.311159,0.93602 0,0.16912 -3.417724,0.24667 -10.871601,0.24667 H 76.925874 Z"
       id="path316" /><path
       style="fill:#000000;stroke-width:0.219554"
       d="m 156.39409,148.27841 c -0.0467,-0.0538 -0.085,-1.13779 -0.085,-2.40874 v -2.31082 h 3.89738 3.89736 v 2.33995 2.33995 l -3.81236,0.0688 c -2.09681,0.0378 -3.85063,0.0247 -3.89737,-0.0291 z"
       id="path314" /><path
       style="fill:#000000;stroke-width:0.219554"
       d="m 192.24693,150.46966 0.0616,-1.31376 3.76379,0.0307 c 2.59536,0.0212 3.85302,-0.0541 4.05121,-0.2425 0.21111,-0.20072 0.28742,-0.89184 0.28742,-2.603 v -2.32972 l 1.99996,0.0672 1.99997,0.0672 v 2.71337 c 0,3.02271 -0.18669,3.61985 -1.39574,4.46442 -0.60311,0.4213 -1.06211,0.45798 -5.74258,0.45879 l -5.08707,7.7e-4 z"
       id="path308" /><path
       style="fill:#000000;stroke-width:0.219554"
       d="m 187.53422,147.96471 0.0564,-3.81874 1.99997,-0.0672 1.99996,-0.0672 v 3.88598 3.886 h -2.05632 -2.05633 z"
       id="path306" /><path
       style="fill:#000000;stroke-width:0.219554"
       d="m 169.94987,151.56294 c -0.22564,-0.11036 -0.68717,-0.53554 -1.02562,-0.94481 -0.60649,-0.7334 -0.61636,-0.78649 -0.68354,-3.67564 l -0.0682,-2.9315 2.01686,0.0675 2.01685,0.0675 0.0585,2.40631 c 0.055,2.26203 0.0857,2.41406 0.51281,2.53541 0.24991,0.0709 2.92363,0.0985 5.9416,0.0612 l 5.48722,-0.0679 -1.4e-4,0.52504 c -7e-5,0.28877 -0.26937,0.8704 -0.59844,1.29249 l -0.5983,0.76745 -6.32465,0.0488 c -3.47856,0.0268 -6.50927,-0.0415 -6.7349,-0.15183 z"
       id="path304" /><path
       style="fill:#000000;stroke-width:0.219554"
       d="m 148.26918,150.66719 -0.0625,-1.11624 h -3.6411 -3.6411 l 1.4e-4,-1.58624 1.3e-4,-1.58625 h 3.69225 3.69224 v -1.1835 -1.1835 l 1.99996,0.0672 1.99997,0.0672 0.0564,3.81874 0.0564,3.81873 h -2.04509 -2.04509 z"
       id="path302" /><path
       style="fill:#000000;stroke-width:0.219554"
       d="m 136.20688,147.89744 v -3.88598 l 1.99996,0.0672 1.99997,0.0672 0.0564,3.81874 0.0564,3.81873 h -2.05633 -2.05632 z"
       id="path300" /><path
       style="fill:#000000;stroke-width:0.219554"
       d="m 118.83371,151.32378 c -1.20904,-0.84457 -1.39573,-1.44173 -1.39573,-4.46443 v -2.71338 l 1.99996,-0.0672 1.99998,-0.0672 v 2.31149 c 0,1.48451 0.0881,2.4124 0.24614,2.5935 0.17381,0.19913 1.36791,0.282 4.06329,0.282 4.00915,0 4.68263,-0.1539 4.39757,-1.00495 -0.11907,-0.35549 -0.47173,-0.40505 -2.88291,-0.40505 h -2.74723 v -1.29249 -1.29249 h 3.99279 3.99279 l 0.72222,0.72646 c 1.57831,1.5876 1.27881,4.46093 -0.56974,5.46587 -0.61396,0.33379 -1.57784,0.38752 -6.93831,0.38676 -5.80869,-7.8e-4 -6.26917,-0.0316 -6.88082,-0.45879 z"
       id="path298" /><path
       style="fill:#000000;stroke-width:0.219554"
       d="m 102.62177,151.43503 c -1.19816,-0.59674 -1.48956,-1.50494 -1.49043,-4.64532 l -7.7e-4,-2.76123 h 1.93486 c 1.75396,0 1.94702,0.0439 2.06492,0.46944 0.0715,0.2582 0.3316,0.52714 0.57792,0.59765 0.24632,0.0705 2.3633,0.0972 4.7044,0.0593 l 4.25653,-0.0689 -2e-4,1.35125 -2e-4,1.35124 h -4.82043 c -4.04096,0 -4.82043,0.0543 -4.82043,0.33572 0,0.18464 0.14505,0.50188 0.32234,0.70499 0.27507,0.31513 1.04205,0.36928 5.23068,0.36928 h 4.90834 v 1.2925 1.29249 l -6.10246,-0.009 c -4.77428,-0.007 -6.24667,-0.081 -6.76507,-0.3392 z"
       id="path296" /><path
       style="fill:#000000;stroke-width:0.219554"
       d="m 94.771712,147.89744 v -3.88598 l 1.999964,0.0672 1.999965,0.0672 0.05636,3.81874 0.05636,3.81873 h -2.056323 -2.056326 v -3.88599 z"
       id="path294" /><path
       style="fill:#000000;stroke-width:0.219554"
       d="m 85.951356,147.90632 v -3.87747 h 1.948682 1.948684 v 3.87747 3.87749 h -1.948684 -1.948682 z"
       id="path292" /><path
       style="fill:#000000;stroke-width:0.219554"
       d="m 76.925874,147.90632 v -3.87747 h 2.051246 2.051245 v 3.87747 3.87749 H 78.97712 76.925874 Z"
       id="path290" /><g
       fill-rule="nonzero"
       id="g26-5-8"
       transform="matrix(0.33334356,0,0,0.33334356,40.705879,120.36054)"
       style="fill:#000000"><path
         d="m 219.249,49.726 21.342,-0.022 c 8.732,0 15.808,-7.054 15.808,-15.747 0,-8.709 -7.076,-15.765 -15.808,-15.765 l -5.543,0.03 c -0.436,0 -0.791,-0.358 -0.791,-0.799 0,-0.44 0.355,-0.799 0.791,-0.799 l 21.304,0.004 0.009,-6.683 h -21.317 c -4.121,0 -7.475,3.348 -7.475,7.461 0,4.118 3.353,7.453 7.475,7.453 l 5.569,0.073 c 5.003,0 9.051,4.035 9.051,9.013 0,4.981 -4.048,9.025 -9.051,9.025 h -21.356 z"
         id="path16-0-6"
         style="fill:#000000" /><path
         d="m 219.257,41.401 h 21.356 c 4.134,0 7.478,-3.335 7.478,-7.457 0,-4.117 -3.344,-7.448 -7.478,-7.448 l -5.569,-0.061 c -4.994,0 -9.047,-4.039 -9.047,-9.029 0,-4.977 4.053,-9.017 9.047,-9.017 l 21.317,-0.004 -0.009,-6.709 h -21.304 c -8.722,0 -15.808,7.046 -15.808,15.747 0,8.701 7.086,15.752 15.808,15.752 l 5.513,0.009 c 0.419,0 0.773,0.341 0.773,0.773 0,0.424 -0.354,0.765 -0.773,0.765 l -21.312,0.017 z m 53.689,1.611 c -3.703,0 -6.736,-2.951 -6.736,-6.718 v -21.32 c 0,-3.625 3.033,-6.606 6.736,-6.606 l 22.781,0.004 V 1.676 h -22.781 c -7.413,0 -13.419,5.983 -13.419,13.371 v 21.247 c 0,7.389 6.006,13.381 13.419,13.381 l 22.686,0.009 -0.005,-6.68 z"
         id="path18-1-8"
         style="fill:#000000" /><path
         d="m 267.844,15.047 c 0,-2.825 2.272,-5.115 5.102,-5.115 h 22.781 v 6.705 H 276.1 c -1.572,0 -1.594,1.56 -1.594,1.56 h 16.374 v 6.675 h -23.044 z m 5.102,26.341 c -2.821,0 -5.111,-2.277 -5.111,-5.094 v -9.833 h 23.045 v 6.689 h -16.375 c 0.022,1.572 1.594,1.58 1.594,1.58 h 19.532 l -0.004,6.649 z m 38.745,1.607 c -3.69,0 -6.705,-3.007 -6.705,-6.701 V 15.046 c 0,-3.698 2.994,-6.679 6.687,-6.679 h 22.065 V 1.676 h -22.116 c -7.41,0 -13.415,5.983 -13.415,13.371 v 21.247 c 0,7.389 6.057,13.381 13.466,13.381 l 22.065,0.009 V 18.197 h -18.962 v 6.675 h 12.261 v 18.123 z"
         id="path20-2-4"
         style="fill:#000000" /><path
         d="m 306.558,36.294 c 0,2.831 2.29,5.133 5.115,5.133 h 13.782 V 26.453 h -10.663 v 6.697 h 3.958 l 0.012,1.572 h -3.939 c -0.86,0 -1.564,-0.713 -1.564,-1.572 l -0.035,-14.958 c 0,0 -0.005,-1.555 1.581,-1.594 h 18.94 l -0.008,-6.671 -22.065,0.005 c -2.806,0 -5.115,2.309 -5.115,5.115 V 36.294 M 354.471,9.832 c 0.306,-0.873 1.135,-1.461 2.061,-1.461 0.925,0 1.754,0.588 2.06,1.461 l 10.711,31.642 H 353.62 l 0.017,-7.443 h 5.241 l -2.36,-7.012 -7.686,22.659 h -7.906 z"
         id="path22-6-0"
         style="fill:#000000" /><path
         d="m 371.462,42.995 h -17.816 v 6.683 H 380.76 L 366.658,7.957 c -1.235,-4.069 -5.309,-7.063 -10.131,-7.063 -4.83,0 -8.891,2.98 -10.136,7.046 L 332.16,49.679 h 7.099 L 353.076,9.107 c 0.577,-1.386 1.938,-2.292 3.439,-2.29 1.498,0.002 2.857,0.903 3.443,2.281 z"
         id="path24-8-8"
         style="fill:#000000" /></g></g></svg>

