<?xml version="1.0" encoding="UTF-8" standalone="no"?>
<!-- Created with Inkscape (http://www.inkscape.org/) -->

<svg
   width="211.59915mm"
   height="20.873234mm"
   viewBox="0 0 211.59915 20.873234"
   version="1.1"
   id="svg5"
   xml:space="preserve"
   inkscape:version="1.2.2 (732a01da63, 2022-12-09)"
   sodipodi:docname="Sega Mega CD.svg"
   xmlns:inkscape="http://www.inkscape.org/namespaces/inkscape"
   xmlns:sodipodi="http://sodipodi.sourceforge.net/DTD/sodipodi-0.dtd"
   xmlns="http://www.w3.org/2000/svg"
   xmlns:svg="http://www.w3.org/2000/svg"><sodipodi:namedview
     id="namedview7"
     pagecolor="#ffffff"
     bordercolor="#000000"
     borderopacity="0.25"
     inkscape:showpageshadow="2"
     inkscape:pageopacity="0.0"
     inkscape:pagecheckerboard="0"
     inkscape:deskcolor="#d1d1d1"
     inkscape:document-units="mm"
     showgrid="false"
     inkscape:zoom="0.73851712"
     inkscape:cx="179.41358"
     inkscape:cy="-93.430468"
     inkscape:window-width="1920"
     inkscape:window-height="1009"
     inkscape:window-x="1912"
     inkscape:window-y="-8"
     inkscape:window-maximized="1"
     inkscape:current-layer="layer1" /><defs
     id="defs2" /><g
     inkscape:label="Warstwa 1"
     inkscape:groupmode="layer"
     id="layer1"
     transform="translate(-21.029295,-173.3328)"><path
       style="fill:#000000;stroke-width:0.264583"
       d="m 44.010504,193.94283 c -4.016123,-0.32306 -8.940535,-1.22218 -12.435416,-2.2705 -10.491706,-3.14709 -13.513533,-8.20965 -7.442331,-12.46835 4.087578,-2.86728 11.805532,-4.93268 20.936081,-5.60272 4.931098,-0.36186 158.955682,-0.35599 163.777092,0.006 11.74359,0.88231 21.32995,4.29417 23.25842,8.27787 0.70114,1.44834 0.69911,2.36292 -0.008,3.82463 -1.92656,3.97975 -11.23736,7.30936 -23.08991,8.25712 -4.17737,0.33403 -160.827695,0.31097 -164.995446,-0.0243 z m 165.637076,-2.48732 c 10.40014,-1.27089 17.41498,-4.96614 16.27082,-8.57108 -0.93426,-2.94361 -7.80184,-5.72968 -16.67397,-6.76437 -2.9982,-0.34966 -13.57305,-0.40095 -82.67163,-0.40095 -70.840957,0 -79.599126,0.0446 -82.683917,0.42118 -8.579162,1.04729 -15.298904,3.8744 -16.280818,6.84963 -1.236866,3.74774 6.57037,7.51864 17.989939,8.68917 0.509323,0.0522 36.886474,0.11397 80.838116,0.13726 70.14523,0.0372 80.31532,-0.007 83.21146,-0.36084 z M 45.068838,185.64098 v -4.36562 h 2.645833 2.645833 v 4.36562 4.36563 h -2.645833 -2.645833 z m 11.641667,0 v -4.36562 h 2.513541 2.513542 v 4.36562 4.36563 h -2.513542 -2.513541 z m 11.377083,-0.01 v -4.3752 l 2.579688,0.0757 2.579687,0.0757 0.0727,4.29948 0.0727,4.29948 h -2.652388 -2.652387 v -4.37521 z m 10.125522,3.98294 c -1.545465,-0.67186 -1.921324,-1.6944 -1.922449,-5.23013 l -9.89e-4,-3.10885 h 2.495711 c 2.262373,0 2.511396,0.0494 2.663468,0.52855 0.09227,0.2907 0.427712,0.5935 0.745434,0.67289 0.317723,0.0794 3.048344,0.10942 6.068047,0.0668 l 5.490363,-0.0776 -2.6e-4,1.52136 -2.6e-4,1.52135 h -6.217712 c -5.212291,0 -6.217708,0.0611 -6.217708,0.37798 0,0.20789 0.187097,0.56507 0.415774,0.79375 0.354809,0.35481 1.344107,0.41577 6.746875,0.41577 h 6.331101 v 1.45521 1.45521 l -7.871354,-0.0104 c -6.158185,-0.008 -8.057372,-0.0912 -8.726041,-0.38191 z m 20.911245,-0.12525 c -1.5595,-0.9509 -1.80031,-1.62323 -1.80031,-5.02647 v -3.05497 l 2.57969,-0.0757 2.579695,-0.0757 v 2.60249 c 0,1.67139 0.11359,2.7161 0.3175,2.92 0.22419,0.2242 1.76441,0.3175 5.24109,0.3175 5.17127,0 6.03998,-0.17328 5.67229,-1.13146 -0.15359,-0.40025 -0.60848,-0.45604 -3.71857,-0.45604 h -3.54356 v -1.45521 -1.4552 h 5.15016 5.15017 l 0.93156,0.81791 c 2.03582,1.78747 1.6495,5.02253 -0.73488,6.15399 -0.79193,0.3758 -2.0352,0.43629 -8.9495,0.43544 -7.49243,-9.3e-4 -8.086395,-0.0355 -8.875335,-0.51654 z m 22.409075,-3.85769 v -4.3752 l 2.57968,0.0757 2.57969,0.0757 0.0727,4.29948 0.0727,4.29948 h -2.65239 -2.65238 z m 15.55876,3.11844 -0.0806,-1.25677 h -4.69653 -4.69653 l 1.8e-4,-1.78594 1.7e-4,-1.78594 h 4.7625 4.7625 v -1.3325 -1.33249 l 2.57969,0.0757 2.57969,0.0757 0.0727,4.29948 0.0727,4.29948 h -2.63789 -2.63789 z m 27.9652,1.00852 c -0.29105,-0.12426 -0.88636,-0.60296 -1.32292,-1.06376 -0.78229,-0.82573 -0.79502,-0.8855 -0.88168,-4.13838 l -0.0879,-3.30055 2.60148,0.076 2.60147,0.076 0.0754,2.70925 c 0.0709,2.5468 0.11052,2.71797 0.66146,2.8546 0.32235,0.0799 3.77109,0.11094 7.66387,0.0689 l 7.07779,-0.0765 -1.8e-4,0.59114 c -1e-4,0.32512 -0.34746,0.97997 -0.77191,1.45521 l -0.77173,0.86407 -8.15796,0.055 c -4.48687,0.0302 -8.39608,-0.0467 -8.68712,-0.17095 z m 22.68146,-4.05123 0.0727,-4.29948 2.57969,-0.0757 2.57969,-0.0757 v 4.3752 4.37521 h -2.65239 -2.65239 z m 6.07877,2.82032 0.0794,-1.47916 4.85479,0.0346 c 3.34767,0.0239 4.96988,-0.0609 5.22552,-0.27303 0.2723,-0.22599 0.37073,-1.00412 0.37073,-2.9307 v -2.62301 l 2.57969,0.0757 2.57969,0.0757 v 3.05497 c 0,3.40324 -0.24081,4.07557 -1.80032,5.02646 -0.77793,0.47434 -1.36998,0.51563 -7.40716,0.51654 l -6.56164,9.9e-4 z M 31.94236,186.83688 c -1.477803,-0.5971 -2.262913,-2.72437 -1.595241,-4.32233 1.030179,-2.46556 4.684053,-2.71595 5.880157,-0.40294 1.502347,2.90522 -1.257361,5.94854 -4.284916,4.72527 z m 186.10117,-0.15486 c -2.11974,-1.15016 -1.98799,-4.90843 0.20418,-5.82438 1.99529,-0.83368 3.92382,-0.0303 4.60249,1.91724 0.32936,0.94519 0.32814,1.21696 -0.009,2.10384 -0.72274,1.89892 -3.02562,2.76458 -4.79727,1.8033 z m -70.4713,-0.62211 c -0.0603,-0.0606 -0.10964,-1.28103 -0.10964,-2.71198 v -2.60174 h 5.02709 5.02708 v 2.63454 2.63453 l -4.91744,0.0774 c -2.7046,0.0426 -4.96679,0.0278 -5.02709,-0.0328 z M 45.068838,179.0264 v -1.45521 h 12.845431 c 14.09178,0 13.976223,-0.0123 14.799048,1.57884 0.220745,0.42687 0.401354,0.90111 0.401354,1.05386 0,0.19041 -4.408408,0.27772 -14.022916,0.27772 H 45.068838 Z m 31.220834,0 v -1.45521 h 9.260416 9.260417 v 1.45521 1.45521 h -9.260417 -9.260416 z m 21.166663,0.93022 c 0,-0.28875 0.34731,-0.91383 0.77179,-1.38907 l 0.77179,-0.86407 9.546965,-0.0757 9.54696,-0.0757 v 1.46474 1.46474 h -10.31875 c -10.115015,0 -10.318755,-0.0104 -10.318755,-0.52499 z m 24.077095,0.24727 c 0,-0.65189 0.86252,-1.86092 1.59944,-2.242 0.68154,-0.35244 1.99766,-0.4009 9.1027,-0.33521 l 8.30597,0.0768 0.66782,0.62774 c 0.3673,0.34526 0.78725,0.97033 0.93322,1.38906 l 0.2654,0.76133 h -10.43727 c -7.111,0 -10.43728,-0.0885 -10.43728,-0.27772 z m 41.275,0 c 0,-0.65189 0.86252,-1.86092 1.59944,-2.242 0.68174,-0.35254 2.00177,-0.40092 9.14566,-0.33521 l 8.34893,0.0768 0.77173,0.86407 c 0.42446,0.47524 0.77174,1.10032 0.77174,1.38907 0,0.51462 -0.20374,0.52499 -10.31875,0.52499 -7.02824,0 -10.31875,-0.0886 -10.31875,-0.27772 z m 25.13541,-1.18669 v -1.46441 l 9.90085,0.0753 9.90085,0.0753 0.6679,0.62774 c 0.36735,0.34526 0.78734,0.97033 0.93331,1.38906 l 0.2654,0.76133 H 198.778 187.94384 Z"
       id="path248" /></g></svg>
