<?xml version="1.0" encoding="UTF-8" standalone="no"?>
<svg
   clip-rule="evenodd"
   fill-rule="evenodd"
   stroke-linejoin="round"
   stroke-miterlimit="2"
   viewBox="-36.67605 -9.0523474 440.1126 108.6281688"
   version="1.1"
   id="svg497"
   sodipodi:docname="Sega Mega Drive - Genesis.svg"
   width="440.1126"
   height="108.6281688"
   inkscape:version="1.2.2 (732a01da63, 2022-12-09)"
   xmlns:inkscape="http://www.inkscape.org/namespaces/inkscape"
   xmlns:sodipodi="http://sodipodi.sourceforge.net/DTD/sodipodi-0.dtd"
   xmlns="http://www.w3.org/2000/svg"
   xmlns:svg="http://www.w3.org/2000/svg">
  <defs
     id="defs501" />
  <sodipodi:namedview
     id="namedview499"
     pagecolor="#ffffff"
     bordercolor="#000000"
     borderopacity="0.25"
     inkscape:showpageshadow="2"
     inkscape:pageopacity="0.0"
     inkscape:pagecheckerboard="0"
     inkscape:deskcolor="#d1d1d1"
     showgrid="false"
     inkscape:zoom="1.4601755"
     inkscape:cx="74.306136"
     inkscape:cy="132.86074"
     inkscape:window-width="440.1126"
     inkscape:window-height="108.6281688"
     inkscape:window-x="1912"
     inkscape:window-y="-8"
     inkscape:window-maximized="1"
     inkscape:current-layer="svg497" />
  <path
     d="m 263.4618,71.50735 v 3.71784 c 0,1.06224 -0.75674,2.01872 -1.59846,2.01872 h -15.22545 v 7.43646 h 12.70214 l 4.62668,5.8431 h 10.76748 l -6.22515,-7.96758 c 2.35521,-1.16877 4.03803,-4.1432 4.03803,-7.543 v -3.39978 h -9.08527 z"
     id="path435"
     style="fill:#ffffff;stroke-width:0.686936" />
  <path
     d="M 0,71.50735 H 9.000911 V 90.41694 H 0 Z"
     id="path437"
     style="fill:#ffffff;stroke-width:0.686936" />
  <path
     d="m 20.020232,71.50735 h 9.000917 v 18.90959 h -9.000917 z"
     id="path439"
     style="fill:#ffffff;stroke-width:0.686936" />
  <path
     d="m 40.041074,71.50735 h 9.084661 v 18.90959 h -9.084661 z"
     id="path441"
     style="fill:#ffffff;stroke-width:0.686936" />
  <path
     d="m 54.341077,71.50735 v 12.11079 c 0.08435,3.82437 2.860113,6.7988 6.225143,6.7988 H 86.727243 V 84.04272 H 65.444745 c -1.093561,0 -2.019015,-1.16801 -2.019015,-2.54907 V 79.89951 H 85.128785 V 74.0572 h -19.68404 c -1.093561,0 -2.019015,-1.16878 -2.019015,-2.54985 z"
     id="path443"
     style="fill:#ffffff;stroke-width:0.686936" />
  <path
     d="m 91.353932,71.50735 v 12.32307 c 0.168092,3.50555 2.60766,6.26768 5.63588,6.58652 h 26.581578 c 3.36503,-0.31884 6.05644,-3.82438 6.05644,-8.17988 0,-4.56856 -2.86012,-8.17986 -6.47699,-8.17986 h -15.646 v 5.84231 h 11.18742 c 0.92545,0 1.59846,0.95649 1.59846,2.12526 0,1.168 -0.75736,2.01795 -1.59846,2.01795 h -16.6552 c -0.92547,0 -1.59847,-0.95571 -1.59847,-2.01795 V 71.50735 Z"
     id="path445"
     style="fill:#ffffff;stroke-width:0.686936" />
  <path
     d="m 134.17016,71.50735 h 9.08465 v 18.90959 h -9.08465 z"
     id="path447"
     style="fill:#ffffff;stroke-width:0.686936" />
  <path
     d="m 161.34099,71.50735 v 5.63003 h -16.48771 v 7.43645 h 16.48771 v 5.84311 h 9.08467 V 71.50735 Z"
     id="path449"
     style="fill:#ffffff;stroke-width:0.686936" />
  <path
     d="m 191.70817,71.50735 h 9.08465 v 18.90959 h -9.08465 z"
     id="path451"
     style="fill:#ffffff;stroke-width:0.686936" />
  <path
     d="m 220.47686,71.50735 v 10.51742 c 0,1.168 -0.75675,2.01795 -1.59847,2.01795 h -16.82391 v 6.37422 h 21.7874 c 3.19632,-0.31884 5.71963,-3.29325 5.71963,-7.0111 V 71.50735 Z"
     id="path453"
     style="fill:#ffffff;stroke-width:0.686936" />
  <path
     d="m 235.53421,71.50735 h 9.08466 v 18.90959 h -9.08466 z"
     id="path455"
     style="fill:#ffffff;stroke-width:0.686936" />
  <path
     d="m 277.93051,71.50735 h 9.08466 v 18.90959 h -9.08466 z"
     id="path457"
     style="fill:#ffffff;stroke-width:0.686936" />
  <path
     d="m 295.00687,71.50735 10.01012,18.90959 h 11.10368 l 9.92575,-18.90959 h -10.09385 l -5.46779,10.41089 -5.46779,-10.41089 z"
     id="path459"
     style="fill:#ffffff;stroke-width:0.686936" />
  <path
     d="m 334.37434,71.50735 v 12.11079 c 0.0844,3.82437 2.86012,6.7988 6.22514,6.7988 h 26.16103 v -6.37422 h -21.2825 c -1.09355,0 -2.01841,-1.16801 -2.01841,-2.54907 v -1.59414 h 21.70245 V 74.0572 h -19.68404 c -1.09355,0 -2.01841,-1.16878 -2.01841,-2.54985 z"
     id="path461"
     style="fill:#ffffff;stroke-width:0.686936" />
  <path
     d="m 290.2121,62.371 3.70122,7.0111 h 10.09386 l -3.70122,-7.0111 z"
     id="path463"
     style="fill:#ffffff;stroke-width:0.686936" />
  <path
     d="m 320.8311,62.371 -3.70123,7.0111 h 10.09447 l 3.70123,-7.0111 z"
     id="path465"
     style="fill:#ffffff;stroke-width:0.686936" />
  <path
     d="m 0,63.00866 v 6.37344 h 49.210098 c 0,-3.50554 -2.019023,-6.26769 -4.458591,-6.37344 z"
     id="path467"
     style="fill:#ffffff;stroke-width:0.686936" />
  <path
     d="m 54.341077,63.00866 h 32.386166 v 6.37421 H 54.341077 Z"
     id="path469"
     style="fill:#ffffff;stroke-width:0.686936" />
  <path
     d="m 95.896251,63.00866 c -2.523923,0 -4.542319,2.8679 -4.542319,6.37344 h 38.273898 v -6.37344 z"
     id="path471"
     style="fill:#ffffff;stroke-width:0.686936" />
  <path
     d="m 138.7131,63.00866 c -2.52393,0 -4.45859,2.8679 -4.45859,6.37344 h 36.25551 c 0,-3.50554 -2.01902,-6.37344 -4.54233,-6.37344 z"
     id="path473"
     style="fill:#ffffff;stroke-width:0.686936" />
  <path
     d="m 191.70817,63.00866 v 6.37344 h 37.85334 c 0,-3.50554 -2.0184,-6.37344 -4.45798,-6.37344 z"
     id="path475"
     style="fill:#ffffff;stroke-width:0.686936" />
  <path
     d="m 239.74034,63.00866 c -2.35521,0.31805 -4.20613,2.97443 -4.20613,6.37344 h 37.01286 c 0,-3.50554 -2.01901,-6.37344 -4.45858,-6.37344 z"
     id="path477"
     style="fill:#ffffff;stroke-width:0.686936" />
  <path
     d="m 277.93051,63.00866 h 9.08466 v 6.37421 h -9.08466 z"
     id="path479"
     style="fill:#ffffff;stroke-width:0.686936" />
  <path
     d="m 334.37434,63.00866 h 32.38617 v 6.37421 h -32.38617 z"
     id="path481"
     style="fill:#ffffff;stroke-width:0.686936" />
  <g
     fill-rule="nonzero"
     id="g493"
     transform="translate(-116.61975,-0.345)"
     style="fill:#ffffff">
    <path
       d="m 219.249,49.178 21.342,-0.022 c 8.732,0 15.808,-7.055 15.808,-15.747 0,-8.71 -7.076,-15.765 -15.808,-15.765 l -5.543,0.03 c -0.436,0 -0.791,-0.358 -0.791,-0.799 0,-0.441 0.355,-0.799 0.791,-0.799 l 21.304,0.004 0.009,-6.683 h -21.317 c -4.121,0 -7.475,3.348 -7.475,7.461 0,4.117 3.353,7.452 7.475,7.452 l 5.569,0.074 c 5.003,0 9.051,4.034 9.051,9.012 0,4.982 -4.048,9.025 -9.051,9.025 h -21.356 z"
       id="path483" />
    <path
       d="m 219.257,40.852 h 21.356 c 4.134,0 7.478,-3.334 7.478,-7.456 0,-4.118 -3.344,-7.448 -7.478,-7.448 l -5.569,-0.061 c -4.994,0 -9.047,-4.039 -9.047,-9.03 0,-4.976 4.053,-9.016 9.047,-9.016 l 21.317,-0.005 -0.009,-6.709 h -21.304 c -8.722,0 -15.808,7.047 -15.808,15.748 0,8.701 7.086,15.752 15.808,15.752 l 5.513,0.008 c 0.419,0 0.773,0.342 0.773,0.774 0,0.424 -0.354,0.765 -0.773,0.765 l -21.312,0.017 z m 53.689,1.612 c -3.703,0 -6.736,-2.951 -6.736,-6.719 v -21.32 c 0,-3.624 3.033,-6.606 6.736,-6.606 l 22.781,0.004 V 1.127 h -22.781 c -7.413,0 -13.419,5.984 -13.419,13.372 v 21.247 c 0,7.388 6.006,13.38 13.419,13.38 l 22.686,0.01 -0.005,-6.68 z"
       id="path485" />
    <path
       d="m 267.844,14.499 c 0,-2.825 2.272,-5.115 5.102,-5.115 h 22.781 v 6.705 H 276.1 c -1.572,0 -1.594,1.56 -1.594,1.56 h 16.374 v 6.674 h -23.044 z m 5.102,26.341 c -2.821,0 -5.111,-2.277 -5.111,-5.094 v -9.833 h 23.045 v 6.688 h -16.375 c 0.022,1.573 1.594,1.581 1.594,1.581 h 19.532 l -0.004,6.649 z m 38.745,1.607 c -3.69,0 -6.705,-3.007 -6.705,-6.702 V 14.498 c 0,-3.698 2.994,-6.679 6.687,-6.679 h 22.065 V 1.127 h -22.116 c -7.41,0 -13.415,5.984 -13.415,13.372 v 21.247 c 0,7.388 6.057,13.38 13.466,13.38 l 22.065,0.01 V 17.649 h -18.962 v 6.674 h 12.261 v 18.124 z"
       id="path487" />
    <path
       d="m 306.558,35.745 c 0,2.831 2.29,5.134 5.115,5.134 h 13.782 V 25.904 h -10.663 v 6.697 h 3.958 l 0.012,1.573 h -3.939 c -0.86,0 -1.564,-0.713 -1.564,-1.573 l -0.035,-14.957 c 0,0 -0.005,-1.555 1.581,-1.594 h 18.94 l -0.008,-6.671 -22.065,0.005 c -2.806,0 -5.115,2.309 -5.115,5.115 V 35.745 M 354.471,9.284 c 0.306,-0.873 1.135,-1.462 2.061,-1.462 0.925,0 1.754,0.589 2.06,1.462 l 10.711,31.642 H 353.62 l 0.017,-7.444 h 5.241 l -2.36,-7.012 -7.686,22.66 h -7.906 z"
       id="path489" />
    <path
       d="M 371.462,42.447 H 353.646 V 49.13 H 380.76 L 366.658,7.409 c -1.235,-4.07 -5.309,-7.064 -10.131,-7.064 -4.83,0 -8.891,2.981 -10.136,7.047 L 332.16,49.13 h 7.099 L 353.076,8.558 c 0.577,-1.385 1.938,-2.291 3.439,-2.289 1.498,0.002 2.857,0.902 3.443,2.281 z"
       id="path491" />
  </g>
</svg>

