<?xml version="1.0" encoding="UTF-8" standalone="no"?>
<svg
   version="1.1"
   width="1001.34855"
   height="253.75832"
   viewBox="0,0,1001.34855,253.75832"
   id="svg56"
   sodipodi:docname="Sega Pico.svg"
   inkscape:version="1.2.2 (732a01da63, 2022-12-09)"
   xmlns:inkscape="http://www.inkscape.org/namespaces/inkscape"
   xmlns:sodipodi="http://sodipodi.sourceforge.net/DTD/sodipodi-0.dtd"
   xmlns="http://www.w3.org/2000/svg"
   xmlns:svg="http://www.w3.org/2000/svg">
  <defs
     id="defs60" />
  <sodipodi:namedview
     id="namedview58"
     pagecolor="#ffffff"
     bordercolor="#000000"
     borderopacity="0.25"
     inkscape:showpageshadow="2"
     inkscape:pageopacity="0.0"
     inkscape:pagecheckerboard="0"
     inkscape:deskcolor="#d1d1d1"
     showgrid="false"
     inkscape:zoom="2.4746627"
     inkscape:cx="338.83405"
     inkscape:cy="86.47643"
     inkscape:window-width="1920"
     inkscape:window-height="1009"
     inkscape:window-x="1912"
     inkscape:window-y="-8"
     inkscape:window-maximized="1"
     inkscape:current-layer="svg56" />
  <path
     id="path2"
     style="mix-blend-mode:normal;fill-rule:nonzero;stroke:none;stroke-linejoin:miter;stroke-miterlimit:10;stroke-dasharray:none;stroke-dashoffset:0"
     d="M 789.79688 22.460938 L 600.80859 70.412109 L 341.08984 61.378906 L 104.36523 33.744141 L 0 67.591797 L 45.130859 222.73047 L 222.83594 253.75781 L 411.82227 234.01367 L 612.0918 253.75781 L 919.54883 253.75781 L 1001.3477 70.412109 L 789.79688 22.460938 z M 845.25977 52.5 C 846.25876 52.522705 847.37894 52.855496 848.58984 53.703125 C 853.43345 57.093642 850.04297 61.9375 850.04297 61.9375 L 846.66992 66.753906 C 842.69222 72.222551 838.90228 77.76835 834.67969 83.052734 C 834.67969 83.052734 830.98594 87.669999 826.36914 83.976562 C 821.75236 80.283126 825.44531 75.666016 825.44531 75.666016 C 829.55986 70.529201 833.23549 65.120703 837.10547 59.798828 L 840.35547 55.15625 C 840.35547 55.15625 842.26278 52.431884 845.25977 52.5 z M 760.33594 58.765625 C 763.12346 58.735809 765.03125 61.121094 765.03125 61.121094 C 769.03505 66.130199 773.2396 70.812835 777.02148 76 L 778.74805 78.148438 C 778.74805 78.148438 782.441 82.765538 777.82422 86.458984 C 773.20743 90.152421 769.51562 85.535156 769.51562 85.535156 L 767.45898 82.955078 C 763.79977 77.909833 759.69252 73.370938 755.79883 68.507812 C 755.79883 68.507812 752.10392 63.890712 756.7207 60.197266 C 758.01917 59.158487 759.24517 58.777292 760.33594 58.765625 z M 136.55078 67.779297 C 173.84874 67.164347 225.85246 73.139422 225.41797 107.01367 C 224.79057 155.92786 143.74514 148.71016 143.96484 149.1543 C 163.21652 188.07552 137.98993 195.65832 119.58789 195.69922 C 95.49206 195.75279 86.920248 164.93313 79.414062 140.39258 C 73.712904 121.75337 67.509608 108.41267 66.375 105.83203 C 61.25093 94.177346 72.464405 94.007812 79.974609 94.007812 C 83.574583 94.007813 82.39411 68.672205 136.55078 67.779297 z M 910.66797 79.388672 C 912.01904 79.457958 913.51542 80.068082 914.8457 81.841797 C 918.39313 86.571702 913.66406 90.119141 913.66406 90.119141 L 911.39844 91.796875 C 903.96005 96.5298 896.58316 101.25021 889.59961 106.63086 C 889.59961 106.63086 884.91344 110.23512 881.30859 105.54883 C 877.70377 100.86253 882.38867 97.257813 882.38867 97.257812 C 889.66163 91.671678 897.31432 86.744098 905.05078 81.820312 L 906.56836 80.660156 C 906.56836 80.660156 908.41618 79.273195 910.66797 79.388672 z M 700.84961 84.251953 C 702.79554 84.25195 704.36914 85.263672 704.36914 85.263672 C 711.78416 90.040587 717.78722 96.232716 725.1582 100.85742 L 729.11328 103.04297 C 729.11328 103.04297 734.28144 105.91367 731.41016 111.08203 C 728.53885 116.25038 723.36914 113.37891 723.36914 113.37891 L 718.81055 110.83398 C 711.41319 106.07253 705.44128 99.998673 697.97656 95.210938 C 697.97656 95.210938 693.00206 92.014391 696.19922 87.041016 C 697.59798 84.865164 699.33611 84.251956 700.84961 84.251953 z M 807.96875 88.605469 C 894.90645 86.904811 886.99805 132.52798 886.99805 139.05859 C 886.99805 145.3191 881.74723 187.97857 822.11133 193.01562 C 821.28236 193.0755 814.58262 194.20401 809.48633 193.48828 C 809.48339 193.48859 809.45781 193.52536 809.45508 193.52539 C 724.27535 194.69796 725.19531 144.08988 725.19531 137.67773 C 725.19531 131.14712 724.97232 90.229025 807.96875 88.605469 z M 152.76953 94.347656 C 151.51971 94.259939 150.2118 94.260836 148.85352 94.359375 C 116.9565 96.673381 126.50984 126.06498 146.88281 122.34375 C 177.28716 116.75665 171.51686 95.663413 152.76953 94.347656 z M 575.57422 105.10742 C 579.73897 105.09464 582.4825 105.16016 583.29883 105.16016 C 589.82944 105.16016 595.12305 110.45375 595.12305 116.98438 C 595.12305 123.51499 589.82944 128.81055 583.29883 128.81055 C 579.79726 128.81055 507.9028 134.23721 509.5293 162.19336 C 509.80784 166.98109 517.12881 175.09664 544.14844 173.74219 C 562.35235 172.82963 626.80727 147.887 626.44531 173.05078 C 626.07635 198.70027 578.75398 202.06571 549.44141 204.10938 C 466.50618 209.89165 452.57966 167.53232 452.4375 165.86133 C 447.60906 109.10354 546.42092 105.19692 575.57422 105.10742 z M 810.5625 112.88672 C 808.85792 112.88749 807.31636 113.00717 805.70508 113.07617 L 805.9707 113.54102 C 805.1157 115.03726 804.82244 117.10041 803.62891 118.25586 C 803.44688 118.43207 803.24469 118.58599 803.01562 118.71484 C 800.15279 120.32521 798.16139 118.58979 796.13086 121.10156 C 795.9681 121.30291 795.58267 121.3915 795.58203 121.65039 C 795.57503 124.57544 805.9707 119.89018 805.9707 128.4082 C 805.9707 140.21668 788.14582 132.74422 784.93164 127.69336 C 782.6377 124.08859 783.18333 119.9102 785.11523 116.27148 C 757.8354 124.53047 754.63664 145.99877 769.45117 157.1875 C 787.09952 170.5165 804.80489 167.94052 811.47656 168.17383 C 811.89709 168.09015 812.24411 167.98307 812.69922 167.91016 C 812.62352 167.91216 857.36745 166.97484 856.64453 136.52148 C 856.30551 124.73564 844.00393 118.88594 832.17969 115.91602 C 831.64323 117.23004 831.25918 118.69656 830.32031 119.60547 C 830.1383 119.78168 829.93415 119.93756 829.70508 120.06641 C 826.84223 121.67676 824.85278 119.94135 822.82227 122.45312 C 822.65949 122.65445 822.27215 122.74303 822.27148 123.00195 C 822.26448 125.927 832.66211 121.23979 832.66211 129.75781 C 832.66211 141.56629 814.83719 134.09577 811.62305 129.04492 C 808.31286 123.84321 810.90737 117.44635 815.06445 113.20312 C 813.31003 113.08912 810.77176 112.88663 810.5625 112.88672 z M 338.13086 120.13867 C 361.21615 120.13867 366.51021 133.31579 364.93359 167.4375 C 364.63213 173.96116 362.7871 217.35965 333.40039 217.10156 C 313.45358 216.92636 304.23365 207.86555 303.44531 171.37891 C 302.3677 121.50253 331.60023 120.13867 338.13086 120.13867 z M 905.80273 135.84961 C 911.61374 135.8481 917.41881 135.92863 923.22266 136.37109 L 926.91602 136.88672 C 926.91602 136.88672 932.76972 137.72323 931.93359 143.57617 C 931.09746 149.42912 925.24414 148.5918 925.24414 148.5918 L 922.31641 148.16211 C 913.33747 147.4648 904.33945 147.70703 895.33594 147.70703 C 895.33594 147.70703 889.42383 147.70534 889.42383 141.79297 C 889.42383 135.88059 895.33594 135.88086 895.33594 135.88086 C 898.82727 135.88086 902.31613 135.85052 905.80273 135.84961 z M 690.53125 138.71875 L 717.01758 138.71875 L 717.49023 138.71875 C 717.49023 138.71875 723.4043 138.71849 723.4043 144.63086 C 723.4043 150.54323 717.49023 150.54492 717.49023 150.54492 L 690.53125 150.54492 C 690.53125 150.54492 684.61719 150.54323 684.61719 144.63086 C 684.61719 138.71849 690.53125 138.71875 690.53125 138.71875 z M 783.97266 140.63086 C 784.53444 140.61779 784.90039 140.66992 784.90039 140.66992 C 789.41908 141.37165 793.71801 143.1455 797.98828 144.78125 C 808.00279 148.61735 821.50636 148.27823 831.51758 145.12891 L 835.78906 143.39844 C 835.78906 143.39844 841.2788 141.20386 843.47461 146.69336 C 845.6704 152.18286 840.18164 154.37891 840.18164 154.37891 L 834.99414 156.43164 C 823.83159 159.80378 812.38502 159.79705 800.92383 157.5332 C 794.33259 156.23127 789.80438 153.20454 783.22852 152.37695 C 783.22852 152.37695 777.37481 151.54047 778.21094 145.6875 C 778.83803 141.29779 782.28731 140.67005 783.97266 140.63086 z M 880.78711 172.42773 C 881.87166 172.4606 882.66016 172.72266 882.66016 172.72266 C 891.31709 175.64275 898.64216 180.01794 906.02539 185.375 L 908.03125 186.28711 C 908.03125 186.28711 913.31794 188.93251 910.67383 194.2207 C 908.02972 199.5089 902.74219 196.86328 902.74219 196.86328 L 899.07031 194.93945 C 892.70571 190.29876 886.41714 186.40433 878.92188 183.94141 C 878.92188 183.94141 873.31198 182.07188 875.18164 176.46289 C 876.35018 172.95728 878.97953 172.37296 880.78711 172.42773 z M 732.90234 174.89648 C 734.16964 174.86701 735.60586 175.3168 737.04297 176.75391 C 741.22363 180.93457 737.04297 185.11523 737.04297 185.11523 L 734.92578 187.2207 C 730.04892 191.56051 726.49607 196.61929 722.10156 201.46484 C 722.10156 201.46484 718.12481 205.84038 713.75 201.86328 C 709.37519 197.88619 713.35352 193.51172 713.35352 193.51172 C 718.04106 188.36894 721.85234 183.12203 727.01562 178.43164 L 728.68164 176.75391 C 728.68164 176.75391 730.48296 174.95275 732.90234 174.89648 z M 838.76562 194.39648 C 843.68023 194.43676 844.32422 199.59375 844.32422 199.59375 C 845.1626 206.76043 847.20243 211.24007 850.04102 217.86328 L 851.46094 221.17383 C 851.46094 221.17383 853.7898 226.6085 848.35547 228.9375 C 842.92111 231.26651 840.5918 225.83203 840.5918 225.83203 L 839.17383 222.52148 C 835.932 214.95702 833.67345 209.28547 832.5918 201.06055 C 832.5918 201.06055 831.85788 195.19231 837.72461 194.45898 C 838.09128 194.41315 838.43798 194.3938 838.76562 194.39648 z M 785.64648 196.13086 C 786.23487 196.12045 786.88356 196.19629 787.59766 196.38672 C 793.31041 197.91013 791.78711 203.62305 791.78711 203.62305 C 789.96006 210.42746 787.49337 216.58199 784.9707 223.14258 L 783.32227 226.50195 C 783.32227 226.50195 780.67882 231.79059 775.39062 229.14648 C 770.10243 226.50238 772.74609 221.21289 772.74609 221.21289 L 773.93359 218.89648 C 776.30741 212.72614 778.66776 206.97623 780.36133 200.57617 C 780.36133 200.57617 781.5278 196.20375 785.64648 196.13086 z " />
  <path
     d="m 364.56304,54.42448 c 0,10.44902 -8.75272,24.12253 -22.46706,24.12253 -13.71434,0 -27.19697,-13.67351 -27.19697,-24.12253 0,-10.44902 11.11767,-18.91963 24.83202,-18.91963 13.71434,0 24.83202,8.47061 24.83202,18.91963 z"
     fill="#ffffff"
     stroke-width="0"
     stroke-linecap="butt"
     id="path4"
     style="mix-blend-mode:normal;fill-rule:nonzero;stroke:none;stroke-linejoin:miter;stroke-miterlimit:10;stroke-dasharray:none;stroke-dashoffset:0;fill:none" />
  <path
     d="m 328.88543,24.24076 c -5.91238,0 -5.91238,-5.91238 -5.91238,-5.91238 0,-3.94157 0,-8.47443 0,-12.41601 0,0 0,-5.91236 5.91238,-5.91236 5.91238,0 5.91238,5.91236 5.91238,5.91236 0,3.94157 0,7.8832 0,11.82477 v 0.59124 c 0,0 0,5.91238 -5.91238,5.91238 z"
     id="path30"
     style="mix-blend-mode:normal;fill:#000000;fill-rule:nonzero;stroke:none;stroke-width:0.5;stroke-linecap:butt;stroke-linejoin:miter;stroke-miterlimit:10;stroke-dasharray:none;stroke-dashoffset:0" />
  <path
     d="m 356.94147,25.61274 c -4.91941,-3.2796 -1.63981,-8.19901 -1.63981,-8.19901 l 1.92119,-2.67479 c 2.77175,-2.75862 5.39025,-5.69178 7.7281,-8.82658 0,0 3.54743,-4.72991 8.27734,-1.18248 4.72991,3.54743 1.18248,8.27734 1.18248,8.27734 -2.69002,3.56921 -5.67284,6.92612 -8.82655,10.09306 l -0.44378,0.87264 c 0,0 -3.2796,4.91939 -8.19901,1.63979 z"
     id="path32"
     style="mix-blend-mode:normal;fill:#000000;fill-rule:nonzero;stroke:none;stroke-width:0.5;stroke-linecap:butt;stroke-linejoin:miter;stroke-miterlimit:10;stroke-dasharray:none;stroke-dashoffset:0" />
  <path
     d="m 375.55127,44.97613 c -4.18067,-4.18067 0,-8.36137 0,-8.36137 l 0.042,0.042 c 4.1587,-5.51786 8.65131,-9.95246 13.84383,-14.50057 0,0 4.44952,-3.89333 8.34285,0.55619 3.89333,4.44952 -0.55619,8.34285 -0.55619,8.34285 -4.58844,4.01054 -8.52514,7.80816 -12.17067,12.6964 l -1.14045,1.22448 c 0,0 -4.18069,4.18067 -8.36139,0 z"
     id="path34"
     style="mix-blend-mode:normal;fill:#000000;fill-rule:nonzero;stroke:none;stroke-width:0.5;stroke-linecap:butt;stroke-linejoin:miter;stroke-miterlimit:10;stroke-dasharray:none;stroke-dashoffset:0" />
  <path
     d="m 341.12423,37.98906 c -0.60018,0.24099 -1.02821,0.32658 -1.02821,0.32658 -3.75801,0.73399 -6.70566,0.97152 -10.08766,2.90407 -2.38858,1.36489 -13.17185,6.89152 -12.44779,10.95638 0.47748,2.6806 4.49389,3.1114 6.47662,4.97752 4.60944,4.33834 7.47307,9.89059 12.2695,14.05835 1.03235,0.89703 3.00959,2.26965 5.00722,3.72097 3.73816,-3.19054 8.96433,-5.14278 12.24717,-8.63866 7.11045,-7.57197 9.71627,-21.22627 -1.07437,-26.01378 -3.27608,-1.4535 -7.0566,-1.26194 -10.57101,-1.96485 z m -5.12019,46.56639 c -1.81456,-2.06106 -5.30752,-2.52946 -7.44497,-4.4104 -4.90749,-4.31859 -7.83746,-9.95177 -12.56249,-14.3211 -4.00273,-3.70139 -8.98387,-4.91246 -10.07809,-11.57716 -2.59809,-15.82476 20.30753,-25.17075 31.85848,-27.52624 0,0 0.48605,-0.09722 1.20485,-0.09462 2.59743,-1.46603 5.55497,0.01272 5.55497,0.01272 l -0.3021,0.08187 c 1.44939,0.2899 12.30166,2.41942 13.0785,2.76506 18.60275,8.27696 17.28694,31.54044 4.83801,44.93483 -3.88541,4.18048 -10.1033,6.24014 -13.94557,10.36756 -7.1e-4,7.8e-4 -0.001,0.002 -0.002,0.002 0.21273,3.6308 -0.37882,7.99293 -0.73744,11.66634 0.15055,1.39267 0.1457,2.76111 -0.25222,4.05389 v 5.91238 c 0,3.26532 -2.64707,5.91238 -5.91238,5.91238 -3.26532,0 -5.91238,-2.64707 -5.91238,-5.91238 v -5.91238 c -1.4889,-1.72098 0.0817,-4.55256 0.006,-6.82696 -0.0986,-2.96594 -0.003,-6.13635 0.6089,-9.12813 z"
     id="path36"
     style="mix-blend-mode:normal;fill:#000000;fill-rule:nonzero;stroke:none;stroke-width:0.5;stroke-linecap:butt;stroke-linejoin:miter;stroke-miterlimit:10;stroke-dasharray:none;stroke-dashoffset:0" />
  <path
     d="m 295.18484,55.5764 c -3.01539,0 -4.49289,-1.53786 -5.21683,-3.04495 -2.78048,-2.14634 -5.4918,-4.38434 -8.13629,-6.69526 0,0 -4.44952,-3.89331 -0.55619,-8.34282 3.89333,-4.44952 8.34285,-0.55621 8.34285,-0.55621 2.94415,2.57974 5.98059,5.05935 9.11392,7.40571 l 2.36495,5.32115 c 0,0 0,5.91238 -5.91238,5.91238 z"
     id="path38"
     style="mix-blend-mode:normal;fill:#000000;fill-rule:nonzero;stroke:none;stroke-width:0.5;stroke-linecap:butt;stroke-linejoin:miter;stroke-miterlimit:10;stroke-dasharray:none;stroke-dashoffset:0" />
  <path
     d="m 312.96399,30.78641 c -4.18067,4.18067 -8.36139,0 -8.36139,0 l -3.26007,-3.27858 c -1.57662,-1.37957 -3.15329,-2.7591 -4.72991,-4.13867 0,0 -4.44952,-3.89333 -0.55619,-8.34285 3.89333,-4.44952 8.34285,-0.55619 8.34285,-0.55619 1.57662,1.37957 3.15329,2.7591 4.72991,4.13867 l 3.8348,3.81628 c 0,0 4.18067,4.18067 0,8.36137 z"
     id="path40"
     style="mix-blend-mode:normal;fill:#000000;fill-rule:nonzero;stroke:none;stroke-width:0.5;stroke-linecap:butt;stroke-linejoin:miter;stroke-miterlimit:10;stroke-dasharray:none;stroke-dashoffset:0" />
  <path
     d="m 363.59198,84.88683 c 1.43397,5.73584 -4.3019,7.16981 -4.3019,7.16981 l -5.57557,1.32967 c -8.66268,0.85597 -17.3116,0.62059 -26.01156,0.62059 0,0 -5.91238,0 -5.91238,-5.91238 0,-5.91238 5.91238,-5.91238 5.91238,-5.91238 8.29921,0 16.57424,0.27502 24.83495,-0.56189 l 3.88425,-1.03526 c 0,0 5.73586,-1.43399 7.16983,4.30187 z"
     id="path42"
     style="mix-blend-mode:normal;fill:#000000;fill-rule:nonzero;stroke:none;stroke-width:0.5;stroke-linecap:butt;stroke-linejoin:miter;stroke-miterlimit:10;stroke-dasharray:none;stroke-dashoffset:0" />
  <path
     d="m 361.28875,102.3072 c 1.15951,5.79757 -4.63805,6.95708 -4.63805,6.95708 l -4.11571,0.70606 c -8.08024,0 -16.16053,0 -24.24078,0 0,0 -5.91238,0 -5.91238,-5.91238 0,-5.91238 5.91238,-5.91238 5.91238,-5.91238 8.08024,0 16.16053,0 24.24078,0 l 1.79668,-0.47642 c 0,0 5.79759,-1.15951 6.95708,4.63805 z"
     id="path44"
     style="mix-blend-mode:normal;fill:#000000;fill-rule:nonzero;stroke:none;stroke-width:0.5;stroke-linecap:butt;stroke-linejoin:miter;stroke-miterlimit:10;stroke-dasharray:none;stroke-dashoffset:0" />
</svg>
