<?xml version="1.0" encoding="UTF-8" standalone="no"?>
<svg
   clip-rule="evenodd"
   fill-rule="evenodd"
   stroke-linejoin="round"
   stroke-miterlimit="2"
   viewBox="-17.466734 -17.466734 401.693968 209.600808"
   version="1.1"
   id="svg497"
   sodipodi:docname="Sega 32X.svg"
   width="401.693968"
   height="209.600808"
   inkscape:version="1.2.2 (732a01da63, 2022-12-09)"
   xmlns:inkscape="http://www.inkscape.org/namespaces/inkscape"
   xmlns:sodipodi="http://sodipodi.sourceforge.net/DTD/sodipodi-0.dtd"
   xmlns="http://www.w3.org/2000/svg"
   xmlns:svg="http://www.w3.org/2000/svg">
  <defs
     id="defs501" />
  <sodipodi:namedview
     id="namedview499"
     pagecolor="#ffffff"
     bordercolor="#000000"
     borderopacity="0.25"
     inkscape:showpageshadow="2"
     inkscape:pageopacity="0.0"
     inkscape:pagecheckerboard="0"
     inkscape:deskcolor="#d1d1d1"
     showgrid="false"
     inkscape:zoom="1.4601755"
     inkscape:cx="376.32463"
     inkscape:cy="105.46677"
     inkscape:window-width="401.693968"
     inkscape:window-height="209.600808"
     inkscape:window-x="1912"
     inkscape:window-y="-8"
     inkscape:window-maximized="1"
     inkscape:current-layer="svg497" />
  <path
     d="m 263.4618,71.50735 v 3.717843 c 0,1.06224 -0.75674,2.01872 -1.59846,2.01872 h -15.22545 v 7.43646 h 12.70214 l 4.62668,5.8431 h 10.76748 l -6.22515,-7.96758 c 2.35521,-1.16877 4.03803,-4.1432 4.03803,-7.543 V 71.61311 h -9.08527 z"
     id="path435"
     style="fill:#000000;stroke-width:0.686936" />
  <path
     d="M 0,71.50735 H 9.00091 V 90.416943 H 0 Z"
     id="path437"
     style="fill:#000000;stroke-width:0.686936" />
  <path
     d="m 20.02023,71.50735 h 9.00092 v 18.909593 h -9.00092 z"
     id="path439"
     style="fill:#000000;stroke-width:0.686936" />
  <path
     d="m 40.04107,71.50735 h 9.08466 v 18.909593 h -9.08466 z"
     id="path441"
     style="fill:#000000;stroke-width:0.686936" />
  <path
     d="m 54.34107,71.50735 v 12.110793 c 0.0844,3.82437 2.86012,6.7988 6.22515,6.7988 h 26.16102 v -6.37422 h -21.2825 c -1.09356,0 -2.01901,-1.16801 -2.01901,-2.54907 v -1.59414 h 21.70305 v -5.84231 H 65.44474 c -1.09356,0 -2.01901,-1.16878 -2.01901,-2.549853 z"
     id="path443"
     style="fill:#000000;stroke-width:0.686936" />
  <path
     d="m 91.35393,71.50735 v 12.323073 c 0.16809,3.50555 2.60766,6.26768 5.63588,6.58652 h 26.58158 c 3.36503,-0.31884 6.05644,-3.82438 6.05644,-8.17988 0,-4.56856 -2.86012,-8.17986 -6.47699,-8.17986 h -15.646 v 5.84231 h 11.18742 c 0.92545,0 1.59846,0.95649 1.59846,2.12526 0,1.168 -0.75736,2.01795 -1.59846,2.01795 h -16.6552 c -0.92547,0 -1.59847,-0.95571 -1.59847,-2.01795 V 71.50735 Z"
     id="path445"
     style="fill:#000000;stroke-width:0.686936" />
  <path
     d="m 134.17016,71.50735 h 9.08465 v 18.909593 h -9.08465 z"
     id="path447"
     style="fill:#000000;stroke-width:0.686936" />
  <path
     d="m 161.34099,71.50735 v 5.630033 h -16.48771 v 7.43645 h 16.48771 v 5.84311 h 9.08467 V 71.50735 Z"
     id="path449"
     style="fill:#000000;stroke-width:0.686936" />
  <path
     d="m 191.70817,71.50735 h 9.08465 v 18.909593 h -9.08465 z"
     id="path451"
     style="fill:#000000;stroke-width:0.686936" />
  <path
     d="m 220.47686,71.50735 v 10.517423 c 0,1.168 -0.75675,2.01795 -1.59847,2.01795 h -16.82391 v 6.37422 h 21.7874 c 3.19632,-0.31884 5.71963,-3.29325 5.71963,-7.0111 V 71.50735 Z"
     id="path453"
     style="fill:#000000;stroke-width:0.686936" />
  <path
     d="m 235.53421,71.50735 h 9.08466 v 18.909593 h -9.08466 z"
     id="path455"
     style="fill:#000000;stroke-width:0.686936" />
  <path
     d="m 277.93051,71.50735 h 9.08466 v 18.909593 h -9.08466 z"
     id="path457"
     style="fill:#000000;stroke-width:0.686936" />
  <path
     d="m 295.00687,71.50735 10.01012,18.909593 h 11.10368 l 9.92575,-18.909593 h -10.09385 l -5.46779,10.410893 -5.46779,-10.410893 z"
     id="path459"
     style="fill:#000000;stroke-width:0.686936" />
  <path
     d="m 334.37434,71.50735 v 12.110793 c 0.0844,3.82437 2.86012,6.7988 6.22514,6.7988 h 26.16103 v -6.37422 h -21.2825 c -1.09355,0 -2.01841,-1.16801 -2.01841,-2.54907 v -1.59414 h 21.70245 v -5.84231 h -19.68404 c -1.09355,0 -2.01841,-1.16878 -2.01841,-2.549853 z"
     id="path461"
     style="fill:#000000;stroke-width:0.686936" />
  <path
     d="m 290.2121,62.371 3.70122,7.0111 h 10.09386 l -3.70122,-7.0111 z"
     id="path463"
     style="fill:#000000;stroke-width:0.686936" />
  <path
     d="m 320.8311,62.371 -3.70123,7.0111 h 10.09447 l 3.70123,-7.0111 z"
     id="path465"
     style="fill:#000000;stroke-width:0.686936" />
  <path
     d="m 0,63.00866 v 6.37344 h 49.2101 c 0,-3.50554 -2.01903,-6.26769 -4.4586,-6.37344 z"
     id="path467"
     style="fill:#000000;stroke-width:0.686936" />
  <path
     d="m 54.34107,63.00866 h 32.38617 v 6.37421 H 54.34107 Z"
     id="path469"
     style="fill:#000000;stroke-width:0.686936" />
  <path
     d="m 95.89625,63.00866 c -2.52392,0 -4.54232,2.8679 -4.54232,6.37344 h 38.2739 v -6.37344 z"
     id="path471"
     style="fill:#000000;stroke-width:0.686936" />
  <path
     d="m 138.7131,63.00866 c -2.52393,0 -4.45859,2.8679 -4.45859,6.37344 h 36.25551 c 0,-3.50554 -2.01902,-6.37344 -4.54233,-6.37344 z"
     id="path473"
     style="fill:#000000;stroke-width:0.686936" />
  <path
     d="m 191.70817,63.00866 v 6.37344 h 37.85334 c 0,-3.50554 -2.0184,-6.37344 -4.45798,-6.37344 z"
     id="path475"
     style="fill:#000000;stroke-width:0.686936" />
  <path
     d="m 239.74034,63.00866 c -2.35521,0.31805 -4.20613,2.97443 -4.20613,6.37344 h 37.01286 c 0,-3.50554 -2.01901,-6.37344 -4.45858,-6.37344 z"
     id="path477"
     style="fill:#000000;stroke-width:0.686936" />
  <path
     d="m 277.93051,63.00866 h 9.08466 v 6.37421 h -9.08466 z"
     id="path479"
     style="fill:#000000;stroke-width:0.686936" />
  <path
     d="m 334.37434,63.00866 h 32.38617 v 6.37421 h -32.38617 z"
     id="path481"
     style="fill:#000000;stroke-width:0.686936" />
  <g
     fill-rule="nonzero"
     id="g493"
     transform="translate(-116.61975,-0.345)"
     style="fill:#000000">
    <path
       d="m 219.249,49.178 21.342,-0.022 c 8.732,0 15.808,-7.055 15.808,-15.747 0,-8.71 -7.076,-15.765 -15.808,-15.765 l -5.543,0.03 c -0.436,0 -0.791,-0.358 -0.791,-0.799 0,-0.441 0.355,-0.799 0.791,-0.799 l 21.304,0.004 0.009,-6.683 h -21.317 c -4.121,0 -7.475,3.348 -7.475,7.461 0,4.117 3.353,7.452 7.475,7.452 l 5.569,0.074 c 5.003,0 9.051,4.034 9.051,9.012 0,4.982 -4.048,9.025 -9.051,9.025 h -21.356 z"
       id="path483"
       style="fill:#000000" />
    <path
       d="m 219.257,40.852 h 21.356 c 4.134,0 7.478,-3.334 7.478,-7.456 0,-4.118 -3.344,-7.448 -7.478,-7.448 l -5.569,-0.061 c -4.994,0 -9.047,-4.039 -9.047,-9.03 0,-4.976 4.053,-9.016 9.047,-9.016 l 21.317,-0.005 -0.009,-6.709 h -21.304 c -8.722,0 -15.808,7.047 -15.808,15.748 0,8.701 7.086,15.752 15.808,15.752 l 5.513,0.008 c 0.419,0 0.773,0.342 0.773,0.774 0,0.424 -0.354,0.765 -0.773,0.765 l -21.312,0.017 z m 53.689,1.612 c -3.703,0 -6.736,-2.951 -6.736,-6.719 v -21.32 c 0,-3.624 3.033,-6.606 6.736,-6.606 l 22.781,0.004 V 1.127 h -22.781 c -7.413,0 -13.419,5.984 -13.419,13.372 v 21.247 c 0,7.388 6.006,13.38 13.419,13.38 l 22.686,0.01 -0.005,-6.68 z"
       id="path485"
       style="fill:#000000" />
    <path
       d="m 267.844,14.499 c 0,-2.825 2.272,-5.115 5.102,-5.115 h 22.781 v 6.705 H 276.1 c -1.572,0 -1.594,1.56 -1.594,1.56 h 16.374 v 6.674 h -23.044 z m 5.102,26.341 c -2.821,0 -5.111,-2.277 -5.111,-5.094 v -9.833 h 23.045 v 6.688 h -16.375 c 0.022,1.573 1.594,1.581 1.594,1.581 h 19.532 l -0.004,6.649 z m 38.745,1.607 c -3.69,0 -6.705,-3.007 -6.705,-6.702 V 14.498 c 0,-3.698 2.994,-6.679 6.687,-6.679 h 22.065 V 1.127 h -22.116 c -7.41,0 -13.415,5.984 -13.415,13.372 v 21.247 c 0,7.388 6.057,13.38 13.466,13.38 l 22.065,0.01 V 17.649 h -18.962 v 6.674 h 12.261 v 18.124 z"
       id="path487"
       style="fill:#000000" />
    <path
       d="m 306.558,35.745 c 0,2.831 2.29,5.134 5.115,5.134 h 13.782 V 25.904 h -10.663 v 6.697 h 3.958 l 0.012,1.573 h -3.939 c -0.86,0 -1.564,-0.713 -1.564,-1.573 l -0.035,-14.957 c 0,0 -0.005,-1.555 1.581,-1.594 h 18.94 l -0.008,-6.671 -22.065,0.005 c -2.806,0 -5.115,2.309 -5.115,5.115 V 35.745 M 354.471,9.284 c 0.306,-0.873 1.135,-1.462 2.061,-1.462 0.925,0 1.754,0.589 2.06,1.462 l 10.711,31.642 H 353.62 l 0.017,-7.444 h 5.241 l -2.36,-7.012 -7.686,22.66 h -7.906 z"
       id="path489"
       style="fill:#000000" />
    <path
       d="M 371.462,42.447 H 353.646 V 49.13 H 380.76 L 366.658,7.409 c -1.235,-4.07 -5.309,-7.064 -10.131,-7.064 -4.83,0 -8.891,2.981 -10.136,7.047 L 332.16,49.13 h 7.099 L 353.076,8.558 c 0.577,-1.385 1.938,-2.291 3.439,-2.289 1.498,0.002 2.857,0.902 3.443,2.281 z"
       id="path491"
       style="fill:#000000" />
  </g>
  <g
     id="g583"
     transform="translate(-19.335113)">
    <path
       d="m 236.75358,174.28122 c -1.31383,-1.38725 -4.85018,-1.5125 -5.39955,-1.5125 -24.76746,0 -49.53233,-8.6e-4 -74.30238,0.002 -2.51708,0 -2.97057,0.30837 -2.6622,-2.88333 0.50446,-5.22161 2.42293,-10.07352 6.21584,-13.82151 0.72644,-0.73854 0.96831,-0.98731 2.62851,-2.4929 7.03212,-6.37218 21.04107,-11.48063 21.04107,-11.48063 0,0 11.72422,-4.32932 18.30803,-6.91896 2.95675,-1.16267 5.84354,-2.50672 8.47724,-4.32932 9.55006,-7.52707 4.59104,-14.99885 -7.99956,-16.73766 -8.81844,-1.262 -16.85255,0.89143 -24.27856,5.62759 -0.97003,0.61847 -1.78804,1.23608 -2.72439,1.90811 -1.66107,1.40366 -3.08632,3.04054 -3.39383,4.85018 -0.16671,0.97782 -0.008,1.65071 0.0121,1.80965 0.0631,0.50704 0.21854,1.30864 -0.15807,1.67748 -0.45263,0.44226 -1.39243,-8.7e-4 -1.80964,-0.39648 -3.82659,-3.61669 -7.66009,-7.22475 -11.491,-10.83798 -0.23927,-0.22631 -0.68153,-0.71004 -0.68153,-0.71004 0,0 -0.41894,-0.48545 -0.43363,-0.818 -0.0164,-0.37489 0.35157,-0.72645 0.79123,-0.8638 2.08692,-0.38438 3.05005,-0.5079 4.30254,-1.42352 3.37138,-2.4644 6.89478,-4.66706 10.65745,-6.50175 5.03071,-2.45403 10.32056,-3.91124 15.86005,-4.65842 4.26021,-0.57442 16.77222,-2.52227 31.38841,3.97603 3.8551,1.69043 7.16082,4.08486 9.65286,7.46228 1.47449,1.99881 7.03557,12.95772 -4.29391,21.71137 -4.04944,3.24958 -8.88062,5.25616 -13.76795,6.96215 -4.17988,1.46067 -7.24893,2.55595 -14.08928,4.53317 -5.19397,1.54532 -8.92209,2.75376 -14.86583,5.5749 -4.72752,2.24153 -7.83112,4.96766 -7.83112,4.96766 0,0 -1.54792,1.19462 -1.24818,2.12751 0.25914,0.8111 1.55137,0.72904 2.3115,0.73163 18.28731,0.0121 36.57547,0.008 54.86278,0.01 1.8917,0 3.72639,-0.13302 5.17151,-1.61874 0.2099,-0.21681 0.76618,-0.33342 1.01754,-0.20731 0.241,0.12093 0.40858,0.61761 0.41117,0.95017 0.0285,4.28267 0.0294,8.66209 0.005,12.9439 -0.004,0.41634 -0.13907,0.56578 -0.34724,0.68585 -0.3127,0.17967 -0.97522,0.0829 -1.33715,-0.29801 z"
       id="path266"
       style="fill:#000000;fill-rule:nonzero;stroke-width:0.86379" />
    <path
       d="m 100.51054,173.74221 c -3.00081,-0.18226 -6.00939,-0.56923 -8.97219,-1.09269 -12.06111,-2.12579 -17.67056,-4.97457 -21.03675,-6.2953 -1.60924,-0.6323 -3.18134,-1.22918 -4.92965,-0.58911 -0.19954,0.0743 -0.43362,0.0691 -0.65216,0.0743 -1.11084,0.0121 -1.45117,-0.42067 -0.96831,-1.4123 0.57442,-1.1808 1.24904,-2.31669 1.92884,-3.44652 1.8416,-3.05437 3.70739,-6.09404 5.5654,-9.14063 0.0855,-0.13907 0.18313,-0.27382 0.26778,-0.41635 0.37834,-0.63316 0.79382,-1.2214 1.66193,-1.0996 0.81542,0.11402 0.99163,0.78691 1.16266,1.42525 0.37402,1.38898 1.22054,2.42293 2.33569,3.28327 2.63802,2.042 5.61723,3.41542 8.74242,4.50639 4.05291,1.41316 8.22501,2.29855 12.46277,2.96367 5.01689,0.78777 10.06056,0.88797 15.09732,0.59601 4.26972,-0.24963 8.47724,-1.01927 12.5025,-2.59223 2.45058,-0.95708 4.30859,-2.64838 5.7969,-4.71284 1.97462,-2.73995 1.16612,-6.50693 -1.52459,-8.64827 -3.6547,-2.90925 -7.90455,-4.05895 -12.40662,-4.83291 -4.04772,-0.69362 -8.09026,-0.61933 -12.1423,-0.56751 -1.90207,0.0251 -6.44906,0.20558 -8.19219,1.82346 -0.64179,0.56492 -1.15143,0.60811 -1.45635,0.3317 -0.30491,-0.27728 -0.31873,-0.71436 -0.32219,-1.09615 -0.0346,-3.9553 -0.038,-7.91146 -0.0121,-11.86416 0.009,-1.29655 0.61329,-1.68785 1.61701,-0.98472 1.26718,0.88798 2.6743,1.27668 4.1436,1.46499 2.44021,0.31355 10.40522,0.0371 12.03174,-0.17622 4.35091,-0.56837 3.97084,-0.49927 6.51039,-1.17993 2.71748,-0.72818 5.31058,-2.63456 6.66327,-4.21098 0.0225,-0.025 0.0441,-0.0518 0.0657,-0.0777 1.88652,-2.27263 1.25336,-4.88819 -0.50186,-6.76175 -1.68612,-1.79668 -3.80413,-2.94725 -6.16314,-3.64433 -3.86547,-1.14021 -7.82508,-1.763 -11.84343,-1.57383 -7.27398,0.3412 -14.40716,1.45203 -20.98406,4.8355 -1.50645,0.77482 -2.91788,1.75004 -4.30772,2.72526 -1.18771,0.83356 -1.78545,2.05409 -1.81914,3.52253 -0.0173,0.76359 0.10452,1.63689 -0.80246,1.97117 -0.91476,0.33602 -1.38811,-0.4604 -1.90984,-0.98904 -3.34978,-3.40419 -6.68574,-6.82048 -10.02515,-10.23418 -0.19176,-0.19608 -0.40598,-0.38266 -0.54765,-0.61243 -0.40425,-0.65303 -0.15548,-1.19462 0.61761,-1.28446 0.86552,-0.1002 1.79237,0.0372 2.59656,-0.22458 1.18771,-0.38698 2.29854,-1.02014 3.42838,-1.57469 3.0034,-1.47276 5.92906,-3.1321 9.01538,-4.40274 4.88732,-2.0109 10.0312,-3.09151 15.28563,-3.7428 5.02985,-0.62452 13.9027,-0.88366 20.32239,0.0639 4.29045,0.6487 8.54375,1.51077 12.52583,3.28586 3.51389,1.56518 6.94401,3.31349 9.56734,6.26852 1.89515,2.13529 3.16838,4.52108 3.59509,7.41564 0.40944,2.77449 -0.0466,5.30713 -1.23263,7.79571 -0.81628,1.71376 -2.03768,2.82286 -3.71775,3.83177 -3.29622,1.97549 -5.24839,2.47044 -5.66474,2.72526 -0.66339,0.40253 -0.69276,0.9398 -0.0164,1.32764 0.60897,0.34898 1.30778,0.55369 1.98499,0.76446 3.96739,1.23867 7.37418,3.41543 10.21432,6.39809 2.07396,2.17762 3.30313,4.78626 3.71603,7.87172 0.42239,3.16061 -0.31961,5.95325 -1.68439,8.69837 -1.06247,2.13875 -2.82373,3.6426 -4.67743,5.0048 -3.74712,2.75808 -7.92182,4.6256 -12.39625,5.94979 -3.33078,0.98386 -6.70647,1.65329 -10.12449,2.10506 -11.68708,1.28013 -17.65673,0.61847 -20.39149,0.45089 z"
       id="path268"
       style="fill:#000000;fill-rule:nonzero;stroke-width:0.86379" />
    <path
       d="m 261.49426,103.80803 h 11.69917 c 0.38353,0 0.77223,-0.0285 1.15144,0.0164 0.86897,0.10366 1.00286,0.47077 0.4578,1.18167 -0.97521,1.2689 -0.96658,1.40538 0.14253,2.57927 0.0371,0.0406 0.0777,0.0778 0.11575,0.11662 5.44015,5.50493 10.88462,11.00987 16.32736,16.51394 0.27037,0.27468 0.52173,0.5701 0.83615,0.79209 0.54591,0.39303 1.1307,0.39994 1.66796,-0.0328 0.29887,-0.23927 0.56406,-0.52173 0.83442,-0.79642 5.37364,-5.41769 10.74728,-10.83884 16.12006,-16.25998 0.19435,-0.19522 0.39648,-0.38353 0.56837,-0.59688 0.71608,-0.89057 0.69967,-1.20585 0.0311,-2.15948 -0.60206,-0.81369 -0.60206,-1.30864 0.62538,-1.33887 0.26778,-0.007 0.54592,-0.0155 0.82147,-0.0155 7.90886,0 15.81772,-0.002 23.72659,0.003 0.49063,0 0.99508,-0.006 1.46844,0.0976 0.20213,0.0449 0.44831,0.34897 0.48286,0.56492 0.0328,0.21336 -0.11575,0.58738 -0.29282,0.67549 -0.53383,0.26863 -1.10652,0.49754 -1.69044,0.62538 -2.2139,0.48372 -4.01749,1.57728 -5.61809,3.20812 -6.88441,7.0157 -13.84051,13.95885 -20.75861,20.94345 -1.73276,1.7535 -3.44134,3.54241 -5.14214,5.33218 -1.07542,1.1307 -1.07802,1.66453 0.0121,2.78054 1.91675,1.9539 3.88532,3.85769 5.79171,5.82022 1.41316,1.45376 2.72699,3.00685 4.15051,4.44766 3.78513,3.82745 7.6169,7.6074 11.40635,11.42881 2.55164,2.5715 5.08082,5.1646 7.58754,7.77929 1.44339,1.50904 3.12519,2.55855 5.15337,3.07855 0.7394,0.18658 1.46239,0.46904 2.16034,0.77741 0.19003,0.0855 0.38784,0.44485 0.35933,0.64525 -0.0302,0.20558 -0.3006,0.47249 -0.51827,0.54246 -0.35675,0.11229 -0.75668,0.11316 -1.13675,0.11316 -8.07385,0.006 -16.14769,0.004 -24.22154,8.6e-4 -0.32738,0 -0.66857,0.007 -0.97868,-0.0821 -0.51395,-0.14598 -0.7083,-0.45522 -0.38956,-0.98817 0.26691,-0.44831 0.6893,-0.95795 0.64006,-1.39675 -0.0527,-0.46559 -0.53123,-0.92339 -0.90611,-1.30346 -6.26248,-6.39119 -12.53705,-12.772 -18.80903,-19.15369 -0.22977,-0.23495 -0.46213,-0.4699 -0.69967,-0.69794 -1.38551,-1.33974 -1.89342,-1.35615 -3.28239,0.025 -4.01058,3.98726 -8.02634,7.97624 -11.99977,12.00409 -2.58101,2.61556 -5.09637,5.2959 -7.63504,7.95551 -0.95708,1.00113 -0.95708,1.06419 -0.22977,2.39184 0.41462,0.75927 0.25741,1.09269 -0.60811,1.21708 -0.37575,0.0553 -0.76532,0.0337 -1.15143,0.0337 -7.7983,8.7e-4 -15.59574,0.0104 -23.3949,-0.013 -0.7014,-0.003 -1.87442,0.18744 -1.93489,-0.66512 -0.12266,-0.8923 0.95449,-0.93635 1.58765,-1.08579 2.84014,-0.66511 5.00739,-2.28472 7.0157,-4.34486 6.40155,-6.56653 12.91021,-13.02509 19.35322,-19.55189 2.00054,-2.02559 3.91384,-4.14015 5.89019,-6.19079 0.76186,-0.78777 1.60665,-1.49349 2.38665,-2.26572 1.62738,-1.61442 1.63602,-2.04718 0.0674,-3.62619 -4.74826,-4.8044 -9.50688,-9.59498 -14.25254,-14.40111 -3.85769,-3.9052 -7.7292,-7.79743 -11.53851,-11.751 -1.46585,-1.522 -3.18739,-2.46785 -5.2147,-2.94207 -0.37403,-0.0873 -0.74027,-0.20299 -1.10738,-0.31615 -0.52087,-0.16066 -1.16526,-0.28419 -1.09356,-0.99422 0.0726,-0.72299 0.70744,-0.72299 1.27236,-0.72213 0.33083,8.6e-4 0.65994,-8.6e-4 0.98904,-8.6e-4 3.90347,8.6e-4 7.80435,8.6e-4 11.70436,8.6e-4 z"
       id="path270"
       style="fill:#000000;fill-rule:nonzero;stroke-width:0.86379" />
  </g>
</svg>

