<?xml version="1.0" encoding="UTF-8" standalone="no"?>
<svg
   clip-rule="evenodd"
   fill-rule="evenodd"
   stroke-linejoin="round"
   stroke-miterlimit="2"
   viewBox="0 0 321.78568 114.2606"
   version="1.1"
   id="svg28"
   sodipodi:docname="Sega Super 32X.svg"
   inkscape:version="1.2.2 (732a01da63, 2022-12-09)"
   width="321.78568"
   height="114.2606"
   xmlns:inkscape="http://www.inkscape.org/namespaces/inkscape"
   xmlns:sodipodi="http://sodipodi.sourceforge.net/DTD/sodipodi-0.dtd"
   xmlns="http://www.w3.org/2000/svg"
   xmlns:svg="http://www.w3.org/2000/svg">
  <defs
     id="defs32" />
  <sodipodi:namedview
     id="namedview30"
     pagecolor="#ffffff"
     bordercolor="#000000"
     borderopacity="0.25"
     inkscape:showpageshadow="2"
     inkscape:pageopacity="0.0"
     inkscape:pagecheckerboard="0"
     inkscape:deskcolor="#d1d1d1"
     showgrid="false"
     inkscape:zoom="2.065"
     inkscape:cx="34.624697"
     inkscape:cy="107.99032"
     inkscape:window-width="1536"
     inkscape:window-height="793"
     inkscape:window-x="-8"
     inkscape:window-y="-8"
     inkscape:window-maximized="1"
     inkscape:current-layer="svg28" />
  <path
     d="m 200.29948,113.81495 c -1.522,-1.606 -5.615,-1.751 -6.252,-1.751 -28.673,0 -57.343,-0.001 -86.019,10e-4 -2.914,0 -3.439,0.358 -3.082,-3.337 0.584,-6.045 2.806,-11.662 7.196,-16.001 0.841,-0.855 1.122,-1.144 3.043,-2.886 8.141,-7.377 24.359,-13.292 24.359,-13.292 0,0 13.574,-5.011 21.195,-8.009 3.423,-1.346 6.766,-2.902 9.814,-5.012 11.056,-8.714 5.315,-17.364 -9.261,-19.377 -10.208,-1.461 -19.51,1.032 -28.107,6.515 -1.122,0.715 -2.07,1.43 -3.154,2.209 -1.923,1.625 -3.573,3.52 -3.929,5.615 -0.192,1.131 -0.009,1.91 0.014,2.095 0.073,0.586 0.253,1.515 -0.183,1.942 -0.524,0.511 -1.612,-0.002 -2.094,-0.459 -4.431,-4.187 -8.869,-8.365 -13.303,-12.547 -0.278,-0.262 -0.79,-0.823 -0.79,-0.823 0,0 -0.485,-0.561 -0.502,-0.946 -0.019,-0.434 0.407,-0.841 0.916,-1 2.416,-0.445 3.531,-0.588 4.981,-1.648 3.903,-2.853 7.982,-5.403 12.338,-7.527 5.824,-2.841 11.948,-4.529 18.361,-5.393 4.932,-0.665 19.417,-2.921 36.338,4.603 4.463,1.957 8.29,4.729 11.175,8.639 1.707,2.314 8.145,15.001 -4.971,25.135 -4.687,3.762 -10.281,6.085 -15.938,8.059 -4.84,1.692 -8.393,2.96 -16.312,5.248 -6.013,1.79 -10.329,3.189 -17.21,6.454 -5.473,2.596 -9.066,5.752 -9.066,5.752 0,0 -1.792,1.382 -1.445,2.463 0.3,0.939 1.796,0.844 2.676,0.847 21.171,0.013 42.343,0.009 63.514,0.011 2.191,0 4.314,-0.155 5.987,-1.874 0.243,-0.251 0.887,-0.387 1.178,-0.24 0.279,0.14 0.474,0.715 0.476,1.1 0.033,4.958 0.035,10.027 0.006,14.985 -0.004,0.482 -0.161,0.655 -0.402,0.794 -0.362,0.207 -1.129,0.096 -1.547,-0.345 z"
     id="path2"
     style="fill:#ffffff;fill-rule:nonzero" />
  <path
     d="m 42.57148,113.19095 c -3.474,-0.211 -6.956,-0.659 -10.387,-1.265 -13.963,-2.461 -20.457,-5.76 -24.354,-7.289 -1.863,-0.731 -3.683,-1.422 -5.707,-0.681 -0.231,0.085 -0.502,0.08 -0.755,0.085 -1.286,0.015 -1.68,-0.486 -1.121,-1.634 0.666,-1.368 1.446,-2.682 2.233,-3.99 2.132,-3.536 4.293,-7.055 6.443,-10.582 0.099,-0.161 0.212,-0.317 0.31,-0.482 0.438,-0.734 0.919,-1.414 1.924,-1.274 0.945,0.133 1.149,0.912 1.346,1.651 0.433,1.607 1.414,2.804 2.704,3.801 3.054,2.364 6.503,3.954 10.121,5.216 4.692,1.637 9.522,2.662 14.428,3.432 5.808,0.912 11.647,1.027 17.479,0.689 4.943,-0.288 9.813,-1.179 14.473,-3 2.837,-1.109 4.989,-3.066 6.711,-5.456 2.286,-3.172 1.35,-7.533 -1.765,-10.013 -4.231,-3.367 -9.151,-4.698 -14.363,-5.594 -4.686,-0.803 -9.366,-0.717 -14.057,-0.658 -2.202,0.029 -7.466,0.239 -9.484,2.112 -0.743,0.654 -1.332,0.703 -1.686,0.384 -0.353,-0.321 -0.369,-0.827 -0.373,-1.269 -0.04,-4.579 -0.044,-9.159 -0.014,-13.735 0.01,-1.501 0.71,-1.954 1.872,-1.14 1.467,1.028 3.096,1.478 4.797,1.696 2.825,0.363 12.046,0.042 13.93,-0.204 5.036,-0.658 4.597,-0.578 7.536,-1.366 3.146,-0.843 6.148,-3.05 7.714,-4.875 0.026,-0.029 0.052,-0.06 0.076,-0.09 2.185,-2.631 1.451,-5.659 -0.581,-7.828 -1.951,-2.08 -4.404,-3.413 -7.135,-4.219 -4.475,-1.32 -9.059,-2.041 -13.711,-1.823 -8.42,0.396 -16.679,1.681 -24.293,5.599 -1.743,0.897 -3.377,2.025 -4.987,3.155 -1.375,0.965 -2.067,2.377 -2.106,4.077 -0.02,0.884 0.121,1.896 -0.929,2.283 -1.059,0.389 -1.607,-0.533 -2.211,-1.145 -3.878,-3.941 -7.74,-7.896 -11.606,-11.849 -0.222,-0.226 -0.47,-0.443 -0.634,-0.708 -0.467,-0.757 -0.18,-1.383 0.715,-1.487 1.002,-0.116 2.075,0.042 3.006,-0.261 1.375,-0.447 2.661,-1.18 3.969,-1.822 3.477,-1.706 6.864,-3.626 10.437,-5.097 5.659,-2.328 11.614,-3.579 17.697,-4.334 5.822,-0.722 16.095,-1.022 23.526,0.075 4.967,0.751 9.891,1.749 14.502,3.803 4.067,1.813 8.038,3.837 11.075,7.258 2.195,2.472 3.668,5.234 4.163,8.584 0.474,3.213 -0.055,6.145 -1.428,9.026 -0.945,1.984 -2.359,3.268 -4.304,4.436 -3.816,2.287 -6.075,2.86 -6.558,3.155 -0.768,0.466 -0.801,1.088 -0.018,1.537 0.704,0.404 1.513,0.641 2.297,0.885 4.593,1.434 8.537,3.954 11.825,7.407 2.402,2.521 3.824,5.541 4.302,9.113 0.489,3.659 -0.369,6.891 -1.95,10.07 -1.23,2.475 -3.269,4.217 -5.415,5.793 -4.338,3.194 -9.171,5.356 -14.351,6.889 -3.856,1.139 -7.763,1.914 -11.721,2.437 -13.53,1.482 -20.441,0.716 -23.607,0.522 z"
     id="path4"
     style="fill:#ffffff;fill-rule:nonzero" />
  <path
     d="m 228.94048,32.22795 c 4.514,0 9.028,0 13.544,10e-4 0.444,0 0.894,-0.034 1.333,0.019 1.006,0.12 1.161,0.545 0.53,1.368 -1.128,1.469 -1.119,1.627 0.166,2.986 0.042,0.046 0.089,0.09 0.134,0.135 6.297,6.373 12.6,12.746 18.901,19.118 0.313,0.318 0.604,0.659 0.968,0.917 0.632,0.455 1.309,0.463 1.932,-0.038 0.346,-0.278 0.652,-0.604 0.965,-0.922 6.221,-6.273 12.442,-12.548 18.662,-18.824 0.225,-0.226 0.459,-0.444 0.658,-0.691 0.829,-1.031 0.81,-1.396 0.036,-2.501 -0.697,-0.941 -0.697,-1.514 0.724,-1.549 0.31,-0.009 0.632,-0.018 0.951,-0.018 9.156,0 18.312,-0.002 27.468,0.003 0.569,0 1.152,-0.006 1.7,0.114 0.235,0.051 0.519,0.404 0.559,0.654 0.038,0.247 -0.134,0.68 -0.339,0.782 -0.618,0.311 -1.281,0.576 -1.957,0.724 -2.563,0.56 -4.651,1.826 -6.503,3.714 -7.971,8.121 -16.024,16.16 -24.033,24.245 -2.006,2.031 -3.984,4.102 -5.953,6.174 -1.245,1.309 -1.248,1.927 0.014,3.218 2.219,2.263 4.498,4.467 6.706,6.739 1.636,1.683 3.156,3.481 4.805,5.149 4.381,4.431 8.817,8.807 13.204,13.231 2.954,2.977 5.882,5.979 8.784,9.006 1.671,1.746 3.618,2.962 5.966,3.563 0.856,0.217 1.693,0.544 2.501,0.901 0.22,0.099 0.449,0.515 0.416,0.747 -0.035,0.238 -0.348,0.547 -0.6,0.627 -0.413,0.13 -0.876,0.132 -1.316,0.132 -9.347,0.006 -18.694,0.005 -28.04,0.001 -0.379,0 -0.775,0.008 -1.134,-0.095 -0.595,-0.17 -0.82,-0.527 -0.451,-1.144 0.309,-0.519 0.798,-1.109 0.742,-1.617 -0.062,-0.539 -0.616,-1.069 -1.05,-1.509 -7.25,-7.4 -14.514,-14.786 -21.775,-22.174 -0.266,-0.272 -0.535,-0.544 -0.81,-0.808 -1.604,-1.551 -2.192,-1.57 -3.8,0.029 -4.642,4.616 -9.292,9.233 -13.892,13.896 -2.988,3.029 -5.9,6.132 -8.839,9.211 -1.108,1.159 -1.108,1.232 -0.266,2.769 0.48,0.879 0.298,1.265 -0.704,1.408 -0.434,0.064 -0.886,0.039 -1.333,0.039 -9.028,0.002 -18.055,0.013 -27.084,-0.014 -0.812,-0.003 -2.17,0.217 -2.24,-0.771 -0.142,-1.032 1.105,-1.084 1.838,-1.257 3.289,-0.769 5.797,-2.644 8.122,-5.03 7.411,-7.601 14.946,-15.079 22.406,-22.634 2.315,-2.345 4.53,-4.793 6.818,-7.168 0.882,-0.911 1.861,-1.728 2.763,-2.623 1.884,-1.869 1.894,-2.369 0.079,-4.197 -5.498,-5.562 -11.007,-11.108 -16.501,-16.673 -4.466,-4.521 -8.948,-9.027 -13.357,-13.603 -1.698,-1.762 -3.691,-2.857 -6.038,-3.406 -0.432,-0.101 -0.857,-0.235 -1.281,-0.366 -0.604,-0.187 -1.35,-0.329 -1.267,-1.151 0.084,-0.837 0.82,-0.837 1.473,-0.836 0.383,0.001 0.764,-10e-4 1.145,-10e-4 z"
     id="path6"
     style="fill:#ffffff;fill-rule:nonzero" />
  <g
     aria-label="SUPER"
     transform="scale(1.3290006,0.7524451)"
     id="text433"
     style="font-weight:600;font-size:46.4477px;font-family:'Noto Sans';-inkscape-font-specification:'Noto Sans Semi-Bold';text-align:center;text-anchor:middle;fill:#ffffff;fill-opacity:0;stroke:#1a1a1a;stroke-width:2.17723;stroke-linecap:square;stroke-miterlimit:0.3">
    <path
       d="m 26.200114,24.431495 q 0,4.412531 -3.204891,7.06005 -3.158444,2.601072 -9.010854,2.601072 -5.2485901,0 -9.3824355,-1.997252 V 25.54624 q 2.3688327,1.021849 4.8770086,1.904355 2.5546239,0.836059 5.0627989,0.836059 2.601072,0 3.669369,-0.975402 1.114745,-1.021849 1.114745,-2.554623 0,-1.254088 -0.882507,-2.136595 Q 17.60729,21.737528 16.167411,20.994365 14.727532,20.204754 12.869624,19.322248 11.708432,18.764875 10.361448,18.021712 9.0144651,17.232101 7.7603772,16.117356 6.5527369,14.956164 5.763126,13.330494 4.9735151,11.704825 4.9735151,9.4288875 q 0,-4.4589792 3.0191006,-6.9207073 Q 11.011716,4.3334961e-6 16.213859,4.3334961e-6 q 2.601071,0 4.923456,0.6038201065039 2.368833,0.60382006 4.923456,1.71856496 L 23.784834,7.803218 Q 21.508897,6.874264 19.697436,6.3633393 17.885976,5.8524146 15.98162,5.8524146 q -1.997251,0 -3.065548,0.928954 -1.068297,0.928954 -1.068297,2.4152804 0,1.765013 1.579222,2.786862 1.579221,1.021849 4.691217,2.508176 2.554624,1.20764 4.319637,2.508176 1.81146,1.300535 2.786862,3.065548 0.975401,1.765013 0.975401,4.366084 z"
       style="font-weight:bold;-inkscape-font-specification:'Noto Sans Bold';fill-opacity:1;stroke:none"
       id="path297" />
    <path
       d="m 59.224457,21.923319 q 0,3.43713 -1.532774,6.223992 -1.486327,2.740414 -4.551875,4.366084 -3.0191,1.579222 -7.663871,1.579222 -6.595573,0 -10.032703,-3.344235 -3.43713,-3.390682 -3.43713,-8.917958 V 0.46448134 h 7.013603 V 20.762126 q 0,4.087398 1.672117,5.759515 1.672118,1.672118 4.969904,1.672118 3.43713,0 4.969904,-1.811461 1.579222,-1.81146 1.579222,-5.666619 V 0.46448134 h 7.013603 z"
       style="font-weight:bold;-inkscape-font-specification:'Noto Sans Bold';fill-opacity:1;stroke:none"
       id="path299" />
    <path
       d="m 77.942907,0.46448134 q 6.409783,0 9.335988,2.78686206 2.972653,2.7404143 2.972653,7.5709756 0,2.879757 -1.20764,5.434381 -1.207641,2.508175 -4.04095,4.040949 -2.786862,1.532775 -7.617423,1.532775 H 74.366434 V 33.628139 H 67.352831 V 0.46448134 Z M 77.571326,6.2239962 h -3.204892 v 9.8469128 h 2.322385 q 2.972653,0 4.691218,-1.161193 1.765013,-1.20764 1.765013,-3.855159 0,-4.8305608 -5.573724,-4.8305608 z"
       style="font-weight:bold;-inkscape-font-specification:'Noto Sans Bold';fill-opacity:1;stroke:none"
       id="path301" />
    <path
       d="M 115.612,33.628139 H 96.521998 V 0.46448134 H 115.612 V 6.2239962 h -12.0764 v 7.2922888 h 11.24034 V 19.2758 H 103.5356 v 8.546377 h 12.0764 z"
       style="font-weight:bold;-inkscape-font-specification:'Noto Sans Bold';fill-opacity:1;stroke:none"
       id="path303" />
    <path
       d="m 132.19381,0.46448134 q 6.78136,0 9.98625,2.46172816 3.25134,2.4617281 3.25134,7.4780795 0,2.275938 -0.8825,3.994502 -0.83606,1.672118 -2.27594,2.879758 -1.39343,1.161192 -3.0191,1.904356 l 9.75402,14.445234 h -7.80322 L 133.30855,20.90147 h -3.76226 v 12.726669 h -7.0136 V 0.46448134 Z m -0.51093,5.75951486 h -2.13659 v 8.9644058 h 2.27594 q 3.48357,0 4.9699,-1.161192 1.53277,-1.161193 1.53277,-3.43713 0,-2.3688327 -1.62566,-3.3442344 -1.57923,-1.0218494 -5.01636,-1.0218494 z"
       style="font-weight:bold;-inkscape-font-specification:'Noto Sans Bold';fill-opacity:1;stroke:none"
       id="path305" />
  </g>
</svg>
