<?xml version="1.0" encoding="UTF-8" standalone="no"?>
<!-- Created with Inkscape (http://www.inkscape.org/) -->

<svg
   width="69.166229mm"
   height="34.406574mm"
   viewBox="0 0 69.166229 34.406574"
   version="1.1"
   id="svg5"
   xml:space="preserve"
   inkscape:version="1.2.2 (732a01da63, 2022-12-09)"
   sodipodi:docname="Sega Mega CD JP.svg"
   xmlns:inkscape="http://www.inkscape.org/namespaces/inkscape"
   xmlns:sodipodi="http://sodipodi.sourceforge.net/DTD/sodipodi-0.dtd"
   xmlns="http://www.w3.org/2000/svg"
   xmlns:svg="http://www.w3.org/2000/svg"><sodipodi:namedview
     id="namedview7"
     pagecolor="#ffffff"
     bordercolor="#000000"
     borderopacity="0.25"
     inkscape:showpageshadow="2"
     inkscape:pageopacity="0.0"
     inkscape:pagecheckerboard="0"
     inkscape:deskcolor="#d1d1d1"
     inkscape:document-units="mm"
     showgrid="false"
     inkscape:zoom="1.4770342"
     inkscape:cx="-40.283427"
     inkscape:cy="48.746331"
     inkscape:window-width="1920"
     inkscape:window-height="1009"
     inkscape:window-x="1912"
     inkscape:window-y="-8"
     inkscape:window-maximized="1"
     inkscape:current-layer="layer1" /><defs
     id="defs2" /><g
     inkscape:label="Warstwa 1"
     inkscape:groupmode="layer"
     id="layer1"
     transform="translate(90.51769,-123.1269)"><path
       style="fill:#000000;stroke-width:0.0846667"
       d="m -70.19769,157.33312 c -3.28372,-0.88578 -4.16277,-3.8825 -2.41541,-8.23426 0.84728,-2.11014 2.75762,-5.01701 4.48415,-6.8233 l 0.5136,-0.53733 0.0465,4.94 c 0.0369,3.91731 0.0709,5.00706 0.16436,5.26397 0.16529,0.45443 0.66751,0.99481 1.15422,1.24191 l 0.4129,0.20962 4.19039,0.0436 4.19039,0.0436 -0.68689,0.44044 c -4.29547,2.75435 -9.27093,4.16258 -12.05423,3.41179 z m 12.86934,-6.42246 v -2.44323 l -0.84089,-0.0579 c -0.46249,-0.0318 -1.18224,-0.0321 -1.59945,-6.8e-4 l -0.75856,0.0573 -0.0506,0.30605 c -0.0278,0.16832 -0.051,0.64026 -0.0515,1.04875 l -9.3e-4,0.74272 -1.5875,-0.023 -1.5875,-0.023 v -3.72533 -3.72533 l 1.57677,-0.023 1.57678,-0.023 0.0373,0.97382 c 0.0205,0.5356 0.0651,1.00165 0.0991,1.03565 0.12915,0.12916 3.02188,0.0716 3.10626,-0.0618 0.1398,-0.22103 0.1016,-4.53067 -0.0412,-4.6492 -0.0921,-0.0764 -1.16869,-0.0945 -4.39164,-0.0739 l -4.26962,0.0274 0.17654,-0.21309 c 0.30418,-0.36717 2.30139,-2.03351 3.37254,-2.81382 5.91886,-4.31178 12.3852,-6.04183 15.41863,-4.12521 0.50122,0.31668 0.58781,0.18356 -1.20977,1.85975 -0.76835,0.71646 -1.64477,1.53359 -1.9476,1.81584 -0.30283,0.28226 -1.08388,1.01103 -1.73566,1.61949 -0.65179,0.60846 -1.37535,1.27521 -1.60791,1.48166 -0.23257,0.20646 -0.46117,0.41564 -0.508,0.46486 -0.0468,0.0492 -0.58999,0.55918 -1.20699,1.13325 -0.93544,0.87034 -1.12184,1.08408 -1.12184,1.28635 0,0.38137 0.13946,0.33154 1.15431,-0.41244 0.23906,-0.17526 1.10919,-0.81394 1.93363,-1.41931 0.82444,-0.60537 1.60755,-1.17687 1.74025,-1.27 0.24654,-0.17303 3.19639,-2.33403 4.59691,-3.36759 1.15271,-0.85068 1.75621,-1.07589 0.83573,-0.31187 -0.13791,0.11447 -0.60754,0.53744 -1.04362,0.93994 -0.43608,0.4025 -0.89178,0.8216 -1.01268,0.93134 -1.04975,0.95286 -1.96315,1.78277 -2.82878,2.57018 -0.56311,0.51223 -1.61249,1.46401 -2.33196,2.11507 -2.7422,2.48145 -3.04379,2.78338 -3.04379,3.04724 0,0.43291 -0.1624,0.52208 2.54,-1.39464 7.90514,-5.60684 8.29734,-5.88134 8.29734,-5.8073 0,0.0434 -2.51702,2.35923 -3.68361,3.38914 -0.41877,0.3697 -0.79951,0.7126 -0.8461,0.762 -0.0466,0.0494 -0.3895,0.35619 -0.762,0.68174 -0.37251,0.32555 -0.69634,0.61182 -0.71963,0.63615 -0.0233,0.0243 -0.57357,0.51997 -1.22287,1.10142 -3.45135,3.09071 -3.60313,3.23935 -3.60313,3.5287 0,0.34159 0.12787,0.25856 4.91253,-3.1899 2.58343,-1.86196 4.72572,-3.38596 4.76064,-3.38667 0.18258,-0.004 -0.0616,0.24928 -1.39331,1.44375 -0.80125,0.71865 -1.89773,1.70668 -2.43664,2.19563 -0.53891,0.48895 -1.47156,1.32715 -2.07257,1.86267 -3.9578,3.52654 -3.81144,3.38193 -3.73422,3.6896 0.0762,0.30365 0.0461,0.32112 2.3083,-1.34137 4.46978,-3.28489 4.53172,-3.32394 3.55985,-2.24437 -1.77144,1.96777 -6.20595,5.82281 -6.69804,5.82281 -0.0293,0 -0.0532,-1.09946 -0.0532,-2.44323 z m 11.27833,-2.34257 c -0.76411,-0.16592 -2.04714,-0.78573 -2.04909,-0.98988 -6.8e-4,-0.0687 0.35011,-0.42327 1.02216,-1.0331 0.25241,-0.22905 0.74519,-0.68625 1.09507,-1.016 0.34988,-0.32976 0.90352,-0.84721 1.23031,-1.14989 0.32679,-0.30268 0.82158,-0.76134 1.09952,-1.01925 0.27795,-0.2579 1.34326,-1.22945 2.36736,-2.159 2.87364,-2.60833 3.0275,-2.76234 3.0275,-3.03036 0,-0.50127 0.22964,-0.64023 -3.64554,2.20605 -0.6197,0.45516 -1.59927,1.17046 -2.17682,1.58956 -0.57756,0.4191 -1.59206,1.16205 -2.25446,1.651 -1.68816,1.24613 -2.55941,1.8623 -2.63351,1.8625 -0.19501,5.1e-4 0.0838,-0.28875 1.48167,-1.53729 0.84984,-0.75905 1.67851,-1.49958 1.8415,-1.64562 0.16298,-0.14604 0.73448,-0.65764 1.27,-1.13688 0.53551,-0.47924 1.16416,-1.04635 1.397,-1.26025 0.23283,-0.21391 0.78356,-0.71274 1.22385,-1.10852 0.44028,-0.39578 0.86124,-0.77676 0.93547,-0.84661 0.0742,-0.0699 0.5141,-0.46966 0.97749,-0.88847 1.53615,-1.38837 1.63626,-1.49942 1.5865,-1.75977 -0.0855,-0.44736 0.15595,-0.59166 -3.74965,2.2407 -1.38871,1.00711 -4.2774,3.09378 -5.8687,4.23931 -1.2087,0.87011 -1.61001,1.02294 -0.85256,0.32468 0.57512,-0.53019 4.74303,-4.25095 5.84147,-5.21478 4.4826,-3.93329 4.6967,-4.14003 4.6252,-4.46617 -0.0683,-0.31156 -0.20071,-0.23291 -2.87691,1.70888 -0.73379,0.53242 -2.49621,1.81198 -3.9165,2.84347 -2.45286,1.7814 -2.96333,2.13237 -2.96333,2.03745 0,-0.16473 0.25846,-0.49167 0.66504,-0.84127 3.48972,-3.0006 3.39189,-2.91554 5.13904,-4.46798 0.70093,-0.62281 1.80583,-1.60337 2.45533,-2.17903 1.426,-1.26387 1.47726,-1.32041 1.47726,-1.62973 0,-0.4611 0.0279,-0.47917 -4.78367,3.10381 -1.66324,1.23856 -1.85792,1.27641 -0.84897,0.16508 1.55936,-1.7176 4.70607,-4.43888 6.05088,-5.2328 l 0.25909,-0.15295 v 5.49483 c 0,3.02215 0.0249,5.95767 0.0553,6.52336 l 0.0553,1.02854 4.36853,0.0219 4.36853,0.0219 -0.25859,0.254 c -0.24895,0.24453 -0.90848,0.82851 -1.75103,1.55044 -4.74538,4.06602 -11.58015,6.70303 -15.28705,5.8981 z m 18.95133,-13.97349 c -0.005,-5.73749 -0.0312,-5.91336 -0.9985,-6.58371 -0.57753,-0.40024 -0.69454,-0.41086 -5.04218,-0.45762 l -4.13202,-0.0444 0.87235,-0.53764 c 6.70167,-4.13031 12.9581,-4.57209 14.63174,-1.03319 1.35685,2.86906 -0.69208,8.24075 -4.90263,12.85323 l -0.42509,0.46567 z m -6.76754,3.31902 c -0.069,-0.0831 -0.0897,-1.14736 -0.0739,-3.78884 l 0.0221,-3.67323 h 1.43933 1.43934 l 0.055,3.64067 c 0.0334,2.21061 0.0239,3.69887 -0.0241,3.78883 -0.10552,0.19748 -2.69639,0.22701 -2.85776,0.0326 z m -56.65146,-6.96821 c 0,-0.0969 1.99812,-3.38382 3.00232,-4.93886 0.10525,-0.16298 0.44827,-0.69638 0.76227,-1.18533 1.07298,-1.67084 1.11507,-1.69333 3.16866,-1.69333 1.68863,0 1.78628,0.0292 1.78871,0.53521 0.003,0.5256 0.11521,0.54168 0.57488,0.082 0.57494,-0.57495 0.78704,-0.61723 3.09594,-0.61723 1.62306,0 1.92354,0.0197 2.03771,0.13391 0.11879,0.11879 0.13142,0.56111 0.11188,3.91583 l -0.022,3.78192 -1.29116,0.0234 -1.29117,0.0234 v -2.9089 -2.9089 l -0.20108,-0.10762 c -0.3643,-0.19496 -0.55649,-0.005 -1.45102,1.43367 -0.27506,0.44239 -0.80743,1.28059 -1.18305,1.86267 -0.37563,0.58208 -0.81531,1.28011 -0.97707,1.55116 -0.16176,0.27106 -0.40166,0.62349 -0.53311,0.78317 l -0.239,0.29034 h -1.26383 c -1.14724,0 -1.26383,-0.0137 -1.26378,-0.14817 8e-5,-0.19138 0.61266,-1.2139 2.44737,-4.08517 1.15539,-1.80816 1.15103,-1.778 0.25683,-1.778 -1.04015,0 -0.86699,-0.20189 -3.64846,4.25384 -0.35632,0.57081 -0.75794,1.19023 -0.89248,1.3765 l -0.24462,0.33866 -1.37235,0.0233 c -0.75479,0.0128 -1.37235,-0.004 -1.37235,-0.0374 z m 15.44549,-0.0561 c -0.0238,-0.0619 -0.0321,-1.29065 -0.0185,-2.7305 l 0.0247,-2.61792 0.48866,-0.77407 c 1.0509,-1.66469 1.02893,-1.65787 5.22634,-1.62258 l 3.09033,0.026 0.0249,0.71807 c 0.0344,0.99146 0.19392,0.93293 -2.54296,0.93293 -2.69882,0 -2.70544,0.002 -3.19315,0.87894 -0.32102,0.57735 -0.40032,0.56039 2.62087,0.56039 2.33276,0 2.72149,0.0178 2.76329,0.12678 0.0561,0.14627 -0.39504,0.88517 -0.78773,1.29009 l -0.26811,0.27647 h -2.19146 c -2.5013,0 -2.39466,-0.032 -2.39466,0.71966 0,0.76173 -0.17565,0.71967 3.00567,0.71967 2.06681,0 2.82914,0.0267 2.90407,0.1016 0.16287,0.16287 0.13559,1.39124 -0.0323,1.45567 -0.30053,0.11533 -8.67474,0.0566 -8.71992,-0.0612 z m 10.23379,-0.0533 c -0.53031,-0.32335 -0.57212,-0.50797 -0.60373,-2.66589 -0.0361,-2.46813 -0.0278,-2.51952 0.55077,-3.37561 1.13959,-1.68633 0.93218,-1.61671 4.92125,-1.65194 3.76246,-0.0332 3.48843,-0.0981 3.48843,0.82545 0,0.90964 0.16932,0.85323 -2.56114,0.85323 -2.69803,0 -2.65918,-0.009 -3.12492,0.69284 -0.57456,0.86534 -0.57927,0.88337 -0.57927,2.21458 0,1.74365 -0.16441,1.62225 2.19694,1.62225 2.15658,0 2.0495,0.0427 2.01589,-0.80434 l -0.0218,-0.55033 -0.87164,-0.0242 c -1.13884,-0.0316 -1.16624,-0.28257 -0.15676,-1.43555 l 0.24161,-0.27595 h 1.55064 c 0.85285,0 1.6109,0.0231 1.68456,0.0514 0.11697,0.0449 0.13392,0.30852 0.13392,2.0828 v 2.0314 l -0.28786,0.28787 -0.28787,0.28787 -4.00897,-3.4e-4 c -3.82681,-3.4e-4 -4.02128,-0.008 -4.28002,-0.16559 z m 9.93924,0.11153 c -0.13256,-0.13255 -0.0663,-7.6231 0.0684,-7.7349 0.097,-0.0805 0.68035,-0.0963 2.4765,-0.0671 2.51398,0.0409 2.74984,0.0786 3.22908,0.51557 0.30451,0.27767 4.75082,7.00078 4.75082,7.18357 0,0.14718 -0.0943,0.15723 -1.47584,0.15723 h -1.47583 l -0.47749,-0.67756 c -0.60963,-0.86506 -0.56417,-0.84644 -2.06664,-0.84644 h -1.2736 l -0.33282,-0.42105 c -0.18305,-0.23157 -0.34586,-0.45732 -0.3618,-0.50165 -0.0159,-0.0443 -0.0861,-0.093 -0.15598,-0.10812 -0.10704,-0.0232 -0.13366,0.17212 -0.16934,1.24248 l -0.0423,1.27 -1.31732,0.0232 c -0.72453,0.0128 -1.34365,-0.003 -1.37583,-0.0353 z m 5.17648,-3.18801 c 0.28513,-0.34357 -1.88928,-3.11396 -2.26051,-2.88008 -0.21977,0.13846 -0.25182,2.87442 -0.0343,2.93105 0.37267,0.097 2.2058,0.0563 2.29485,-0.051 z"
       id="path318" /></g></svg>
