<?xml version="1.0" encoding="UTF-8" standalone="no"?>
<!-- Generator: Adobe Illustrator 23.0.3, SVG Export Plug-In . SVG Version: 6.00 Build 0)  -->

<svg
   version="1.1"
   id="Camada_1"
   x="0px"
   y="0px"
   viewBox="0 0 700.7 209.3"
   style="enable-background:new 0 0 700.7 209.3;"
   xml:space="preserve"
   sodipodi:docname="Sinclair ZX 81.svg"
   inkscape:version="1.2.2 (732a01da63, 2022-12-09)"
   xmlns:inkscape="http://www.inkscape.org/namespaces/inkscape"
   xmlns:sodipodi="http://sodipodi.sourceforge.net/DTD/sodipodi-0.dtd"
   xmlns="http://www.w3.org/2000/svg"
   xmlns:svg="http://www.w3.org/2000/svg"><defs
   id="defs51" /><sodipodi:namedview
   id="namedview49"
   pagecolor="#ffffff"
   bordercolor="#000000"
   borderopacity="0.25"
   inkscape:showpageshadow="2"
   inkscape:pageopacity="0.0"
   inkscape:pagecheckerboard="0"
   inkscape:deskcolor="#d1d1d1"
   showgrid="false"
   inkscape:zoom="1.7682317"
   inkscape:cx="293.2308"
   inkscape:cy="104.6243"
   inkscape:window-width="1536"
   inkscape:window-height="793"
   inkscape:window-x="-8"
   inkscape:window-y="-8"
   inkscape:window-maximized="1"
   inkscape:current-layer="Camada_1" />
<style
   type="text/css"
   id="style2">
	.st0{fill:#010101;}
	.st1{fill:#ED2024;}
</style>
<g
   id="g24">
	<rect
   x="132.6"
   y="5.5"
   class="st0"
   width="22.6"
   height="19.5"
   id="rect4" />
	<polygon
   class="st0"
   points="127.2,55.7 31.7,55.7 31.7,48 127.1,48 127.1,28.5 9.2,28.5 9.2,74.2 104.6,74.2 104.6,81.7 9.2,81.7    9.2,101.7 127.2,101.7  "
   id="polygon6" />
	<rect
   x="403.9"
   y="7.9"
   class="st0"
   width="22.6"
   height="94"
   id="rect8" />
	<rect
   x="552.4"
   y="28.7"
   class="st0"
   width="22.6"
   height="73"
   id="rect10" />
	<rect
   x="132.6"
   y="28.7"
   class="st0"
   width="22.6"
   height="73"
   id="rect12" />
	<polygon
   class="st0"
   points="277.3,28.7 160.2,28.7 160.2,101.8 182.8,101.8 182.8,48.2 254.7,48.2 254.7,101.7 277.3,101.7  "
   id="polygon14" />
	<polygon
   class="st0"
   points="399,101.7 399,81.7 304.8,81.7 304.8,48.2 399,48.2 399.1,28.7 282.2,28.7 282.2,101.7  "
   id="polygon16" />
	<path
   class="st0"
   d="M547.6,101.7v-73H431.4v19.5H525v7.6h-93.6v45.9H547.6z M525,81.7h-71v-7.5h71V81.7z"
   id="path18" />
	<rect
   x="552.4"
   y="5.5"
   class="st0"
   width="22.6"
   height="19.4"
   id="rect20" />
	<polygon
   class="st0"
   points="580.6,28.7 580.6,101.7 603.2,101.7 603.2,48.2 694.9,48.2 694.9,28.7  "
   id="polygon22" />
</g>
<g
   id="g34"
   style="fill:#000000">
	<path
   class="st1"
   d="M10.3,185.8l48.6-61.4H11.5v-16.8h72v15.9l-49.2,62.3h49.3v16.8H10.3V185.8z"
   id="path26"
   style="fill:#000000" />
	<path
   class="st1"
   d="M112.8,202.6H89.8l30.6-48.4l-29.1-46.6H115l16.9,30.9l17.4-30.9h22.9l-29.1,45.8l30.9,49.2H150l-18.1-32.4   L112.8,202.6z"
   id="path28"
   style="fill:#000000" />
	<path
   class="st1"
   d="M182.7,162.4c2.4-4.3,5.8-7.5,10.4-9.6c-4.5-3-7.5-6.3-8.8-9.8c-1.4-3.5-2-6.8-2-9.8c0-6.8,2.6-12.6,7.7-17.4   c5.1-4.8,12.4-7.2,21.7-7.2c9.3,0,16.6,2.4,21.7,7.2c5.1,4.8,7.7,10.6,7.7,17.4c0,3.1-0.7,6.3-2,9.8c-1.4,3.5-4.3,6.5-8.8,9.1   c4.6,2.6,8.1,6,10.4,10.2c2.3,4.3,3.5,9,3.5,14.2c0,7.9-2.9,14.6-8.7,20.1c-5.8,5.5-14,8.3-24.4,8.3s-18.4-2.8-23.7-8.3   c-5.4-5.5-8.1-12.2-8.1-20.1C179.1,171.4,180.3,166.7,182.7,162.4z M201.8,186.2c2.4,2.5,5.7,3.8,9.9,3.8c4.2,0,7.5-1.3,9.9-3.8   c2.4-2.5,3.6-6.1,3.6-10.7c0-4.8-1.2-8.4-3.6-10.9c-2.4-2.5-5.7-3.7-9.8-3.7s-7.4,1.2-9.8,3.7c-2.4,2.5-3.6,6.1-3.6,10.9   C198.2,180.1,199.4,183.6,201.8,186.2z M202.9,143.6c2.1,2.1,5,3.2,8.7,3.2c3.7,0,6.6-1.1,8.7-3.2c2-2.1,3.1-4.9,3.1-8.3   c0-3.7-1-6.6-3.1-8.7c-2-2.1-4.9-3.1-8.7-3.1c-3.7,0-6.6,1-8.7,3.1c-2.1,2.1-3.1,5-3.1,8.7C199.8,138.7,200.9,141.5,202.9,143.6z"
   id="path30"
   style="fill:#000000" />
	<path
   class="st1"
   d="M276.6,202.6h-19.3v-92.8h19.3V202.6z"
   id="path32"
   style="fill:#000000" />
</g>
<g
   id="g36">
</g>
<g
   id="g38">
</g>
<g
   id="g40">
</g>
<g
   id="g42">
</g>
<g
   id="g44">
</g>
<g
   id="g46">
</g>
</svg>
