<?xml version="1.0" encoding="UTF-8" standalone="no"?>
<svg
   clip-rule="evenodd"
   fill-rule="evenodd"
   stroke-linejoin="round"
   stroke-miterlimit="2"
   viewBox="0 0 600 179.25339"
   version="1.1"
   id="svg58"
   sodipodi:docname="SNK Neo Geo Pocket - Color.svg"
   width="600"
   height="179.25339"
   inkscape:version="1.2.2 (732a01da63, 2022-12-09)"
   xmlns:inkscape="http://www.inkscape.org/namespaces/inkscape"
   xmlns:sodipodi="http://sodipodi.sourceforge.net/DTD/sodipodi-0.dtd"
   xmlns="http://www.w3.org/2000/svg"
   xmlns:svg="http://www.w3.org/2000/svg">
  <defs
     id="defs62" />
  <sodipodi:namedview
     id="namedview60"
     pagecolor="#ffffff"
     bordercolor="#000000"
     borderopacity="0.25"
     inkscape:showpageshadow="2"
     inkscape:pageopacity="0.0"
     inkscape:pagecheckerboard="0"
     inkscape:deskcolor="#d1d1d1"
     showgrid="false"
     inkscape:zoom="2.065"
     inkscape:cx="287.4092"
     inkscape:cy="381.59806"
     inkscape:window-width="1920"
     inkscape:window-height="1009"
     inkscape:window-x="1912"
     inkscape:window-y="-8"
     inkscape:window-maximized="1"
     inkscape:current-layer="svg58" />
  <path
     d="M 41.664,123.027 H 35.917 L 5.894,79.854 v 43.173 H 0 V 71.014 h 7.22 l 28.585,41.257 V 71.014 h 5.859 z"
     id="path2"
     style="fill:#ffffff;fill-rule:nonzero" />
  <path
     d="M 76.291,123.027 H 47.263 L 47.151,71.014 h 29.028 v 5.879 H 52.99 v 16.462 h 21.672 v 5.834 H 52.99 v 18.963 h 23.235 z"
     id="path4"
     style="fill:#ffffff;fill-rule:nonzero" />
  <path
     d="m 106.017,69.533 c -15.079,0 -27.488,12.408 -27.488,27.487 0,15.08 12.409,27.488 27.488,27.488 15.08,0 27.488,-12.408 27.488,-27.488 0,-15.079 -12.408,-27.487 -27.488,-27.487 z m 0.073,6.047 h 10e-4 c 11.802,0 21.513,9.712 21.513,21.514 v 0.001 c 0,11.802 -9.712,21.513 -21.514,21.513 -11.802,-0.001 -21.513,-9.712 -21.513,-21.513 0,-11.803 9.711,-21.514 21.513,-21.515 z"
     id="path6"
     style="fill:#ffffff;fill-rule:nonzero" />
  <path
     d="m 253.365,69.533 c -15.08,0 -27.488,12.408 -27.488,27.487 0,15.08 12.408,27.488 27.488,27.488 15.079,0 27.488,-12.408 27.488,-27.488 0,-15.079 -12.409,-27.487 -27.488,-27.487 z m 0.073,6.047 c 11.802,0 21.514,9.712 21.514,21.514 v 0.001 c 0,11.802 -9.712,21.513 -21.514,21.513 -11.802,-0.001 -21.513,-9.712 -21.513,-21.513 -0.001,-11.803 9.711,-21.514 21.513,-21.515 z"
     id="path8"
     style="fill:#ffffff;fill-rule:nonzero" />
  <path
     d="m 164.305,69.253 c -2.937,0.043 -5.91,0.558 -8.811,1.588 -13.26,4.709 -20.909,18.71 -17.753,32.457 3.156,13.747 16.151,22.978 30.128,21.381 13.977,-1.597 24.567,-14.665 24.567,-26.688 h -6.52 c 0,9.087 -8.065,18.985 -18.788,20.21 -10.722,1.225 -20.601,-5.783 -23.029,-16.362 -2.429,-10.58 3.404,-21.239 13.58,-24.852 9.099,-3.232 19.004,0.105 24.383,7.824 h 7.541 c -4.627,-9.47 -14.043,-15.234 -24.043,-15.547 -0.417,-0.014 -0.836,-0.017 -1.255,-0.011 z"
     id="path10"
     style="fill:#ffffff;fill-rule:nonzero" />
  <path
     d="m 192.437,97.991 h -36.402 v 5.887 h 31.882 z"
     id="path12"
     style="fill:#ffffff;fill-rule:nonzero" />
  <path
     d="M 224.817,123.027 H 195.79 l -0.112,-52.013 h 29.027 v 5.879 h -23.188 v 16.462 h 21.671 v 5.834 h -21.671 v 18.963 h 23.234 z"
     id="path14"
     style="fill:#ffffff;fill-rule:nonzero" />
  <path
     d="m 374.19,69.533 c -15.079,0 -27.488,12.408 -27.488,27.487 0,15.08 12.409,27.488 27.488,27.488 15.079,0 27.488,-12.408 27.488,-27.488 0,-15.079 -12.409,-27.487 -27.488,-27.487 z m 0.073,6.047 c 11.803,0 21.514,9.712 21.514,21.514 v 0.001 c 0,11.802 -9.712,21.513 -21.514,21.513 -11.802,-0.001 -21.513,-9.712 -21.513,-21.513 0,-11.803 9.711,-21.514 21.513,-21.515 z"
     id="path16"
     style="fill:#ffffff;fill-rule:nonzero" />
  <path
     d="m 434.835,69.252 v 0.001 c -2.937,0.043 -5.909,0.558 -8.81,1.588 -13.261,4.709 -20.909,18.71 -17.754,32.457 3.156,13.748 16.152,22.978 30.129,21.381 9.732,-1.112 17.817,-7.787 21.833,-15.797 h -7.455 c -3.364,4.832 -8.776,8.594 -15.119,9.319 -10.722,1.225 -20.601,-5.783 -23.03,-16.362 -2.428,-10.58 3.405,-21.239 13.581,-24.852 9.099,-3.232 19.004,0.105 24.382,7.824 h 7.542 c -4.627,-9.47 -14.043,-15.234 -24.043,-15.547 -0.418,-0.014 -0.836,-0.016 -1.256,-0.012 z"
     id="path18"
     style="fill:#ffffff;fill-rule:nonzero" />
  <path
     d="m 548.393,123.027 h -29.028 l -0.112,-52.013 h 29.028 v 5.879 h -23.189 v 16.462 h 21.672 v 5.834 h -21.672 v 18.963 h 23.235 z"
     id="path20"
     style="fill:#ffffff;fill-rule:nonzero" />
  <path
     d="m 466.909,71.014 h 5.929 v 52.014 h -5.929 z"
     id="path22"
     style="fill:#ffffff;fill-rule:nonzero" />
  <path
     d="m 502.161,123.027 h 7.81 l -26.965,-27.996 -4.863,3.684 z"
     id="path24"
     style="fill:#ffffff;fill-rule:nonzero" />
  <path
     d="m 502.014,71.014 h 7.662 l -39.931,41.404 1.62,-10.756 z"
     id="path26"
     style="fill:#ffffff;fill-rule:nonzero" />
  <path
     d="M 557.564,71.014 H 600 v 5.879 h -42.436 z"
     id="path28"
     style="fill:#ffffff;fill-rule:nonzero" />
  <path
     d="m 575.688,71.014 h 6.006 v 52.014 h -6.006 z"
     id="path30"
     style="fill:#ffffff;fill-rule:nonzero" />
  <path
     d="m 298.559,72.792 7.445,-21.46 19.768,0.06 0.169,9.621 -13.047,-0.105 -2.665,9.876 13.396,9.691 c 6.602,-2.712 11.315,-8.612 12.284,-15.379 0.969,-6.767 -1.961,-13.318 -7.636,-17.076 -5.676,-3.758 -13.16,-4.005 -19.555,-0.831 l -21.514,10.677 32.422,65.334 -8.447,4.192 -36.811,-74.178 30.621,-15.196 c 10.031,-4.977 21.968,-3.771 30.495,3.083 8.527,6.854 12.059,18.08 9.022,28.679 C 341.469,80.379 332.033,88.245 322,91.405 Z"
     id="path32"
     style="fill:#ffffff;fill-rule:nonzero" />
  <path
     d="m 323.261,0 -3.439,25.527 6.46,1.25 9.065,-25.006 z"
     id="path34"
     style="fill:#ffffff;fill-rule:nonzero" />
  <path
     d="m 348.579,8.023 -12.711,22.088 5.626,3.751 16.045,-19.484 z"
     id="path36"
     style="fill:#ffffff;fill-rule:nonzero" />
  <path
     d="m 365.562,23.339 -18.442,16.462 4.272,6.355 20.317,-12.711 z"
     id="path38"
     style="fill:#ffffff;fill-rule:nonzero" />
  <g
     id="g400"
     transform="matrix(1.2528544,0,0,1.2528544,-35.816195,353.76426)">
    <path
       d="m 174.23686,-172.70262 v 0.001 c -1.758,0.024 -3.536,0.333 -5.272,0.949 -7.935,2.818 -12.511,11.196 -10.623,19.422 1.888,8.226 9.664,13.749 18.027,12.793 5.824,-0.665 10.661,-4.659 13.065,-9.452 h -4.461 c -2.013,2.891 -5.251,5.142 -9.047,5.576 -6.415,0.733 -12.327,-3.46 -13.78,-9.791 -1.453,-6.33 2.037,-12.708 8.126,-14.87 5.445,-1.933 11.371,0.063 14.59,4.682 h 4.512 c -2.768,-5.667 -8.402,-9.116 -14.386,-9.303 -0.25,-0.008 -0.5,-0.008 -0.751,-0.006 z"
       id="path40"
       style="fill:#ffffff;fill-rule:nonzero" />
    <path
       d="m 227.37686,-172.18562 c -9.023,0 -16.448,7.425 -16.448,16.448 0,9.023 7.425,16.447 16.448,16.447 9.023,0 16.447,-7.424 16.447,-16.447 0,-9.023 -7.424,-16.448 -16.447,-16.448 z m 0.043,3.619 h 0.001 c 7.062,0 12.873,5.811 12.873,12.873 -0.001,7.062 -5.812,12.873 -12.874,12.873 -7.061,-0.001 -12.872,-5.811 -12.872,-12.873 0,-7.062 5.811,-12.873 12.872,-12.873 z"
       id="path42"
       style="fill:#ffffff;fill-rule:nonzero" />
    <path
       d="m 267.59186,-171.61362 h 3.46 v 31.123 h -3.46 z"
       id="path46"
       style="fill:#ffffff" />
    <path
       d="m 267.59186,-143.40762 h 17.329 v 2.917 h -17.329 z"
       id="path48"
       style="fill:#ffffff" />
    <path
       d="m 318.83686,-172.18562 c -9.023,0 -16.447,7.425 -16.447,16.448 0,9.023 7.424,16.447 16.447,16.447 9.023,0 16.448,-7.424 16.448,-16.447 0,-9.023 -7.425,-16.448 -16.448,-16.448 z m 0.044,3.619 c 7.062,0 12.873,5.811 12.873,12.873 0,7.062 -5.811,12.873 -12.873,12.873 -7.062,-0.001 -12.872,-5.811 -12.873,-12.873 0,-7.062 5.811,-12.873 12.873,-12.873 z"
       fill-rule="nonzero"
       id="path50"
       style="fill:#ffffff" />
    <path
       d="m 357.97386,-171.61362 h 3.46 v 31.123 h -3.46 z"
       fill-rule="nonzero"
       id="path52"
       style="fill:#ffffff" />
    <path
       d="m 370.11386,-150.95862 c 5.167,-1.228 8.596,-6.13 7.978,-11.404 -0.618,-5.275 -5.088,-9.251 -10.398,-9.251 h -9.72 l 1.935,3.482 h 7.738 c 2.483,0 4.777,1.324 6.018,3.474 1.241,2.15 1.241,4.799 0,6.949 -1.241,2.15 -3.535,3.474 -6.018,3.474 h -7.674 l -0.129,3.745 h 5.841 l 7.347,9.999 h 4.476 z"
       fill-rule="nonzero"
       id="path54"
       style="fill:#ffffff" />
  </g>
</svg>
