<?xml version="1.0" encoding="UTF-8" standalone="no"?>
<!-- Created with Inkscape (http://www.inkscape.org/) -->

<svg
   width="49.1579302"
   height="18.4993392"
   viewBox="-1.5416116 -1.5416116 49.1579302 18.4993392"
   version="1.1"
   id="svg5"
   inkscape:version="1.2.2 (732a01da63, 2022-12-09)"
   sodipodi:docname="VeMUlator.svg"
   xmlns:inkscape="http://www.inkscape.org/namespaces/inkscape"
   xmlns:sodipodi="http://sodipodi.sourceforge.net/DTD/sodipodi-0.dtd"
   xmlns="http://www.w3.org/2000/svg"
   xmlns:svg="http://www.w3.org/2000/svg">
  <sodipodi:namedview
     id="namedview7"
     pagecolor="#ffffff"
     bordercolor="#000000"
     borderopacity="0.25"
     inkscape:showpageshadow="2"
     inkscape:pageopacity="0.0"
     inkscape:pagecheckerboard="0"
     inkscape:deskcolor="#d1d1d1"
     inkscape:document-units="mm"
     showgrid="false"
     inkscape:zoom="0.73851712"
     inkscape:cx="230.86804"
     inkscape:cy="188.215"
     inkscape:window-width="49.1579302"
     inkscape:window-height="18.4993392"
     inkscape:window-x="1912"
     inkscape:window-y="-8"
     inkscape:window-maximized="1"
     inkscape:current-layer="layer1" />
  <defs
     id="defs2" />
  <g
     inkscape:label="Warstwa 1"
     inkscape:groupmode="layer"
     id="layer1"
     transform="translate(-0.55698773,-98.883574)">
    <g
       aria-label="VMU"
       id="text236"
       style="font-weight:bold;font-size:25.4px;font-family:monospace;-inkscape-font-specification:'monospace Bold';text-align:center;text-anchor:middle;fill:#1a1a1a;stroke-width:1.05833;stroke-linecap:square;stroke-miterlimit:0.3">
      <path
         d="m 8.7549368,110.21932 3.6834962,-8.78086 h -0.58291 q -0.917774,0 -1.314649,-0.34727 -0.384472,-0.35966 -0.384472,-0.93017 0,-0.570509 0.384472,-0.917775 0.396875,-0.359668 1.314649,-0.359668 l 3.410644,0.0124 q 0.917774,0 1.302246,0.347265 0.396875,0.347266 0.396875,0.917778 0,0.68213 -0.595312,1.079 -0.285254,0.19844 -1.165821,0.19844 L 9.9827688,113.92762 H 7.5395072 L 2.3305229,101.43846 q -0.8929688,0 -1.1782227,-0.19844 -0.59531247,-0.38447 -0.59531247,-1.079 0,-0.570509 0.396875,-0.917775 0.38447267,-0.359668 1.30224607,-0.359668 l 3.4354492,0.0124 q 0.905371,0 1.2898437,0.347265 0.396875,0.347266 0.396875,0.917778 0,0.57051 -0.3844727,0.93017 -0.3844726,0.34727 -1.302246,0.34727 H 5.0962455 Z"
         id="path396" />
      <path
         d="m 20.028667,103.80731 v 7.57783 h 0.917774 q 0.917773,0 1.302246,0.35967 0.396875,0.34726 0.396875,0.91777 0,0.55811 -0.396875,0.91777 -0.384473,0.34727 -1.302246,0.34727 H 17.61021 q -0.917773,0 -1.302246,-0.34727 -0.396875,-0.35966 -0.396875,-0.93017 0,-0.55811 0.384473,-0.90537 0.384472,-0.35967 1.190625,-0.35967 v -9.94668 q -0.669727,-0.062 -1.016992,-0.40928 -0.334864,-0.34726 -0.334864,-0.86816 0,-0.570509 0.384473,-0.917775 0.396875,-0.359668 1.314648,-0.359668 l 2.790528,0.0124 3.460254,7.652253 3.398242,-7.664656 2.815332,0.0124 q 0.917773,0 1.302246,0.347265 0.396875,0.347266 0.396875,0.917771 0,0.5209 -0.347266,0.86816 -0.347266,0.34727 -1.00459,0.40928 v 9.94668 q 0.806153,0 1.190625,0.35967 0.384473,0.35967 0.384473,0.91777 0,0.55811 -0.396875,0.91777 -0.384473,0.34727 -1.302246,0.34727 h -3.348633 q -0.905371,0 -1.302246,-0.34727 -0.384473,-0.35966 -0.384473,-0.93017 0,-0.55811 0.384473,-0.90537 0.396875,-0.35967 1.302246,-0.35967 h 0.930176 v -7.57783 l -2.914551,6.54843 h -2.207617 z"
         id="path398" />
      <path
         d="m 45.056597,101.43846 v 7.20576 q 0,2.35645 -1.699122,4.00596 -1.686718,1.64951 -4.067968,1.64951 -1.178223,0 -2.22002,-0.40928 -1.029394,-0.42168 -1.860351,-1.22783 -0.818555,-0.80615 -1.277442,-1.67432 -0.458886,-0.88056 -0.458886,-2.34404 v -7.20576 q -0.806153,0 -1.190625,-0.35967 -0.384473,-0.35967 -0.384473,-0.91777 0,-0.570509 0.384473,-0.917775 0.384472,-0.347265 1.314648,-0.347265 l 3.33623,-0.0124 q 0.917774,0 1.302247,0.359668 0.396875,0.347266 0.396875,0.917772 0,0.57051 -0.396875,0.93017 -0.384473,0.34727 -1.302247,0.34727 h -0.917773 v 7.429 q 0,1.14102 0.942578,2.02159 0.954981,0.86816 2.294434,0.86816 0.892968,0 1.674316,-0.42168 0.781348,-0.42168 1.277441,-1.22783 0.310059,-0.5085 0.310059,-1.24024 v -7.429 h -0.917773 q -0.917774,0 -1.314649,-0.34727 -0.384472,-0.35966 -0.384472,-0.93017 0,-0.570506 0.384472,-0.917772 0.396875,-0.359668 1.314649,-0.359668 l 3.33623,0.0124 q 0.917774,0 1.302246,0.347265 0.396875,0.347266 0.396875,0.917775 0,0.5581 -0.384473,0.91777 -0.384472,0.35967 -1.190624,0.35967 z"
         id="path400" />
    </g>
  </g>
</svg>

