<?xml version="1.0" encoding="UTF-8" standalone="no"?>
<!-- Created with Inkscape (http://www.inkscape.org/) -->

<svg
   width="201.5508202"
   height="83.5128012"
   viewBox="-6.9594001 -6.9594001 201.5508202 83.5128012"
   version="1.1"
   id="svg1"
   xml:space="preserve"
   inkscape:version="1.2.2 (732a01da63, 2022-12-09)"
   sodipodi:docname="Wolfenstein 3D.svg"
   xmlns:inkscape="http://www.inkscape.org/namespaces/inkscape"
   xmlns:sodipodi="http://sodipodi.sourceforge.net/DTD/sodipodi-0.dtd"
   xmlns="http://www.w3.org/2000/svg"
   xmlns:svg="http://www.w3.org/2000/svg"><sodipodi:namedview
     id="namedview1"
     pagecolor="#ffffff"
     bordercolor="#000000"
     borderopacity="0.25"
     inkscape:showpageshadow="2"
     inkscape:pageopacity="0.0"
     inkscape:pagecheckerboard="0"
     inkscape:deskcolor="#d1d1d1"
     inkscape:document-units="mm"
     inkscape:zoom="0.54119318"
     inkscape:cx="-26.792651"
     inkscape:cy="42.498688"
     inkscape:window-width="201.5508202"
     inkscape:window-height="83.5128012"
     inkscape:window-x="1912"
     inkscape:window-y="-8"
     inkscape:window-maximized="1"
     inkscape:current-layer="layer1"
     showgrid="false" /><defs
     id="defs1" /><g
     inkscape:label="Layer 1"
     inkscape:groupmode="layer"
     id="layer1"
     transform="translate(-16.033988,-69.20855)"><path
       id="path16"
       style="font-size:30.5522px;line-height:1.2;font-family:'DS Cathedral';-inkscape-font-specification:'DS Cathedral';font-variant-ligatures:no-common-ligatures;text-align:center;letter-spacing:0px;word-spacing:0px;text-anchor:middle;opacity:1;fill:#1a1a1a;fill-opacity:1;stroke-width:1.65561;stroke-linecap:square;stroke-miterlimit:180;paint-order:markers stroke fill"
       d="m 71.94075,71.614063 c -0.126162,0 -0.462958,0.336877 -0.505011,0.46304 -0.33642,0.504635 -4.205099,5.213968 -4.205099,5.424243 0,0.378473 1.850061,1.766394 2.186481,2.313079 0.714892,1.21953 0.714839,2.691565 0.714839,4.037244 0,3.238043 -0.29447,6.517901 -0.29447,9.755944 0,3.406254 0.589018,9.125567 3.995274,10.933827 l 0.16857,0.042 c 0.462571,0 4.877972,-5.635159 4.877972,-6.139781 0,-0.714896 -1.22004,-1.976435 -1.472351,-2.775429 -0.630797,-1.64004 -0.546271,-3.616144 -0.546271,-5.340296 0,-3.027782 0.29447,-5.887435 0.29447,-8.915217 0,-3.406254 -0.925598,-6.434366 -3.574893,-8.789302 -0.378478,-0.336423 -1.134882,-0.967261 -1.639511,-1.009312 z m 19.5005,0.336437 c -3.574453,2.733408 -7.401449,5.172525 -11.606699,6.854614 -0.126217,0.126217 -0.125942,0.336808 -0.125942,0.50502 v 1.093231 c 0.462572,0.294374 0.714827,0.588527 0.714827,1.135212 0,0.504634 -1.135748,0.336258 -1.556284,0.42037 -0.925143,0.336424 -0.58894,1.597935 -0.58894,2.438979 0,0.967207 1.472392,1.009312 2.145224,1.009312 l 0.125942,0.12663 0.04198,2.901316 c 0.126217,7.06482 -0.29447,13.961466 -0.29447,20.984236 0,0.21027 0.08451,0.46261 0.12663,0.67288 h 0.840742 c 0.336423,0 4.919966,-1.05156 5.592812,-1.26182 0.462572,-0.12616 0.546891,-0.0836 0.588941,-0.58823 0.504621,-4.3314 -0.462393,-20.017189 0.252503,-22.288025 l 0.378404,-0.04198 c 0.672833,0 1.051305,0.672874 1.724152,0.672874 1.177468,0 2.355045,-2.775471 2.355045,-3.784727 0,-1.177468 -1.556229,-0.841444 -2.271125,-0.841444 -0.714882,0 -1.47158,-0.125942 -2.186476,-0.125942 v -3.57419 h 0.167868 c 0.925143,0.672832 3.406378,2.98525 4.415634,2.98525 0.841044,0 4.877972,-3.868344 4.877972,-4.709402 0,-0.378473 -0.714937,-0.589395 -1.009311,-0.715543 -0.798995,-0.462586 -1.597577,-0.966753 -2.27041,-1.597536 -0.672846,-0.546684 -1.597935,-2.271125 -2.438993,-2.271125 z m -19.332638,0.546973 c 0.294367,0.04198 0.589045,0.168047 0.883412,0.420371 3.153942,2.396985 3.574189,5.382442 3.574189,9.08307 0,3.238043 -0.29447,6.518603 -0.29447,9.756646 0,1.640053 0.168528,3.322211 0.883411,4.794039 0.294373,0.630797 1.009311,1.219173 1.009311,1.892019 0,0.672833 -3.322693,4.289512 -3.869377,5.088512 h -0.462324 c -2.901626,-2.69136 -3.4483,-6.349707 -3.4483,-10.092385 0,-3.364205 0.462334,-6.560322 0.462334,-9.924513 0,-1.808265 -0.42052,-3.826846 -1.724147,-5.130475 -0.294368,-0.294374 -1.009309,-0.588872 -1.009309,-0.967345 0,-0.588733 3.322431,-4.247106 3.99527,-4.919939 z m -51.868814,0.125942 c -0.210263,0 -4.20581,5.971782 -4.20581,6.728727 1.976467,1.387729 2.860064,2.775278 2.860064,5.256362 0,2.901634 -0.463043,5.718948 -0.463043,8.70468 0,0.462572 -0.0842,0.883163 0.04197,1.345734 1.093365,5.887352 4.289965,10.428822 10.723999,10.428822 0.67284,-0.33642 1.892043,-3.65814 2.564882,-3.99455 2.565202,2.85956 5.130309,4.12116 8.999139,4.12116 0.630788,0 1.261935,-0.0845 1.892722,-0.1266 l 0.251793,-0.16786 c 1.135418,-1.80826 3.574762,-5.298702 4.331707,-7.191066 l -0.336435,-0.210536 c -1.303627,0 -2.481105,0.12663 -3.784732,0.12663 l -0.04197,-0.12663 c 0.672836,-1.471842 1.850442,-2.733436 2.691492,-4.121178 2.144677,-3.490354 4.457604,-7.485287 4.457604,-11.732586 0,-3.574466 -2.943742,-8.746633 -6.854625,-8.746633 -0.546682,0.883094 -3.616869,6.391698 -3.616869,7.022481 2.396993,2.144674 4.037237,3.322307 4.037237,6.81266 0,3.364205 -1.555933,6.392428 -3.448296,9.083786 -0.16821,0.29436 -0.378417,0.588225 -0.714838,0.588225 -1.009259,0 -1.30378,-3.784507 -1.30378,-4.583502 0,-3.322142 0.883412,-6.475756 0.883412,-9.797911 0,-3.406255 -1.43017,-6.097916 -4.28974,-8.116428 -0.630788,-0.462585 -1.72392,-1.135212 -2.522917,-1.135212 -1.135417,0 -1.59785,2.901606 -2.480952,3.448291 -0.336419,0.546684 -1.892721,2.691165 -1.892721,3.195786 0,0.462586 1.850059,1.639723 2.18648,2.228457 0.714891,1.135418 0.715549,2.565747 0.715549,3.869377 0,2.733408 -0.715549,5.424271 -0.715549,8.157692 0,1.051306 0.126602,2.060534 0.126602,3.111854 0,0.126217 -0.210279,0.168569 -0.336435,0.168569 -3.027781,0 -3.658835,-4.205291 -3.658835,-6.51819 0,-3.027768 0.756803,-5.929388 0.756803,-8.95717 0,-3.742663 -1.387163,-6.181574 -4.751362,-7.989825 -0.630788,-0.336423 -1.429711,-0.88341 -2.102551,-0.88341 z m 130.828232,0.12663 c -0.21026,0 -4.37327,2.396586 -4.91994,2.606847 -1.05132,0.588734 -1.76658,0.336423 -1.89272,1.724152 -0.0421,0.462572 0.042,0.883163 0.042,1.345748 0,0.378473 -0.0416,0.673053 -0.16787,0.925378 -1.81369,0.192945 -2.10177,0.194225 -2.13741,1.814472 -1.35842,-0.542129 -4.02058,-0.931778 -4.57922,-0.931778 -5.25654,0 -10.84991,3.911165 -10.84991,9.504157 0,8.074075 11.64867,4.919732 11.64867,8.115726 0,1.177467 -1.68169,1.556284 -2.60685,1.556284 -2.56519,0 -5.34105,-2.144523 -6.01388,-2.144523 l -0.37841,0.04198 c -1.30363,1.093369 -3.19558,4.331512 -4.331,5.803352 v 0.58823 c 1.97648,0.96721 4.07905,1.43039 6.22372,1.43039 5.59297,0 11.39617,-4.6262 11.39617,-10.471501 0,-2.396985 -1.30374,-4.878261 -3.74277,-5.424946 -1.47182,-0.29436 -3.11167,-0.840728 -4.58351,-0.840728 -0.96719,0 -3.28042,-0.462571 -3.28042,-1.724152 0,-1.051305 1.43015,-1.135197 2.22916,-1.135197 3.02775,0 4.49944,2.018608 5.5928,2.018608 0.042,0 0.12594,-0.04239 0.16787,-0.16857 0.35828,-0.55369 2.49153,-3.284992 3.4426,-4.730737 0.63409,0.566684 1.92829,-0.100478 1.92829,0.693493 v 9.58809 c 0,5.635028 0.33648,9.33597 6.18175,11.90117 0.21026,0.0421 0.33655,0.0839 0.63091,0.0839 0.67283,0 3.9526,-5.676792 3.9526,-6.686062 -1.64006,-0.672833 -3.44831,-2.018801 -3.44831,-3.995264 V 83.641218 l 0.12663,-0.125942 h 0.084 c 0.71488,0 1.13523,0.714841 1.80807,0.714841 0.96721,0 2.439,-3.027534 2.439,-3.910628 0,-1.051319 -3.65862,-0.967344 -4.45762,-0.967344 -0.12621,-1.724152 -0.12594,-3.406324 -0.12594,-5.130476 0,-0.546684 -0.0425,-1.009159 -0.16858,-1.429681 z m -59.62678,0.167868 c 0.462585,0 2.943407,2.480795 3.574191,2.901317 0.462585,0.29436 0.967371,0.378872 1.303781,0.841443 v 0.08396 c 0,0.462571 -3.448414,3.658826 -4.079198,3.658826 -1.682102,0 -3.952636,-3.44829 -4.961905,-3.44829 -0.504621,0 -0.29447,1.682199 -0.29447,2.018622 0,1.135418 0.04171,2.144303 0.167867,3.279721 l 0.12663,0.210536 h 3.868661 l 0.420371,0.504305 c 0,0.588734 -1.135322,2.85935 -1.766105,2.85935 -0.714896,0 -1.261952,-0.714841 -2.229159,-0.714841 l -0.42037,0.29447 c -0.294374,4.751934 -0.08396,9.546261 -0.08396,14.298195 0,2.859563 -0.04212,5.677243 -0.336437,8.536803 -1.808251,0.50464 -3.911068,1.13521 -5.761382,1.13521 0,-7.94793 0.29447,-15.811566 0.29447,-23.843592 0,-2.354949 -2.438979,0.546671 -2.438979,-2.060589 0,-1.26158 1.261319,-1.093947 2.186476,-1.093947 l 0.12663,-0.125941 v -0.462338 c 0,-1.261567 -0.883411,-1.429709 -0.883411,-2.102542 0,-0.714896 1.009064,-0.79905 1.471649,-1.009311 3.532403,-1.555941 6.392083,-3.742953 9.588077,-5.719416 z m 84.79121,0 c -0.33642,0 -3.53292,2.775347 -3.53292,3.15382 h 7e-4 c 1.47183,1.682103 4.91951,3.74276 7.19035,3.74276 0.71489,0 2.22892,-2.060616 2.6915,-2.733449 v -0.08396 c 0,-0.252311 -3.40583,-1.892735 -3.99457,-2.229159 -0.79899,-0.630783 -1.51409,-1.219255 -2.31309,-1.850039 z m -104.081882,0.29447 c -0.462578,0.33641 -1.261728,1.051567 -1.30378,1.598251 0.210262,0.504622 1.177813,1.218884 1.556286,1.68147 1.597988,1.8503 1.59825,4.541824 1.59825,6.81266 0,3.027768 -0.294471,5.887421 -0.294471,8.915203 0,2.691358 0.08369,4.962016 1.555569,7.316951 0.168212,0.294374 0.421018,0.714842 0.799491,0.714842 0.378472,0 1.387701,-1.4296 1.387701,-1.808073 0,-0.672847 -1.22004,-2.228581 -1.472351,-3.195787 -0.29436,-1.051319 -0.29447,-2.144482 -0.29447,-3.195801 0,-3.532403 0.336437,-7.064971 0.336437,-10.597387 0,-2.90162 -0.420123,-5.299059 -2.606848,-7.359634 -0.378473,-0.336423 -0.757184,-0.756546 -1.261814,-0.882695 z m -51.826849,0.125942 h 0.1259 c 0.67284,0 1.597833,0.630838 2.144515,1.009311 2.523149,1.724152 3.911339,3.953201 3.911339,7.107131 0,3.153944 -0.756803,6.139676 -0.756803,9.293606 0,3.111895 1.09316,7.064462 4.919937,7.064462 0.462577,0 0.378403,-0.167882 0.378403,-0.504305 0,-1.009256 -0.168575,-2.06063 -0.168575,-3.069886 0,-3.027782 0.757515,-5.845468 0.757515,-8.873249 0,-5.172456 -2.733456,-5.214726 -2.733456,-6.434257 0.336419,-0.462572 3.405983,-5.340131 3.574192,-5.42423 h 0.08393 0.08465 c 3.826777,1.724152 5.887281,4.120752 5.887281,8.452163 0,3.19598 -0.757516,6.392083 -0.757516,9.588077 0,1.387729 0.0426,5.845316 2.145226,5.845316 2.396992,-2.144674 4.583502,-7.359345 4.583502,-10.597388 0,-2.186737 -0.714834,-4.373474 -2.438986,-5.845316 -0.210262,-0.126217 -1.429676,-1.009049 -1.429676,-1.135212 0,-0.714882 2.733401,-6.181753 3.448294,-6.181753 3.322148,1.345693 5.59281,4.07939 5.59281,7.780005 0,4.793983 -3.616288,10.723205 -6.307648,14.549982 -0.378471,0.504635 -1.261467,1.471938 -1.429676,2.018622 l 0.1259,0.252504 h 4.163133 c -0.967208,2.186732 -2.355032,4.204572 -3.742765,6.181042 l -0.294471,0.12661 h -0.924666 c -2.733412,0 -5.761483,-0.54708 -7.780003,-2.5656 -0.294367,-0.29437 -1.42978,-2.017906 -1.724146,-2.017906 -1.009261,0 -1.892615,4.456896 -3.3224,4.456896 -5.761191,0 -9.419507,-6.265587 -9.419507,-11.480093 0,-2.691358 0.588942,-5.3824 0.588942,-8.073759 0,-4.878096 -2.733456,-5.088646 -2.733456,-6.055866 z m 71.117521,0.29447 c -0.798995,0 -1.303781,0.756753 -1.303781,1.471649 0.841058,0.841044 2.775581,3.027933 4.079211,3.027933 l 0.20982,-0.04198 c 0.294374,-0.294373 1.009229,-0.841374 1.051278,-1.219847 -1.303629,-1.051319 -2.606998,-2.018319 -3.910628,-3.195801 z m 84.58068,0.125942 h 0.42037 c 1.51389,1.387729 3.28016,2.481345 5.13047,3.322403 v 0.04198 c 0,0.756946 -1.26158,1.639971 -1.72415,2.102542 h -0.12594 c -1.00926,0 -6.0139,-2.439034 -6.0139,-3.44829 z m -25.45892,0.04267 c 0.21026,1.640039 0.12663,3.06935 0.12663,4.709389 0,0.462585 0.12594,0.96711 0.16785,1.429682 l 0.12663,0.12663 c 0.7149,0 4.28903,-4.96e-4 4.28903,0.588238 0,0.462572 -1.17756,2.733449 -1.68218,2.733449 -0.6308,0 -1.1775,-0.630191 -2.06059,-0.630191 l -0.37839,0.04198 -0.29449,0.29447 v 9.293606 c 0,1.808265 0.21028,3.952306 1.72416,5.129773 0.54668,0.462572 1.21953,0.673342 1.72415,1.135914 -0.96721,1.850313 -2.10253,3.658653 -3.15382,5.466913 l -0.16787,0.1259 h -0.042 c -0.46259,0 -1.05129,-0.37868 -1.38772,-0.58894 -2.64928,-1.47184 -4.5842,-3.826581 -4.5842,-6.980525 V 82.506116 l -0.2518,-0.29447 c -0.54668,0 -1.09363,-0.04184 -1.59825,-0.125942 l -0.29447,-0.168569 c -0.0421,-0.294374 -0.12594,-0.672985 -0.12594,-0.967345 0,-0.126217 0.0838,-0.420026 0.12594,-0.588224 l 0.16858,-0.21055 h 1.85004 l 0.20982,-0.210537 v -3.15382 l 0.21055,-0.29447 c 1.80824,-0.798995 3.57419,-1.723574 5.29833,-2.69078 z m -129.734982,0.251788 -0.378401,0.04198 c -0.210263,0.336423 -1.135207,1.640232 -1.135207,1.976655 0,0.462572 1.093258,0.924937 1.429677,1.135212 2.01852,1.303616 2.480951,3.490629 2.480951,5.719416 0,2.85957 -0.630907,5.635261 -0.630907,8.494831 0,0.967207 0.04242,1.976078 0.168574,2.943284 0.462578,3.406255 3.658738,6.602127 7.149096,6.602127 0.84105,0 1.597538,-1.261583 1.597538,-2.060592 l -0.04197,-0.209821 c -4.920145,-1.009256 -6.307648,-3.280229 -6.307648,-8.200375 0,-3.069831 0.756803,-6.097874 0.756803,-9.167706 0,-2.523147 -2.228941,-7.274998 -5.088511,-7.274998 z m 11.943135,0.168582 c -0.50463,0 -1.429676,1.598003 -1.429676,2.060575 0,0.336423 2.522934,1.934179 2.859354,2.522913 0.883102,1.219531 1.177172,3.02774 1.177172,4.499582 0,3.238043 -0.798771,6.392 -0.798771,9.630043 0,4.793983 2.187091,8.32626 7.401601,8.32626 0.630787,0 1.177291,-0.0417 1.808079,-0.16785 0.50463,-0.46259 1.261726,-1.261857 1.30378,-1.93469 -0.04205,-0.04212 -0.126534,-0.08369 -0.168575,-0.209834 -0.336421,0.04212 -0.714855,0.04198 -1.051274,0.04198 -0.588735,0 -2.649543,-2.89e-4 -2.985962,-0.546974 0.0841,0 1.093778,-1.556119 1.177883,-1.640218 2.312887,-3.195993 5.172442,-7.148409 5.172442,-11.269546 0,-2.985732 -1.093615,-5.55086 -3.322398,-7.611435 -0.33642,-0.336423 -0.714506,-0.715543 -1.219137,-0.715543 -0.714892,0 -1.345745,1.682474 -1.345745,2.229145 0,0.378473 3.7008,3.195883 3.7008,6.938561 0,3.406254 -2.565276,9.503812 -5.130478,11.732599 -2.52315,-0.420522 -2.943719,-5.382552 -2.733456,-7.316965 0.336419,-2.985718 0.882701,-5.92947 0.882701,-8.915202 0,-3.238043 -1.47141,-5.256197 -3.99456,-7.064448 -0.378473,-0.294374 -0.79915,-0.58894 -1.30378,-0.58894 z m 11.438125,0.125942 c -0.714891,0 -1.093517,1.177467 -1.303779,1.724152 v 0.210536 c 0,0.630783 0.925308,0.924772 1.303779,1.219146 2.943675,2.270822 3.658835,5.803335 3.658835,9.251639 0.714892,0 1.219137,-4.205139 1.219137,-4.877972 0,-2.85957 -0.840937,-4.919939 -3.153824,-6.644091 -0.462578,-0.378473 -1.09336,-0.88341 -1.724148,-0.88341 z m 132.065142,0.12663 c -0.42052,0 -1.26191,1.008692 -1.55628,1.303065 v 0.12663 c 0,0.967207 4.16327,2.733464 5.13047,2.733464 0.29436,-0.210262 0.88341,-0.883425 0.88341,-1.219848 V 77.3337 c -0.54668,-0.546685 -3.06965,-1.892749 -3.86866,-2.565596 -0.21026,-0.168211 -0.29457,-0.293754 -0.58894,-0.293755 z m -26.29965,0.167854 c -0.67284,0.336423 -1.21997,0.672626 -1.85075,1.135211 v 17.031644 c 0,2.985733 0.0841,5.550489 2.73345,7.442852 0.33642,0.29437 0.92532,0.71484 1.30378,0.71484 0.58873,0 1.26183,-1.51327 1.26183,-2.017905 -1.80827,-2.018512 -2.98597,-1.556271 -2.98597,-5.004575 V 82.253638 l 0.96734,-0.04198 c 0.79898,-0.04198 1.47176,0.462338 2.10255,0.462338 0.54668,0 0.92537,-1.05103 0.92537,-1.513616 0,-0.126217 -0.0845,-0.336175 -0.12663,-0.462338 h -3.86866 c -0.16821,-1.219517 -0.16858,-2.271263 -0.16858,-3.574892 0,-0.756946 -0.0418,-1.556065 -0.12594,-2.355059 z m -60.552139,0.42037 c -0.462585,0 -1.724152,0.67326 -1.724152,1.177881 0.420523,0.841058 3.532279,3.574191 4.541535,3.574191 0.462572,0 1.471553,-0.588693 1.513602,-1.051264 l -0.167853,-0.378404 c -1.30363,-1.135418 -2.775747,-2.06092 -3.995278,-3.280437 z m -19.038177,0.588941 c -0.462578,0 -1.429676,1.261566 -1.429676,1.724152 l 0.04197,0.125942 c 1.808258,1.808251 2.313089,3.616625 2.313089,6.139786 0,3.532403 -0.463045,6.981037 -0.463045,10.513454 0,2.901619 0.588971,6.728282 2.985966,8.662702 l 0.16857,0.042 c 0.336423,0 1.219407,-1.30388 1.429682,-1.59826 l 0.04198,-0.29447 c 0,-0.63078 -0.631003,-0.967093 -0.925377,-1.429678 -1.303621,-2.060561 -1.429669,-4.667546 -1.429669,-7.022481 0,-3.195993 0.336435,-6.35013 0.336435,-9.54611 0,-2.186737 -0.08436,-4.373502 -1.59825,-6.181753 -0.294368,-0.336423 -1.009066,-1.135212 -1.471643,-1.135212 z m 76.982756,0.546973 c -2.56518,0 -1.89201,2.102116 -1.89201,4.036529 0,0.546684 -1.00932,0.378403 -1.34574,0.378403 -0.54669,0 -0.88341,0.0841 -0.88341,0.714841 0,0.588734 1.68255,0.546795 2.18719,0.630908 v 12.868513 c 0,3.532402 0.92474,6.139259 3.99456,8.115729 0.37847,0.29437 0.75727,0.58894 1.21985,0.58894 0.67284,0 1.21913,-1.2614 1.21913,-1.80808 0,-0.25232 -2.69151,-1.892937 -3.02792,-2.481671 -0.799,-1.303616 -1.13521,-2.81719 -1.13521,-4.289018 V 76.492255 c 0,-0.210261 -0.12622,-0.293768 -0.33644,-0.293768 z M 19.019949,76.913328 c -0.546682,0 -1.177362,1.345679 -1.429677,1.724152 v 0.293754 c 1.724152,1.471842 2.606848,3.195994 2.606848,5.50888 0,2.691358 -0.58823,5.299182 -0.58823,7.990541 0,3.574466 1.009197,7.695205 4.163134,9.839875 1.303627,0.88311 2.648983,1.72415 4.289031,1.72415 0.84105,0 1.724148,-1.38748 1.724148,-2.18648 0,-0.46258 -0.882805,-0.46287 -1.177172,-0.54698 -4.415512,-1.13542 -6.560155,-5.256044 -6.560155,-9.545406 0,-2.985719 0.714839,-5.845551 0.714839,-8.831269 0,-1.976476 -0.630625,-3.784893 -2.144515,-5.088509 -0.33642,-0.294373 -1.135673,-0.882708 -1.598251,-0.882708 z m 11.732596,0.167868 c -0.378472,0.546684 -1.009308,1.177206 -1.009308,1.850038 l 0.04197,0.294471 c 1.303627,1.135418 1.640335,2.313436 2.271123,3.869376 l 0.04197,1.97594 c 0.04205,3.742678 -0.630907,7.443664 -0.630907,11.186328 0,0.378472 0.378679,1.807934 0.588942,2.228456 1.471837,3.742665 4.54182,5.635485 8.536807,5.635485 1.6821,0 2.144634,-0.50473 2.775421,-2.01862 v -0.1266 -0.16787 c -6.013505,-0.12616 -9.335576,-2.312679 -9.335576,-8.704666 0,-3.15393 0.756804,-6.181643 0.756804,-9.335573 0,-2.186724 -0.294466,-4.163558 -2.018618,-5.677449 -0.67284,-0.630797 -1.05141,-1.009311 -2.018618,-1.009311 z m 55.38966,0 c -0.378473,0 -1.850039,0.883506 -1.850039,1.17788 v 29.688914 c 0,0.16821 0.168308,0.16786 0.29447,0.16786 0.546685,0 1.387812,-0.0836 1.682172,-0.58823 0.126217,-5.17246 0.167785,-10.26085 0.209834,-15.475369 0,-2.228773 -0.252489,-5.214946 0.08396,-7.359634 0.04212,-0.12608 0.126218,-0.167854 0.336437,-0.167854 1.051306,0 1.976697,0.588225 2.985953,0.588225 0.630797,0 0.841457,-1.051031 0.841457,-1.513602 0,-0.126217 -0.08451,-0.294209 -0.12663,-0.420371 h -3.86866 l -0.210536,-0.210536 v -5.718714 z m -2.85935,1.429668 -2.144523,1.009311 -0.04198,0.21055 c 0,0.967206 0.756808,1.892336 0.756808,3.111853 -0.210262,0.462572 -1.219779,0.252503 -1.598252,0.252503 -0.336423,0 -0.840728,-2.48e-4 -0.840728,0.462338 0,0.798995 1.597825,0.714841 2.144509,0.714841 0.126218,0.126217 0.294471,0.252145 0.294471,0.420357 0,7.947927 -0.126631,15.769873 -0.126631,23.675733 0,0.21027 0.08424,0.29448 0.252504,0.29448 0.630783,0 1.051567,-0.12628 1.598251,-0.29448 l 0.125942,-0.2525 c 0.126217,-4.07909 0.168583,-8.11567 0.168583,-12.278858 V 78.679447 c 0,-0.126217 -0.168322,-0.168583 -0.29447,-0.168583 z m -23.483688,1.429681 c -6.307874,0 -10.050414,8.915561 -10.050414,14.256228 0,4.541673 2.396572,10.891147 7.77929,10.891147 6.896609,0 10.681321,-8.746651 10.681321,-14.591954 0,-4.836032 -3.069529,-10.555421 -8.410197,-10.555421 z m 40.434243,0 c -5.929411,2.354936 -10.723284,8.15845 -10.723284,14.676599 0,5.214506 3.86884,10.218986 9.293607,10.218986 1.135418,0 2.228417,-0.12671 3.279717,-0.42108 0.50464,-0.37847 3.28035,-7.022352 3.3224,-7.779297 -1.21952,0.126217 -2.39703,1.219145 -4.45759,1.219145 -1.219535,0 -4.457619,-0.798403 -4.457619,-2.354343 0,-1.724152 8.915209,-6.812716 8.915209,-7.821972 0,-0.714896 -1.89256,-2.355087 -2.31309,-3.027933 -0.67283,-0.798995 -2.48122,-4.499843 -2.69149,-4.710105 h -0.084 z m 66.01692,0 c -5.92941,2.354936 -10.72328,8.15845 -10.72328,14.676599 0,5.214506 3.86885,10.218986 9.29362,10.218986 1.13541,0 2.22911,-0.12671 3.28042,-0.42108 0.50463,-0.37847 3.27962,-7.022352 3.32169,-7.779297 -1.21953,0.126217 -2.39703,1.219145 -4.45761,1.219145 -1.21951,0 -4.4576,-0.798403 -4.4576,-2.354343 0,-1.724152 8.91521,-6.812716 8.91521,-7.821972 0,-0.714896 -1.89184,-2.355087 -2.31238,-3.027933 -0.67283,-0.798995 -2.48122,-4.499843 -2.69148,-4.710105 h -0.084 z m 10.90751,0 c -0.54668,0 -4.12163,5.046583 -4.5842,5.719416 v 0.04198 c 0,0.546684 1.30378,1.850741 1.30378,3.238469 v 8.872534 c 0,1.471841 2.14467,6.854626 3.78473,6.854626 h 0.042 c 0.79899,-0.54668 3.95306,-4.836059 4.75207,-5.845315 v -0.125942 c 0,-0.714896 -1.59825,-1.723946 -1.59825,-4.919939 0,-1.976462 0.16858,-3.868854 0.16858,-5.845316 0,-3.322142 -0.0424,-4.668262 -2.60756,-7.023197 -0.29436,-0.294374 -0.79854,-0.967344 -1.26111,-0.967344 z m -66.7595,0.16857 c -0.84105,0.756945 -4.87797,4.877655 -4.87797,5.718714 0.799,0.798994 1.55557,1.850548 1.55557,2.985966 0,6.139662 -1.09348,10.765558 3.15382,15.433395 0.21026,0.29437 0.50494,0.58894 0.88341,0.58894 0.46259,0 4.16343,-5.172843 4.71012,-6.013888 V 98.6963 98.527731 c -1.13542,-2.018526 -1.72415,-1.89224 -1.72415,-4.541535 0,-0.883108 -0.21032,-6.055151 0.71484,-6.055151 3.5324,0 2.73345,4.878082 2.73345,7.233031 0,4.20525 0.63063,6.854494 3.86867,9.672014 h 0.042 0.084 l 0.29447,-0.1266 4.41565,-5.887282 v -0.420371 c -0.84104,-0.967207 -1.76612,-2.270561 -1.76612,-3.574191 v -7.569468 c 0,-3.574466 -3.40614,-7.023197 -6.93856,-7.023197 h -0.42107 c -0.54668,1.009256 -1.68154,3.868661 -3.02722,3.868661 -0.46257,-1.177467 -2.31306,-3.994561 -3.70079,-3.994561 z m 77.4138,0 c -0.84105,0.756945 -4.87868,4.877655 -4.87868,5.718714 0.799,0.798994 1.55628,1.850548 1.55628,2.985966 0,6.139662 -1.09348,10.765558 3.15382,15.433395 0.21026,0.29437 0.50424,0.58894 0.88271,0.58894 0.46257,0 4.16342,-5.172843 4.7101,-6.013888 V 98.6963 98.527731 c -1.13541,-2.018526 -1.72415,-1.89224 -1.72415,-4.541535 0,-0.883108 -0.21031,-6.055151 0.71484,-6.055151 3.53241,0 2.73347,4.878082 2.73347,7.233031 0,4.20525 0.63061,6.854494 3.86866,9.672014 h 0.0427 0.084 l 0.29447,-0.1266 4.41565,-5.887282 v -0.420371 c -0.84106,-0.967207 -1.76684,-2.270561 -1.76684,-3.574191 v -7.569468 c 0,-3.574466 -3.40613,-7.023197 -6.93855,-7.023197 h -0.42037 c -0.54668,1.009256 -1.68225,3.868661 -3.02793,3.868661 -0.46257,-1.177467 -2.31235,-3.994561 -3.70008,-3.994561 z M 59.883098,80.655386 c 5.004246,0 7.611428,5.383103 7.611428,9.798613 0,5.50888 -3.406381,13.961051 -9.924517,13.961051 -3.70062,0 -6.30768,-3.91035 -6.980521,-7.14839 -0.168209,-0.967207 -0.125901,-1.976697 -0.125901,-2.985953 0,-5.046307 3.363948,-13.625321 9.419507,-13.625321 z m 117.400642,0.126631 c 0.71488,0.04212 1.38748,0.925046 1.85005,1.429681 2.14468,2.733408 1.30377,7.56962 1.30377,10.933825 v 2.355059 c 0,1.051306 1.30378,2.228319 1.30378,3.321688 -1.30363,1.55594 -2.5654,3.70095 -4.03723,5.00458 h -0.042 -0.084 c -2.60726,-2.06058 -3.15453,-5.34099 -3.15453,-8.452884 h 7.1e-4 c 0,-1.64004 0.16787,-3.237919 0.16787,-4.877972 0,-1.135418 2.3e-4,-2.270451 -0.46234,-3.279721 -0.21026,-0.504621 -0.71484,-0.883534 -0.71484,-1.514318 0,-0.420522 3.02751,-4.163255 3.57419,-4.794038 z m -77.17694,0.04198 c 1.30363,2.354949 2.56533,4.709582 4.41565,6.686058 v 0.08465 0.08396 c -0.0841,0.210261 -3.28029,2.397122 -3.70081,2.691496 -0.883095,0.54667 -4.83602,4.28888 -5.172443,5.045826 v 0.04198 c 0,0.294374 0.505296,0.883686 0.715557,1.093947 1.345679,1.387743 2.607204,1.850053 4.499566,1.850053 1.13542,0 2.31234,-0.126355 3.36366,-0.588941 v 0.08465 c 0,1.051319 -1.93446,4.835884 -2.39703,5.929254 -0.63078,0.29437 -1.21926,0.29447 -1.850039,0.29447 -5.887352,0 -9.755944,-3.61663 -9.755944,-9.58808 0,-5.256569 3.027686,-9.545821 7.274985,-12.447441 0.462585,-0.336423 2.018112,-1.261814 2.606848,-1.261814 z m 66.01765,0 c 1.30363,2.354949 2.56532,4.709582 4.41563,6.686058 v 0.08465 0.08396 c -0.0841,0.210261 -3.28028,2.397122 -3.70081,2.691496 -0.8831,0.54667 -4.83603,4.28888 -5.17244,5.045826 v 0.04198 c 0,0.294374 0.50458,0.883686 0.71484,1.093947 1.34568,1.387743 2.60721,1.850053 4.49957,1.850053 1.13542,0 2.31307,-0.126355 3.36437,-0.588941 v 0.08465 c 0,1.051319 -1.93445,4.835884 -2.39702,5.929254 -0.63079,0.29437 -1.21926,0.29447 -1.85004,0.29447 -5.88736,0 -9.75666,-3.61663 -9.75666,-9.58808 0,-5.256569 3.0277,-9.545821 7.27499,-12.447441 0.46259,-0.336423 2.01883,-1.261814 2.60757,-1.261814 z m -55.60022,0.125942 h 0.0846 c 1.38773,0 2.73276,3.196379 3.06918,4.289734 l 0.12663,0.125942 h 0.084 c 1.38772,0 3.23804,-4.415635 3.78472,-4.415635 1.05132,0 2.06073,0.336809 3.02794,0.841444 4.03703,2.228787 3.11185,8.326193 3.11185,12.15297 0,1.55594 0.75694,3.406034 1.72415,4.583502 v 0.08465 c 0,0.462586 -3.74269,5.256374 -4.12116,5.256374 -0.37848,0 -0.50458,-0.29457 -0.71484,-0.58894 -3.02779,-3.826775 -2.60757,-7.527362 -2.60757,-12.069034 0,-2.481098 -0.71488,-3.994562 -3.44829,-3.994562 -0.46258,0 -0.71458,-2.34e-4 -0.84074,0.462338 0,0.168211 -0.29447,3.532238 -0.29447,3.868661 v 3.406337 c 0,1.345679 0.96747,2.607342 1.59825,3.74276 v 0.04198 c 0,0.504635 -3.44859,4.70969 -3.99527,5.25637 h -0.084 -0.084 c -1.80826,-1.55593 -3.15453,-3.95245 -3.15453,-6.433549 v -8.452865 c 0,-2.144688 -1.42968,-2.901619 -1.42968,-3.448304 0,-0.630783 3.49029,-4.16342 4.16313,-4.710104 z m 26.42627,0 c 0.8831,0 4.41522,0.336465 4.96191,1.009311 v 0.08465 0.04198 c -0.33643,0.462586 -3.19616,4.457602 -3.36437,4.457602 -1.13541,0 -2.90146,-1.724139 -5.25638,-1.724139 -1.21952,0 -2.98596,0.378033 -2.98596,1.933973 0,4.247299 11.60671,0.16868 11.60671,7.696071 0,5.256555 -5.1304,10.134343 -10.34489,10.134343 -0.84106,0 -5.84532,-0.58871 -5.84532,-1.38771 0,-0.33642 3.15367,-4.415304 3.57419,-4.919939 0.16821,-0.210261 0.37868,-0.16857 0.58894,-0.16857 1.72415,0.967207 3.57432,1.892719 5.59282,1.892719 1.38772,0 3.44829,-0.505004 3.44829,-2.229156 0,-4.41551 -11.64795,-0.209862 -11.64795,-8.115725 0,-5.004245 4.96215,-8.705382 9.67201,-8.705382 z m 50.98753,0 h 0.084 c 1.38773,0 2.73348,3.196379 3.0699,4.289734 l 0.12594,0.125942 h 0.0846 c 1.38773,0 3.23805,-4.415635 3.78473,-4.415635 1.05131,0 2.06001,0.336809 3.02722,0.841444 4.03704,2.228787 3.11187,8.326193 3.11187,12.15297 0,1.55594 0.75693,3.406034 1.72413,4.583502 v 0.08465 c 0,0.462586 -3.7427,5.256374 -4.12116,5.256374 -0.37847,0 -0.50458,-0.29457 -0.71484,-0.58894 -3.02778,-3.826775 -2.60685,-7.527362 -2.60685,-12.069034 0,-2.481098 -0.71488,-3.994562 -3.44829,-3.994562 -0.46257,0 -0.71531,-2.34e-4 -0.84146,0.462338 0,0.168211 -0.29375,3.532238 -0.29375,3.868661 v 3.406337 c 0,1.345679 0.96674,2.607342 1.59754,3.74276 v 0.04198 c 0,0.504635 -3.4479,4.70969 -3.99457,5.25637 h -0.0846 -0.084 c -1.80826,-1.55594 -3.15382,-3.95245 -3.15382,-6.433549 v -8.452865 c 0,-2.144688 -1.42968,-2.901619 -1.42968,-3.448304 0,-0.630783 3.49029,-4.16342 4.16313,-4.710104 z m -128.180828,0.12663 c -0.630788,0 -3.322398,0.672737 -3.322398,1.429682 1.135418,0 2.312876,-2.48e-4 3.448294,0.462338 3.994987,1.55594 6.013889,6.812935 6.013889,10.807924 0,0.672846 -0.126603,1.387742 -0.126603,2.060589 l 0.126603,0.125942 0.293759,-0.252504 c 0.462578,-1.724152 0.883412,-3.448111 0.883412,-5.256376 0,-4.163186 -2.64913,-9.37754 -7.316956,-9.37754 z m 39.761372,0.29447 c -0.462572,0.210261 -1.429682,0.462462 -1.429682,1.093245 0,0.798995 3.364138,5.887297 4.163128,6.22372 h 0.042 c 0.37847,0 1.38772,-0.799408 1.38772,-1.17788 0,-0.294374 -0.16831,-0.37806 -0.29447,-0.546272 -0.88311,-1.009256 -3.406353,-5.256389 -3.742763,-5.592813 h -0.04198 z m 37.725676,0 c -1.80825,0 -2.85951,0.167551 -4.49957,1.008609 v 0.252504 c 2.69135,0 4.3315,-0.04212 6.85463,1.051264 h 0.33644 c 0.46257,0 1.13591,-0.92513 1.13591,-1.387701 0,-0.714896 -3.28074,-0.924676 -3.82741,-0.924676 z m 28.29124,0 c -0.46258,0.210261 -1.42967,0.462462 -1.42967,1.093245 0,0.798995 3.36414,5.887297 4.16314,6.22372 h 0.042 c 0.37847,0 1.38771,-0.799408 1.38771,-1.17788 0,-0.294374 -0.16831,-0.37806 -0.29447,-0.546272 -0.88311,-1.009256 -3.40563,-5.256389 -3.74206,-5.592813 h -0.042 z m -47.35716,0.167868 c -0.63078,0 -1.51431,1.429971 -1.51431,1.976655 0,0.168212 0.0424,0.252421 0.16858,0.29447 2.60725,1.34568 3.70028,0.882516 4.28903,4.414919 0.37847,2.985732 -0.0422,6.139938 0.42036,9.167719 0.12622,0.672847 1.13569,3.02793 1.93469,3.02793 h 0.084 c 0.46258,-0.462582 1.26181,-1.093365 1.26181,-1.724148 0,-0.462572 -0.54663,-0.925309 -0.71484,-1.303782 -0.46257,-0.967206 -0.67278,-2.102514 -0.71484,-3.15382 -0.12622,-3.069831 0.63051,-9.419603 -2.27111,-11.438129 -0.84106,-0.546684 -1.89198,-1.261814 -2.9433,-1.261814 z m 77.4131,0 c -0.63079,0 -1.51361,1.429971 -1.51361,1.976655 0,0.168212 0.0417,0.252421 0.16786,0.29447 2.60725,1.34568 3.70102,0.882516 4.28975,4.414919 0.37847,2.985732 -0.0422,6.139938 0.42036,9.167719 0.12622,0.672847 1.13499,3.02793 1.93399,3.02793 h 0.0847 c 0.46257,-0.462582 1.26109,-1.093365 1.26109,-1.724148 0,-0.462572 -0.54663,-0.925309 -0.71482,-1.303782 -0.46259,-0.967206 -0.67279,-2.102514 -0.71484,-3.15382 -0.12622,-3.069831 0.63121,-9.419603 -2.27041,-11.438129 -0.84105,-0.546684 -1.8927,-1.261814 -2.944,-1.261814 z m -18.09785,0.08396 c -0.54669,0 -1.30299,1.093617 -1.34504,1.598252 1.34568,2.102624 1.59754,2.480712 1.59754,5.003858 0,2.144688 -0.16787,4.121729 -0.16787,6.266403 0,1.261567 0.50449,5.88728 2.14453,5.88728 0.46258,-0.546681 1.09352,-1.135869 1.30378,-1.850751 -0.96721,-1.387743 -1.30378,-2.73283 -1.30378,-4.414933 0,-2.228787 0.29447,-4.457986 0.29447,-6.686759 0,-2.396999 -0.50485,-4.163311 -2.3131,-5.80335 z m -66.96935,0.04198 c -0.50462,0.504621 -0.9671,1.0096 -1.42967,1.556284 v 0.29447 c 4.54166,4.541673 -0.84122,13.330314 3.86866,17.030929 0.50462,-0.21026 1.30378,-1.261388 1.30378,-1.808072 0,-0.252311 -1.30378,-2.354633 -1.30378,-4.625469 0,-2.396998 0.29447,-4.836033 0.29447,-7.233031 0,-1.387729 -0.96724,-5.215111 -2.73346,-5.215111 z m 77.4138,0 c -0.50463,0.504621 -0.9671,1.0096 -1.42967,1.556284 v 0.29447 c 4.54168,4.541673 -0.84121,13.330314 3.86866,17.030929 0.50464,-0.21026 1.30378,-1.261388 1.30378,-1.808072 0,-0.252311 -1.30378,-2.354633 -1.30378,-4.625469 0,-2.396998 0.29447,-4.836033 0.29447,-7.233031 0,-1.387729 -0.96726,-5.215111 -2.73346,-5.215111 z m -90.564681,1.135914 c -0.378473,0 -1.008705,0.588334 -1.303065,0.882694 -2.35495,2.186738 -3.869377,5.0043 -3.869377,8.242342 0,5.929402 3.49045,9.083783 9.251643,9.083783 1.17746,0 1.8087,-1.093737 1.85075,-2.229155 -0.79899,0 -1.63998,0.210536 -2.43898,0.210536 -1.850312,0 -5.761381,-1.513987 -5.761381,-3.74276 0.210261,-1.00927 5.550891,-5.004368 6.560141,-6.139787 -0.33641,-0.504634 -3.743047,-6.307653 -4.289731,-6.307653 z m 66.017631,0 c -0.37847,0 -1.00942,0.588334 -1.30378,0.882694 -2.35495,2.186738 -3.86866,5.0043 -3.86866,8.242342 0,5.929402 3.49045,9.083783 9.25164,9.083783 1.17747,0 1.80799,-1.093737 1.85005,-2.229155 -0.799,0 -1.63999,0.210536 -2.43899,0.210536 -1.85031,0 -5.76138,-1.513987 -5.76138,-3.74276 0.21026,-1.00927 5.5509,-5.004368 6.56016,-6.139787 -0.33643,-0.504634 -3.74237,-6.307653 -4.28904,-6.307653 z m -105.946868,0.29447 c -3.742672,0 -4.836006,4.41507 -4.836006,7.442851 0,4.667835 2.396935,11.480808 7.947865,11.480808 3.826776,0 4.794041,-5.256785 4.794041,-8.158404 0,-4.499623 -2.69139,-10.765255 -7.9059,-10.765255 z m 77.571698,0 c -2.94367,0 -6.56016,1.261002 -6.56016,4.751369 0,4.49961 6.26549,4.037258 9.46147,4.710105 3.02778,0.546684 2.52316,2.18693 3.44831,2.313092 0,-7.905878 -11.64797,-3.36415 -11.64797,-7.947872 0,-1.850301 1.85039,-2.565596 3.40634,-2.565596 1.8503,0 3.4058,0.799257 5.04583,1.598252 h 0.084 c 0.54669,0 1.21985,-1.135666 1.21985,-1.598252 0,-0.883094 -3.74271,-1.261098 -4.4576,-1.261098 z m 40.41718,0.840741 c -0.46259,0.546671 -1.09281,1.177193 -1.30307,1.850039 0.63079,1.177468 1.00931,2.439048 1.00931,3.784727 0,1.808265 -0.16858,3.448827 -0.16858,5.257092 0,2.691358 0.0845,5.25621 1.89272,7.40089 0.16821,0.21026 0.37842,0.58894 0.71484,0.58894 0.46257,0 1.42968,-1.26157 1.42968,-1.72414 0,-0.79901 -1.85075,-2.271307 -1.85075,-5.971936 0,-2.228773 0.16857,-4.457271 0.16857,-6.686044 0,-2.186737 -2.5e-4,-2.901578 -1.59825,-4.499568 z m -66.92737,0.125942 -0.12594,0.04198 c -0.37847,0.378473 -1.30378,1.09363 -1.30378,1.598251 0,0.462586 1.17788,1.766436 1.17788,2.985966 v 8.410196 c 0,1.261581 1.34547,5.887283 2.85935,5.887283 0.46258,0 1.30378,-1.26157 1.30378,-1.72415 0,-0.54669 -1.26209,-1.766148 -1.47235,-2.438981 -0.88309,-2.354949 -0.42037,-6.686278 -0.42037,-9.335587 0,-1.219517 -0.21036,-5.424945 -2.01861,-5.424945 z m 77.4138,0 -0.12663,0.04198 c -0.37847,0.378473 -1.30306,1.09363 -1.30306,1.598251 0,0.462586 1.17718,1.766436 1.17718,2.985966 v 8.410196 c 0,1.261581 1.34545,5.887283 2.85935,5.887283 0.46257,0 1.30378,-1.26157 1.30378,-1.72415 0,-0.54669 -1.26139,-1.766148 -1.47165,-2.438981 -0.88311,-2.354949 -0.42037,-6.686278 -0.42037,-9.335587 0,-1.219517 -0.21036,-5.424945 -2.01861,-5.424945 z m -69.67576,0.29447 -0.29447,0.04198 -1.85005,1.850755 v 0.125941 l 0.12594,0.294471 c 5.29862,0.210261 4.41563,4.373598 4.41563,8.200375 0,2.691358 0.37849,5.340764 2.06059,7.527494 0.21026,0.29437 0.29422,0.58824 0.75681,0.58824 0.58873,0 1.5136,-1.26141 1.5136,-1.80809 0,-0.33641 -1.63978,-2.438845 -1.85004,-3.195791 -0.79901,-2.85957 -0.42037,-5.845715 -0.42037,-8.747349 0,-2.565196 -1.76624,-4.877972 -4.4576,-4.877972 z m 77.41308,0 -0.29375,0.04198 -1.85077,1.850755 v 0.125941 l 0.12663,0.294471 c 5.29862,0.210261 4.41492,4.373598 4.41492,8.200375 0,2.691358 0.37849,5.340764 2.06059,7.527494 0.21026,0.29437 0.29494,0.58824 0.75752,0.58824 0.58874,0 1.5136,-1.26141 1.5136,-1.80809 0,-0.33641 -1.63977,-2.438845 -1.85003,-3.195791 -0.799,-2.85957 -0.42109,-5.845715 -0.42109,-8.747349 0,-2.565196 -1.76623,-4.877972 -4.4576,-4.877972 z m -97.586456,0.168584 h 0.08396 0.08396 c 0.336423,0.210261 2.859653,4.457628 3.406337,5.130475 -0.336423,0.420522 -4.877889,4.625469 -4.919939,4.625469 -0.462585,0 -0.79949,-1.850067 -0.79949,-2.18649 v -1.556284 c 0,-2.312886 0.631347,-4.331082 2.145238,-6.01317 z m 66.016916,0 h 0.084 0.0846 c 0.33641,0.210261 2.85967,4.457628 3.40634,5.130475 -0.33641,0.420522 -4.8786,4.625469 -4.92065,4.625469 -0.46259,0 -0.79876,-1.850067 -0.79876,-2.18649 v -1.556284 c 0,-2.312886 0.63061,-4.331082 2.1445,-6.01317 z M 56.476769,84.650911 c 4.079093,0 7.149095,8.158574 7.149095,11.522779 0,1.682089 -0.210205,4.24706 -2.438986,4.24706 -3.86883,0 -7.023198,-8.873038 -7.023198,-12.069031 0,-1.471842 0.462781,-3.700808 2.313089,-3.700808 z m 0.126603,0.462338 c -1.640048,0 -1.850756,1.935019 -1.850756,3.154536 0,2.985732 2.859621,11.56403 6.518187,11.56403 1.976468,0 1.808079,-2.691565 1.808079,-4.037244 0,-2.90162 -3.069258,-10.681322 -6.47551,-10.681322 z m 39.550826,0.252503 c -1.051305,0 -1.766105,4.079514 -1.766105,4.962622 0,0.420522 0.08369,2.901317 0.546258,2.901317 0.462585,-0.126217 3.532692,-3.027507 3.995277,-3.574191 0,-0.168212 -2.397122,-3.995374 -2.691496,-4.289748 z m 66.016922,0 c -1.0513,0 -1.76612,4.079514 -1.76612,4.962622 0,0.420522 0.0844,2.901317 0.54699,2.901317 0.46257,-0.126217 3.53196,-3.027507 3.99455,-3.574191 0,-0.168212 -2.39642,-3.995374 -2.69078,-4.289748 z M 56.056396,85.954693 h 0.546976 c 3.406252,0 5.88728,7.905864 5.88728,10.681321 0,0.925157 -1.53e-4,2.48096 -1.30378,2.48096 -3.238042,0 -5.88728,-8.157913 -5.88728,-10.807222 0,-0.883108 -0.04219,-1.724262 0.756804,-2.355059 z m 39.971915,0.546271 c 0.33641,0.462572 1.933973,2.565527 1.933973,2.944 0,0.54667 -2.228828,2.228993 -2.733463,2.649515 l -0.125942,-0.12663 -0.04198,-1.177179 c -0.04212,-1.513891 0.08369,-2.901385 0.882695,-4.247065 z m 66.016909,0 c 0.33643,0.462572 1.93469,2.565527 1.93469,2.944 0,0.54667 -2.22881,2.228993 -2.73345,2.649515 l -0.12663,-0.12663 -0.042,-1.177179 c -0.042,-1.513891 0.0844,-2.901385 0.88341,-4.247065 z M 51.935227,88.940659 c -0.798997,0.336423 -0.925377,4.583103 -0.925377,5.466197 0,3.868839 2.060902,9.588084 6.728728,9.588084 0.84105,0 3.322398,-0.42041 3.322398,-1.42968 -7.275081,-0.46257 -9.125749,-7.526988 -9.125749,-13.624601 z m 76.016123,0.588225 c -0.12621,0.04212 -0.21055,0.168142 -0.21055,0.378403 0,6.812509 11.6067,3.070382 11.6067,7.654104 0,1.850315 -1.85075,2.985249 -3.57489,2.985249 -2.14466,0 -4.07903,-0.88283 -5.88728,-1.850037 h -0.12595 c -0.37847,0 -1.47235,1.429697 -1.47235,1.766117 0,0.92514 4.62587,1.68218 5.46692,1.68218 3.15391,0 7.02319,-2.0604 7.02319,-5.59282 0,-4.70987 -7.35962,-3.659157 -10.47148,-4.878674 -0.79901,-0.294373 -1.80766,-1.513725 -2.35435,-2.144522 z m -36.128853,0.252517 c -0.883107,0 -1.177178,3.742622 -1.177178,4.499568 0,5.382717 3.448304,9.419501 8.957183,9.419501 1.303628,0 2.480948,-0.29393 2.480948,-1.93398 v -0.0839 l -0.12594,-0.12661 h -0.67286 c -5.382735,0.12616 -9.630061,-3.44803 -9.630061,-9.083071 0,-0.883094 0.167867,-1.808389 0.167867,-2.691483 z m 66.017623,0 c -0.88309,0 -1.17716,3.742622 -1.17716,4.499568 h -7.2e-4 c 0,5.382717 3.44829,9.419501 8.95717,9.419501 1.30363,0 2.48166,-0.29393 2.48166,-1.93398 v -0.0839 l -0.12663,-0.12661 h -0.67287 c -5.38272,0.12616 -9.63004,-3.44803 -9.63004,-9.083071 0,-0.883094 0.16857,-1.808389 0.16857,-2.691483 z m -29.8468,11.480079 c -0.54668,0 -1.4304,1.05157 -1.4304,1.59826 0,0.50463 2.81777,1.1352 3.32241,1.1352 h 2.98596 c 0.63079,0 3.40633,-0.88264 3.40633,-1.59754 -0.799,0 -1.59803,0.16786 -2.39703,0.16786 -2.10262,0 -3.99492,-1.30378 -5.88727,-1.30378 z m -9.72181,3.89854 c -0.88311,0 -4.07914,4.70971 -4.79404,5.59281 l -0.042,0.16858 c 0,1.00926 3.15408,1.17737 3.02794,5.2144 l -0.0427,1.55629 -0.084,0.042 c -0.67284,-0.67284 -3.02751,-4.16313 -3.57419,-4.16313 -0.63079,0 -1.38819,0.54628 -1.85076,0.8827 -3.23804,2.22878 -4.16313,6.2239 -4.16313,9.92452 0,4.96219 2.90152,13.91907 8.99914,13.91907 4.24729,0 6.98099,-3.78448 7.44356,-7.69535 0.29438,-2.52316 0.16857,-5.21481 0.16857,-7.78001 v -4.16313 c 0,-5.97146 0.54649,-8.91469 -4.03723,-12.95174 -0.33642,-0.29436 -0.5887,-0.54697 -1.05128,-0.54697 z m -0.084,0.84145 c 1.80827,0 4.4569,4.70965 4.4569,6.30765 v 17.03094 c 0,3.82678 -2.52268,8.2843 -6.76998,8.2843 -5.71914,0 -8.41091,-8.95695 -8.41091,-13.54068 0,-3.40625 0.75693,-6.43366 3.44829,-8.7886 0.46257,-0.37847 1.00944,-0.84145 1.64022,-0.84145 0.54668,0 3.32244,4.37369 4.3317,4.71012 h 0.084 0.084 l 0.12663,-0.12663 v -3.86867 c 0,-2.85957 -2.73345,-3.70012 -2.73345,-4.37296 l 0.042,-0.21054 c 0.46258,-0.46258 3.36439,-4.5835 3.7008,-4.5835 z m 0.16787,0.71484 -0.46234,0.29447 -0.84144,1.13521 v 0.16786 c 0,0.50463 3.15382,1.97654 3.15382,5.13047 v 13.58336 c 0,3.49036 -1.13542,8.62074 -5.50888,8.62074 -0.96721,0 -1.68187,-0.63091 -2.52291,-0.63091 -0.0841,0 -0.16831,0.0417 -0.29448,0.16787 1.13542,1.21951 2.43907,2.0186 4.12117,2.0186 4.20525,0 6.18175,-5.00431 6.18175,-8.57876 V 113.6129 c 0,-3.15394 -1.30354,-5.17244 -3.82669,-6.89659 z m -13.63172,1.67934 c -0.0533,0 -0.11631,0.003 -0.18992,0.003 h -1.89272 l -9.588075,0.0839 c -0.462572,0 -1.050838,0.0423 -1.261099,0.58894 -0.504635,0.84105 -2.943669,4.83561 -3.44829,5.71871 -0.04212,0.0841 -0.252421,0.46287 -0.294484,0.54697 0.04212,0.21026 0.336272,0.16787 0.420371,0.16787 1.682102,0 3.280436,-0.46234 5.004588,-0.46234 0.883094,0 2.439034,-0.0844 3.44829,0.16787 v 0.042 0.0847 c 0,0.042 -0.08451,0.25242 -0.12663,0.29447 -0.462585,0.63078 -2.438828,3.65823 -2.859364,4.28903 -0.29436,0.46257 -0.88341,1.17747 -0.88341,1.72414 0,0.21026 0.04212,0.25242 0.29447,0.29447 0.126217,0 1.177619,-0.0421 1.303781,0 3.322156,0.21028 5.172442,2.77522 5.172442,5.97122 0,0.54668 -0.504345,4.4576 -1.513601,4.4576 h -0.08465 c -0.126217,-0.0421 -1.051099,-0.50483 -1.135198,-0.58894 -1.850314,-0.799 -4.752085,-2.27041 -6.81266,-2.27041 -0.0841,0 -0.462255,-0.0844 -0.504305,0.12594 -0.420522,0.7149 -2.438827,3.91137 -2.85935,4.58422 -0.0841,0.16821 -0.379023,0.75653 -0.421086,0.88269 v 0.12594 c 0,0.25232 0.210825,0.33698 0.421086,0.42108 3.111881,0.58874 5.929113,1.68199 8.746633,3.15383 h 0.336437 c 0.798995,0 1.219339,-0.54648 1.808072,-1.13521 3.826772,-3.86883 7.738032,-8.78959 7.738032,-14.50873 0,-3.49036 -2.14465,-5.50832 -5.17244,-6.81195 -0.0421,0 -0.12663,-0.12663 -0.12663,-0.12663 l -0.042,-0.084 0.042,-0.084 4.71011,-7.27499 v -0.16857 c 0,-0.18924 -0.0708,-0.21268 -0.23046,-0.21268 z m 11.94953,0.59107 c -0.42052,0 -1.21932,1.21978 -1.47163,1.59825 v 0.16786 c 0.67283,0.7149 1.3454,1.43008 1.85004,2.27113 0.63078,1.05131 0.71493,5.80291 1.00931,6.01317 l -0.20984,0.12663 v 8.57878 c 0,2.4811 -1.80874,5.7187 -4.5842,5.7187 -2.73342,0 -3.40634,-3.44813 -3.40634,-5.5928 0,-4.33141 1.68208,-8.03181 6.56016,-8.03181 0,-0.46257 -1.303,-1.72407 -1.68147,-2.10254 -0.12622,-0.0421 -0.29484,-0.12663 -0.46304,-0.12663 -0.33642,0 -0.88272,0.25286 -1.21914,0.42107 -3.11189,1.47184 -4.45761,5.08814 -4.45761,8.36825 0,3.65856 1.59766,8.7886 6.01319,8.7886 5.59298,0 5.17244,-8.74673 5.17244,-12.48941 v -6.43426 c 0.0421,-2.5652 -0.12594,-4.83574 -2.14452,-6.68605 -0.29436,-0.29437 -0.50476,-0.58894 -0.96735,-0.58894 z m -21.475021,0.0846 h 0.588239 c 2.733408,0 5.257032,0.16794 8.032502,0.1259 l -0.29447,0.58894 -3.995272,6.13908 c -0.04198,0.0421 -0.252421,0.46286 -0.29447,0.54697 l -0.04198,0.084 c 0,0.12622 2.985722,1.34622 3.448292,1.80879 1.47184,1.30363 2.31309,2.90142 2.31309,4.91994 0,2.81752 -1.2192,5.42435 -2.56488,7.77929 -0.0421,0.042 -0.16857,0.12649 -0.16857,0.16857 -1.51389,2.22878 -3.027409,4.07877 -5.003871,6.01318 -0.336424,0.29437 -0.841196,0.67323 -1.303782,0.84144 -0.420522,-0.21026 -2.39748,-1.09352 -2.860065,-1.30378 -0.126217,-0.0421 -1.387357,-0.50492 -1.555569,-0.54697 -0.04212,-0.0421 -0.252421,-0.12581 -0.29447,-0.16786 l -3.700807,-0.96734 -0.167854,-0.16787 c 0,0 0.210357,-0.42082 0.29447,-0.54697 0.378473,-0.58873 2.060506,-3.32199 2.438979,-3.86866 0.126217,-0.25233 0.21011,-0.29447 0.420371,-0.29447 1.429778,0 4.163379,1.2613 5.424945,1.85004 0.378473,0.16821 1.975967,0.9677 2.312377,1.13591 0.04198,0.042 0.168487,0.042 0.210536,0.042 1.261581,0 2.22916,-4.33138 2.22916,-5.17244 0,-4.37346 -2.271058,-6.43446 -6.434258,-7.0232 0,-0.042 0.08382,-0.25242 0.125942,-0.29447 0.252311,-0.37847 1.346024,-2.10193 1.556285,-2.39631 0.630783,-0.9672 2.186476,-2.56563 2.186476,-3.5749 0,-0.50463 -0.714938,-0.42028 -1.009298,-0.46233 h -2.438954 c -1.808251,0 -3.532127,0.33644 -5.298342,0.33644 v -0.33644 l 2.859363,-4.71011 0.420357,-0.42037 c 0.04212,0 1.80865,-0.1259 2.565596,-0.1259 z m -1.976641,0.54626 -0.420371,0.16857 -0.88341,1.26111 v 0.21054 c 0,0.21026 0.04225,0.3784 0.252503,0.3784 1.009256,0 1.93411,-0.16858 2.901317,-0.16858 1.55594,0 3.070326,0.29448 4.584217,0.29448 h 0.125942 c 0.294374,0 1.597644,-0.1259 1.892024,-0.1259 0.042,-0.042 0.21044,-0.25242 0.2525,-0.29447 0.16821,-0.16821 0.75725,-1.09352 0.88341,-1.30378 v -0.042 -0.0839 c -0.042,-0.0421 -0.12649,-0.12591 -0.16858,-0.12591 -2.691362,0.0421 -5.298471,-0.16857 -7.989829,-0.16857 z m 1.850039,2.31309 c -0.504635,0.0421 -2.90162,0.21045 -3.448291,0.2525 -0.630797,0.16821 -1.177178,1.13533 -1.177178,1.76612 1.387729,0 2.817287,-0.21054 4.247065,-0.21054 0.210261,0 0.756711,0.042 0.798774,0.042 0.546685,0 3.070272,0.21036 3.574893,0.29447 v 0.042 0.0839 c 0,0.0421 -0.08451,0.25241 -0.12663,0.29446 -0.336423,0.54669 -1.933904,3.02823 -2.312376,3.57491 v 0.12594 c 0,0.50464 0.420384,0.37832 0.756807,0.42037 1.303616,0.29436 3.322169,1.17768 4.121169,2.3131 1.09336,1.51387 1.59825,2.81765 1.59825,4.75207 0,0.79899 -0.16857,1.55605 -0.16857,2.35504 v 0.042 c 0,0.0421 0.12649,0.12594 0.16857,0.12594 l 0.042,0.042 c 0.0421,0 0.084,-0.042 0.084,-0.042 0.042,0 0.12594,-0.0838 0.12594,-0.12594 0.54668,-1.55594 1.05128,-3.02808 1.05128,-4.66813 0,-3.74268 -2.39648,-5.46652 -5.76067,-6.34961 -0.168212,-0.0421 -0.168583,-0.16832 -0.168583,-0.29447 0,-0.0421 0.04198,-0.12663 0.04198,-0.12663 l 2.565593,-3.99457 v -0.16857 c 0,-0.16821 -0.0421,-0.29376 -0.29447,-0.29376 -1.850311,0.12616 -3.700447,-0.25251 -5.59281,-0.25251 z m 17.480463,3.11186 c -0.50464,0 -1.05129,0.37841 -1.38772,0.71484 -2.64931,2.35493 -3.27972,5.17252 -3.27972,8.57876 l 0.16787,0.12595 h 0.042 0.084 c 0.54667,-2.14468 1.43037,-4.33143 3.15452,-5.84532 0.46259,-0.33641 2.5649,-1.30362 2.5649,-1.72414 0,-0.29437 -1.05139,-1.85005 -1.34575,-1.85005 z m -15.966146,3.99456 c -0.0841,0 -0.420907,0.0427 -0.505006,0.0427 -0.378473,0.29437 -0.882709,0.79844 -0.882709,1.30306 0,0.58874 1.26147,0.63083 1.429682,0.67288 3.069831,1.17746 4.330999,3.78479 4.330999,6.85462 0,0.84105 0.0845,1.43025 -0.16787,2.1872 -0.21026,0.67283 -1.430065,3.74205 -2.271123,3.74205 -0.672833,0 -0.798541,-0.37833 -1.597536,-0.7568 -0.672846,-0.33643 -3.069914,-1.42942 -3.406323,-1.55557 -0.546684,-0.25233 -1.934468,-0.75681 -2.733463,-0.75681 -0.546684,0 -1.009311,0.84049 -1.009311,1.30307 0,0.12621 -3.44e-4,0.25242 0.167867,0.29447 0.672833,0.25231 3.742788,1.42977 4.415635,1.72415 1.009256,0.42052 2.229117,1.34566 3.280436,1.72414 h 0.08396 c 0.420523,0 0.967083,-0.75654 1.093231,-0.8827 2.228787,-2.64931 3.826697,-5.29878 3.826697,-8.87325 0,-3.4483 -2.27041,-7.02319 -6.055139,-7.02319 z m 19.330506,1.38771 c -3.15393,0 -5.46692,3.11191 -5.46692,6.18176 v 1.30376 c 0,2.01853 0.37863,5.00459 3.02794,5.00459 2.18672,0 3.70079,-2.60774 3.70079,-4.58421 v -7.44286 c 0,-0.50463 -0.92539,-0.46304 -1.26181,-0.46304 z m -0.12595,0.71555 c 0.21026,0 0.50467,-3.5e-4 0.67288,0.16786 0.12621,1.85032 0.16785,3.70054 0.16785,5.55085 0,1.80825 -0.79888,5.46691 -3.15382,5.46691 -2.22879,0 -2.43899,-2.73363 -2.43899,-4.37368 0,-3.06983 1.00941,-6.81194 4.75208,-6.81194 z m -26.311741,11.94242 c -0.588734,0 -1.135198,0.79906 -1.135198,1.34574 v 0.084 l 0.29447,0.29447 c 2.565196,0.71489 4.667284,1.59812 7.148381,2.69149 h 0.421073 c 0.04198,0 0.630384,-0.58841 0.882709,-0.84074 0,-0.0421 0.12663,-0.21036 0.12663,-0.29447 v -0.084 -0.0427 c 0,-0.0421 -0.12663,-0.1258 -0.12663,-0.16785 -1.808265,-1.09337 -5.677022,-2.98597 -7.611435,-2.98597 z"
       inkscape:label="Text" /><path
       id="path15"
       style="font-size:30.5522px;line-height:1.2;font-family:'DS Cathedral';-inkscape-font-specification:'DS Cathedral';font-variant-ligatures:no-common-ligatures;text-align:center;letter-spacing:0px;word-spacing:0px;text-anchor:middle;opacity:1;fill:#1a1a1a;stroke:#1a1a1a;stroke-width:0.412924;stroke-linecap:square;stroke-miterlimit:180;stroke-dasharray:none;stroke-opacity:1;paint-order:markers stroke fill"
       d="m 72.108629,72.497542 c -0.67284,0.672847 -3.995271,4.331205 -3.995271,4.919939 0,0.378473 0.714942,0.672971 1.00931,0.967344 1.303627,1.30363 1.724146,3.322211 1.724146,5.130476 0,3.364205 -0.462333,6.560322 -0.462333,9.924513 0,3.742678 0.546673,7.401026 3.448297,10.092386 h 0.462338 c 0.54667,-0.79901 3.869362,-4.41568 3.869362,-5.088513 0,-0.672847 -0.714937,-1.261223 -1.009311,-1.892006 -0.714882,-1.471841 -0.88341,-3.153999 -0.88341,-4.794052 0,-3.238029 0.29447,-6.518603 0.29447,-9.756646 0,-3.700628 -0.420247,-6.686085 -3.574187,-9.08307 -0.294366,-0.252324 -0.589044,-0.378321 -0.883411,-0.420371 z m 19.332635,0.420371 -0.126631,0.04198 c -3.195993,1.976462 -6.055673,4.163475 -9.58809,5.719415 -0.462572,0.210261 -1.471635,0.294415 -1.471635,1.009311 0,0.672833 0.883411,0.840976 0.883411,2.102542 v 0.462338 l -0.126631,0.125942 c -0.925157,0 -2.186475,-0.16762 -2.186475,1.093947 0,2.607259 2.438979,-0.294346 2.438979,2.060589 0,8.032026 -0.29447,15.895663 -0.29447,23.843593 1.8503,0 3.953117,-0.63058 5.761382,-1.13521 0.29436,-2.85957 0.336437,-5.67724 0.336437,-8.536805 0,-4.751933 -0.21044,-9.546261 0.08396,-14.298195 l 0.420357,-0.29447 c 0.967207,0 1.514277,0.714841 2.229159,0.714841 0.630797,0 1.766119,-2.270616 1.766119,-2.85935 l -0.420371,-0.504304 h -3.868661 l -0.12663,-0.210537 c -0.126217,-1.135418 -0.167868,-2.144302 -0.167868,-3.27972 0,-0.336424 -0.210164,-2.018622 0.29447,-2.018622 1.009256,0 3.279804,3.448304 4.961906,3.448304 0.630783,0 4.079198,-3.196255 4.079198,-3.658841 v -0.08396 c -0.336424,-0.462572 -0.841196,-0.54707 -1.303782,-0.841444 -0.630783,-0.420522 -3.111619,-2.901316 -3.57419,-2.901316 z m -19.29067,0.29447 c 0.504631,0.126217 0.883342,0.546272 1.261814,0.882695 2.186736,2.060575 2.606846,4.458014 2.606846,7.359634 0,3.532416 -0.336437,7.064984 -0.336437,10.597387 0,1.051319 1.1e-4,2.144482 0.29447,3.195801 0.252324,0.967206 1.472351,2.52294 1.472351,3.195773 0,0.378473 -1.009229,1.808087 -1.387702,1.808087 -0.378472,0 -0.631278,-0.420468 -0.79949,-0.714842 -1.471841,-2.354935 -1.555569,-4.625593 -1.555569,-7.316951 0,-3.027782 0.29447,-5.887435 0.29447,-8.915203 0,-2.270836 -2.47e-4,-4.96236 -1.598247,-6.81266 -0.378473,-0.462586 -1.346023,-1.176848 -1.556286,-1.68147 0.04205,-0.546684 0.841203,-1.261828 1.30378,-1.598251 z m -51.826849,0.125942 -3.448294,5.466912 c 0,0.967207 2.733456,1.177757 2.733456,6.055853 0,2.691359 -0.588942,5.3824 -0.588942,8.073759 0,5.214505 3.658316,11.480091 9.419507,11.480091 1.429785,0 2.313139,-4.456894 3.3224,-4.456894 0.294366,0 1.429779,1.723534 1.724146,2.017904 2.01852,2.01852 5.046591,2.5656 7.780003,2.5656 h 0.924666 l 0.294471,-0.1266 c 1.387733,-1.97647 2.775557,-3.99432 3.742765,-6.181042 H 42.06479 l -0.1259,-0.252517 c 0.168209,-0.546671 1.051205,-1.513974 1.429676,-2.018609 2.69136,-3.826777 6.307648,-9.755999 6.307648,-14.549982 0,-3.700615 -2.270662,-6.434326 -5.59281,-7.780005 -0.714893,0 -3.448294,5.466857 -3.448294,6.181753 0,0.126218 1.219414,1.00905 1.429676,1.135212 1.724152,1.471828 2.438986,3.658579 2.438986,5.845316 0,3.238043 -2.18651,8.452714 -4.583502,10.597388 -2.102627,0 -2.145226,-4.457587 -2.145226,-5.845316 0,-3.195994 0.757516,-6.392097 0.757516,-9.588077 0,-4.331411 -2.060504,-6.728011 -5.887281,-8.452176 h -0.08465 -0.08393 c -0.168209,0.0841 -3.237773,4.961671 -3.574192,5.424243 0,1.219517 2.733456,1.261801 2.733456,6.434257 0,3.027781 -0.757515,5.845467 -0.757515,8.873235 0,1.00927 0.168575,2.060644 0.168575,3.0699 0,0.33641 0.08417,0.504291 -0.378403,0.504291 -3.826777,0 -4.919937,-3.952553 -4.919937,-7.064448 0,-3.15393 0.756803,-6.139676 0.756803,-9.293606 0,-3.153944 -1.38819,-5.382979 -3.911339,-7.107131 -0.546682,-0.378473 -1.471675,-1.009311 -2.144515,-1.009311 z m 71.117519,0.29447 0.125942,0.04198 c 1.303629,1.177468 2.606998,2.144481 3.910627,3.195787 -0.04212,0.378473 -0.756904,0.925487 -1.051278,1.219847 l -0.20982,0.04198 c -1.30363,0 -3.238153,-2.186875 -4.079211,-3.02792 0,-0.714895 0.504786,-1.471648 1.303781,-1.471648 z m 84.580676,0.125942 -2.31309,2.018622 c 0,1.009256 5.00464,3.44829 6.0139,3.44829 h 0.12594 c 0.46257,-0.462585 1.72415,-1.34561 1.72415,-2.102555 v -0.04198 c -1.85031,-0.841044 -3.61658,-1.934661 -5.13047,-3.32239 z m -25.45892,0.04267 c -1.72414,0.967207 -3.49009,1.891786 -5.29834,2.69078 l -0.21054,0.29447 v 3.15382 l -0.20982,0.210536 h -1.85005 l -0.16857,0.21055 c -0.0421,0.168198 -0.12594,0.462063 -0.12594,0.588225 0,0.294373 0.0838,0.67297 0.12594,0.967344 l 0.29447,0.168569 c 0.50462,0.0841 1.05157,0.125942 1.59825,0.125942 l 0.25179,0.29447 v 14.171593 c 0,3.15393 1.93493,5.508674 4.58421,6.980514 0.33643,0.21026 0.92513,0.58894 1.38772,0.58894 h 0.042 l 0.16785,-0.1259 c 1.05131,-1.80826 2.18663,-3.61661 3.15384,-5.466913 -0.50462,-0.462585 -1.17747,-0.673342 -1.72415,-1.135914 -1.51388,-1.177467 -1.72416,-3.321508 -1.72416,-5.129773 v -9.293606 l 0.29447,-0.29447 0.37841,-0.04198 c 0.88309,0 1.42979,0.630191 2.06059,0.630191 0.50462,0 1.68218,-2.270877 1.68218,-2.733449 0,-0.588734 -3.57415,-0.588224 -4.28903,-0.588224 l -0.12663,-0.126631 c -0.042,-0.462585 -0.16787,-0.96711 -0.16787,-1.429681 0,-1.640053 0.0837,-3.06935 -0.12663,-4.709403 z M 20.828044,74.053194 c 2.85957,0 5.088511,4.751851 5.088511,7.274998 0,3.069831 -0.756803,6.097874 -0.756803,9.167705 0,4.920146 1.387504,7.191106 6.307648,8.200376 l 0.04197,0.20982 c 0,0.798995 -0.756489,2.060587 -1.597538,2.060587 -3.490358,0 -6.686518,-3.195867 -7.149096,-6.602122 -0.126163,-0.967206 -0.168574,-1.976077 -0.168574,-2.943283 0,-2.85957 0.630907,-5.635262 0.630907,-8.494832 0,-2.228787 -0.462431,-4.4158 -2.480951,-5.719416 -0.33642,-0.210274 -1.429677,-0.67264 -1.429677,-1.135211 0,-0.336424 0.924944,-1.640232 1.135206,-1.976656 z m 11.943136,0.168583 c 0.504629,0 0.925307,0.294566 1.30378,0.58894 2.523149,1.808251 3.99456,3.826405 3.99456,7.064448 0,2.985732 -0.546283,5.929484 -0.882702,8.915203 -0.210262,1.934426 0.210307,6.896428 2.733457,7.316951 2.565201,-2.228773 5.130478,-8.326331 5.130478,-11.732586 0,-3.742664 -3.700801,-6.560074 -3.700801,-6.938547 0,-0.546684 0.630854,-2.229159 1.345746,-2.229159 0.50463,0 0.882716,0.37912 1.219137,0.715543 2.228782,2.060575 3.322398,4.625703 3.322398,7.611435 0,4.121137 -2.859555,8.073553 -5.172443,11.269546 -0.0841,0.0841 -1.093784,1.640205 -1.177883,1.640205 0.336419,0.546684 2.397227,0.546987 2.985962,0.546987 0.336419,0 0.714854,8.2e-5 1.051274,-0.04198 0.04205,0.126217 0.12652,0.167771 0.168575,0.209821 -0.04205,0.672846 -0.799149,1.472116 -1.30378,1.934686 -0.630787,0.12622 -1.177291,0.16787 -1.808079,0.16787 -5.214509,0 -7.4016,-3.532293 -7.4016,-8.326262 0,-3.238043 0.79877,-6.392015 0.79877,-9.630044 0,-1.471841 -0.294069,-3.280051 -1.177171,-4.499582 -0.336421,-0.588734 -2.859354,-2.186489 -2.859354,-2.522913 0,-0.462571 0.925045,-2.060575 1.429676,-2.060575 z m 11.438125,0.125942 c 0.630787,0 1.261569,0.504937 1.724148,0.88341 2.312887,1.724152 3.153824,3.784507 3.153824,6.644077 0,0.672847 -0.504245,4.877972 -1.219137,4.877972 0,-3.448304 -0.715161,-6.980803 -3.658835,-9.251639 -0.378471,-0.294374 -1.30378,-0.588349 -1.30378,-1.219132 v -0.21055 c 0.210263,-0.546684 0.588888,-1.724138 1.30378,-1.724138 z m 132.065135,0.12663 c 0.29438,0 0.37868,0.125529 0.58895,0.293754 0.799,0.672847 3.32197,2.018911 3.86866,2.565596 v 0.08396 c 0,0.336423 -0.58905,1.009586 -0.88341,1.219848 -0.96721,0 -5.13048,-1.766257 -5.13048,-2.733464 v -0.12663 c 0.29437,-0.29436 1.13576,-1.303065 1.55628,-1.303064 z m -26.29964,0.167854 0.16785,0.125942 c 0.0841,0.798994 0.12594,1.598113 0.12594,2.355059 0,1.30363 3.7e-4,2.355375 0.16858,3.574906 h 3.86867 c 0.0421,0.126218 0.12663,0.336176 0.12663,0.462324 0,0.462586 -0.3787,1.513616 -0.92538,1.513616 -0.63077,0 -1.30356,-0.504387 -2.10254,-0.462338 l -0.96735,0.04198 v 11.690632 c 0,3.448304 1.17769,2.986063 2.98597,5.004575 0,0.504635 -0.6731,2.017901 -1.26183,2.017901 -0.37846,0 -0.96736,-0.42046 -1.30378,-0.71484 -2.64928,-1.892359 -2.73345,-4.457115 -2.73345,-7.442847 V 75.777456 c 0.63078,-0.462572 1.17791,-0.798789 1.85075,-1.135212 z m -60.552159,0.42037 0.167868,0.04198 c 1.219517,1.219517 2.691648,2.145018 3.995277,3.280437 l 0.167854,0.378403 c -0.04212,0.462572 -1.05103,1.051265 -1.513602,1.051265 -1.00927,0 -4.121013,-2.733133 -4.541535,-3.574191 0,-0.504621 1.261567,-1.177881 1.724138,-1.177881 z m -19.03816,0.588941 c 0.462577,0 1.177275,0.798788 1.471643,1.135211 1.513895,1.808251 1.59825,3.995016 1.59825,6.181754 0,3.195979 -0.336436,6.350116 -0.336436,9.546109 0,2.354936 0.126052,4.96192 1.429681,7.022481 0.29436,0.462572 0.925377,0.798881 0.925377,1.429681 l -0.04198,0.29447 c -0.210261,0.29436 -1.093258,1.59825 -1.429681,1.59825 l -0.16857,-0.042 C 71.435771,100.88305 70.8468,97.056396 70.8468,94.154777 c 0,-3.532417 0.463045,-6.981051 0.463045,-10.513468 0,-2.523147 -0.504831,-4.331522 -2.313089,-6.139786 l -0.04197,-0.125942 c 0,-0.462572 0.967098,-1.724139 1.429676,-1.724139 z m 76.982749,0.546973 c 0.21021,0 0.33644,0.08355 0.33644,0.293768 v 18.461312 c 0,1.471842 0.33622,2.985402 1.1352,4.289032 0.33641,0.588734 3.02793,2.229351 3.02793,2.481661 0,0.54668 -0.5463,1.80808 -1.21913,1.80808 -0.46257,0 -0.84137,-0.29457 -1.21985,-0.58894 -3.06982,-1.97647 -3.99456,-4.583317 -3.99456,-8.115719 V 81.959168 c -0.50463,-0.0841 -2.18719,-0.04212 -2.18719,-0.630908 0,-0.630797 0.33673,-0.714841 0.88341,-0.714841 0.33642,0 1.34575,0.168281 1.34575,-0.378403 0,-1.934413 -0.67318,-4.036529 1.892,-4.036529 z M 19.019965,76.913328 c 0.462579,0 1.261831,0.588335 1.598252,0.882708 1.513889,1.303616 2.144514,3.112033 2.144514,5.088509 0,2.985718 -0.714838,5.84555 -0.714838,8.831269 0,4.289362 2.144642,8.409986 6.560154,9.545406 0.294367,0.0841 1.177172,0.0844 1.177172,0.54697 0,0.799 -0.883098,2.18649 -1.724148,2.18649 -1.640047,0 -2.985403,-0.84105 -4.28903,-1.72415 -3.153937,-2.14469 -4.163134,-6.265409 -4.163134,-9.839875 0,-2.691359 0.58823,-5.299183 0.58823,-7.990541 0,-2.312886 -0.882696,-4.037038 -2.606848,-5.50888 V 78.63748 c 0.252315,-0.378473 0.882995,-1.724152 1.429676,-1.724152 z m 11.732597,0.167868 c 0.967208,0 1.345778,0.378514 2.018618,1.009311 1.724152,1.51389 2.018618,3.490711 2.018618,5.677448 0,3.15393 -0.756804,6.181643 -0.756804,9.335574 0,6.391973 3.32207,8.578501 9.335576,8.704661 v 0.16786 0.12661 c -0.630787,1.51389 -1.093322,2.01862 -2.775421,2.01862 -3.994987,0 -7.06497,-1.89282 -8.536807,-5.635489 -0.210263,-0.420522 -0.588942,-1.84997 -0.588942,-2.228442 0,-3.742678 0.672957,-7.443664 0.630907,-11.186328 l -0.04197,-1.97594 c -0.630784,-1.555954 -0.967492,-2.733958 -2.271119,-3.869376 l -0.04197,-0.294471 c 0,-0.672846 0.630835,-1.303368 1.009308,-1.850052 z m 55.389657,0 0.378404,0.168569 v 5.718714 l 0.210536,0.210536 h 3.868661 c 0.04198,0.126217 0.12663,0.294209 0.12663,0.420371 0,0.462571 -0.21066,1.513602 -0.841443,1.513602 -1.009256,0 -1.934647,-0.588225 -2.985967,-0.588225 -0.210247,0 -0.294387,0.04171 -0.336437,0.167854 -0.336409,2.144674 -0.08396,5.130861 -0.08396,7.359634 -0.04212,5.214519 -0.08369,10.302899 -0.209834,15.475359 -0.29436,0.50463 -1.135501,0.58823 -1.682185,0.58823 -0.126218,0 -0.294471,3.5e-4 -0.294471,-0.16786 V 78.259076 c 0,-0.294374 1.47158,-1.17788 1.850053,-1.17788 z m -2.859364,1.429668 h 0.29447 c 0.126217,0 0.294484,0.04239 0.294484,0.168583 v 17.157545 c 0,4.163188 -0.04239,8.199758 -0.168583,12.278848 l -0.125942,0.25251 c -0.546671,0.1682 -0.967454,0.29447 -1.598238,0.29447 -0.168225,0 -0.252517,-0.0842 -0.252517,-0.29447 0,-7.90588 0.126631,-15.727806 0.126631,-23.675733 0,-0.168212 -0.168308,-0.294209 -0.294471,-0.420371 -0.546684,0 -2.144522,0.0841 -2.144522,-0.714827 0,-0.462586 0.504318,-0.462338 0.840741,-0.462338 0.378473,0 1.38799,0.210069 1.598252,-0.252503 0,-1.219531 -0.756808,-2.144647 -0.756808,-3.111867 l 0.04198,-0.210536 z m -23.39974,2.144522 c -6.05556,0 -9.419507,8.579014 -9.419507,13.625321 0,1.009256 -0.04231,2.018746 0.1259,2.985953 0.672841,3.23804 3.279901,7.14838 6.980521,7.14838 6.518137,0 9.924518,-8.452161 9.924518,-13.961041 0,-4.41551 -2.607183,-9.798613 -7.611428,-9.798613 z m 117.400645,0.126631 -0.29447,0.125941 c -0.54669,0.630784 -3.5742,4.373517 -3.5742,4.794039 0,0.630783 0.50458,1.009696 0.71485,1.514317 0.46257,1.009256 0.46233,2.144303 0.46233,3.279721 0,1.640053 -0.16786,3.237933 -0.16786,4.877972 h -7.2e-4 c 0,3.111881 0.54728,6.392303 3.15454,8.452873 h 0.084 0.042 c 1.47183,-1.30363 2.7336,-3.44864 4.03723,-5.004583 0,-1.093368 -1.30377,-2.270368 -1.30377,-3.321674 v -2.355059 c 0,-3.364205 0.84091,-8.200416 -1.30377,-10.933824 -0.46257,-0.504635 -1.13517,-1.387633 -1.85005,-1.429682 z m -77.17695,0.04198 c -0.588732,0 -2.144273,0.925391 -2.606845,1.261814 -4.247299,2.90162 -7.274998,7.190872 -7.274998,12.447427 0,5.971452 3.868606,9.588082 9.755944,9.588082 0.630799,0 1.219259,-1e-4 1.850049,-0.29447 0.46258,-1.09337 2.39702,-4.877936 2.39702,-5.929242 v -0.08465 c -1.05131,0.462571 -2.22824,0.58894 -3.36366,0.58894 -1.892348,0 -3.153887,-0.462324 -4.499566,-1.850039 -0.210261,-0.210275 -0.715543,-0.799587 -0.715543,-1.09396 v -0.04198 c 0.336423,-0.756946 4.289334,-4.499142 5.172439,-5.045826 0.42052,-0.294374 3.6167,-2.481235 3.7008,-2.691496 v -0.08396 -0.08465 c -1.8503,-1.976462 -3.11201,-4.331109 -4.41564,-6.686044 z m 66.01765,0 c -0.58873,0 -2.14498,0.925391 -2.60756,1.261814 -4.2473,2.90162 -7.275,7.190872 -7.275,12.447427 0,5.971452 3.86931,9.588082 9.75666,9.588082 0.63078,0 1.21926,-1e-4 1.85004,-0.29447 0.46257,-1.09337 2.39703,-4.877936 2.39703,-5.929242 v -0.08465 c -1.05131,0.462571 -2.22896,0.58894 -3.36438,0.58894 -1.89236,0 -3.15388,-0.462324 -4.49956,-1.850039 -0.21026,-0.210275 -0.71484,-0.799587 -0.71484,-1.09396 v -0.04198 c 0.33641,-0.756946 4.28933,-4.499142 5.17244,-5.045826 0.42052,-0.294374 3.61671,-2.481235 3.70081,-2.691496 v -0.08396 -0.08465 c -1.85032,-1.976462 -3.11201,-4.331109 -4.41564,-6.686044 z m -55.60022,0.125942 c -0.67283,0.546684 -4.16313,4.079321 -4.16313,4.710105 0,0.546684 1.42968,1.303616 1.42968,3.448304 v 8.452864 c 0,2.481098 1.34628,4.877608 3.15454,6.433548 h 0.084 0.084 c 0.54667,-0.54668 3.99525,-4.751748 3.99525,-5.256383 v -0.04198 c -0.63078,-1.135405 -1.59825,-2.397081 -1.59825,-3.742761 v -3.406323 c 0,-0.336423 0.29447,-3.700449 0.29447,-3.868661 0.12622,-0.462585 0.37816,-0.462338 0.84074,-0.462338 2.73343,0 3.44831,1.513465 3.44831,3.994562 0,4.541673 -0.42024,8.242246 2.60756,12.069034 0.21026,0.29436 0.33637,0.58894 0.71484,0.58894 0.37847,0 4.12116,-4.793802 4.12116,-5.256373 v -0.08465 c -0.9672,-1.177468 -1.72415,-3.027561 -1.72415,-4.583502 0,-3.826776 0.92519,-9.924183 -3.11185,-12.15297 -0.96721,-0.504621 -1.97661,-0.841443 -3.02793,-0.841443 -0.54667,0 -2.397,4.415648 -3.78473,4.415648 h -0.084 l -0.12663,-0.125942 c -0.33644,-1.093369 -1.68146,-4.289748 -3.06919,-4.289748 z m 26.42627,0 c -4.70987,0 -9.67202,3.701138 -9.67202,8.705382 0,7.905864 11.64796,3.700215 11.64796,8.115712 0,1.724152 -2.06056,2.229157 -3.4483,2.229157 -2.0185,0 -3.86865,-0.925513 -5.5928,-1.89272 -0.21028,0 -0.42075,-0.0417 -0.58896,0.168583 -0.42052,0.504621 -3.57419,4.583517 -3.57419,4.919937 0,0.799 5.00427,1.38771 5.84532,1.38771 5.21449,0 10.34489,-4.877786 10.34489,-10.134341 0,-7.527405 -11.60671,-3.448772 -11.60671,-7.696071 0,-1.55594 1.76645,-1.933972 2.98597,-1.933972 2.35492,0 4.12096,1.724138 5.25638,1.724138 0.16821,0 3.02793,-3.995016 3.36436,-4.457601 v -0.04198 -0.08465 c -0.54669,-0.672833 -4.07881,-1.009311 -4.9619,-1.009311 z m 50.98753,0 c -0.67284,0.546684 -4.16313,4.079321 -4.16313,4.710105 0,0.546684 1.42969,1.303616 1.42969,3.448304 v 8.452864 c 0,2.481098 1.34555,4.877598 3.15382,6.433548 h 0.084 0.0846 c 0.54667,-0.54668 3.99456,-4.751748 3.99456,-5.256383 v -0.04198 c -0.6308,-1.135405 -1.59754,-2.397081 -1.59754,-3.742761 v -3.406323 c 0,-0.336423 0.29376,-3.700449 0.29376,-3.868661 0.12608,-0.462585 0.37888,-0.462338 0.84147,-0.462338 2.73341,0 3.44829,1.513465 3.44829,3.994562 0,4.541673 -0.42095,8.242246 2.60683,12.069034 0.21026,0.29436 0.33637,0.58894 0.71484,0.58894 0.37846,0 4.12118,-4.793802 4.12118,-5.256373 v -0.08465 c -0.96721,-1.177468 -1.72415,-3.027561 -1.72415,-4.583502 0,-3.826776 0.92517,-9.924183 -3.11187,-12.15297 -0.96721,-0.504621 -1.97591,-0.841443 -3.02722,-0.841443 -0.54668,0 -2.397,4.415648 -3.78472,4.415648 h -0.0846 l -0.12595,-0.125942 c -0.3364,-1.093369 -1.68215,-4.289748 -3.06988,-4.289748 z m -128.180822,0.12663 c 4.667827,0 7.316957,5.21434 7.316957,9.37754 0,1.808251 -0.420835,3.532224 -0.883412,5.256376 l -0.29376,0.252504 -0.126603,-0.125942 c 0,-0.672847 0.126603,-1.387743 0.126603,-2.060589 0,-3.994989 -2.018901,-9.251984 -6.013888,-10.807924 -1.135419,-0.462572 -2.312877,-0.462338 -3.448295,-0.462338 0,-0.756945 2.691611,-1.429668 3.322398,-1.429668 z m 39.761369,0.29447 h 0.08396 0.04198 c 0.336437,0.336424 2.859663,4.583544 3.742773,5.592813 0.12608,0.168212 0.29447,0.251898 0.29447,0.546258 0,0.378473 -1.00924,1.177881 -1.38771,1.177881 h -0.042 c -0.799,-0.33641 -4.163134,-5.424712 -4.163134,-6.223707 0,-0.630797 0.967096,-0.882984 1.429682,-1.093245 z m 37.725673,0 c 0.54667,0 3.82742,0.20978 3.82742,0.924662 0,0.462585 -0.67334,1.387715 -1.13592,1.387715 h -0.33643 c -2.52314,-1.093369 -4.16329,-1.051278 -6.85463,-1.051278 v -0.252503 c 1.64005,-0.841045 2.69131,-1.008596 4.49956,-1.008596 z m 28.29125,0 h 0.0846 0.042 c 0.33642,0.336424 2.85895,4.583544 3.74206,5.592813 0.12621,0.168212 0.29448,0.251898 0.29448,0.546258 0,0.378473 -1.00924,1.177881 -1.38772,1.177881 h -0.042 c -0.79899,-0.33641 -4.16313,-5.424712 -4.16313,-6.223707 0,-0.630797 0.96709,-0.882984 1.42966,-1.093245 z m -47.35716,0.167868 c 1.05132,0 2.10224,0.71513 2.9433,1.261814 2.90162,2.018512 2.14495,8.368284 2.27111,11.438116 0.0421,1.051319 0.25227,2.186613 0.71484,3.153833 0.16821,0.378459 0.71484,0.841196 0.71484,1.303768 0,0.630783 -0.79924,1.261566 -1.26182,1.724152 h -0.084 c -0.79899,0 -1.80852,-2.355087 -1.93468,-3.02792 -0.46258,-3.027781 -0.0418,-6.181987 -0.42038,-9.167719 -0.58873,-3.532403 -1.68175,-3.069253 -4.28903,-4.414932 -0.12621,-0.04212 -0.16857,-0.126218 -0.16857,-0.294471 0,-0.54667 0.88354,-1.976641 1.51432,-1.976641 z m 77.4131,0 c 1.0513,0 2.10295,0.71513 2.944,1.261814 2.90163,2.018512 2.14419,8.368284 2.27041,11.438116 0.0421,1.051319 0.25225,2.186613 0.71484,3.153833 0.16819,0.378459 0.71482,0.841196 0.71482,1.303768 0,0.630783 -0.79852,1.261566 -1.26109,1.724152 h -0.0847 c -0.799,0 -1.80777,-2.355087 -1.93399,-3.02792 -0.46264,-3.027781 -0.0418,-6.181987 -0.42036,-9.167719 -0.58873,-3.532403 -1.68249,-3.069253 -4.28975,-4.414932 -0.12607,-0.04212 -0.16786,-0.126218 -0.16786,-0.294471 0,-0.54667 0.88282,-1.976641 1.51361,-1.976641 z m -18.09786,0.08396 h 0.21055 c 1.80824,1.640039 2.31309,3.406351 2.31309,5.80335 0,2.228773 -0.29448,4.457972 -0.29448,6.686759 0,1.682089 0.33657,3.02719 1.30378,4.414919 -0.21026,0.714896 -0.8412,1.30407 -1.30378,1.850755 -1.64004,0 -2.14452,-4.625703 -2.14452,-5.88727 0,-2.144688 0.16786,-4.121728 0.16786,-6.266403 0,-2.523146 -0.25184,-2.901234 -1.59753,-5.003858 0.042,-0.504635 0.79835,-1.598252 1.34503,-1.598252 z m -66.96935,0.04198 c 1.76621,0 2.73347,3.827382 2.73347,5.215111 0,2.396998 -0.29447,4.836033 -0.29447,7.233031 0,2.270836 1.30376,4.373145 1.30376,4.625455 0,0.546684 -0.79914,1.597826 -1.30376,1.808086 -4.70989,-3.700615 0.67299,-12.48927 -3.86868,-17.030929 v -0.29447 c 0.46259,-0.546684 0.92506,-1.051663 1.42968,-1.556284 z m 77.4138,0 c 1.76621,0 2.73347,3.827382 2.73347,5.215111 0,2.396998 -0.29447,4.836033 -0.29447,7.233031 0,2.270836 1.30378,4.373145 1.30378,4.625455 0,0.546684 -0.79915,1.597826 -1.30378,1.808086 -4.70987,-3.700615 0.67301,-12.48927 -3.86866,-17.030929 v -0.29447 c 0.46257,-0.546684 0.92503,-1.051663 1.42966,-1.556284 z m -90.564677,1.135916 c 0.54667,0 3.953307,5.803019 4.289737,6.30764 -1.00926,1.135418 -6.3499,5.13053 -6.560161,6.139786 0,2.228787 3.911082,3.74276 5.761381,3.74276 0.79901,0 1.64,-0.210536 2.43899,-0.210536 -0.0421,1.135418 -0.67328,2.229157 -1.85075,2.229157 -5.76119,0 -9.251639,-3.154383 -9.251639,-9.083771 0,-3.238042 1.514427,-6.055604 3.869363,-8.242342 0.294373,-0.29436 0.924606,-0.882694 1.303079,-0.882694 z m 66.017637,0 c 0.54667,0 3.95261,5.803019 4.28903,6.30764 -1.00926,1.135418 -6.3499,5.13053 -6.56016,6.139786 0,2.228787 3.91107,3.74276 5.76138,3.74276 0.799,0 1.63999,-0.210536 2.439,-0.210536 -0.0421,1.135418 -0.67259,2.229157 -1.85005,2.229157 -5.76119,0 -9.25164,-3.154383 -9.25164,-9.083771 0,-3.238042 1.51371,-6.055604 3.86866,-8.242342 0.29436,-0.29436 0.92531,-0.882694 1.30378,-0.882694 z m -105.946871,0.29447 c 5.214509,0 7.905899,6.265632 7.905899,10.765255 0,2.901619 -0.967264,8.158392 -4.794041,8.158392 -5.55093,0 -7.947865,-6.812974 -7.947865,-11.480796 0,-3.027781 1.093334,-7.442851 4.836007,-7.442851 z m 77.571691,0 c 0.71488,0 4.45761,0.378004 4.45761,1.261098 0,0.462586 -0.67317,1.598252 -1.21985,1.598252 h -0.084 c -1.64004,-0.798995 -3.19552,-1.598252 -5.04584,-1.598252 -1.55594,0 -3.40632,0.715282 -3.40632,2.565596 0,4.583722 11.64795,0.04198 11.64795,7.947872 -0.92514,-0.126217 -0.42052,-1.766408 -3.44829,-2.313092 -3.19598,-0.672847 -9.46147,-0.210495 -9.46147,-4.710119 0,-3.490353 3.61648,-4.751355 6.56015,-4.751355 z M 175.433,83.93596 h 0.29447 c 1.59801,1.598004 1.59825,2.312845 1.59825,4.499582 0,2.228773 -0.16857,4.457258 -0.16857,6.686044 0,3.700615 1.85076,5.172924 1.85076,5.971914 0,0.46258 -0.96711,1.72415 -1.42968,1.72415 -0.33643,0 -0.54663,-0.37868 -0.71484,-0.58894 -1.80821,-2.14468 -1.89273,-4.70952 -1.89273,-7.400878 0,-1.808265 0.16859,-3.448827 0.16859,-5.257092 0,-1.345679 -0.37853,-2.607259 -1.00931,-3.784727 0.21026,-0.672846 0.84048,-1.303368 1.30306,-1.850053 z m -66.92738,0.125942 c 1.80827,0 2.01862,4.205429 2.01862,5.42496 0,2.649295 -0.46273,6.980624 0.42037,9.335559 0.21027,0.672847 1.47236,1.892309 1.47236,2.438989 0,0.46258 -0.8412,1.72415 -1.30379,1.72415 -1.51389,0 -2.85935,-4.625711 -2.85935,-5.887277 v -8.410196 c 0,-1.219517 -1.17788,-2.523381 -1.17788,-2.985966 0,-0.504622 0.92531,-1.219779 1.30379,-1.598252 z m 77.41382,0 c 1.80825,0 2.0186,4.205429 2.0186,5.42496 0,2.649295 -0.46273,6.980624 0.42038,9.335559 0.21026,0.672847 1.47164,1.892309 1.47164,2.438989 0,0.46258 -0.84121,1.72415 -1.30378,1.72415 -1.51389,0 -2.85935,-4.625711 -2.85935,-5.887277 v -8.410196 c 0,-1.219517 -1.17718,-2.523381 -1.17718,-2.985966 0,-0.504622 0.9246,-1.219779 1.30307,-1.598252 z m -69.67577,0.294484 c 2.69136,0 4.4576,2.312762 4.4576,4.877959 0,2.901633 -0.37862,5.887778 0.42038,8.747348 0.21026,0.756946 1.85005,2.859367 1.85005,3.195787 0,0.54668 -0.9249,1.80808 -1.51363,1.80808 -0.46257,0 -0.54653,-0.29386 -0.7568,-0.58823 -1.68208,-2.18673 -2.06057,-4.836131 -2.06057,-7.52749 0,-3.826777 0.88297,-7.990114 -4.41565,-8.200375 l -0.12594,-0.29447 v -0.125942 l 1.85004,-1.850755 z m 77.4131,0 c 2.69137,0 4.4576,2.312762 4.4576,4.877959 0,2.901633 -0.37792,5.887778 0.42108,8.747348 0.21026,0.756946 1.85003,2.859367 1.85003,3.195787 0,0.54668 -0.92486,1.80808 -1.5136,1.80808 -0.46258,0 -0.54726,-0.29386 -0.75752,-0.58823 -1.6821,-2.18673 -2.06059,-4.836131 -2.06059,-7.52749 0,-3.826777 0.8837,-7.990114 -4.41492,-8.200375 l -0.12663,-0.29447 v -0.125942 l 1.85077,-1.850755 z m -97.586473,0.16857 c -1.513891,1.682102 -2.145224,3.700284 -2.145224,6.01317 v 1.556284 c 0,0.336423 0.336905,2.18649 0.799476,2.18649 0.04212,0 4.583516,-4.204947 4.919925,-4.625469 -0.546684,-0.672846 -3.0699,-4.920214 -3.406309,-5.130475 h -0.08396 z m 66.016933,0 c -1.5139,1.682102 -2.14452,3.700284 -2.14452,6.01317 v 1.556284 c 0,0.336423 0.33617,2.18649 0.79876,2.18649 0.0421,0 4.58424,-4.204947 4.92067,-4.625469 -0.54667,-0.672846 -3.06993,-4.920214 -3.40635,-5.130475 h -0.0847 z M 56.476786,84.650898 c -1.850309,0 -2.31309,2.228966 -2.31309,3.700793 0,3.195994 3.154368,12.069039 7.023198,12.069039 2.228782,0 2.438986,-2.564979 2.438986,-4.247067 0,-3.364205 -3.070001,-11.522765 -7.149094,-11.522765 z m 0.126602,0.462337 c 3.406252,0 6.475511,7.779688 6.475511,10.681308 0,1.345693 0.168389,4.037244 -1.808079,4.037244 -3.658566,0 -6.518188,-8.578297 -6.518188,-11.564016 0,-1.219531 0.210709,-3.154536 1.850756,-3.154536 z m 39.550843,0.252504 h 0.08396 c 0.29436,0.29436 2.691483,4.121522 2.691483,4.289733 -0.462572,0.546685 -3.532692,3.448043 -3.995264,3.574191 -0.462585,0 -0.546271,-2.480794 -0.546271,-2.901317 0,-0.883093 0.714799,-4.962607 1.766119,-4.962607 z m 66.016919,0 h 0.0847 c 0.29436,0.29436 2.69078,4.121522 2.69078,4.289733 -0.4626,0.546685 -3.53198,3.448043 -3.99455,3.574191 -0.4626,0 -0.54698,-2.480794 -0.54698,-2.901317 0,-0.883093 0.71479,-4.962607 1.76611,-4.962607 z M 51.935244,88.940631 c 0,6.097613 1.850668,13.162029 9.125748,13.624609 0,1.00926 -2.481347,1.42968 -3.322397,1.42968 -4.667827,0 -6.728728,-5.719252 -6.728728,-9.588078 0,-0.883108 0.126382,-5.129787 0.925377,-5.466211 z m 76.016126,0.588239 c 0.54669,0.630783 1.55535,1.850149 2.35435,2.144509 3.11188,1.219531 10.47149,0.168803 10.47149,4.878688 0,3.532403 -3.86927,5.592803 -7.0232,5.592803 -0.84105,0 -5.46692,-0.75703 -5.46692,-1.68218 0,-0.33642 1.09388,-1.766114 1.47236,-1.766114 h 0.12594 c 1.80826,0.967206 3.74262,1.850034 5.88728,1.850034 1.72415,0 3.57491,-1.134932 3.57491,-2.985232 0,-4.583723 -11.6067,-0.841609 -11.6067,-7.654104 0,-0.210261 0.0844,-0.336355 0.21053,-0.378404 z m -36.128853,0.252503 c 0,0.883108 -0.167854,1.808389 -0.167854,2.691496 0,5.635028 4.247326,9.209221 9.630047,9.083051 h 0.67287 l 0.12594,0.12662 v 0.0839 c 0,1.64005 -1.17731,1.93398 -2.480944,1.93398 -5.508879,0 -8.957169,-4.036785 -8.957169,-9.419502 0,-0.756945 0.294071,-4.499568 1.177165,-4.499568 z m 66.017633,0 c 0,0.883108 -0.16857,1.808389 -0.16857,2.691496 0,5.635028 4.24733,9.209221 9.63005,9.083051 h 0.67287 l 0.12663,0.12662 v 0.0839 c 0,1.64005 -1.17803,1.93398 -2.48166,1.93398 -5.50888,0 -8.95717,-4.036785 -8.95717,-9.419502 h 7.1e-4 c 0,-0.756945 0.29408,-4.499568 1.17717,-4.499568 z m -29.84681,11.480077 c 1.89236,0 3.78466,1.30379 5.88728,1.30379 0.79898,0 1.59803,-0.16786 2.39702,-0.16786 0,0.71489 -2.77554,1.59754 -3.40633,1.59754 h -2.98596 c -0.50463,0 -3.32239,-0.63058 -3.32239,-1.13521 0,-0.54669 0.8837,-1.59826 1.43038,-1.59826 z m -9.80574,4.73999 c -0.33641,0 -3.23822,4.12093 -3.7008,4.58351 l -0.042,0.21053 c 0,0.67284 2.73347,1.5134 2.73347,4.37296 v 3.86868 l -0.12663,0.12663 h -0.084 -0.084 c -1.00927,-0.33643 -3.78503,-4.71012 -4.33171,-4.71012 -0.63078,0 -1.17763,0.46297 -1.64021,0.84144 -2.69137,2.35495 -3.44829,5.38236 -3.44829,8.7886 0,4.58372 2.69178,13.54069 8.4109,13.54069 4.2473,0 6.76999,-4.45754 6.76999,-8.28431 v -17.03096 c 0,-1.598 -2.64863,-6.30765 -4.45689,-6.30765 z m 0.16787,0.71484 c 2.52314,1.72415 3.82669,3.74266 3.82669,6.89659 v 15.01232 c 0,3.57447 -1.9765,8.57877 -6.18175,8.57877 -1.68211,0 -2.98575,-0.79909 -4.12117,-2.01861 0.12622,-0.12622 0.21036,-0.16787 0.29447,-0.16787 0.84106,0 1.55571,0.63091 2.52291,0.63091 4.37347,0 5.50888,-5.13038 5.50888,-8.62073 V 113.4443 c 0,-3.15394 -3.15382,-4.62585 -3.15382,-5.13048 v -0.16786 l 0.84145,-1.13521 z m -1.68219,2.27041 c 0.46259,0 0.67298,0.29458 0.96734,0.58895 2.01852,1.85031 2.18658,4.12084 2.14453,6.68605 v 6.43425 c 0,3.74268 0.42053,12.48941 -5.17245,12.48941 -4.41551,0 -6.01318,-5.13004 -6.01318,-8.7886 0,-3.28011 1.34572,-6.8964 4.4576,-8.36824 0.33643,-0.16822 0.88272,-0.42108 1.21915,-0.42108 0.16821,0 0.33688,0.0845 0.46304,0.12663 0.37847,0.37848 1.68147,1.63997 1.68147,2.10255 -4.87809,0 -6.56016,3.70039 -6.56016,8.0318 0,2.14468 0.67293,5.59281 3.40634,5.59281 2.77545,0 4.5842,-3.23761 4.5842,-5.71871 v -8.57876 c 0,0 -0.0262,-5.80428 -0.79948,-6.13979 -0.50462,-0.84105 -1.1772,-1.55623 -1.85003,-2.27113 v -0.16786 c 0.25231,-0.37847 1.05111,-1.59825 1.47163,-1.59825 z m -21.475024,0.0846 c -0.756945,0 -2.523532,0.1259 -2.565582,0.1259 l -0.42037,0.42037 -2.859364,4.71011 v 0.33644 c 1.766215,0 3.490092,-0.33644 5.298343,-0.33644 h 2.438993 c 0.294373,0.0421 1.009311,-0.0423 1.009311,0.46233 0,1.00927 -1.555693,2.6077 -2.186476,3.57491 -0.210261,0.29437 -1.303974,2.01783 -1.556285,2.39631 -0.04212,0.0421 -0.125942,0.25242 -0.125942,0.29447 4.1632,0.58873 6.434256,2.64973 6.434256,7.02319 0,0.84105 -0.967577,5.17245 -2.229158,5.17245 -0.04212,0 -0.168487,8e-5 -0.210536,-0.042 -0.336423,-0.16822 -1.933904,-0.96771 -2.312377,-1.13592 -1.26158,-0.58873 -3.995167,-1.85005 -5.424945,-1.85005 -0.210261,0 -0.294209,0.0421 -0.420371,0.29447 -0.378473,0.54668 -2.06052,3.27993 -2.438993,3.86867 -0.0841,0.12622 -0.29447,0.54698 -0.29447,0.54698 l 0.167868,0.16785 3.700793,0.96735 c 0.04212,0.0421 0.252435,0.1258 0.294484,0.16786 0.168198,0.0421 1.429407,0.50493 1.555569,0.54698 0.462571,0.21026 2.439543,1.09352 2.860065,1.30378 0.462572,-0.16821 0.967358,-0.54709 1.303782,-0.84145 1.976462,-1.93441 3.489979,-3.78439 5.003859,-6.01318 0,-0.042 0.12649,-0.12649 0.16858,-0.16857 1.34568,-2.35493 2.56488,-4.96177 2.56488,-7.77929 0,-2.01852 -0.84125,-3.61631 -2.31309,-4.91994 -0.46257,-0.46257 -3.44829,-1.68262 -3.44829,-1.80878 l 0.04198,-0.084 c 0.04212,-0.0841 0.25242,-0.50492 0.29447,-0.54697 l 3.99526,-6.13908 0.29447,-0.58894 c -2.77545,0.0421 -5.299082,-0.1259 -8.032504,-0.1259 z m -1.976641,0.54627 h 1.429668 c 2.691358,0 5.298466,0.21062 7.989837,0.16857 0.042,0 0.12649,0.0838 0.16857,0.1259 v 0.0839 0.042 c -0.12622,0.21027 -0.7152,1.13557 -0.88341,1.30378 -0.0421,0.0421 -0.21045,0.25242 -0.2525,0.29447 -0.29438,0 -1.59765,0.1259 -1.892022,0.1259 h -0.125942 c -1.513891,0 -3.028277,-0.29447 -4.584218,-0.29447 -0.967206,0 -1.89206,0.16858 -2.901316,0.16858 -0.210262,0 -0.252504,-0.16814 -0.252504,-0.37841 v -0.21053 l 0.883411,-1.26111 z m 1.850038,2.31309 h 0.126631 c 1.892363,0 3.742512,0.37866 5.592816,0.2525 0.25232,0 0.29447,0.12554 0.29447,0.29376 v 0.16858 l -2.565599,3.99455 c 0,0 -0.04198,0.0845 -0.04198,0.12663 0,0.12622 3.71e-4,0.25242 0.168583,0.29447 3.364186,0.88311 5.760666,2.60694 5.760666,6.34962 0,1.64005 -0.50459,3.1122 -1.05128,4.66814 0,0.0421 -0.0838,0.12594 -0.12594,0.12594 0,0 -0.0418,0.042 -0.084,0.042 l -0.042,-0.042 c -0.0421,0 -0.16857,-0.0838 -0.16857,-0.12594 v -0.042 c 0,-0.799 0.16857,-1.55605 0.16857,-2.35505 0,-1.93441 -0.50488,-3.23819 -1.59825,-4.75208 -0.799,-1.13541 -2.817535,-2.01872 -4.121165,-2.31308 -0.336423,-0.0421 -0.756808,0.0842 -0.756808,-0.42037 v -0.12594 c 0.378473,-0.54669 1.975954,-3.02823 2.312377,-3.57491 0.04212,-0.0421 0.12663,-0.25242 0.12663,-0.29447 v -0.0839 -0.042 c -0.504635,-0.0841 -3.028222,-0.29447 -3.574907,-0.29447 -0.04212,0 -0.588513,-0.042 -0.798774,-0.042 -1.429778,0 -2.859336,0.21054 -4.247065,0.21054 0,-0.63079 0.546381,-1.5979 1.177178,-1.76611 0.546671,-0.042 2.943656,-0.21046 3.448291,-0.25251 z m 17.480467,3.11185 c 0.29437,0 1.34574,1.55568 1.34574,1.85006 0,0.42052 -2.1023,1.38772 -2.56488,1.72413 -1.72415,1.5139 -2.60786,3.70065 -3.15453,5.84532 h -0.084 -0.042 l -0.16787,-0.12594 c 0,-3.40626 0.63041,-6.22383 3.27972,-8.57877 0.33642,-0.33642 0.88308,-0.71484 1.38771,-0.71484 z m -15.966149,3.99457 c 3.784729,0 6.055149,3.57489 6.055149,7.02319 0,3.57447 -1.59792,6.22394 -3.826706,8.87325 -0.126217,0.12622 -0.672709,0.8827 -1.093231,0.8827 h -0.08396 c -1.051319,-0.37848 -2.27118,-1.30362 -3.280436,-1.72416 -0.672833,-0.29436 -3.742802,-1.47182 -4.415634,-1.72413 -0.168212,-0.042 -0.167868,-0.16831 -0.167868,-0.29447 0,-0.46259 0.462627,-1.30307 1.009311,-1.30307 0.798995,0 2.186779,0.50448 2.733463,0.75679 0.33641,0.12622 2.733491,1.21916 3.406323,1.55559 0.798995,0.37847 0.924703,0.75679 1.597536,0.75679 0.841058,0 2.060862,-3.06921 2.271122,-3.74204 0.25231,-0.75695 0.16787,-1.34615 0.16787,-2.1872 0,-3.06983 -1.261166,-5.67716 -4.330998,-6.85462 -0.168211,-0.0421 -1.429681,-0.0841 -1.429681,-0.67288 0,-0.50463 0.504235,-1.0087 0.882708,-1.30306 0.0841,0 0.420908,-0.0427 0.505006,-0.0427 z m 19.330519,1.38771 c 0.33641,0 1.26181,-0.0416 1.26181,0.46304 v 7.44285 c 0,1.97648 -1.51408,4.58422 -3.70081,4.58422 -2.64931,0 -3.02793,-2.98606 -3.02793,-5.00458 v -1.30378 c 0,-3.06983 2.31298,-6.18175 5.46693,-6.18175 z m -26.43765,12.65798 c 1.934414,0 5.803171,1.89259 7.611422,2.98595 0,0.0421 0.12663,0.1258 0.12663,0.16787 v 0.0427 0.084 c 0,0.0841 -0.12663,0.25242 -0.12663,0.29447 -0.252311,0.25231 -0.840645,0.84072 -0.882695,0.84072 h -0.421073 c -2.481097,-1.09335 -4.583185,-1.97658 -7.148395,-2.69148 l -0.29447,-0.29447 v -0.084 c 0,-0.54668 0.546478,-1.34575 1.135211,-1.34575 z"
       sodipodi:nodetypes="cssssccscsscccccssccssccsccsccccssssccscccsscsscsscccccssssssccccccscscscssccccsssssscscccccccscccscscccsccccccsccccscsccccscccssccssscssccscsscsccscsccssscsccscccssscsssscsccscssccscscssccsccssccscscscssccccscssscsscccccssccssssscsscscssscscsscsscssccsscsscccscsccccsccccccssscccsssccsssccssscssccccsscssssccscsccccccsscscscsscscscsccccccsscsscscscsccccccscssscccscsscsscsscscssccscssssccsssssscccsscssscccscsscsscsscscssccscsscccsccssscccsscscscscccscsccsscscssccscscccsssscccscscccssscssccsscscssscccccscsccccsccscsscsscsscsscssssssssscssccssccscsscsscccsccsssscccsccsssscccsccscsccccccscsscsccccccssscccccsssccccsssssssscsscccsssccccscccccscsssccsssssssccccsssssscccssccsssscsscssccsccccscsssssscssscssssscccsccssccsccsssccscccccccccscccssccscccccccccccsccscccsscsccccscsssssccccscsccscsccccsssccsccsccssccscssccccccsssscscscssccscscscsssssssssscscscscccsssccssc"
       inkscape:label="Lines" /></g></svg>

